<?xml version="1.0" encoding="utf-8"?>
<!-- Generator: Adobe Illustrator 22.0.1, SVG Export Plug-In . SVG Version: 6.00 Build 0)  -->
<svg version="1.1" xmlns="http://www.w3.org/2000/svg" xmlns:xlink="http://www.w3.org/1999/xlink" x="0px" y="0px"
	viewBox="0 0 80.6 47.7" enable-background="new 0 0 80.6 47.7" xml:space="preserve">
	<path d="M58.2,0c-2.1-0.3-0.6,2.8,1,3l11.8,1.9c-1.1,0.3-2.4,0.6-4,1.1c-2,0.6-4.4,1.3-7,2.3c-2.7,0.9-5.7,2.1-8.9,3.6
	c-0.9,0.4-1.8,0.9-2.7,1.4c-0.7-1.2-1.6-2.4-2.5-3.5c-0.8-0.9-1.7-1.9-3.2-2.5C42,6.9,41,6.9,40.2,7.1c-0.8,0.3-1.5,0.8-1.9,1.3
	c-1,1-1.6,2.2-2.2,3.3c-0.6,1.1-1.1,2.3-1.5,3.5c-0.1,0.3-0.2,0.6-0.4,0.9c-0.5-1.1-1-2.1-1.7-3.2c-0.6-0.9-1.3-1.7-2.3-2.4
	c-0.5-0.3-1.1-0.7-1.8-0.8c-0.4,0-0.7-0.1-1.1,0c-0.4,0.1-0.8,0.1-1,0.3c-1.1,0.5-2.1,1.2-2.8,2.1c-0.7,0.9-1.2,1.8-1.6,2.7
	c-0.8,1.9-1.2,3.9-1.3,5.9c-0.1,2,0.1,4.1,0.9,6.1c0.4,1,1,2,2,2.8c1,0.8,2.4,1.3,3.6,1.1c0.6-0.1,1.2-0.2,1.8-0.5
	c0.6-0.3,1.1-0.6,1.5-1c0.9-0.8,1.5-1.6,2-2.5c0.5-0.8,0.9-1.6,1.3-2.4c0.3,1.7,0.4,3.5,0.4,5.2c0,2.4-0.3,4.8-1.1,6.9
	c-0.7,2.1-1.8,4.1-3.5,5.5C28,43.5,26,44.4,24,44.7c-2,0.4-4.1,0.1-5.9-0.6c-1.8-0.7-3.5-1.9-5-3.3c-2.9-2.7-5-6.1-6.7-9.3
	c-1.7-3.2-3-6.3-4.1-9.2C1.5,20.1,1,19,0.6,18.7C0.3,18.4,0,18.9,0,20c-0.1,2.1,0.7,6.3,2.3,9.8c1.6,3.4,3.5,6.8,5.9,9.8
	c1.2,1.5,2.5,3,4.1,4.2c1.5,1.3,3.3,2.4,5.2,3c1.9,0.7,4.1,0.9,6.1,0.7c2-0.3,4-0.9,5.8-2c1.8-1.1,3.3-2.6,4.4-4.3
	c1.1-1.7,1.8-3.6,2.3-5.6c0.9-3.9,0.8-7.8,0.3-11.7c-0.2-1.4-0.5-2.7-0.9-4.1l1.4-3.6c0.7-1.7,1.4-3.4,2.2-4.8
	c0.4-0.7,0.9-1.4,1.4-1.7c0.5-0.3,0.8-0.4,1.3-0.2c0.5,0.2,1.2,0.7,1.7,1.3c0.6,0.6,1.1,1.3,1.6,2c0.4,0.5,0.7,1.1,1.1,1.6
	c0,0,0,0,0,0c-0.8,0.6-1.6,1.2-2.3,2.1c-0.3,0.5-0.7,1-0.8,1.8c-0.1,0.4,0,0.8,0.1,1.1c0.1,0.3,0.2,0.5,0.3,0.8
	c0.5,1,1.2,2.1,2.3,2.7c0.5,0.3,1.2,0.6,1.9,0.7c0.7,0.1,1.6-0.2,2.2-0.8c0.6-0.6,0.9-1.4,1-2.1c0.1-0.7,0-1.3-0.1-1.9
	c-0.2-1.2-0.7-2.3-1.2-3.4c-0.1-0.2-0.2-0.3-0.2-0.5c0.6-0.3,1.2-0.7,1.8-1c3.2-1.6,6.7-3,10.1-4.3c3.5-1.3,7-2.4,10.5-3.5
	c1.2-0.4,2.1-0.7,2.6-0.9L62.4,17.2c-0.9,0.8,0,1.3,0.7,1.5c0.4,0.1,2.4-1.5,5.3-3.9c1.4-1.2,3.1-2.7,4.8-4.2
	C74,9.7,75,8.9,75.9,8.1c1.5-1.4,3.1-2.9,4.7-4.4C76,2.9,71.2,2.2,67,1.4C63.5,0.9,60.5,0.4,58.2,0z M31.8,22.2
	c-0.5,1.1-1,2.2-1.6,3.2c-0.6,1-1.3,1.9-2.1,2.4c-0.2,0.2-0.4,0.2-0.6,0.3c-0.2,0-0.5,0.1-0.7,0.1c-0.5,0.1-0.8-0.1-1.2-0.2
	c-0.7-0.4-1.3-1.3-1.7-2.3c-0.7-2.1-0.8-4.7-0.3-7c0.2-1.2,0.6-2.3,1.1-3.3c0.5-1,1.2-1.9,2-2.4c0.2-0.1,0.4-0.2,0.6-0.3
	c0.1-0.1,0.2,0,0.2-0.1c0.1,0,0.1-0.1,0.2,0c0.3,0,0.6,0.2,1,0.4c0.8,0.6,1.5,1.6,2,2.6c0.8,1.4,1.4,2.9,1.8,4.5
	C32.4,20.8,32.1,21.5,31.8,22.2z M48.6,19.8c0.1,0.4,0.1,0.7,0,1c0,0.3-0.1,0.5-0.2,0.5c-0.1,0.1-0.1,0.1-0.3,0.1
	c-0.2,0-0.4,0-0.7-0.1c-0.5-0.2-1-0.7-1.4-1.3c-0.2-0.3-0.3-0.6-0.5-1c-0.1-0.1,0-0.1,0-0.2c0-0.1,0-0.1,0-0.2
	c0.1-0.4,0.7-1,1.3-1.5c0.2-0.2,0.4-0.3,0.6-0.4c0.1,0.3,0.3,0.6,0.4,0.9C48.2,18.3,48.5,19.1,48.6,19.8z" />
</svg>