<?xml version="1.0" encoding="utf-8"?>
<!-- Generator: Adobe Illustrator 22.0.1, SVG Export Plug-In . SVG Version: 6.00 Build 0)  -->
<svg version="1.1" xmlns="http://www.w3.org/2000/svg" xmlns:xlink="http://www.w3.org/1999/xlink" x="0px" y="0px"
	viewBox="0 0 62 67.8" enable-background="new 0 0 62 67.8" xml:space="preserve">
	<path d="M61.1,30.7c0.3-0.3,0.5-0.7,0.7-1.1c0.1-0.4,0.2-0.8,0.3-1.1c0.1-0.7,0-1.4-0.1-2c-0.2-1.2-0.7-2.3-1.1-3.4
	c-1.9-4.2-5.5-7.7-7.4-9.1c-1-0.7-1.6-0.9-1.5-0.4c0.1,0.5,0.8,1.7,2.4,4c1,1.4,2,3,2.9,4.7c0.5,0.8,0.9,1.7,1.3,2.6
	c0.4,0.9,0.6,1.8,0.7,2.6c0.1,0.4,0,0.8-0.1,1c-0.1,0.2-0.2,0.4-0.4,0.5c-0.5,0.3-1.4,0.4-2.4,0.3c-1.5-0.2-3-0.5-4.6-1
	c-0.2-1-0.4-2-0.7-3c-1.1-4.3-2.6-8.4-4.6-12.4c-1-2-2.2-3.9-3.5-5.7c-1.3-1.8-2.9-3.5-4.8-4.9c-0.9-0.7-2-1.3-3.2-1.7
	C33.8,0.3,32.6,0,31.3,0c-1.3,0-2.9,0.5-3.9,1.6c-1,1.1-1.4,2.5-1.5,3.8c-0.1,2.6,0.6,4.8,1.5,6.9c1,2.1,2.2,4,3.6,5.7
	c2.8,3.5,6.3,6.4,10.2,8.6c1.9,1.2,3.9,2.1,6,3c0.7,0.3,1.4,0.5,2.1,0.8c0.4,2.5,0.6,5.1,0.5,7.6c-0.1,2.9-0.6,5.7-1.9,8
	c-0.6,1.2-1.5,2.1-2.6,2.7c-1.1,0.6-2.4,1-3.6,1.1c-2.6,0.1-5.2-0.7-7.6-2c-1.2-0.7-2.3-1.4-3.4-2.3c-0.6-0.5-1.2-1-1.8-1.6
	c1.5-3.2,2.3-6.7,1.8-10.3c-0.4-2.3-1.2-4.7-3.2-6.6c-0.5-0.5-1.1-0.8-1.8-1.1c-0.7-0.3-1.4-0.4-2.2-0.4c-0.8,0-1.5,0.3-2.1,0.7
	c-0.3,0.2-0.6,0.3-0.9,0.6c-0.3,0.3-0.6,0.5-0.8,0.9c-0.9,1.3-1,2.8-0.9,4c0.1,1.3,0.4,2.4,0.9,3.5c0.8,2.2,2,4.1,3.3,6
	c0.9,1.2,1.8,2.4,2.9,3.4c-0.4,0.6-0.7,1.2-1.2,1.7c-1.1,1.6-2.4,2.9-3.8,4.1c-1.3,1.2-2.7,2.2-4,3.2c-2.6,2-4.9,3.7-6.8,5.2
	c-2.6,2-4.4,3.5-5.5,4.4c0.4-1,0.8-1.9,1.1-2.9c0.8-2,1.5-3.9,2.1-5.5c1.2-3.2,1.8-5.5,1.6-5.8c-0.4-0.6-1.2-1.1-1.6-0.1L0,67.8
	l19.2-2c1.5-0.2,2.9-3.1,1.1-2.9c-2.1,0.2-4.9,0.5-8,0.8c-1.6,0.2-3.2,0.4-4.9,0.5c-0.4,0-0.9,0.1-1.3,0.1c0.4-0.3,0.8-0.5,1.2-0.9
	l10.4-7.6l2.6-1.9c0.9-0.7,1.8-1.3,2.6-2.1c1.7-1.5,3.2-3.2,4.5-5.1c0.1-0.2,0.2-0.4,0.4-0.6c1.6,1.5,3.4,2.8,5.4,3.9
	c2,1.1,4.2,2,6.6,2.2c1.2,0.2,2.4,0.1,3.6-0.1c0.6-0.2,1.2-0.2,1.8-0.5l0.9-0.3c0.3-0.1,0.6-0.3,0.8-0.5c1.1-0.6,2-1.6,2.8-2.5
	c0.7-1,1.3-2.1,1.7-3.2c0.8-2.2,1.1-4.5,1.2-6.7c0.1-2.4,0-4.8-0.3-7.1c0.5,0.1,0.9,0.2,1.4,0.4c0.6,0.1,1.1,0.3,1.7,0.3
	c0.3,0,0.6,0.1,0.9,0.1l0.9,0c0.3,0,0.6,0,1-0.1c0.3,0,0.7-0.1,1-0.2c0.4-0.1,0.7-0.2,1.1-0.4c0.2-0.1,0.4-0.2,0.5-0.3
	C60.8,31.1,60.9,30.9,61.1,30.7z M27.3,42.2c-1.6-1.8-3-3.7-4.1-5.7c-0.6-1.1-1.1-2.3-1.4-3.5c-0.3-1.2-0.4-2.4-0.1-3.2
	c0.1-0.5,0.4-0.8,0.7-1.1c0.4-0.3,0.8-0.5,1.3-0.6c0.4-0.1,0.9,0,1.3,0.1c0.4,0.2,0.8,0.4,1.2,0.8c1.5,1.4,2.2,3.7,2.4,5.8
	C28.7,37.4,28.2,39.9,27.3,42.2z M48.7,27.3c-4.1-1.6-8.1-3.9-11.7-7c-1.9-1.7-3.7-3.6-5.2-5.8c-1.5-2.2-2.7-4.6-3.1-7.1
	c-0.2-1.2-0.1-2.5,0.3-3.3c0.2-0.4,0.5-0.7,0.9-0.9C30.2,3,30.5,3,30.7,2.9c0.3,0,0.5-0.1,0.8-0.1c1.1,0,2.5,0.4,3.6,0.9
	c1.1,0.6,2.2,1.4,3.2,2.4c3.9,3.9,6.6,9.4,8.6,14.9C47.6,23,48.2,25.1,48.7,27.3z" />
</svg>