<svg viewBox="0 0 1080 270" xmlns="http://www.w3.org/2000/svg" xmlns:xlink="http://www.w3.org/1999/xlink" version="1.1">
    <g>
        <g transform="translate(189 228)">
            <path
                d="M72.8 -73.6C90.8 -54.8 99.4 -27.4 98.4 -1C97.5 25.4 86.9 50.9 68.9 68.5C50.9 86.2 25.4 96.1 -0.4 96.6C-26.3 97 -52.6 88 -69 70.3C-85.4 52.6 -91.7 26.3 -93.5 -1.8C-95.3 -29.8 -92.4 -59.7 -76 -78.4C-59.7 -97.2 -29.8 -104.9 -1.2 -103.7C27.4 -102.5 54.8 -92.4 72.8 -73.6Z"
                stroke="#232528" fill="none" stroke-width="20"></path>
        </g>
        <g transform="translate(1066 38)">
            <path
                d="M51.1 -50.7C62.8 -39.4 66.4 -19.7 66 -0.4C65.6 18.9 61.1 37.7 49.4 51.4C37.7 65.1 18.9 73.6 0.2 73.4C-18.5 73.2 -37 64.4 -51.1 50.7C-65.3 37 -75 18.5 -74.6 0.4C-74.2 -17.8 -63.8 -35.5 -49.7 -46.8C-35.5 -58.1 -17.8 -62.9 1 -63.9C19.7 -64.9 39.4 -62 51.1 -50.7Z"
                stroke="#232528" fill="none" stroke-width="20"></path>
        </g>
    </g>
</svg>