<?xml version="1.0" encoding="utf-8"?>
<!-- Generator: Adobe Illustrator 22.0.1, SVG Export Plug-In . SVG Version: 6.00 Build 0)  -->
<svg version="1.1" xmlns="http://www.w3.org/2000/svg" xmlns:xlink="http://www.w3.org/1999/xlink" x="0px" y="0px"
	 viewBox="0 0 216 216" style="enable-background:new 0 0 216 216;" xml:space="preserve">
<g>
	<path class="p-b" d="M215.9,213.1c-0.3,1.7-1.9,2.9-3.7,2.9H73.6c-1.9,0-3.5-1.6-3.5-3.5s1.6-3.5,3.5-3.5h138.8
		C214.5,209,216.2,210.9,215.9,213.1z M216,181.1v9c0,6-4.7,10.9-10.4,10.9H80.3c-5.8,0-10.3-4.9-10.3-10.8V183
		c0-40.4,30.3-73.7,69-75.6V100h-2.4c-1.9,0-3.5-1.6-3.5-3.5s1.6-3.5,3.5-3.5h13.9c1.9,0,3.5,1.6,3.5,3.5s-1.6,3.5-3.5,3.5H147v7.2
		C185.7,109,216.1,141.6,216,181.1z M200.2,168.2C193.5,141,170,122,143.1,122c-1.9,0-3.5,1.6-3.5,3.6s1.6,3.6,3.5,3.6
		c23.7,0,44.5,16.8,50.4,40.8c0.5,1.9,2.4,3,4.3,2.5C199.5,172,200.6,170.1,200.2,168.2L200.2,168.2z"/>
	<path class="s-p" d="M76.5,104.1c12.7-6.8,20.7-20.5,20.7-35.4c0-1.7-3.5-33.7-3.6-34.1c8.8-4,12.9-14.6,9-23.8
		C99.9,4.3,93.6,0,86.7,0H31.3C21.7,0,14,8.1,14,18.2c0,7.2,4.1,13.7,10.5,16.6c0,0.4-3.6,32.4-3.6,34.1c0,14.9,8,28.6,20.7,35.4
		C16.9,112.1,0,135.9,0,162.9v7.2c0,6,4.7,10.9,10.4,10.9h97.2c5.8,0,10.4-4.9,10.4-10.9v-7.2C118.1,135.8,101.2,112.1,76.5,104.1z
		 M110.1,159H93v-3.6c0-2-1.6-3.6-3.5-3.6s-3.5,1.6-3.5,3.6V174H48v-35.1c0-12,4.2-23.6,11.8-32.4C86.6,107.4,108.4,130,110.1,159z
		 M20.3,18c0-6,4.7-11,10.5-11h55.8c5.8,0.1,10.5,5,10.4,11.1c0,5-3.3,9.4-8,10.6c-1.7,0.4-2.9,2.1-2.7,3.9L88.9,58H28.2l2.7-25.4
		c0.2-1.8-1-3.5-2.7-3.9C23.7,27.4,20.3,23,20.3,18z M27.7,65h62.1c2,17.9-10.3,34.1-27.5,36.1S29.7,90.3,27.7,72.4
		C27.4,70,27.4,67.5,27.7,65z M50.2,107.2c-6,9.3-9.2,20.4-9.2,31.8V174H31v-18.1c0-2-1.6-3.6-3.5-3.6s-3.5,1.6-3.5,3.6v3.1H7.3
		C8.8,132.7,26.6,111.2,50.2,107.2z M7,170.5V167h17v7H10.3C8.5,174,7,172.4,7,170.5z M107.6,174H94v-7h17v3.5
		C111,172.4,109.4,174,107.6,174z M62.2,134.1c0,2-1.6,3.6-3.5,3.6s-3.5-1.6-3.5-3.6s1.6-3.6,3.5-3.6
		C60.6,130.5,62.2,132.1,62.2,134.1z M62.2,148.6c0,2-1.6,3.6-3.5,3.6s-3.5-1.6-3.5-3.6s1.6-3.6,3.5-3.6
		C60.6,145,62.2,146.6,62.2,148.6z M62.2,163.1c0,2-1.6,3.6-3.5,3.6s-3.5-1.6-3.5-3.6s1.6-3.6,3.5-3.6
		C60.6,159.5,62.2,161.1,62.2,163.1z"/>
</g>
</svg>
