<?xml version="1.0" encoding="utf-8"?>
<!-- Generator: Adobe Illustrator 22.0.1, SVG Export Plug-In . SVG Version: 6.00 Build 0)  -->
<svg version="1.1" xmlns="http://www.w3.org/2000/svg" xmlns:xlink="http://www.w3.org/1999/xlink" x="0px" y="0px"
	 viewBox="0 0 288 216.4" enable-background="new 0 0 288 216.4" xml:space="preserve">
<g>
	<g>
		<g>
			<g>
				<path fill="#01021F" d="M147.6,61.6c-3.4-5.1-10.6-6-15.2-1.9c-3.8,3.4-4.5,9.1-1.5,13.2l9.4,13.3l15.9-11.8L147.6,61.6z"/>
				<path fill="#01021F" d="M210.2,85.6l-4.1-5.1c-1-1.1-2.6-1.4-4-0.8l-11.3,5.2l0,0l-30.1-4l-4.5-6.5l-14.2,10.5l5.7,7.6
					c1.8,2.3,4.4,3.5,7.1,3.4c0,0,0.1,0,0.1,0l34.4-1.4l0,0c3.9,1.4,6.8,0,6.8,0l6-2.1l1.4,1.3c0.9,0.9,2.3,1,3.3,0.3l1.9-1.3
					c0.6-0.4,1.1-1,1.4-1.7l0.6-1.5C211.4,88.3,211.2,86.7,210.2,85.6z"/>
			</g>
			<path fill="#01021F" d="M176.8,176.2l0,2.2l37.7-0.4l0-2.2l-1.4,0c0,0,0-5.7-7.1-6.7c-7.1-1-8.8-0.5-10.4-2.6
				c-0.9-1.2-1.2-2.8-1.2-3.9c0-0.7-0.6-1.2-1.2-1.2l-0.2,0l0-5.6h3.8h2.6v-7.6h-2.6v-31.9v0v-0.2h0c-0.1-5.9-5-10.7-11-10.7h-52
				c0,0-7.7,21.8,13.3,21.8h28.1v21H173v7.6h2.2h3.7l0.2,5.8c-0.6,0.1-1.1,0.6-1.1,1.2l0.2,13.4"/>
		</g>
		<g>
			<g>
				<g>
					<g>
						<path fill="#7AABDD" d="M206.9,62.3V72c0,0,2.1-0.3,2.1-5.4C209,61.6,206.9,62.3,206.9,62.3z"/>
						<path fill="#7AABDD" d="M214.2,80.9l-1.7-11.8c-0.1-0.7-0.6-1.2-1.3-1.3l-3.3-0.3l0.1-0.9l3.3,0.3c1.1,0.1,2,0.9,2.2,2
							l1.7,11.8L214.2,80.9z"/>
					</g>
					<g>
						<path fill="none" stroke="#FAFAFA" stroke-width="1.5321" stroke-miterlimit="10" d="M215.8,85l-5.6-19.9
							c-0.5-1.7-2-2.9-3.8-2.9h-3.1"/>
						<ellipse fill="#FAFAFA" cx="202.2" cy="61.8" rx="2.4" ry="7.2"/>
					</g>
				</g>
				<g>
					<ellipse fill="#007DFF" cx="219.1" cy="88.6" rx="7.7" ry="7.6"/>
					<path fill="#007DFF" d="M216.7,98.3H213c-2.5,0-4.6-2.1-4.6-4.6V83.6c0-2.5,2.1-4.6,4.6-4.6h3.7c2.5,0,4.6,2.1,4.6,4.6v10.1
						C221.3,96.2,219.2,98.3,216.7,98.3z"/>
				</g>
			</g>
			<g>
				<rect x="52.2" y="166.1" fill="#01021F" width="10.9" height="7.5"/>
				<g>
					<g>
						<ellipse fill="#01021F" cx="248.1" cy="185.7" rx="30.4" ry="30.2"/>
						<ellipse fill="#7AABDD" cx="248.1" cy="185.7" rx="19.3" ry="19.2"/>
						<path fill="#FFFFFF" d="M242.5,185.7c0,3.1,2.5,5.6,5.6,5.6s5.6-2.5,5.6-5.6c0-3.1-2.5-5.6-5.6-5.6S242.5,182.6,242.5,185.7z"
							/>
					</g>
					<g>
						<path fill="#007DFF" d="M248.2,143.9c22,0,39.8,17.7,39.8,39.5h-79.6C208.4,161.5,226.2,143.9,248.2,143.9z"/>
					</g>
				</g>
				<g>
					<g>
						<g>
							<g>
								<rect x="53.8" y="83.3" fill="#F4BB54" width="39.9" height="11.1"/>
								<g>
									<rect x="49.8" y="94.3" fill="#FFFFFF" width="48" height="35"/>
								</g>
							</g>
							<path  class="p-b" d="M83.8,119H62.5c-0.3,0-0.5-0.2-0.5-0.5s0.2-0.5,0.5-0.5h21.3c0.3,0,0.5,0.2,0.5,0.5
								C84.3,118.8,84.1,119,83.8,119z M84.3,114.5v1c0,0.8-0.7,1.5-1.6,1.5H63.6c-0.9,0-1.6-0.7-1.6-1.5v-1
								c0-5.6,4.7-10.3,10.6-10.6v-1h-0.5c-0.3,0-0.5-0.2-0.5-0.5c0-0.3,0.2-0.5,0.5-0.5h2.1c0.3,0,0.5,0.2,0.5,0.5
								c0,0.3-0.2,0.5-0.5,0.5h-0.5v1C79.7,104.2,84.3,108.8,84.3,114.5z M81.9,112.3c-1-3.8-4.6-6.4-8.8-6.4
								c-0.3,0-0.5,0.2-0.5,0.5c0,0.3,0.2,0.5,0.5,0.5c3.6,0,6.8,2.3,7.7,5.7c0.1,0.3,0.4,0.4,0.7,0.3
								C81.8,112.9,82,112.6,81.9,112.3L81.9,112.3z"/>
							<line fill="none" stroke="#01021F" stroke-width="1.1344" stroke-miterlimit="10" x1="71" y1="83.3" x2="69.3" y2="130.3"/>
							
								<line fill="none" stroke="#01021F" stroke-width="1.1344" stroke-miterlimit="10" x1="74.7" y1="83.3" x2="76.4" y2="130.3"/>
						</g>
						<g>
							
								<line fill="none" stroke="#01021F" stroke-width="3.4182" stroke-miterlimit="10" x1="42.7" y1="130.3" x2="103.6" y2="130.3"/>
							
								<line fill="none" stroke="#01021F" stroke-width="3.4182" stroke-miterlimit="10" x1="63.2" y1="130.3" x2="76.7" y2="140.1"/>
						</g>
					</g>
					<path  class="p-b" d="M211.4,82l-15.6,8.9l13.8,30.9c0,0,9.5,16.7,3.3,31.3c-6.9,16.5-14.9,25.1-14.9,25.1h-31
						c-6.3,0-12.2-3.1-15.8-8.3c-3.7-5.4-6.9-12.9-4.3-20.6c4.6-13.7,18.2-20,18.2-20H90.5c0,0-13.1,3.8-32.4,36.8h8.6l56,17.3h74.6
						c0,0,8.6,2.9,20.4-16l19.2-18.1v0c0-8.9-2.8-17.5-8.1-24.7l-17.4-23.7V82z"/>
					<path fill="#01021F" d="M153.5,130.7c1.6,0,3.1,0.6,4.2,1.7c2.7,2.6,8.1,6.8,12,3.3c5.5-4.8,0.6-13-7.8-12.3
						c-8.3,0.7-35.6,0.9-45.7-4.6c-10.1-5.4-13.9-5.7-17.1-2.3c-3.2,3.4,1.9,12.9,11.2,14.2H153.5z"/>
				</g>
				<g>
					<g>
						<ellipse fill="#01021F" cx="97.6" cy="185.7" rx="30.4" ry="30.2"/>
						<ellipse fill="#7AABDD" cx="97.6" cy="185.7" rx="19.3" ry="19.2"/>
						<path fill="#FFFFFF" d="M91.9,185.7c0,3.1,2.5,5.6,5.6,5.6c3.1,0,5.6-2.5,5.6-5.6c0-3.1-2.5-5.6-5.6-5.6
							C94.5,180.1,91.9,182.6,91.9,185.7z"/>
					</g>
					<g>
						<path fill="#007DFF" d="M55.9,179.5c0,0,4.4-28.6,36.2-40.8c31.8-12.2,43.9,5.1,45.6,8.3c2.8,5.4,6.6,21.7-4,32.5H55.9z"/>
						<g>
							<path fill="#0F467F" d="M79.3,170.7h35.3c0.6,0,1.2-0.5,1.2-1.2l0,0c0-0.6-0.5-1.2-1.2-1.2H79.3c-0.6,0-1.2,0.5-1.2,1.2l0,0
								C78.1,170.2,78.6,170.7,79.3,170.7z"/>
							<path fill="#0F467F" d="M83.2,165.1h28.3c0.6,0,1.2-0.5,1.2-1.2l0,0c0-0.6-0.5-1.2-1.2-1.2H83.2c-0.6,0-1.2,0.5-1.2,1.2l0,0
								C82.1,164.6,82.6,165.1,83.2,165.1z"/>
							<path fill="#0F467F" d="M87.2,159.6h20.2c0.6,0,1.2-0.5,1.2-1.2l0,0c0-0.6-0.5-1.2-1.2-1.2H87.2c-0.6,0-1.2,0.5-1.2,1.2l0,0
								C86,159.1,86.5,159.6,87.2,159.6z"/>
						</g>
					</g>
				</g>
			</g>
		</g>
		<g>
			<g>
				<polygon fill="#E99395" points="149.7,39.5 142.5,58.1 129.9,55.1 138.8,37.8 				"/>
				<path fill="#D17A80" d="M140.7,37.2c0,0-0.7,8.7,4,15.5l2.3-6.1L140.7,37.2z"/>
				<path fill="#E99395" d="M155.6,29.7l1.2,12.4c0.3,3.1-1.9,5.8-5,6.1l0,0c-4.4,0.4-8.6-2.2-10.3-6.3l-4-9.4
					c-0.9-2.1,0.5-4.5,2.9-4.7l10-2.1C152.1,25.5,155.4,27.8,155.6,29.7z"/>
				<path fill="#E99395" d="M155.9,35.3l2.6,3.1c0.3,0.5-0.2,1.1-1,1.1l-3.8,0.7L155.9,35.3z"/>
				<path fill="#01021F" d="M141.7,30.1c0,0,3.8,1.4,2.5,4.4c-1.1,2.5-0.3,7,3,6c3.3-1,6.8-1.9,9.4-0.8l0.8,3.4
					c0.7,2.8-1,5.7-3.9,6.4c0,0-0.1,0-0.2,0c-5.1,1.2-13.1-1-13-9.9l-0.9-8.2L141.7,30.1z"/>
				<path fill="#01021F" d="M138.9,25.6c-0.9,0.1-7.7-0.1-7.8,7.5c0,4.8,4,10.2,4.1,10.2c0,0,2.5-0.2,3.2-3.7c0.2-0.9,0-1.6-0.3-2
					l5.4-6.9c0,0-1.5-1.1,0.8-2.5c4.2-2.4,8.9-1.5,8.9-1.5C151.9,22.4,139.7,25.4,138.9,25.6z"/>
				<g>
					<path fill="#E99395" d="M134.2,36.2c-1.2,3,1.6,5.7,4.4,4.8c1.3-0.4,2.3-1.6,2.4-2.9c0.3-2.9-2.8-5-5.6-3.3
						C134.8,35.1,134.4,35.6,134.2,36.2z"/>
					
						<path fill="none" stroke="#01021F" stroke-width="1.0231" stroke-linecap="round" stroke-linejoin="round" stroke-miterlimit="10" d="
						M138,36.1c0,0-2.5,0.3-1.2,2.8"/>
				</g>
				<g>
					<path fill="#01021F" d="M154.6,26.5l13.4-2c0.2,0,0.7,0.1,0.8,0.6c0.2,0.7-0.3,0.9-0.5,1l-12.5,2.5c-0.5,0.1-1-0.2-1.1-0.7
						c-0.1-0.5-0.6-0.8-0.1-0.9C154.6,26.8,154.5,26.5,154.6,26.5z"/>
					<path fill="#007DFF" d="M130.5,33.8l25.7-5.4c0,0-2.6-11.9-15.6-9.1C127.6,22,130.5,33.8,130.5,33.8z"/>
				</g>
				<g>
					<path d="M154.6,35.4c0,0.4-0.4,0.7-0.8,0.7c-0.4,0-0.7-0.4-0.7-0.8c0-0.4,0.4-0.7,0.8-0.7C154.3,34.7,154.6,35,154.6,35.4z"/>
					<path fill="#01021F" d="M154.4,31.9c0.2,0.6-0.8,0.9-2.1,1.2c-1.2,0.3-2.2,0.4-2.4-0.1c-0.1-0.5,0.8-0.9,2.1-1.2
						C153.3,31.5,154.2,31.3,154.4,31.9z"/>
					
						<path fill="none" stroke="#FFFFFF" stroke-width="0.7712" stroke-linecap="round" stroke-linejoin="round" stroke-miterlimit="10" d="
						M152.1,41c0,0,0.7,1.3,3.5,0.6"/>
				</g>
			</g>
			<g>
				<path  class="p-b" d="M136.5,52.8c0,0-6.4-1.8-10.2,4.7c-4.5,7.7-3.4,19.8,0.3,29.7l1.6,18.3h30.4c0,0,1.4-20.2-4.5-33.1
					C146.4,55.3,136.5,52.8,136.5,52.8z"/>
				<g>
					<g>
						<path fill="#E99395" d="M154.7,78.1l5.6,8.1c2.5,3.6,1.8,8.6-1.6,11.4h0c-3.8,3.1-9.5,2.5-12.4-1.4l-5.7-7.6L154.7,78.1z"/>
						<g>
							<path fill="#FFFFFF" d="M154.6,78.1L146,65.3c-3.4-5.1-10.6-6-15.2-1.9l0,0c-3.8,3.4-4.5,9.1-1.5,13.2l9.4,13.3L154.6,78.1z"
								/>
							
								<line fill="none" stroke="#D1D1D1" stroke-width="1.0747" stroke-miterlimit="10" x1="154.7" y1="78.1" x2="146.9" y2="66.6"/>
							<polyline fill="none" stroke="#D1D1D1" stroke-width="1.0747" stroke-miterlimit="10" points="140.5,88.6 138.7,89.9 
								127.9,73.8 							"/>
						</g>
					</g>
					<path fill="#E99395" d="M154.5,83.9l34.9,4.6l-1.4,9.7l-34.4,1.4c-5.8-0.8-9.8-5.3-7.9-10.8l0,0C147,84.6,150,83.2,154.5,83.9z
						"/>
					<g>
						<path fill="#E99395" d="M186.7,89.7l13.9-6.4c1.4-0.6,3-0.3,4,0.8l4.1,5.1c1,1.1,1.3,2.7,0.7,4l-0.6,1.5
							c-0.3,0.7-0.8,1.3-1.4,1.7l-1.9,1.3c-1,0.7-2.4,0.6-3.3-0.3l-1.4-1.3l-6,2.1c0,0-4.5,2.2-9.7-1.5L186.7,89.7z"/>
						<path fill="#01021F" d="M197,91.8l-3,1.8c-1.8,1.5-1.8,4.2-0.1,5.8l0,0c1.6,1.5,4.1,1.4,5.6-0.2l2.7-2
							c1.4-1.5,1.3-3.9-0.3-5.3l0,0C200.6,90.6,198.5,90.6,197,91.8z"/>
					</g>
				</g>
			</g>
			<g>
				<g>
					<g>
						<g>
							<polygon fill="#FFFFFF" points="173.1,149.6 187.4,150.7 187.3,164.1 173.6,164.3 							"/>
						</g>
						<g>
							<path fill="#01021F" d="M172.4,162.8l0.2,13.4l35-0.4c0,0,0-5.7-7.1-6.7c-7.1-1-8.8-0.5-10.4-2.6c-0.9-1.2-1.2-2.8-1.2-3.9
								c0-0.7-0.6-1.2-1.2-1.2l-13.9,0.2C172.9,161.6,172.4,162.1,172.4,162.8z"/>
							
								<rect x="171.3" y="176" transform="matrix(-0.9999 1.087408e-02 -1.087408e-02 -0.9999 382.1935 352.0941)" fill="#01021F" width="37.7" height="2.2"/>
							<g>
								<path fill="#DBDADB" d="M186.7,165.7c0,0.3,0.2,0.5,0.5,0.5c0.3,0,0.5-0.2,0.5-0.5c0-0.3-0.2-0.5-0.5-0.5
									C186.9,165.2,186.7,165.4,186.7,165.7z"/>
								<path fill="#DBDADB" d="M188.3,168.1c0,0.3,0.2,0.5,0.5,0.5c0.3,0,0.5-0.2,0.5-0.5c0-0.3-0.2-0.5-0.5-0.5
									C188.6,167.5,188.3,167.8,188.3,168.1z"/>
								<path fill="#DBDADB" d="M191.4,169.5c0,0.3,0.2,0.5,0.5,0.5c0.3,0,0.5-0.2,0.5-0.5c0-0.3-0.2-0.5-0.5-0.5
									C191.6,168.9,191.4,169.2,191.4,169.5z"/>
								<path fill="#DBDADB" d="M195,169.9c0,0.3,0.2,0.5,0.5,0.5c0.3,0,0.5-0.2,0.5-0.5c0-0.3-0.2-0.5-0.5-0.5
									C195.2,169.4,195,169.7,195,169.9z"/>
							</g>
							
								<line fill="none" stroke="#FFFFFF" stroke-width="0.6077" stroke-miterlimit="10" x1="172.6" y1="176.2" x2="207.5" y2="175.8"/>
						</g>
					</g>
					<g>
						<rect x="169.7" y="116.1" fill="#54578A" width="21.5" height="39.7"/>
						<rect x="167.5" y="148.2" fill="#606699" width="26.2" height="7.6"/>
					</g>
				</g>
				<g>
					<path fill="#54578A" d="M128.2,105.4c0,0-7.7,21.8,13.3,21.8h38.7c6.1,0,11-4.9,11-10.9v0c0-6-4.9-10.9-11-10.9H128.2z"/>
					
						<line fill="none" stroke="#01021F" stroke-width="1.0747" stroke-miterlimit="10" x1="169.7" y1="127.6" x2="176.7" y2="127.6"/>
				</g>
			</g>
		</g>
	</g>
	<line fill="none" stroke="#007DFF" stroke-width="1.0747" stroke-miterlimit="10" x1="0" y1="215.9" x2="247.9" y2="215.9"/>
</g>
<g>
	<g>
		<path  class="p-b" d="M31.9,40.6H14.5c-7.4,0-13.4-6-13.4-13.4V13.4C1.1,6,7.1,0,14.5,0h17.5c7.4,0,13.4,6,13.4,13.4v13.8
			C45.4,34.6,39.4,40.6,31.9,40.6z"/>
	</g>
	<g>
		<ellipse fill="#FAFAFA" cx="23.3" cy="19.6" rx="10.9" ry="10.5"/>
		
			<line fill="none" stroke="#212529" stroke-width="3.4174" stroke-linecap="round" stroke-linejoin="round" stroke-miterlimit="10" x1="23.3" y1="19.6" x2="23.3" y2="16.5"/>
		
			<line fill="none" stroke="#212529" stroke-width="3.4174" stroke-linecap="round" stroke-linejoin="round" stroke-miterlimit="10" x1="23.3" y1="20.2" x2="30.6" y2="19.6"/>
	</g>
</g>
</svg>
