<?xml version="1.0" encoding="utf-8"?>
<!-- Generator: Adobe Illustrator 22.0.1, SVG Export Plug-In . SVG Version: 6.00 Build 0)  -->
<svg version="1.1" xmlns="http://www.w3.org/2000/svg" xmlns:xlink="http://www.w3.org/1999/xlink" x="0px" y="0px"
	 viewBox="0 0 216 216.6" enable-background="new 0 0 216 216.6" xml:space="preserve">
<g>
	<g>
		<g>
			<path fill="#070707" d="M124.5,25.3c0,0-3.4,6.2,2.6,9.6l4.2-9.2L124.5,25.3z"/>
			<polygon fill="#F9A197" points="147.5,39.8 156.4,56.9 144.4,60.2 139.9,46.4 			"/>
			<polygon fill="#DD7870" points="146.2,44.6 142.5,53.7 139.9,46.6 144,44.3 			"/>
			<path fill="#F9A197" d="M137,17c0,0-12.9,5.1-12.1,14s4.1,20.1,8.7,20c4.6-0.1,13.7-3.4,14.4-10.3C148.7,33.9,144.9,14.7,137,17z
				"/>
			<path fill="#F9A197" d="M127.1,39l-1.4,4.9c-0.1,0.4,0.3,0.8,0.7,0.7l2.5-0.6L127.1,39z"/>
			<path fill="#070707" d="M139.3,36.9l-1.2-2.6c0,0-9.9-3.1-13.7-9c0,0,4.7-10.5,16.9-9.9c2.1,0.1,4.2,0.6,6.1,1.6c9.9,5.1,9.5,16.4,5.4,21.5
				c-0.6,0.8-3.3,3.3-4,3.9c-1.5,1.3-3.1-0.5-6-3c0,0-0.3-1.5-0.3-1.6L139.3,36.9z"/>
			<g>
				<path fill="#070707" d="M128.2,39c0.2,0.5,0.7,0.8,1.1,0.6c0.5-0.2,0.7-0.7,0.6-1.2c-0.2-0.5-0.7-0.8-1.1-0.6C128.3,38,128,38.5,128.2,39z"/>
			</g>
			<path fill="#070707" d="M131.3,32.9c0,0,0,1.2-1.3,0.9c-1-0.2-2.3-0.1-2.9,0c-0.3,0-0.7-0.2-0.7-0.6l0,0c-0.1-0.3,0-0.6,0.3-0.8
				c0.4-0.4,2-1.1,3.2-0.9C131.3,31.8,131.3,32.9,131.3,32.9z"/>
			<g>
				<path fill="#F9A197" d="M139.3,36.9c0.5,2.1,2.4,3.4,4.4,3c2-0.5,3.3-2.6,2.8-4.7c-0.5-2.1-2.4-3.4-4.4-3
					C140.1,32.7,138.9,34.8,139.3,36.9z"/>
				
					<path fill="none" stroke="#000000" stroke-width="0.3367" stroke-linecap="round" stroke-linejoin="round" stroke-miterlimit="10" d="
					M144,35c0,0-1.9-0.2-2.7,2.6"/>
			</g>
			
				<path fill="none" stroke="#070707" stroke-width="0.3367" stroke-linecap="round" stroke-linejoin="round" stroke-miterlimit="10" d="
				M129.9,46.1c0,0,1.4,0.1,2.3-1.4"/>
			<g>
				<path fill="#070707" d="M137.9,7.3c0,4,3.1,7.3,6.9,7.3c3.8,0,6.9-3.2,6.9-7.3c0-4-3.1-7.3-6.9-7.3C141,0,137.9,3.2,137.9,7.3z"/>
				<polygon fill="#007DFF" points="145.6,16.4 140.7,15.5 141.1,13.2 146,14.1 				"/>
			</g>
		</g>
		<g>
			<g>
				<polygon fill="#F9A197" points="146.7,98.1 150.4,109.8 175.4,108.4 172.2,96.5 				"/>
				<path  class="p-b" d="M176,86.6c-1.6-3.1-2.9-6.3-3.9-9.6c-2.6-8.7-9.7-27.4-22.6-23.2c-16.7,5.4-6.3,49.3-2.8,50.3
					c4.2,1.2,27.2-0.8,27.2-0.8s7.9-7.7,2.2-16.2L176,86.6z"/>
			</g>
			<g>
				<g>
					<g>
						<g>
							<path fill="#007DFF" d="M105.1,66.8l-28.3,13c-0.2,0.1-0.3,0-0.4-0.2c-0.1-0.2,0-0.3,0.1-0.4l28-13.8c0.4-0.2,0.8,0,0.9,0.4
								C105.6,66.2,105.5,66.6,105.1,66.8C105.1,66.8,105.1,66.8,105.1,66.8z"/>
							<path fill="#007DFF" d="M108.3,69.9L78.9,80.1c-0.2,0.1-0.3,0-0.4-0.2c-0.1-0.2,0-0.3,0.2-0.4l29.1-11
								c0.4-0.1,0.8,0.1,0.9,0.4C108.8,69.3,108.7,69.8,108.3,69.9C108.3,69.9,108.3,69.9,108.3,69.9z"/>
						</g>
						<path fill="#F9A197" d="M102.8,75.8c-0.3-0.2-5.7-3.3-9-5.1c-1.5-0.9-3.4-0.9-4.9-0.1l-1.3,0.6c-1.4,0.7-2.6,1.9-3.2,3.4
							l-0.4,1c-1,2.3-0.3,5,1.8,6.3l0,0c1.5,0.9,3.3,0.9,4.8,0l0,0c0,0,4.8,2.7,9.4-0.2L102.8,75.8z"/>
					</g>
					<g>
						<path  class="p-b" d="M134.5,87.1l-22.2-10.8c-2.7-1.3-5.9,0-7.1,2.8l-1.3,3.1c-1.2,2.8,0,6.1,2.7,7.4l23.2,11.1L134.5,87.1
							z"/>
						<path  class="p-b" d="M102.7,75.8c0.3-0.1,6,3.4,6,3.4l-3.9,5.8l-5.1-3.4L102.7,75.8z"/>
						
							<line  class="p-b" stroke="#000000" stroke-width="0.3641" stroke-linecap="round" stroke-linejoin="round" stroke-miterlimit="10" x1="106.1" y1="77.6" x2="103.4" y2="83.9"/>
					</g>
				</g>
				<g>
					<path  class="p-b" d="M143.5,58.7L126.3,89c-2.6,4.5-0.5,10.4,4.3,12l0,0c3.3,1.1,7-0.3,8.9-3.4l19.6-32.5L143.5,58.7z"/>
					
						<line  class="p-b" stroke="#000000" stroke-width="0.3641" stroke-linecap="round" stroke-linejoin="round" stroke-miterlimit="10" x1="142.8" y1="92.2" x2="155.9" y2="70.5"/>
				</g>
			</g>
		</g>
		<g>
			<g>
				<g>
					<polygon fill="#F9A197" points="159.4,186.4 141.5,173.2 152.3,164 171.4,181.6 					"/>
					<g>
						<g>
							<g>
								<g>
									<defs>
										<path id="XMLID_24_" d="M166.1,176.1c0,0-3.5,9.9-10.6,7.5l-9.6,29.7l30.3-30.7L166.1,176.1z"/>
									</defs>
									<use xlink:href="#XMLID_24_"  overflow="visible" fill="#070707"/>
									<clipPath id="XMLID_2_">
										<use xlink:href="#XMLID_24_"  overflow="visible"/>
									</clipPath>
									<path clip-path="url(#XMLID_2_)" fill="#FFFFFF" d="M143.7,203.6c0,0,8.4-6.2,16.3,3.8l-15.9,9.1L143.7,203.6z"/>
								</g>
								<polygon fill="#FFFFFF" points="148.4,216 178.7,185.3 176.2,182.6 146,213.3 								"/>
								<path fill="#FFFFFF" d="M158,191.1c-0.1,0-0.2,0.1-0.4,0c-2.6-0.4-4.4,0-4.4,0c-0.4,0.1-0.7-0.2-0.8-0.5
									c-0.1-0.4,0.2-0.7,0.6-0.8c0.1,0,2.1-0.4,4.9,0c0.4,0.1,0.6,0.4,0.5,0.8C158.3,190.8,158.2,191,158,191.1z"/>
								<path fill="#FFFFFF" d="M156.7,194.8c-0.1,0-0.2,0.1-0.4,0c-2.6-0.4-4.4,0-4.4,0c-0.4,0.1-0.7-0.2-0.8-0.5
									c-0.1-0.4,0.2-0.8,0.6-0.8c0.1,0,2.1-0.4,4.9,0c0.4,0.1,0.6,0.4,0.5,0.8C157,194.5,156.9,194.7,156.7,194.8z"/>
								<path fill="#FFFFFF" d="M155.4,198.5c-0.1,0-0.2,0.1-0.4,0c-2.6-0.4-4.4,0-4.4,0c-0.4,0.1-0.7-0.2-0.8-0.5
									c-0.1-0.4,0.2-0.8,0.6-0.8c0.1,0,2.1-0.4,4.9,0c0.4,0.1,0.6,0.4,0.5,0.8C155.8,198.2,155.6,198.4,155.4,198.5z"/>
							</g>
						</g>
					</g>
				</g>
				<polygon fill="#0076D9" points="126.1,134.2 162.3,170.8 149.8,184 111.7,153.2 114.6,137 				"/>
			</g>
			<g>
				<rect x="139.9" y="136.3" fill="#FFFFFF" width="50.2" height="6"/>
				<rect x="185.6" y="69.2" fill="#FFFFFF" width="4.5" height="145.7"/>
				<rect x="139.9" y="142.3" fill="#FFFFFF" width="4.5" height="72.6"/>
			</g>
			<g>
				<g>
					<polygon fill="#F9A197" points="108.6,200.7 104.6,178.1 118.4,179.5 120.3,206.1 					"/>
					<g>
						<g>
							<g>
								<g>
									<defs>
										<path id="XMLID_23_" d="M120.2,198.4c0,0-9,4.5-12.5-2.4L81.2,210l42,0.4L120.2,198.4z"/>
									</defs>
									<use xlink:href="#XMLID_23_"  overflow="visible" fill="#070707"/>
									<clipPath id="XMLID_3_">
										<use xlink:href="#XMLID_23_"  overflow="visible"/>
									</clipPath>
									<path clip-path="url(#XMLID_3_)" fill="#FFFFFF" d="M86,201.5c0,0,10.1,1.7,9.1,14.8L77.7,211L86,201.5z"/>
								</g>
								<polygon fill="#FFFFFF" points="81.1,213.8 123.1,214.2 123.1,210.5 81.2,210 								"/>
								<path fill="#FFFFFF" d="M104.5,203c-0.1,0-0.2-0.1-0.3-0.2c-1.6-2.2-3.1-3.3-3.2-3.3c-0.3-0.2-0.4-0.6-0.2-0.9
									c0.2-0.3,0.6-0.4,1-0.2c0.1,0,1.8,1.2,3.5,3.6c0.2,0.3,0.1,0.7-0.2,0.9C104.9,203.1,104.7,203.1,104.5,203z"/>
								<path fill="#FFFFFF" d="M101.1,204.7c-0.1,0-0.2-0.1-0.3-0.2c-1.6-2.2-3.1-3.3-3.2-3.3c-0.3-0.2-0.4-0.6-0.2-0.9
									c0.2-0.3,0.6-0.4,1-0.2c0.1,0,1.8,1.2,3.5,3.6c0.2,0.3,0.1,0.7-0.2,0.9C101.6,204.8,101.3,204.8,101.1,204.7z"/>
								<path fill="#FFFFFF" d="M97.7,206.4c-0.1,0-0.2-0.1-0.3-0.2c-1.6-2.2-3.1-3.3-3.2-3.3c-0.3-0.2-0.4-0.6-0.2-0.9
									c0.2-0.3,0.6-0.4,1-0.2c0.1,0,1.8,1.2,3.5,3.6c0.2,0.3,0.1,0.7-0.2,0.9C98.2,206.4,97.9,206.5,97.7,206.4z"/>
							</g>
						</g>
					</g>
				</g>
				<g>
					<path fill="#007DFF" d="M175.4,108.4c0,0,11.2,22.8-9.2,27.6c-14.2,3.4-41,4.9-56.1,5.6c-6.1,0.3-11.3-4.5-11.9-11v0
						c-0.6-6.2,3.5-11.9,9.3-13.1l41.9-8.4L175.4,108.4z"/>
					<polygon fill="#007DFF" points="98.2,130.6 103.8,191.9 122.3,191.9 120.3,130.6 					"/>
				</g>
			</g>
		</g>
	</g>
	<line fill="none" stroke="#F3CBE9" stroke-width="1.0827" stroke-miterlimit="10" x1="0" y1="215.7" x2="216" y2="215.7"/>
	<g>
		<g>
			<line fill="none" stroke="#201209" stroke-width="1.0532" stroke-miterlimit="10" x1="75.5" y1="107.4" x2="75.5" y2="215.7"/>
			<rect x="13.1" y="101.1" fill="#FFFFFF" width="124.8" height="8.8"/>
		</g>
		<g>
			<polygon fill="#007DFF" points="60.7,97.7 65.5,101.4 101.2,101.4 105.6,97.7 			"/>
			<rect x="67.8" y="94.2" fill="#201209" width="4.5" height="3.5"/>
			<rect x="74.1" y="94.2" fill="#201209" width="4.5" height="3.5"/>
			<rect x="80.5" y="94.2" fill="#201209" width="4.5" height="3.5"/>
			<rect x="87.1" y="94.2" fill="#FFFFFF" width="4.5" height="3.5"/>
			<rect x="93.6" y="94.2" fill="#FFFFFF" width="4.5" height="3.5"/>
		</g>
		<g>
			<polygon fill="#007DFF" points="56.3,88.2 44.8,90.1 44.8,101.1 56.3,101.1 			"/>
			<rect x="44.8" y="80" fill="none" stroke="#FFFFFF" stroke-miterlimit="10" width="11.6" height="21"/>
			<rect x="44.8" y="80" opacity="0.53" fill="#FFFFFF" width="11.6" height="21"/>
		</g>
	</g>
</g>
</svg>
