<?xml version="1.0" encoding="utf-8"?>
<!-- Generator: Adobe Illustrator 22.0.1, SVG Export Plug-In . SVG Version: 6.00 Build 0)  -->
<svg version="1.1" xmlns="http://www.w3.org/2000/svg" xmlns:xlink="http://www.w3.org/1999/xlink" x="0px" y="0px"
	viewBox="0 0 1024 768" style="enable-background:new 0 0 1024 768;" xml:space="preserve">
	<g>
		<g transform="translate(-57.000000, -46.000000)">
			<path class="p-b" d="M940,731.2c5.1,2.6,9.9,2.6,15,4.7c5,2,6.3,10.5,10.6,11.5c-19.8,2.1-39.4,6.5-59.5,4.3
			c1.7-7.1-1.4-14.3,2.8-21C920.1,720.1,927.4,724.7,940,731.2z M856.3,244.2c0.3,5,0.6,7,4.2,10.2c2.8,2.5,4.3-1.2,4.6,3.7
			c0.2,2.8-2.8,4.3-3.9,6.6c-5.7,11.4-1.8,26.2,1,37.6c5.7,23.1,19.5,48.2,9.8,71.6c-1,2.4-1.8,7.5-3.7,9.3
			c-2.5-1.3-4.3-0.7-5.5,1.7c-0.7,0.8-1.4,1.6-2.1,2.3c-4.4,4.1-9,5.6-14.9,3.4c-11.7-4.3-13.7-18-13.7-28.7
			c-0.1-11.8,2.4-24.2,5.1-35.7c1.3-5.5,3.3-12-0.4-17.2c-3.5-4.9-7.8-2.2-11.3-4.4c-3.7-2.3,1.6-19.6-2-24.2
			c-6.3-8-8.5,11.6-8.6,15.5c-0.1,4.4,0.1,9.5,2.2,13.4c1.6,3.1,6.9,5.8,7.8,9c0.8,2.9-2.9,10.6-3.4,13.7c-0.9,4.9-1.2,9.8-1.4,14.7
			c-0.9,16.6,1.8,34.1,13.2,47c5,5.7,13.5,12.1,21.5,11.1c7-0.9,14.1-4.7,20.6-7.3c4.4,16.9,11,33.3,18.1,49.3
			c6.1,13.9,11.9,28.1,18.3,41.9c13.6,28.9,35.6,53.6,52.8,80.3c16.6,25.8,25.9,55.5,28.2,86c0.5,7.2-1.6,17.1,0.1,23.8
			c1.6,6.3,3,9.1,1.9,16c-1.1,7.7-3.4,14.7-2.4,22.5c0.8,6.9,4.1,17.2,0.5,23.6c-4.3-4.6-8.6-6.8-11.3-12.9
			c-2.7-6.2-1.6-11.4-7.7-14.1c-5.2-2.3-8.9-1.8-13.4-5.7c-5.5-4.7-9.3-10.4-12-17c-4.7-11.4-5.3-23.7-1.4-35.4
			c3.2-9.4,12.4-26.9,25.3-20.6c-1.9-3.9-3.2-8.2-6.9-10.8c-3.2-2.2-8-3-11.5-5.5c-4-2.8-8.5-5.9-12.9-7.9c-1.7-0.8-3.4-1.2-5.1-1.8
			c-2.1-0.7-6.2-0.2-6.5-0.2c-7.6-1.2-16.1-4.8-20.8-10.4c-3.5-4.2-6.6-8.1-9.3-12.8c-3.5-6.2-4.8-5.8-11.5-7.3
			c-9.7-2.1-15.8-3.6-23.6-10.8c-8.6-8-14.9-17.9-21.2-27.7c-3.7-5.7-6.9-6.1-12.9-8.4c-3.5-1.3-8.3-7.3-11.5-7.7
			c-0.9-0.1-5.3,1.9-6.8,2.1c-2.7,0.4-5,0.4-7.6,0.1c-6.1-0.6-11.5-2.3-15.6-7c-12.6-14.7-16.5-49.4,0.8-61.9
			c3.3-2.4,7.9-3.5,9.8-7.4c2.2-4.5,1.2-13.1,1-17.9c-0.2-5.5-0.5-11.4-1.3-16.8c-0.4-2.5-0.7-3.5-1.7-6c-2-4.9-2.6-4.2-6.7-5.4
			c-5.9-1.7-8.6-1-12.2-6.6c-2.9-4.5-4.2-10.1-4.5-15.4c-0.2-4.9,2-9.5,0.1-13.9c-2.7-6.5-7.7-11.5-10-18.6c-1.9-6-6.7-19.4-1.9-25
			c2.1-2.5,5.9-2.8,8-6.2c3.7-5.8,5.1-9,10.6-13.5c4-3.4,7.9-8.4,12.7-10.4c4.8-2,9.2,1.2,13.1,0.3c4.2-1,3.1-10.7,4.3-15.1
			c1.6-5.9,5-12.1,9-16.7c1.4-1.5,3.1-1.8,4.1-3.9c1.4-2.8,0.9-6.7,2-9.8c1.3-3.6,4.6-9.9,8.2-11.9
			C845,231.2,848.2,246.2,856.3,244.2z M831.4,674.5c1.5,4,0.7,10.5,2.4,14c1.4,2.8,6.9,4.5,9.6,7.8c5.8,7.1,8,18.4,5.9,27.2
			c-7.1-1.8-11.8-2.9-19-1.9C829.5,705.8,830.2,690.4,831.4,674.5z M743.7,686.5c4.8,5.4,7.2,11.7,6.5,18.9c-0.2,2.6-1,6.2-1.8,8.6
			c-0.8,2.7-4.9,7.8-3.3,9.2c-4.5-0.3-9.8,0.3-13-2.7c-2.9-2.6-4.9-9.3-6.1-12.9c2.3-4.5,4.5-9.1,6.8-13.6c1.5,2.3,5.8,8.5,9.4,6.5
			C744.9,699.1,742.7,689.5,743.7,686.5z M913.1,644.5c5.5,5.1,7.4,14.4,7.1,21.6c0.1,9.9-3.3,29.7-16.2,30.4
			c-10.3,0.5-21.4-14.3-22.5-23.4c-1.3-10,2-34,15.2-36.1C901.5,636.2,909.6,641.3,913.1,644.5z M820.6,657.3
			c0.2,6.5,0.3,12.7-0.2,19.2c-0.4,5.4,1,11.8-0.2,17c-7.7-8.6-17.7-17.9-17.4-30.5C803.1,651.1,813,652.1,820.6,657.3z
			 M743.5,514.3l6.4,7c0.2,9.9,0,19.6,3,29.1c3.2,10,8.5,19.7,13.7,28.7c10.2,17.6,12.6,34.2,13.8,54.3
			c-19.2-8.6-29.6-37.9-35.9-56.3c-3.3-9.7-6.8-19.4-10-29.2c-3.1-9.6-8.6-22.2-5-32.4C736.5,520.7,739.5,523.3,743.5,514.3z
			 M863,583.5c9.4,7.4,10.1,18.8,13.4,29.2c-1.9,1.5-4.1,2.9-5.8,4.7c-1.1,1.1-3.6,5.6-4.5,6c-3.3,1.8-6.2-0.5-9.5-3.5
			c-6.4-5.8-10.4-18.2-10.1-26.7C846.9,583.3,854,576.4,863,583.5z M993.9,539.8c12.2,7,9,26.2,7.5,37.1c-1,6.8,1.2,13.8,1,20.2
			c-0.2,7.3-4,5.8-6.4,10.3c-2.1-5.5-6-12.1-6.9-17.9l-1.4-3.7c1.2-0.5,1.8-1.3,1.9-2.5c0.5-2.8,0.5-5.7,0.6-8.5
			C990.9,563.2,991.8,551.4,993.9,539.8z M808.6,552.8c-1.3,5.1-2.3,14.8-9.9,11.8c-6-2.3-7.4-11.8-7.4-17.1
			c0-4.3,0.7-12.3,6.8-12.6C805.5,534.6,808.1,547.8,808.6,552.8z M751,409.9c-5,8.1-8.5,20-6.1,29.5c2.5,10,10.3,12.4,17.2,5.1
			c5.7,9-6,24.9-16.4,16.4c-2.3-1.8-3.8-5.4-6.6-6.5c-2.3-0.9-4.3,0.3-6.7-0.2c-7.2-1.6-9.9-8.7-12.7-14.6c0.8-4.8,1.6-9.6,2.6-14.4
			c0.6-2.5,1.1-5.1,1.7-7.6c1-4.3,0.7-3.8,3.8-5.9C736,406,741.7,405.7,751,409.9z M755.3,414.3l6,13.4c-3.3-0.8-6.9,9.1-9,11
			C751.3,430.5,753.7,422.3,755.3,414.3z M751.9,368.4c5.5,2.3,6.5,12.3,6.7,17.1c-1.5,5.1-2.9,11.6-9.2,8c-4.2-2.4-6-10.2-6.2-14.5
			C743,373.6,745.1,365.5,751.9,368.4z" />
			<g transform="translate(56.999856, 45.999681)">
				<path class="s-b" d="M654,205.8c-2.2,1,2,8.6,2.7,10c1.7,3.6,3.9,11.1,8,9C661.2,218.5,657.6,212.1,654,205.8 M126,644.1
				c-3-1.3-7,10.1-7.6,12.5c-1.5,6.5-0.2,10.9,5,15.1C121.2,662.4,123.8,653.2,126,644.1 M820.3,152.8c-3.7-4.9-9.1-13.9-16.7-9.1
				c-3,1.9-5.3,7.9-7.1,10.9c-2.9,4.6-5.7,9.1-7.9,14.1c3.7-1.5,5.9-4.9,9.3-6.7c2.3-1.2,4.4-1.4,6.6-2.3
				C809.3,157.7,816,155.7,820.3,152.8 M210.4,631.2c2,7.9,3.9,15.8,5.5,23.8c1.1,5.4,4.6,13.1,2.8,18.4c4.8-0.6,9.6-1.3,14.4-1.9
				c-3.6-8.1-5.4-16.8-6.5-25.6c-0.6-5.4,0.2-6.9-3.9-9.9C219.6,633.8,214.1,632.7,210.4,631.2 M183.8,328
				c9.3,9.3,17.3,19.8,27.2,28.4c5.1,4.5,10.3,8.8,15.6,13.2c4.4,3.7,11.5,11.7,17.3,12.9c0.7-3,2.4-7.8,2-10.8
				c1.7-1.7,1.2-3-1.6-3.8c-1.7-1.3-3.3-2.6-5-3.9c-6.4-5.4-12.5-11.2-18.6-16.9c-6.1-5.7-11.7-11.7-16.9-18.1
				c-2.8-3.4-4.4-6.8-8.9-7.8C189.4,319.8,187.6,324.1,183.8,328 M368.7,671.8c-0.3,5,12.1,8.1,15.9,8.4
				c10.2,0.8,16.8-3.6,20.3-12.4c7.3-18.3,18.9-34.4,23.8-53.6c1.4-5.7,2.7-8.3-2.5-11.2c-2.1-1.2-7.6-3.9-9.9-2.3
				c-2.2,1.4-4,7.9-5.4,10.3c-2.2,3.8-4.8,7.3-7.2,11C392.3,638.8,380.9,655.4,368.7,671.8 M221.8,419.9l47.5,27.2
				c2-6.8,2.9-14,4.7-20.9c1.3-4.9,4.7-11.8,4.5-16.1c-0.3-6.4-5.3-14.9-7.5-21.1c-2.7-7.6-5.4-15.3-8.1-22.9
				c-3.7,3.5-7.9,5.9-7.9,10.5c0,2.6,1.7,4.2,0.7,7.2c-0.7,2.1-3.7,4.8-5.2,6.4c-4.2,4.5-4.1,4.7-8.6,0.5
				C235.3,400.4,228.6,410.1,221.8,419.9 M274.1,547.2c0.7-6.5,1.6-12.8,3-19.2c0.9-3.9,4.7-12,3.5-15.8c-0.9-2.7-6.4-5.1-8.6-6.6
				c-6.2-4.3-12.2-8.8-18.4-13.2c-5.4-3.8-10.8-7.6-16.1-11.6c-4.9-3.7-8.6-8.3-14.5-9.9c-5.2-1.4-11.7-0.5-17.1-0.7
				c-7.2-0.2-14.5-0.3-21.7,0c-24.1,1.2-51.1-0.5-74.3,6.2c-11,3.2-18,5-24.1,15.4c-7.1,12-13.1,24.5-18.3,37.4
				c-0.8,1.9-2.5,4.6-2.4,6.7c0.1,3.9,1.5,3,5.3,5.3c4.1,2.4,8.1,5.3,12,8.1c6.7,4.7,15,9.6,22,13.3c8.4,4.4,16.8,8.4,25.3,12.8
				c5.4,2.8,11,5.1,16.3,8.2c5.7,3.4,12.2,4.3,18.4,6.9c19.2,8.1,37.7,15.6,56.5,24.9c18.4,9,36.9,16.7,55.7,24.6
				c24.3,10.3,48.3,19.8,73.6,27c1.9,0.5,5.8,2.4,7.6,2.3c3.9-0.2,4.8-3,7.2-6.3c4.6-6.3,9.1-12.8,13.5-19.3
				c9.6-14,19-28.3,29.3-41.8c-29.3-8.2-56.4-23.2-82.1-38.7c-1.1,3.1-2,9.9-5.5,10.9c-4.3,1.3-7.5-4.7-9.4-7.5
				c-1.8,4.6-5,20-10.9,19.7c-8.1-0.5-6.7-13.3-7.7-18.4c-4.5,6-9.7,12.8-15.8,3.7C272.4,565.5,272.8,554.3,274.1,547.2
				 M613.1,474.2c-3.8-1.2-7.5-2.2-11.2-3.5c-1-2.1-2.6-2.7-4.8-1.9c-1.8,0.2-3.6-0.1-5.4-0.7c-7.7-1.3-16.2-3-23.6-5.2
				c-6.6-2-12.7-3.7-19.4-5.2c-4-0.9-21.6-5.9-24.2-2.9c-0.8,0.9,0.6,11.8,0.4,13.8c-0.3,3.5-0.5,9.2-2.7,12.1
				c-0.8,1.1-4.1,2.3-5.2,3.2c-3.8,2.8-7.3,6.3-11,9.2c-8.2,6.3-16.2,12.9-24.5,19.1c-5.9,4.3-12.7,6.5-19.2,9.6
				c4.7,0.8,13.8-3.7,18.5-5c6.1-1.8,12.1-3.8,18.3-5.5c12.8-3.4,25.9-7.2,38.9-10.8c8-2.2,16.4-4.5,24.2-7.5
				c3.4-1.3,6.1-4.3,8.4-1.2c1.8,2.5-0.4,5.7-1.8,7.5c-8.1,10.6-30.2,13.2-41.9,17.6c-13.3,5-26.4,10.2-40.2,13.7
				c-16,4.1-33.4,7.2-48.3,14.4c-12.4,5.9-26.4,8.2-39.6,11.7c-12.4,3.3-27,3.9-38.7,9.5c5,4,12.5,6.1,18.4,8.7
				c7.2,3.3,14.5,6.3,21.6,9.7c3,1.5,6.2,3.7,9.3,4.9c3.9,1.6,3.4,0.7,7.4,0.4c6.3-0.5,14.7-1.6,19.8,2.9c6.1,5.5,2.2,11.5,3.1,18.2
				c0.6,4.6,0.9,3.9,6.1,4.6c4.7,0.6,9.4,1.4,14.1,2.4c5.7,1.2,11.6,3.3,17.2,5.1c8.7,2.8,9.6,6.1,18.6,2.5
				c25.7-10.3,52.3-18.7,78.2-28.4c11.9-4.5,23.9-13.1,35.1-19.6c14.4-8.3,27.4-17.3,37.2-31.1c4.4-6.3,9.1-17,8.1-24.8
				c-0.8-7-6-14.8-9.4-20.8c-4.3-7.7-8-10.7-14.5-15.8C625.8,481.6,618.8,474.1,613.1,474.2 M326.6,533.6c0.4,3.9-1.9,19.8,0.4,22.2
				c3.8,4.2,13.2-0.7,16.8-1.9c11.8-4.1,25.5-3.2,37.5-6.4c11.6-3.1,23-7.1,34.8-10.3c6.3-1.7,12.2-4.4,18.4-6.4
				c6.9-2.3,14.6-3.5,20.9-6.9c-0.8-2-28.4,2.8-31.5,3c-10.9,0.9-21.2-0.8-31.9-2.8c-23.7-4.4-46-14.7-69.4-21.4
				c1.1,10.8,31.5,12.9,27.8,25.5c-1,3.5-14.6,9.2-19.1,7c-9.1-4.4,2-10.7,6.6-12.3c-6.9-4-13.5-8.3-19.9-13.2
				c-6.8-5.2-9.7-12.6-13.3-20.2c-7.6-15.8-25.5-25.1-39.4-34.9c-15.1-10.7-31.1-19.7-46.2-30.4c-2.7-1.9-3.9-1-4.9-4.5
				c-1-3.7,2.7-8.4,4.5-11.3c4.7-7.5,10.2-14.5,16.5-20.7c-8.1-5.5-16.8-10-24.3-16.2c-7.7-6.3-14-14-20.8-21.2
				c-10.8,23.5-25.9,45.3-37.8,68.4c-4.7,9.1-7.2,22.9,0,31.7c7.5,9.3,21.5,5.7,32.1,6.2c11.2,0.5,21.4,1.8,32.5,5
				c5,1.4,9.5,1,14.3,3.3c5.6,2.7,11.2,6.2,16.5,9.4c10.5,6.3,20.4,14.2,30.3,21.4c4.1,3,26.2,20.5,8.7,17.8
				c0,16.4-2.9,33.1-4.4,49.4c4.2-5,7.1-10,9.6-16c1.5-3.5,1.5-12.6,6.5-10.4c7.5,3.2,1.7,26.9,1.7,33.3c1.9-3.6,3.2-7.4,4.5-11.2
				c1-2.9,2.3-11,4.4-13c7.1-6.5,8.1,11.2,8.1,14.8c2.3-6.5,2.7-13.4,2.9-20.3c0.1-2.7-0.6-6.9,0.1-9.5c1.1-4.4,1-4.1,5.6-5.9
				C326.1,527.7,326.3,530.7,326.6,533.6 M545,671.9c0.6,5.5,2.7,9.6-0.9,14.5c7-0.5,14-1.1,21-0.9c5.7,0.1,14.1,1.4,19.4-1
				c2.2-1,2.9,0.7,4-1.2c1.1-1.8-1.4-7.7-1.7-9.2c-1.4-7.1-2.1-14.4-3.4-21.5c-0.9-4.9-3.5-14.5-0.2-19.2c4.8-6.8,7,2.8,8.2,7
				c4.1,14,3.9,27.4,3.9,41.8c6.2,0,14.4-2.7,20.4-4.4c8.3-2.3,17.2-4.6,25.2-7.6c7.6-2.8,14.3-6.9,19.1-13.4
				c3.6-4.9,11.5-17,9.6-22.4c-2.4-6.6-14-11.2-20.1-12c-8-0.9-16.2,0.7-24.4,1.3c-8.8,0.7-17.3,2.7-25.9,3.6
				c-8.4,0.9-19.7,3.7-27.9,1.6c-0.2,3.4,2.6,7.9,3.6,11.3c1.3,4.5,2.4,9,3.5,13.6c1.1,4.9,8,22.4,1.7,25.9
				c-7.4,4.1-10.9-13.5-11.8-17.8c-2.2-10.2-4.1-20.5-1.8-30.7c-9.4-1.7-20.8,0.8-30.5,1.5C539.5,645.6,541.8,658.9,545,671.9
				 M139.2,677.4c3.3,1.5,7.8,0.7,11.3,1c5.6,0.4,11.2,1.4,16.8,1.3c8.5-0.3,17.5-1.4,26.1-2.3c-4.9-8.8-7.8-17.1-8.4-27.2
				c-0.2-3.6-2.1-26.1,4.5-25.1c3.2,0.5,2.5,19.7,3.2,23.2c0.9,5.1,2.1,10.4,3.5,15.4c1,3.6,4.6,9.1,3.7,13
				c4.3-0.7,8.6-1.4,12.9-2.1c-3.4-6.7-5.8-12.7-7.1-20.1c-0.6-3.6-0.2-8.1-1.4-11.5c-0.7-2.2-2.4-4.2-2.7-6c-0.3-2.1,2-7.2,1.2-9.1
				c-0.8-1.8-6.6-3.5-8.6-4.5c-5.6-2.8-8.9-3.5-15.1-1.9c-12.1,3.1-31.1,5.2-40.1,13.5C130.1,643.1,126.9,670.7,139.2,677.4
				 M666.1,278c3.3-0.4,6.6-0.6,10-0.8c-4.9-6.9-9.4-14.1-13.4-21.5c-2-3.6-3.9-7.3-5.7-11.1c-2.1-4.3-2-7.1-6.5-7.9
				c-6.2-1.2-14.5,1.2-20.9,0.9c-4.9-0.2-16.1-4.9-20-3.2c3.6,7.4,0.7,19,0.9,27c0.1,8-0.8,15.7-2.3,23.5c8.5,0,19.1-2.9,27.7-4.2
				C645.8,279.2,656,279.1,666.1,278 M531.4,687.2c3.3-0.4,6.4-0.5,9.7-0.5c-7.4-12.1-13-25.5-13.1-39.9c0-1.9,2.3-12.7,1.5-13.6
				c-1.5-1.7-7.5-0.4-9.2-0.2c-6.8,0.7-14.3,0.6-20.7,3.1c-4.4,1.7-4.4,0.7-6.2,5.8c-1,3.1-1.8,6.6-1.8,9.8c0,6.5,2,14.1,4.7,20
				c2.6,5.6,6.6,11.6,12.1,14.6C514.9,689.6,523.9,687.6,531.4,687.2 M599,239.4c-1.3-4.8-0.7-3.7-5-4.3c-0.9-0.1-10.7,0.1-11.3,0.7
				c-0.6,0.7-0.4,10.4-0.5,11.6c-0.3,3.8-0.7,7.7-1.1,11.5c-1.7,15.5-4.9,30.5-7.3,45.9c6-3.7,14.6,1.3,19.7-2.7
				c4-3.2,3.4-13.3,3.7-17.8C598.2,269.4,598.5,254.4,599,239.4 M814.2,221.3c-0.5,0.9-1.1,1.7-1.6,2.6c2.1,1.3,14.3-12.2,17-14.7
				c3.6-3.2,9.3-7.6,10.9-12.3c1.9-5.5,0-14.2-0.4-19.8c-0.3-4.1,0.4-9.7-2.9-12.5c-3.1-2.6-10.6-2.5-14.2-2
				c-10.8,1.7-17.4,10.6-22.8,19.1c5.6-0.7,25.1-9.6,27.4-4.8c3.3,7-17.3,13.3-19.3,19.5c4.2,1.5,13.5-4.3,10.9,5.3
				c-0.4,1.3-1.2,2.5-2.3,3.3c-1.9,0.7-2.4,2-1.4,3.9C814.6,212.6,814.8,217.4,814.2,221.3 M939,561.5c0.1,2.3,0.3,4.5,2.1,6.1
				c4.1-13.1,5.4-26.2,7.1-39.8c1.7-13.6,3.5-27.5,3.8-41.1c0.3-15.2-1.1-31.8-3.6-46.9c-1.9-11.8-3.4-26.2-10.4-36.3
				c4,26,2.7,50.6,0.1,76.6c-1.4,13.8-3.4,27.5-4.4,41.4c-0.2,3.7-0.3,7.4-0.6,11c-0.2,2.2-2.3,6.2-2.3,7.3
				C930.6,545.8,936.9,556.1,939,561.5 M727,541.3c3.3,7.6,7.1,15.1,9.1,23.2c2.1,8.6,1.2,16.5,1.5,25.2c0.6,14.4-0.6,28.7-0.4,43.1
				c0.2,12.3-0.3,24.3-0.2,36.4c0.1,7.7-0.3,15.3-0.3,23c0,0,0.3,6.9-0.2,7.2c-2.4,1.6-5-0.7-5.7-2.8l-7,8c3.7-0.9,8.2-2.9,12-3
				c1.5-0.5,2.9-0.5,4.3,0c1.4,0.9,2.5,2.1,3.2,3.6c9.9,2.1,15.9-6.7,17.7-14.6c3.9-17.1,2.5-34.1,2.2-51.4
				c-0.6-37.6,5.4-75,4.8-112.6c-0.1-7.3-0.4-14.5,0.7-21.7c2-13.5,5-1.1,5.5,5.2c1.4,19.1,4,38.9,2.6,58.1
				c-1.2,17.4-1.1,34.9-2,52.3c-0.9,18.5-2.4,36.6-1.5,55.1c5-0.6,20.9-1.6,22.6,5.4c1.5,6.1-4.4,3.8-7.4,3.6
				c-4.9-0.4-9.7,0.7-15.1-0.2c0.4,8.2,1.5,19.2-5.8,24.7c-3.6,2.7-9.6,5.2-13.8,6.8c-4.1,1.6-11.1,5.1-15.4,4.9
				c-3-0.1-4.2-1.8-7.5-1.5c-4.9,0.4-9.2,3.7-14.5,1c-9.9-5.2-5.1-20.3,1.2-26.3c1.6-1.6,3.4-3.3,5.6-4c1-0.4,5.4,0.1,5.8-0.5
				c1.8-2-0.5-13.7-0.7-15.9c-1.3-11.6-2.7-23.5-3.2-35.2c-0.5-11-1-22-1.4-32.9c-0.1-2.4,1-7.3,0-9.4c-1.7-3.5-9-5.7-12.1-7.3
				c2.8,27.7,7,57.4-3.2,83.7c-2,5.2-4.3,12.7-9.5,15.6c-4.9,2.7-16.3,2.4-22.1,2.7c-6.3,0.4-12.4-1.1-15.8-7
				c-2.7-4.6-1.1-10.2,4.5-12.2c3.3-1.2,4-0.4,6.9,1c0.6,1,1.1,2.1,1.3,3.3h2.2c3,1.4,15.2,2.9,18.5,0.7c3.9-2.5,4.7-9.3,6.4-13.3
				c3.1-7.5,3.9-13.5,5-21.5c1.7-12.5,0-27,0-40.1c0-3.7,0-7.3,0-11c0-5.5,0.5-5.5-2.7-9.5c-4.8-6-10.2-12.2-15.3-17.9
				c2.8,16.8,1.6,34.6,0.5,51.4c-0.6,9.4-1.9,19-2.5,28.3c-0.2,2.8,1.8,10.5-1.4,11.7c-3.3,1.3-7.4-4.6-8.7-6.7
				c-7.3,14.5-15.9,28.5-30.9,36c-7.7,3.9-15.7,5.6-24.1,7.1c-7.8,1.4-15,4-22.7,5.2c-15.9,2.5-30.5,2.8-46.5,2.3
				c-15.1-0.5-29.5,2.3-44.6-1.2c-5.9-1.4-11.8-3.9-15.8-8.4c-2.2-2.5-3.2-6.3-5.4-8.6c-0.5-2.9-2.2-3.8-5.2-2.7
				c-1.9,0.1-3.7,0-5.5-0.2c-15.1-0.8-31.9,0.1-46.5-4.2c-5.5-1.6-11.7-4.3-9-11.3c2.4-6.1,9.1-4.2,14.6-3.7
				c15.9,1.5,31.6,4.4,47.7,5.8c-0.5-8.4-0.1-17,3.2-24.9c-11.2-1.4-22.8-3.5-33.4-7.1c-3.3-1.1-6.6-2.3-9.8-3.4
				c-5.4-1.9-4.3-2.4-7.4,0.9c-3.9,4.3-6.3,13.2-9.1,18.3c-3.2,5.8-6.3,11.5-8.9,17.6c-2.5,5.7-4.4,13.4-8.3,18.3
				c-8.5,10.9-28.2,11.8-39.8,7.5c-5.7-2.1-7.7-2.4-11.2-7.5c-3.8-5.6-4.7-5.9-11.7-6.7c-12.5-1.4-24.4-4.5-36.1-8.9
				c-12.4-4.6-25.2-8.2-37.5-13.1c-11.6-4.6-22.8-9.3-34.8-12.9c-1.4,9,4.5,19.2,4.5,28.6c7-0.7,13.5-1.3,20.4-2.4
				c2.5-0.4,18-3.9,19.5-1.8c6.3,8.6-22.4,12.6-26.9,13.7c-14.4,3.6-29.1,7-43.6,9.8c-14.8,2.9-29.2,5.7-44.2,6.2
				c-25.4,0.9-60.5-0.6-59.2-34c0.5-13.1,5.9-27.3,16.2-35.8c6.4-5.3,14.4-8.2,22.3-10.6c2.9-0.9,18.2-3,18.6-4.1
				c-4.3-3.1-11.7-3.9-16.8-6.3c-4.9-2.3-10-3.1-15-5.4c-10-4.6-19.6-10.1-28.8-15.8c-7.3-4.5-14.7-9.4-21.5-14.8
				c-5.4-4.2-10.5-8.3-14.8-13.2c-2.2-2.5-6.2-4.8-8-7c-6.3-7.7,0.3-22.9,3-31.8c3.9-13,9.1-26.9,16.9-38.2
				c7.1-10.4,15-17.4,27.7-19.8c11.7-2.2,23.6-3,35.6-3.6c-2-7.7-4.9-13.1-4.1-21.5c0.7-7.9,4.7-15.8,7.8-23.1
				c5.9-13.4,11.4-26.6,19.4-39c4.4-6.8,9.3-13.3,14.1-19.8c0.8-1.1,5.6-5.9,5.4-7.2c-0.2-1.3-5-5.4-5.8-6.4
				c-5-6.3-8.4-13.1-2.6-19.9c3-3.5,12-10.6,16.3-6.2c4.7-9.4,12.8-15.8,19.1-23.8c7.9-10,15.4-20.1,22.8-30.6
				c7.4-10.4,13.4-21.6,23.1-30c10.9-9.3,21.1-8.5,34.5-4.5c0.8-5.2,1.8-4.5,6.8-6.2c3.8-1.3,7.4-2.8,11.2-4.3
				c3.9-1.6,7.9-2.5,12-3.7c5.4-1.6,6.2-1.1,7.1-8.1c1.1-8.4-2.6-17.3-4.9-25.3c-1.1-3.9-1.9-8.8-4.5-11.4c-2.3-2.4-6.5-3.5-9-6.1
				c-22-22.7-22.4-71.2,1.1-92.3c4.6-4.1,8.3-9.6,14-12.4c6.2-3,14.5-5.5,21.3-6.9c14.1-3,30-2,41.2,7.9c5.5,4.9,8.9,12.7,10.8,19.7
				c1.8,6.7,1.4,17.9-5.4,7.6c-4.3-6.5-8-13.1-15.3-16.3c-6.5-2.9-14.4-4.4-21.5-3.8C341,64,327.5,68.9,316,81.2
				c-12.8,13.6-13.4,35.4-10.7,52.8c2.4-5.1,4.1-13.3,10.9-14.2c5.7-0.8,14.6,6.4,11.6,12.6c-13.8-3.5-17.8,17.3-5.9,18.6
				c3.6,0.4,8.2-6,11.5-4.6c6.2,2.8-2.1,12.4-3.8,15.6c-0.9,0.5-1.7,1.1-2.6,1.6c0.9,2,1.7,4,2.6,6c1.1,2.5,2.1,5.1,3,7.7
				c2.3,6.3,4.6,12.8,6,19.4c1.4,6.7,2.1,14.5-1.2,20.7c-3.6,6.9-7,6-9.8-0.5c-7.3,4.6-14.6,9.5-23.1,11.3c9,15,20.6,28,38,32.7
				c14.8,4,33.4,3.9,47.5-2.8c14.6-6.9,22.7-23,21-39c-0.6-5.2-3.6-23.2,3.6-10.2c3.9,7.1,4.2,18.7,3.3,26.6
				c-4.3,37.5-42.3,51.5-75,42.5c-16.8-4.6-28.9-17-37.9-31.6c-2.1-3.4-4-6.9-5.9-10.4c-0.8-1.4-1.4-3.4-2.4-4.6
				c-3.9-4.8-0.1-2.1-4.2-2.8c-6.5-0.9-16.6,4-21.4,7.9c-13,10.6-20.2,27.6-30.2,41c-10.6,14.3-24.1,26.9-37.6,38.3
				c15.3,15.7,30.6,31.4,45.9,47c3.2-3.5,9.2-11.5,10-16.2c0.5-2.7-1.7-11.8,5.1-7.8c4.6,2.7,6.3,14.3,7.8,19.1
				c2.2,7.3,5.9,14.2,8.4,21.5c4.5,13.5,10,26.8,14.6,40.4c1.9,5.5,7.2,12.4,2.1,17c-7.8,7.1-10.1-6.9-12.1-12.2
				c-2.9,4-2.5,10.4-4,15.1c-0.9,2.8-3.6,7.2-3.5,10c0.2,4.8,4.5,6.2,8.4,8.9c7.3,5,14.7,9.8,21.4,15.6c2.8,2.4,5.3,4.8,7.4,7.9
				c1.8,2.7,2.3,8.8,4.3,10.7c2.6,2.5,12,0.7,17,1.3c8.3,0.9,16.8,3.9,24.9,6c14.3,3.8,29,9.2,44,11.2c14.7,2,28.5,1,43.2-1.6
				c8-1.4,16.6-3.2,23.9-7c8.4-4.4,15.9-11.5,23.8-16.9c3.5-2.4,7.1-4.7,10.7-6.9c4.8-3,3.6-2.4,3.9-7.2c0.4-5.6,2.7-16.3-1-21.2
				c-1.6-2.1-6.3-3.6-8.6-5.1c-3.3-2.2-6.2-4.8-9.7-6.5c-3.8-1.9-3.9-0.4-5.7-5.1c-1.6-4.3-2.7-8.8-4.2-13.2
				c-6.8-19.9-8.5-40.1-11.4-60.8c-1.3-9.6-4.5-22.8-0.9-32.2c5-13.1,9.3,5.2,10.3,9.9c4.8-8.3,7.6-17.4,12.6-25.6
				c2.9-4.8,4.4-7.2,6-12.4c0.7-2.1,0.9-3.9,2.3-5.6c3-3.7,3.4-1.6,6.5-1.7c9.8-0.3,19.3,0,29.1,0.4c5.4,0.3,10.8,0.4,16.2,0.4
				c2.6,0,5.3-0.1,8,0c1.4,0,2.8,0.1,4.3,0.3c2.9,1.4,4,0.2,3.3-3.5c2.5-5.3,2.4-13.8,3.3-19.6c0.9-5.8,1.7-11.7,2.5-17.5
				c0.4-3.1,3.8-14.9,2-17.5c-1.8-2.5-11.1-2-13.8-2.4c-18.3-3-35.3-10.6-52.4-16.7c-8.4-3-16.4-7.1-24.5-10.9
				c-4.2-1.9-8.2-5.9-12.6-7.2c-5.6-1.6-13,0.9-18.6,1.9c-10.6,1.8-20.9,3.4-31.6,4c-3.8,0.2-11,1.3-14.5-1.3c-6.9-5.3,1-8.3,5.5-9
				c19.9-2.9,39.8-4.6,59.9-5.8c0.9-0.1,4.4-0.8,5.5-0.4c2.6,0.8,1.6,1.8,3.1,2.6c2.9,1.6,6.2,2.7,9.9,3.7
				c10.5,2.8,21.1,7.5,31.7,11.2c19,6.6,41.7,17.2,60.7,15.3c4.7-0.5,8.5-1,13.4-0.6c5.7,0.6,9.1,3.5,13.5,4.4
				c5.9,1.1,14.4,0.3,20.6,0.5c5.9,0.2,11.9,0.5,17.8,0.5c-5.2-10.5-8.4-20.3-11.3-31.6c-1.6-6.1-4-11.7-3-18.2
				c0.5-3.1,1.7-5.9,3-8.7c2-4.2,2.6-3.3,3.3-7.9c1-6.3-0.4-13,0.3-19.4c0.8-6.5,5.7-12.3,6.3-18.6c0.3-3.3-1.6-6-1-9.6
				c0.5-3.2,2.4-6.6,4.1-9.3c4-6.3,8.8-9.8,15.5-12.4c5.4-2.1,12.3-3.9,17.7-0.6c5.6,3.4,5.2,10.2,7.8,15.2
				c5.7,10.7,18.9,20.3,29.4,25.8c9.7,5,20.1,8.2,30.4,11.5c6.3,2,12.8,3.4,19,5.7c4.5,1.6,11.7,5.6,16.3,3.2
				c4-2.1,8.6-8.6,12.5-11.5c4.6-3.5,10.7-6.9,16.5-3.9c5.8,3,5.3,14.3,9.8,16.4c1.6,0.7,6.2-1.4,8.3-1.1c3.4,0.5,5.8,2.7,7.9,5.3
				c7.7,9.8,10.1,25.4,10.4,37.5c0.2,6,0,13.6-3.7,18.7c-4.3,6-12.5,6.1-18,10.3c-4.4,3.4-7.5,8.9-12,12.5c-2.8,2.2-3.8,0.5-5,4
				c-0.7,2.2,0.8,6.6,1.2,8.8c2.7,13.4,7.9,25.7,12.8,38.5c2.3,6,4.3,12,5.3,18.4c0.7,4.2-0.1,7.8,0.2,11.8c0.2,2.9,1.5,5.3,1.2,8.3
				c-0.6,6.2-3.9,11.7-6.1,17.2c-2.4,6.2,0.9,17,3.4,23.5c5.9,15.4,14.2,31,21.6,45.9c7.2,14.6,12.6,30.1,21.1,44.1
				c8.2,13.6,17.8,26.9,27.2,39.8c5.2,7.2,10.7,14,15.4,21.5c1,1.6,8,15.2,9.9,14.8c-2.2-23.7,0-48.4,1-72.1
				c1.2-29.7-2.5-56.6-10.9-84.9c-2-6.6-3.7-13.4-5.1-20.2c-1-4.7-3.7-8.6,3-6.6c11,3.4,20.8,24.3,26.4,33.3
				c12.6,20.3,23.1,47.4,24.5,71.2c1.4,23.4,0.2,45.8-2.7,68.8c-1.4,11.4-3.8,24-7.3,34.9c-1.8,5.6-4,11.4-6.5,16.7
				c-1,2.3-3.3,4.8-3.7,7.3c-0.6,3.9,2.3,9.3,3,13.2c2.4,12.7,2.9,25.9,2.1,38.9c-0.4,6.9-1.4,13.1-3.7,19.7
				c-2.9,8.3-1.5,14.7-0.3,23.2c1.3,9.2,2.5,30-7,35.2c-0.7-0.1-1.3-0.1-2-0.2c-1.7-2-3.2-1.8-4.5,0.3c-2.5,0.8-4.9,2.9-7.5,3.8
				c-6,2.1-12.5,2.2-18.8,3.1c-12.3,1.8-24.6,4.9-36.6,5.3c-14.3,0.5-29.2-0.1-43.2-2.6c-2.9-0.5-6.3-1.9-9.2-2.2
				c-3.9-0.4-6.7,2.3-10.7,1.6c-6.3-1-10.2-7.6-10.7-13c-1.3-17.4,8.3-25.3,24.1-28.4c-10.2-14.6-21.9-26.5-24.6-45.2
				c-2.7-18.4,3.1-39.7,13.6-54.4c10.1-14.1,27.2-23.6,45-20c8.2,1.7,47,13.1,39.5,26.1c-1.7-5.9-11.9-4.8-16.8-5.7
				c-8.2-1.4-16.4-3.6-24.7-3.1c-16.4,0.9-32.2,10.5-40.1,25.2c-9.1,16.9-5,33.7,6,48.2c10.1,13.2,20.4,27,33.9,36.6
				c-2.6,4.2-1.7,5.5-6.9,4.7c-3.6-0.5-6.9-3.3-10.5-4c-7.5-1.4-19.2,4.7-23.8,10.8c-2.7,3.6-2.6,5.4,2.4,7.6
				c3.7,1.6,9.6,0.8,13.5,1.1c9.9,0.9,20,1.2,30,1.1c17.2-0.1,33.2-2.8,50.3-4.6c7.6-0.8,15.4,0.1,22.8-2.7
				c10-3.8,7.6-14.8,6.3-23.8c-1.3-8.9,0-15.7,1.4-24.5c0.6-3.8,1.7-8.2,0.9-12.1c-0.9-4.6-2.6-6.6-2.4-11.7
				c0.8-18.1-1.5-37.2-6.3-54.7c-10.4-38-35.9-67.9-57.1-100.2c-6-9.1-12.3-17.7-17.1-27.6c-4.5-9.3-7.6-19.2-12.1-28.6
				c-9.9-20.7-19.3-41.9-25.1-64.2c-6.6,2.6-13.6,6.4-20.6,7.3c-8,1-16.5-5.4-21.5-11.1c-11.4-12.9-14.1-30.4-13.2-47
				c0.3-4.9,0.6-9.9,1.4-14.7c0.6-3.2,4.3-10.8,3.4-13.7c-0.9-3.1-6.2-5.9-7.8-9c-2.1-4-2.3-9.1-2.2-13.4c0.1-4,2.3-23.5,8.6-15.5
				c3.6,4.6-1.7,21.8,2,24.2c3.3,2.1,7.9-0.5,11.3,4.4c3.7,5.2,1.7,11.7,0.4,17.2c-2.7,11.5-5.2,23.9-5.1,35.7
				c0.1,10.8,2,24.3,13.7,28.7c5.9,2.2,10.4,0.7,14.9-3.4c1-1.2,2-2.3,3.1-3.4c1-1.7,2.5-1.9,4.5-0.6c1.5-1.2,3.7-9.3,4.4-11.1
				c9.1-22.3-5.2-47.9-10.5-69.8c-3.2-13.4-6-26.8,0.5-39.7c1.1-2.1,4-3.9,2.2-6.9c-0.5-0.8-4.8-1.2-5.9-2.1
				c-3.4-3-2.7-8.6-2.7-12.5c-7.8,2.4-10.1-3.7-9.1-11.1c-5.8,0.9-9.9,2.7-12-4c-1.9-6,1-12.1,2.9-17.7c-27-2.9-56.1-6.6-77.7-25.2
				c-5.3-4.6-9.7-10.4-13.4-16.4c-0.7-1.1-3.8-8.7-4.8-9.1c-3.1-1.2-5.7,4.8-8.4,6.3c-2.4,1.3-5.9,2.1-8.6,2.9
				c-2.5,0.8-11.5,0.9-13.1,2.2c-4,3.3-3.7,22.4-3.7,26.8c-0.1,15.3,3.3,30.5,9.6,44.4c5.9,13.1,15,31.1,26.9,39.7
				c3,2.2,5.7,3.3,9.5,3.1c2.7-0.1,5.4-2,8.2-1c7.2,2.5,4.6,7.5-0.9,9.8c-15.7,6.7-29-8.1-38.1-18.4c-2.7,12.3,9.7,26.8,16.2,36.8
				c4.2,6.4,8.3,12.8,12.2,19.3c2.9,4.7,8.5,13.4-1.5,9.8c-4.8,25.4-18.1,47.7-24.9,72.4c-7,25.4-13,54.3-13,80.7
				c5.3-3.7,8-20.5,15.1-7.6c0.8,1.4,0.5,3.7,1.5,4.9c1.4,1.7,3.1,1.2,5.3,2.4c3.4,1.9,5.6,5.7,2.6,9c3.9-0.9,8.1-0.4,8.9,4.2
				c0.5,2.6-3.4,14.7-6.2,15.7c-8.7,3-18.4-14.4-20.7-19.9c-5.4,5.5-11.7,9.7-16.7,0.8c-3.7-6.6-1.6-16.5-1-23.7
				c1.1-14.4,2.4-28.5,4.5-42.8c3.9-26.8,13.8-50.6,26-74.8c3.4-6.6,7.1-13.4,10.1-20.2c4.5-10.2-2.5-7.8-9.5-6.3
				c-13.5,2.9-27.7,5.2-41.4,6.2c-7.1,0.5-16.3,0.9-23.1,2.9c-4.8,1.4-4,0.4-5.9,5.6c-0.9,2.3-1.8,4.8-3.4,6.7
				c-7.8,10.1-28,8.4-39.1,7.7c0.7-4.3,1.3-8.5,2-12.8c-8.6,2-18.8,3.4-27.6,3.3c-4.8-0.1-9.8-0.8-14.6-1.2
				c-3.5-0.3-10.1-2.8-13.4-1.8c-3.8,1.1-9.6,14.9-11.8,19.4c-4.1,8.4-11.4,17.6-14,26.4c-2.3,7.8,2.4,21.3,3.9,29
				c2.1,11.2,4.1,22.5,7.6,33.3c2.6,7.9,5.6,18.8,13.5,22.7c7.9,3.9,13.6,6.1,22.1,5.3c15-1.4,31,0.9,45.9,3.8
				c15.3,3,29.3,4.4,43.8,9.7c32.9,12.2,53.9,49.7,41.5,84c-7.1,19.8-18.9,34.4-36.2,46.7c-8.8,6.2-19.2,11.3-28.8,16.1
				c-4.4,2.2-8.8,4.9-13.3,6.8c-3.3,1.4-9,4.7-12.5,5.1c4,1.9,7.5,0.1,11.6-0.5c5.9-0.8,11.8-1,17.7-1.7c9.1-1.1,18.2-2,27.3-3.1
				c7.8-1,16.6-1.3,24.4-0.2c3.7,0.5,9.4,1.6,12.7,3.4c2.6,1.4,5,4.7,7.9,6.3c3.1-12.8,1.7-28.5,1.8-41.6
				c0.1-10.7,0.6-21.2,1.6-31.8c1.1-11.9-6.2-25.4-8.8-37.1c-2.5-10.9-9.2-24.7-6.8-36.1c3.1-14.4,11.3,11.4,12.4,15.1
				c3.5,11.5,7.6,22.8,11.5,34.2c4.6,13.6,9.3,26.7,16,39.4c5.6,10.6,12,23,23.6,28.1c-1-15.6-2-30-8.5-44.3
				c-6.1-13.6-15.5-25.7-19.6-40.3c-2-7.2-2.3-14.6-2.4-22.1c-0.1-5,0.2-11.8,5.6-6.4c4.3,4.3,5.1,18,7,23.8
				c0.9,2.8,2.2,5.3,3.2,8.1c0.4,1.2,3.5,7.2,3.5,8C715.3,523.6,722.2,532.6,727,541.3" />
				<path class="s-b" d="M396.5,198.4c0.3,3.6,2.4,13.1-0.3,16c-3.6,3.8-5.3-1.1-6.8-5c-3.2-8.1-4.9-23.8,1.6-30.6
				c6.7-7.1,19.9-7.2,27-14.3c2.9-2.8,2.6-2.2,2.3-6.6c-0.1-2.5-1.8-5.8-2.5-8c-2-5.8-4.2-11.6-6.4-17.4c-3.7,1.7-9,6.9-12.7,2.5
				c-3.4-4,2.2-10.6,6.1-11.8c-2-4.5-11.6-3.6-13.5-10.2c-1.6-5.7,3-3.4,4-5.7c1.2-2.6-1.2-6.2,0-8.6c4.3-8.4,9.1,7.1,11.2,9.8
				c4,5.2,10.9,6.3,11.5,14.1c0.4,4.8,0,7,2,11.7c1.8,4.3,4,8.5,5.5,13c2.3,6.7,5.8,19,1.4,25.5c-3.8,5.5-13,9.7-19,12
				c-3,1.2-7.1,1.9-9.6,4.2C395.2,192,396.2,193.9,396.5,198.4" />
				<path class="s-b" d="M707.1,401.7c-0.7-1.1-1.4-2.1-2-3.2c-4.7,5.1-10,7.1-14.8,0.7c-4.9-6.6-3.1-16.5-1.2-23.7
				c1-3.7,6-18.4,9.2-7.2c0.7,2.5-1.7,7.9-2.1,10.4c-0.8,4.7-1.5,9.3-0.9,14.1c5.5-5,8.3-17.5,13.9-4.5c2,4.7,2.3,12.5,7.7,5.3
				c2.9-3.8,3.1-10.9,4.4-15.5c9.3,2.2,7.6,15.9,4.5,22.6C720.9,411.3,714.2,407.9,707.1,401.7" />
				<path class="s-b" d="M739.5,163.3c3.3,5.5-2.9,15.5-4.1,21.2c5.5-0.6,19.2-14,23-11.8c8,4.6-8.9,20.5-12.2,22.8
				C720.3,214.3,725,160.3,739.5,163.3" />
				<path class="s-b" d="M706.9,224.5c9.7-2.7,22.8,14.7,16.5,23.3c-4.5,6.2-10.1,2.6-11.5-2.8c-0.7-2.8-0.1-6.1-1-9.2
				C709.7,232,708.2,228.3,706.9,224.5" />
				<path class="s-b" d="M408.6,149.5c7.4,6.2-7.7,21.3-15.3,9.5c-2.1-3.3-2.5-6.2,0.6-7.4c1.6-0.6,5.2,1.4,7.4,1
				C403.8,152.2,406.5,150.5,408.6,149.5" />
				<path class="s-b" d="M383.3,124.7c-2.9-3.6-10.9-25.5-0.9-20.6C387.4,106.5,391.5,125.3,383.3,124.7" />
				<path class="s-b"
					d="M712.4,597c-0.3-2.8-0.6-5.5-0.8-8.3c3.7,1.9,11.1,3.7,12.3,7.9C726.3,604.5,715.1,598.2,712.4,597" />
				<path class="s-b" d="M819.2,262.8c-2.2-3-9-27.7-3.1-27.1C817.2,244.6,817.4,253.9,819.2,262.8" />
				<path class="s-b" d="M727,541.3c-4.8-8.7-11.7-17.7-14.9-27.1C719.5,520.1,725.2,532.2,727,541.3" />
				<path class="s-b" d="M925.6,521.2c0.3,3.1,0.6,6.3,0.9,9.4C922.1,531.8,925.4,522.3,925.6,521.2" />
				<path class="s-b" d="M712.2,514.2c-2.1-2.3-3-5-3.5-8C709.9,508.9,711,511.6,712.2,514.2" />
				<path class="s-b" d="M737.3,656.2c0.1-2.8,0.2-5.6,0.2-8.4C737.4,650.7,737.4,653.4,737.3,656.2" />
				<path class="s-b" d="M409.2,203.4c1.9,0.2,3.7,0.5,5.6,0.7C413.3,204.8,409.8,205.7,409.2,203.4" />
				<path class="s-b" d="M779.8,685.5c1.9-0.3,3.9-1,5.8,0.1C783.6,685.6,781.7,685.6,779.8,685.5" />
				<path class="s-b" d="M724.5,622.5c0,2.1,0.1,4.1,0.1,6.2C724.6,626.6,724.6,624.5,724.5,622.5" />
				<path class="s-b" d="M764.5,590.3c-0.1,2.2-0.2,4.4-0.4,6.6C764.2,594.7,764.4,592.5,764.5,590.3" />
				<path class="s-b" d="M738.2,598.9c-0.1-1.9-0.2-3.8-0.3-5.8C738,595.1,738.1,597,738.2,598.9" />
				<path class="s-b" d="M795.6,615.9c-0.1,1.7-0.2,3.4-0.3,5.1C795.4,619.3,795.5,617.6,795.6,615.9" />
				<path class="s-b" d="M448.5,659c-1.9,0.9-3.8,1-5.6,0C444.7,659,446.6,659,448.5,659" />
				<path class="s-b" d="M641,142.8c0,1.7,0.1,3.4,0.1,5.1C641,146.2,641,144.5,641,142.8" />
				<path class="s-b" d="M454.2,188.9c-1.9,0.1-3.9,0.3-5.8,0.4C450.3,189.2,452.3,189,454.2,188.9" />
				<path class="s-b" d="M852.1,195.4c0-1.7,0-3.3,0-5C853,192.1,853,193.7,852.1,195.4" />
				<path class="s-b" d="M396.5,198.4c-0.1-1.8-0.2-3.5-0.3-5.3C396.3,194.9,396.4,196.7,396.5,198.4" />
				<path class="s-b" d="M869.8,721.6c1.3,0,2.6,0,3.9,0C872.4,721.7,871.1,721.6,869.8,721.6" />
				<path class="s-b" d="M357.7,46.3c-1.7,0.1-3.4,0.3-5.1,0.4C354.3,46.6,356,46.4,357.7,46.3" />
				<path class="s-b" d="M526.5,699.6c1.1,0,2.2,0,3.3,0C528.7,699.6,527.6,699.6,526.5,699.6" />
				<path class="s-b" d="M697.4,236.8c-1.7-0.2-3.3-0.3-5-0.5C694,236.5,695.7,236.6,697.4,236.8" />
				<path class="s-b" d="M773.4,696.7c0.1-1.4,0.2-2.8,0.3-4.1C773.6,693.9,773.5,695.3,773.4,696.7" />
				<path class="s-b" d="M592.3,219.1c-1.6,0-3.3,0-4.9,0C589,218.1,590.7,218.4,592.3,219.1" />
				<path class="s-b" d="M372.5,46.8c-1.7-0.1-3.4,0.8-4.9-0.5C369.2,46.4,370.9,46.6,372.5,46.8" />
				<path class="s-b" d="M327.7,209.5c-1.6,0.1-3.2,0.3-4.8,0.4C324.5,209.8,326.1,209.7,327.7,209.5" />
				<path class="s-b" d="M427.9,657.6c-1.7,0.2-3.4,0.3-5,0.5C424.6,657.9,426.3,657.8,427.9,657.6" />
				<path class="s-b" d="M469.7,187.9c-1.6,0-3.3,0.1-4.9,0.1C466.4,187.3,468,186.7,469.7,187.9" />
				<path class="s-b" d="M737.2,635c0-1.4,0-2.8,0-4.2C737.2,632.1,737.2,633.6,737.2,635" />
				<path class="s-b" d="M926.2,514.8c-0.2,1.7-0.4,3.4-0.5,5.1C925.9,518.2,926.1,516.5,926.2,514.8" />
				<path class="s-b" d="M714.2,625.2c-0.1-1.5-0.2-2.9-0.4-4.4C713.9,622.3,714,623.8,714.2,625.2" />
				<path class="s-b" d="M164.4,611.8c-0.3,1.5-1.4,1.7-3.2,0.9L164.4,611.8z" />
				<path class="s-b" d="M775.2,612.5c-0.1-1.3-0.2-2.5-0.3-3.8C775,609.9,775.1,611.2,775.2,612.5" />
				<path class="s-b" d="M432.7,190.9c-1.4,0.2-2.8,0.4-4.1,0.6C430,191.3,431.3,191.1,432.7,190.9" />
				<path class="s-b" d="M723.7,601.7c0,1.2,0,2.5,0,3.7C723.7,604.2,723.7,602.9,723.7,601.7" />
				<path class="s-b" d="M640.7,155.1c0,1.2,0,2.4,0,3.5C640.7,157.4,640.7,156.3,640.7,155.1" />
				<path class="s-b" d="M139.1,430.8c-0.1,1.2-0.3,2.5-0.4,3.7C138.8,433.2,138.9,432,139.1,430.8" />
				<path class="s-b" d="M963,516c-0.1-1.2-0.1-2.3-0.2-3.5C962.9,513.7,962.9,514.8,963,516" />
				<path class="s-b" d="M252.6,670.2c-1.4,0-2.8,0-4.3-0.1C249.8,669.1,251.2,669.3,252.6,670.2" />
				<path class="s-b" d="M418.1,124.4c0-1.2,0-2.3-0.1-3.5C418.8,122.1,419,123.3,418.1,124.4" />
				<path class="s-b" d="M304.7,109.6c0.1-1.2,0.2-2.3,0.3-3.5C304.9,107.3,304.8,108.4,304.7,109.6" />
				<path class="s-b" d="M774.3,513.9c0-1.3-0.1-2.5-0.1-3.8C774.2,511.4,774.3,512.6,774.3,513.9" />
				<path class="s-b" d="M765.2,579.7c0,1.2-0.1,2.4-0.1,3.6C765.1,582.1,765.2,580.9,765.2,579.7" />
				<path class="s-b" d="M601.6,695.5c0.9,0,1.8,0,2.7,0C603.4,695.5,602.5,695.5,601.6,695.5" />
				<path class="s-b" d="M168.3,696.1c0.9,0,1.8,0,2.7,0.1C170.1,696.1,169.2,696.1,168.3,696.1" />
				<path class="s-b" d="M705.8,590.7c-8.7-6.7-16.2-16.7-18-27.4c3.7,4.2,6.9,8.9,10.6,13.1c1.5,1.7,3.3,3.1,4.7,4.8
				C706.4,585.1,705.8,585.3,705.8,590.7" />
				<path class="s-b" d="M675.4,545.4c-4.2-9.6-7.8-21.2-7-31.8C671.2,523.3,677.8,535.3,675.4,545.4" />
				<path class="s-b" d="M689.3,601.8c-0.1,2.8-0.1,5.6-0.2,8.3C689.2,607.3,689.3,604.6,689.3,601.8" />
				<path class="s-b" d="M139.2,677.4c2.8,0.2,5.7,0.3,8.5,0.5C144.9,677.9,142,678.6,139.2,677.4" />
				<path class="s-b" d="M689.3,592.6c0,2.4,0,4.7,0,7.1C689.3,597.3,689.3,595,689.3,592.6" />
				<path class="s-b" d="M572.5,317.5c-1.6-0.1-3.2-0.2-4.8-0.3C569.3,317.4,570.9,317.5,572.5,317.5" />
				<path class="s-b" d="M598.5,258.5c0-1.9,0-3.8,0-5.8C598.5,254.7,598.5,256.6,598.5,258.5" />
				<path class="s-b" d="M564.2,306.8c-0.1-1.4-0.8-2-2.2-2C564.7,303.3,565.5,304,564.2,306.8" />
				<path class="s-b" d="M645.7,413.9c0.1-1.7,0.2-3.4,0.3-5.1C645.9,410.5,645.8,412.2,645.7,413.9" />
				<path class="s-b" d="M179.6,678.6c1.9-0.1,3.8-0.3,5.8-0.4C183.4,678.3,181.5,678.5,179.6,678.6" />
				<path class="s-b" d="M582.4,446l5.7,0C586.2,446,584.3,446,582.4,446" />
				<path class="s-b" d="M636.9,237.3c-1.3,0-2.7,0-4,0C634.3,237.3,635.6,237.3,636.9,237.3" />
				<path class="s-b" d="M913.6,700.8c1.7,0,3.3,0,5,0C916.9,701.8,915.2,701.8,913.6,700.8" />
				<path class="s-b" d="M215,470.5c-1.1,0-2.3,0.1-3.4,0.1C212.8,470.6,213.9,470.5,215,470.5" />
				<path class="s-b" d="M814.2,221.3c1.1,1-0.3,3.4-1.6,2.6C813.1,223,813.7,222.1,814.2,221.3" />
				<path class="s-b" d="M292.7,574.8c0-1.5,0.1-2.9,0.1-4.4C292.8,571.9,292.7,573.3,292.7,574.8" />
				<path class="s-b" d="M674.1,575.6c0.1-1.5,0.2-3,0.2-4.6C674.2,572.5,674.1,574.1,674.1,575.6" />
				<path class="s-b" d="M940.2,417.2c0.1,1.5,0.1,3,0.2,4.6C940.3,420.2,940.3,418.7,940.2,417.2" />
				<path class="s-b" d="M426.3,589.5c1.7,0.1,3.4,0.3,5.1,0.4C429.7,589.8,428,589.7,426.3,589.5" />
				<path class="s-b" d="M659.9,472.8c0.1-1.5,0.2-3,0.3-4.5C660.1,469.8,660,471.3,659.9,472.8" />
				<path class="s-b" d="M363.9,501.6c1.7,0.2,3.4,0.3,5.1,0.5C367.3,501.9,365.6,501.7,363.9,501.6" />
				<path class="s-b" d="M514.2,633.8c-1.1,0-2.2,0-3.3,0C512,633.8,513.1,633.8,514.2,633.8" />
				<path class="s-b" d="M610.6,264.2c-0.1,1.4-0.1,2.8-0.2,4.2C610.5,267,610.5,265.6,610.6,264.2" />
				<path class="s-b" d="M634.8,607c1.7-1.2,3.3-0.4,5,0.1C638.1,607,636.5,607,634.8,607" />
				<path class="s-b" d="M438.3,202.7c-1.1,0-2.2-0.1-3.3-0.1C436.1,202.6,437.2,202.6,438.3,202.7" />
				<path class="s-b" d="M706.3,632.9c-0.1-1.4-0.2-2.8-0.3-4.2C706.1,630.1,706.2,631.5,706.3,632.9" />
				<path class="s-b" d="M615.8,474.1c-0.9,0-1.8,0-2.7,0C614,474.2,614.9,474.1,615.8,474.1" />
				<path class="s-b" d="M654.2,525.2c0-1.2,0-2.3,0-3.5C654.2,522.9,654.2,524.1,654.2,525.2" />
				<path class="s-b" d="M595.9,611.3c1.4-0.2,2.7-0.4,4.1-0.5C598.6,610.9,597.3,611.1,595.9,611.3" />
				<path class="s-b" d="M536.9,440.6c1.5,0,3,0,4.4,0C539.9,441.4,538.4,441.3,536.9,440.6" />
				<path class="s-b" d="M613.5,297c-0.9,0-1.7,0-2.6,0C611.8,296.9,612.6,297,613.5,297" />
				<path class="s-b" d="M361.1,514.6c-0.9,0-1.8,0-2.6,0C359.3,514.6,360.2,514.6,361.1,514.6" />
				<path class="s-b" d="M190.9,456.9c1.5,0,2.9,0,4.4,0C193.9,457.7,192.4,457.8,190.9,456.9" />
				<path class="s-b" d="M940.4,459.3c-0.1,1.1-0.2,2.3-0.3,3.4C940.2,461.5,940.3,460.4,940.4,459.3" />
				<path class="s-b" d="M564.8,640.2c0.1-1.2,0.3-2.5,0.4-3.7C565.1,637.7,565,638.9,564.8,640.2" />
				<path class="s-b" d="M326.3,493.7c1.5,0,3,0,4.5,0.1C329.3,494.8,327.8,494.2,326.3,493.7" />
				<path class="s-b" d="M666.1,278c1.4-0.2,2.9-0.3,4.3-0.5C669,277.7,667.6,277.8,666.1,278" />
				<path class="s-b" d="M545,671.9c0.1,1.3,0.3,2.6,0.4,3.9C545.3,674.4,545.1,673.1,545,671.9" />
				<path class="s-b" d="M674.1,586.9c0-1.2,0-2.4,0-3.6C674.1,584.5,674.1,585.7,674.1,586.9" />
				<path class="s-b" d="M148.5,678.1c1.4,0.2,2.8,0.4,4.2,0.6C151.3,678.4,149.9,678.3,148.5,678.1" />
				<path class="s-b" d="M174.8,678.6c1.4-1.1,2.8-0.8,4.2-0.1C177.6,678.6,176.2,678.6,174.8,678.6" />
				<path class="s-b" d="M427.9,512.7c1.4-0.2,2.7-0.3,4.1-0.5C430.6,512.4,429.2,512.6,427.9,512.7" />
				<path class="s-b" d="M580.3,685c1.4-0.2,2.8-0.4,4.2-0.6C583.1,684.6,581.7,684.8,580.3,685" />
				<path class="s-b" d="M531.4,687.2c1.4-0.2,2.9-0.4,4.3-0.5C534.3,686.8,532.8,687,531.4,687.2" />
				<path class="s-b" d="M609.9,272.8c-0.1,1.2-0.1,2.3-0.2,3.4C609.8,275.1,609.8,273.9,609.9,272.8" />
				<path class="s-b" d="M274.1,547.2c0.1-1.2,0.3-2.4,0.4-3.7C274.4,544.8,274.2,546,274.1,547.2" />
				<path class="s-b" d="M598.9,243c0-1.2,0.1-2.4,0.1-3.6C599,240.6,598.9,241.8,598.9,243" />
				<path class="s-b" d="M326.6,533.6c0.1,1.2,0.3,2.4,0.4,3.7C326.8,536.1,326.7,534.9,326.6,533.6" />
				<path class="s-b" d="M331.3,493.8c1.4,0.2,2.9,0.3,4.3,0.5C334.2,494.1,332.8,493.9,331.3,493.8" />
				<path class="s-b" d="M561.5,672.2c0.8,2.4,0.5,8-1.8,9.7c-4.9,3.5-5.3-2.9-6.3-6.4c-2.7-9.7-7-20.5-8.1-30.4
				c-0.3-3.1-0.5-8.8,3.5-9.8c3.9-1,5.9,5.2,7.2,8.3C559.8,652.4,561.9,662.6,561.5,672.2" />
				<path class="s-b" d="M561.5,672.2c0.1-1.3,0.1-2.5,0.2-3.7C561.6,669.7,561.6,670.9,561.5,672.2" />
			</g>
		</g>
	</g>
</svg>