<?xml version="1.0" encoding="utf-8"?>
<!-- Generator: Adobe Illustrator 22.0.1, SVG Export Plug-In . SVG Version: 6.00 Build 0)  -->
<svg version="1.1" xmlns="http://www.w3.org/2000/svg" xmlns:xlink="http://www.w3.org/1999/xlink" x="0px" y="0px"
	viewBox="0 0 1024 768" style="enable-background:new 0 0 1024 768;" xml:space="preserve">
	<g>
		<g transform="translate(-54.000000, -30.000000)">
			<path class="p-b"
				d="M339.2,484.1c4.7-3.2,14.2-14.6,19.2-17.2c11.1-5.9,60.7-17.4,62.3-18c2.5-1,18.4-4.7,27.7-6.9
			c21.8-5.4,100-40,120.6-48.9c2.6,6.9,24.3,37.5,20.6,40.6c-12.3,10.3-34.2,23.1-48.4,30.5c-11.5,6-23.7,10.9-35.9,15
			c-13.9,4.6-23.5,9.5-37.4,14.2c-13.7,4.6,2.7,19,9.7,22c7.9,3.3,20.1,5,28.1,7.9c-14.2,22-26.1,48.8-28.5,75.1
			c-0.6,6.3-5.4,12.2-13.3,10.3c-4.1-1-41.5-6-47.7-7.4c-40.8-9.3-114.1-58-95.2-108C325.3,495.3,335.2,486.8,339.2,484.1z" />
			<g transform="translate(54.000000, 30.000000)">
				<path class="s-b" d="M308,189c3-0.3,10.9-6.3,6.8-9.4C310.7,176.5,307.7,186.9,308,189 M149.2,212.4c0.8-0.1,0.4-4.5-0.8-5.1
				c-4-1.8-4.3,4.8-4.4,6.6c-0.1,2.2-0.4,8.5,4.4,6.8C151.2,219.7,149.5,214,149.2,212.4 M383,232.7c-0.1,3.9,7.8,11.4,10.7,6.9
				C396.2,235.8,383.2,225,383,232.7 M105,144.9c2.3,5.8,13.5-2.1,14-6.4C119.8,129.8,104.9,139.1,105,144.9 M199,170
				c5.2-0.4,12.2-7.1,17.2-9.6c3.4-1.7,12.7-3.7,13.8-7.5c0.9-3.3-14.9,3.8-16.3,4.4C207.5,160.2,201.9,163.5,199,170 M592.9,124
				c4.2-3.2,9.3-5.3,14.6-5.2c2.7,0.1,8.3,1.7,8.5-2.9c0.3-7.5-23.3,1.7-27,3.1C590.3,120.7,591.6,122.4,592.9,124 M332,417.4
				c-3.1-5.1-8.6-8-12.7-12.4c1.5,7.1-1.9,13.5-4.3,20C320.7,422.5,326.3,419.9,332,417.4 M864.8,526c1.7-5.7,3.4-11.3,5.4-16.9
				c2.2-6.2,3.3-6.8-2-11.1c-4.4,8.3-8.8,16.6-13.2,24.9C858.1,524.2,861.4,525.5,864.8,526 M410,116.4c-5.8-6.6-33.1-7-29.7,7.5
				c1.2,5.1,7.9-0.3,12.1-1.5C396.5,121.2,408.3,121.1,410,116.4 M409,209.2c-0.7-1.7-2.1-7.7-4.2-8.2c-2-0.5-10.1,5.9-11.6,6.8
				c-7.5,4.8-14.9,10-22.2,15.1c2.8,0,5.4-1,8.2-1c3.3,0,5.7,1.3,8.9,0.6C395,220.9,403.1,213.2,409,209.2 M416.5,59.6
				c0.7-3,34.7,6,38.8,7.7c2.2,0.9,13.7,6.9,11.3-2.1c-1.4-5.1-14.7-9.1-19-10.5c-10.8-3.6-22.3-6.1-33.8-5.5
				c-2.2,0.1-19.2,1.1-12.1,7.9C404.2,59.4,412.9,58.6,416.5,59.6 M424,471.7c6.4,3.1,12.8,5.5,19.5,8c2.9,1.1,7.5,3.9,10.8,3.2
				c2.7-0.6,3.5-4.6,4.9-7.4c5.1-9.9,11.2-18,18.8-26.1c-3.5-2.6-21.4,8.8-25.8,10.4c-4.4,1.7-8.6,3.4-12.9,5.4
				C435.2,467,427.1,468.7,424,471.7 M536.5,387c9.3-4.2,18-11.6,25.6-18.3c8.7-7.6,16.5-15.6,22.9-25.5
				c-3.8,0.2-12.3,12.5-12.4-0.9c0-6.9,9.4-13.6,12.3-20c-7.3-4.1-13.9,20.4-22.2,14.5c-8-5.7,4.6-25.4,7.1-31.6
				c-4.7-3.1-31.5,31.9-35.4,36.4c-2.4,2.8-8.2,6.5-9.5,9.8c-0.8,1.9-0.9,8.1-0.5,9.9c0.8,3.7,5,8.2,6.8,11.7
				C533.4,377.5,535.4,382.1,536.5,387 M919.2,513.4c-8-11.3,0.3-16.2,6.8-25.6c5.2-7.5,10-15.8,13.3-24.1
				c8.3-21,15.7-40.4,19.8-62.6c-5.6,2.6-9.1,12.3-11.9,17.4c-3.8,6.9-7.1,14.1-11.3,20.8c-7.8,12.5-15.6,25.9-25.5,36.7
				c-4.5,4.9-8.4,10.4-13.6,14.9c-2.4,2-6.9,3.7-8.7,6.2c-1.7,2.4,0.2,3.9-0.4,6.8c-0.6,2.9-3.6,6-4.9,8.9c-1.7,3.7-3.2,7.4-5.1,11
				c-2,3.9-2.6,6-3.1,9.9c-0.6,4.2,1.2,4.7-2.4,8.5c6.7,2.9,13.4,5.9,20,8.8c2.3,1,4.5,2,6.8,3c0.5-0.9,1-1.8,1.4-2.7
				c1.8-1.8,3.5-6.2,4.6-8.5C909.2,533,914.1,523.1,919.2,513.4 M274.3,465.9c-19,49.9,47.7,92,88.7,101.2c5.7,1.3,11.2,3,16.9,4.4
				c6.2,1.5,11.6,1.2,17.8,1.8c4.9,0.5,7.2,4.3,11.8,5.3c7.7,1.7,7.2-4.1,7.8-10.3c2.3-26.3,15.8-51.7,30-73.7
				c-6.5-2.3-12.9-4.9-19.3-7.4c-5.5-2.2-13.9-8.3-19.8-8.6c-4.4-0.2-11,3.5-15.2,5.1c-7.1,2.7-14.1,5-21.5,6.9
				c-12.9,3.2-27.2,7.7-40.5,8c-3.8,0.1-14.4,1.9-17.1-0.5c-5.3-4.5,2-8.3,6.4-9.9c26.3-9.6,54.2-13.7,80.5-23.6
				c13.6-5.1,27-10.7,40.6-15.7c11.8-4.3,24.1-8.1,35.4-13.4c15-7,30.1-15.7,43.1-26c2.6-2.1,8-5.1,9.8-8.1c1.6-2.6,1.4,0,1-3.2
				c-0.2-2.3-3-5.4-4.2-7.5c-4.3-8-8.2-16.3-11.4-24.8c-20.7,8.9-40.4,21-60.9,30.5c-20.6,9.6-43.7,16.3-65.7,21.7
				c-9.4,2.3-20.1,3-28.7,7.5c-3.6,1.9-7.3,4.1-11.2,5.3c-1.2,2.2-2.3,2.6-3.4,1.3c-0.7-0.8-1.6-1.1-2.7-1c-2.4,0.4-4.8,1.5-7.1,2.4
				c-11.3,4.4-22.1,9.9-32.9,15.5c-5.1,2.7-10.3,5.3-15.2,8.3c-2.6,1.6-4.9,3.3-7.1,5.5C277.9,465.6,278.5,467.8,274.3,465.9
				 M701,169.5c4.8,0.1,9.2-2.5,14.2-2.4c7.9,0.2,14.1,6.3,18.6,12.2c9,11.6,6.7,25.6,2.2,38.7c-2.2,6.2-5.1,12.2-8.9,17.6
				c-3.3,4.8-9.2,9.4-11.5,14.7c-3.8,8.8,3.9,5.1,8.5,3.2c5.9-2.4,11.4-5.3,16.4-9.3c22.3-17.7,39.2-42.4,44.9-70.7
				c2.8-13.8,2.6-30-7.1-41.3c-8.8-10.3-24-13.7-37-11.8c-14,2.1-26.8,8-38.2,15.7c-3.3,2.2-6.4,4.7-9.5,7.1
				c-4.1,3.3-6.5,3.3-5.5,8.5c0.8,3.8,2.8,7.7,4.2,11.4C694.9,170,694,171.8,701,169.5 M716.3,287.3l-1,1.7
				c6.7,0.3,12.9-5.6,18.6-8.5c7.4-3.7,14-8.8,20.4-14c11.4-9.1,23-19.3,31.5-31.3c19.1-26.7,36.4-60.7,31.2-94.6
				c-5.6-36.5-37.6-50.6-71.6-45.8c-15.4,2.2-29.1,9-42.8,16c-6.9,3.5-12.8,8.1-19.1,12.5c-3.3,2.3-6.3,2.6-6.5,6.6
				c-0.2,3,5,9.8,6.5,12.6c17.2-17.6,35.8-32.2,61.9-33.1c31-1.1,49.3,28.3,49.2,56.5c-0.1,27.6-12,54.1-31,74
				c-8.6,9-16.8,16.2-27.4,22.8c-5.3,3.3-9.2,6.2-15.1,8.4c-4.2,1.5-3.7,0.7-4.8,4.6C715.3,279,716.2,283.9,716.3,287.3
				 M547.9,662.2c-0.4,5-1.4,9.9-2.5,14.7c-0.4,1.7-2.7,7.2-2.3,9.2c0.7,3.2-0.2,1.2,2.6,2.8c3,1.8,6.4,1.7,9.6,2.2
				c2,0.3,9.3,3.8,10.6,3.2c2.2-1,2.1-4.3,4.4-5.6c3.2-1.8,8-0.3,11,1.2c8.1,3.8,13.7,11.6,21.6,15.9c14,7.6,30.5,11.8,46.1,13.6
				c8.4,0.9,17.1,2.6,25.4,0.6c6.6-1.6,15.1-1.4,18.7-8.5c-31.7-8.7-80.1-19.4-92.6-55.8c-6.8,6.2-18.2,2.9-26.4,2
				c-9.1-0.9-17.2-0.7-25.4-4.8C547.9,656.2,547.7,658.9,547.9,662.2 M267.2,436.9c14.9,0.9,29.1-6.2,38.3-18.1
				c2.3-2.9,4.6-5.9,5.9-9.4c0.3-0.9,0.6-1.8,0.9-2.6c1.4-2.4,0.8-3.6-1.9-3.4c-1.5-2.1-5.3-2.8-4.2-6.5c0.8-2.8,3.8-2.9,6.5-3.8
				c-1.3-2.2-2.1-3.3-4-5.2c-4.9,4.4-13.7,12.9-17.1,2.9c-1.6-4.8,1.2-9.4,0.5-14.1c-0.3-1.9-2.7-6.8-4.1-8
				c-7.5-6.1-18.4-3.6-26.3,0c-5.5,2.5-6.7,3.7-7.6,9.3c-0.9,5.8-1.8,11.6-2.8,17.4c3.3-1.7,3.9-5.4,6.1-8.1
				c0.8,1.5,1.6,2.9,2.4,4.4c1.1-0.6,2.2-0.6,3.2,0.1c1.6,2.4,0.6,6.1,0.1,8.6c5.3-0.5,7.6,5.4,2.2,7.8c-5.5,2.5-8-4.3-8.2-8.7
				c-2.1,2.5-4.2,1.1-5.6,2.4c-1.4,1.3-2,3.9-2.5,6.8c-0.8,4.8-3,11.6-1,16.4C250.8,432.4,260.2,436.1,267.2,436.9 M699.6,209
				c-4.9,6.9-13.4,15.9-15.1,24.2c5.4-3.2,16.9-18.5,19.9-6.3c1.7,7-7,15.4-9.2,22.2c8.6-2.8,14.7-11.7,20-18.5
				c6.8-8.7,13.8-20.2,15.5-31.2c1.4-8.9-4.8-17.3-14-18.2c-4.7-0.4-9.6,0.3-14.2,1.4c-2.1,0.5-5.2,1.1-7,2.2
				c-2.3,1.4-2.6,4.7-4.8,1.9c-2.9,5.5-5.8,11-8.7,16.5c2.9-1.1,8.8-5.5,12-5.1C698.6,198.8,699.5,205.5,699.6,209 M237.3,74.6
				c-12.9,0.4-26.5,3.1-38.7,7.2c-3,1-15.9,4.6-13.2,9.9c1.8,3.5,11.4-1.4,14.3-2.3c12.5-3.5,25.3-5.8,38.1-7.9
				c3.1-0.5,13.6-0.5,14.1-4.5C252.6,72.1,240.9,74.6,237.3,74.6 M589.6,639.5c-7,0.9-13.8,0.5-20.8-0.3c-5.9-0.7-11.9-3.1-17.8-3.1
				c0,6.3-0.4,6.3,6.2,7.7c4.6,0.9,9.3,1.5,14,2.1c8.2,1.2,17.4,4.4,25.8,2.7c-0.2-1.1-0.8-8.5-1.7-9.2
				C594.8,638.9,590.3,639.5,589.6,639.5 M476.2,173.7c2,1.3,6.5,6.2,8.8,6.3c-0.8-5.8-7.3-15.8-14.7-12.3c-1.8,0.9-5.6,5.2-3.9,7.1
				C467.4,175.9,473.8,173.7,476.2,173.7 M407.8,225c0.1-1,0.1-2,0.2-3c-2.7,1.6-6.1,2.4-8,4.9c2.3,1,4.6,2.1,6.9,3.1
				C407.2,228.3,407.5,226.7,407.8,225 M621.5,378.2c12.8,4.5,24.6,10.5,34,20.7c8.2,8.8,12,24.3,14,35.8c4.9,28.5-4.6,55-10.8,82.3
				c-3.2,13.9-7.9,27.2-12.4,40.7c-3.9,11.8-7.2,24.1-12.6,35.3c-4.5,9.5-10.3,18.9-14.3,28.7c-2.2,5.3-5.6,23.5-13.8,17.8
				c-2.2,5.8-2.8,5.3-0.4,9.4c1.7,2.9,7.6,7,10.3,9.4c7.4,6.4,16.7,11.6,25.3,16c15.8,8.2,32.7,14.3,49,21.7
				c7.2,3.3,15,7.2,13.4,16.6c-1.4,7.9-5.9,13.9-13,17.4c-6.7,3.3-16.2,5.8-23.6,6.9c-4.4,0.6-5.4-1.2-8.9-1.8
				c-4-0.7-8.6,0.7-12.7,0.6c-18.3-0.2-34.4-4.8-49.2-15.4c-5.3-3.8-13.1-14.1-20-14.1c-3.5,0-2.8,2.2-5.9,3.4
				c-3.8,1.6-10.5-1.4-14.2-2.1c-8-1.5-16.2-3-21.6-9.9c-5.8-7.5-3.7-16.8-1.2-25.1c2.8-9.4,7.5-18.9,9.5-28.4
				c0.5-2.3,0.9-6.6,0.4-9c-0.8-3.7-4.5-5.8-4.6-9.8c0-1.2,1.7-2.8,2-4c0.7-2.7,0.6-5.6,0.8-8.3c0.5-5,1.6-9.7,2.4-14.6
				c1.8-11.1,5.3-21.1,8.7-31.8c3.3-10.4,6.4-18.2,12.8-27.2c3.3-4.7,14.3-21.3,8.9-26.1c-7.3,14.4-15.9,25.7-27.2,37.2
				c-8.6,8.8-17,20.6-27.8,26.9c-11.8,6.9-26.3,10.9-39.4,14.6c-6.2,1.7-11.4,5.6-18.1,6.3c-7.3,0.8-14.6-0.1-21.8-1.8
				c-2-0.5-7.8-3.5-9.6-3.3c-2.7,0.3-6.5,5-9.4,5.9c-7.1,2.1-12-1.9-17.4-5.7c-5.9-4.1-7.6-5.1-14.4-5.6c-8.3-0.6-16.4-3.5-24.5-5.3
				c-14.3-3.1-26.5-9.5-39.6-16.2c-14.9-7.6-27.7-18.2-39-30.7c-16.6-18.3-39.6-69.1-12.6-86.9c-15.9-2.2-30.5-9.1-32.4-27.1
				c-1-9.4,0.9-19.9,3.3-29c1.1-4.2,2.4-8.3,3.6-12.4c0.9-1.4,1.4-2.9,1.5-4.6c0.6-2.1-0.3-3.2-2.5-3.2c-4.2-4.9-7.3-9.2-8.2-16.2
				c-0.3-2.2-0.5-5.6,1.1-7.5c0.7-0.8,1.6-1.3,2.6-1.5c2.5,0.1,3.2-1.1,2.1-3.6c1.2-3.6-0.6-6.5,3.9-8c1.4,0.3,2.9,0.6,4.3,1
				c1.8,0.8,3,0.2,3.6-1.8c4.2-1.7,2.3-4.1,8-2c3.5,1.3,6.8,3.5,9.3,6.2c3.2-2-4.1-14.7-4.3-18.7c-0.6-9.5,3.4-17.3,8.5-25.1
				c9.9-15.2,23.8-28.2,37.4-39.9c26.2-22.5,53.7-43.8,83.2-61.7c-12.2-8.5-26.4-10.8-40.9-6.8c-13.4,3.6-24.2,10.2-36.5,16
				c-11.4,5.3-23.5,7.5-27.1-7c-4.1-16.3,8.9-22.4,20.6-29.7c-2.9-2.2-12.5-0.6-16.1-0.4c-8.1,0.6-15.8,2.4-23.6,4
				c-3.8,0.8-7.2,0.6-10.9,1.4c-5.5,1.1-11.3,2.4-16.9,4c-13.3,3.8-26.6,9.6-38.1,17.4c-10,6.7-16.9,16.3-24.9,25
				c-9.2,10-17.9,19.8-31.5,23.5c-6.4,1.7-13.8,3.3-18.3-2.4c-4.2-5.3-4.4-11.6-4.3-18.1c0.3-14.3,7.2-29.7,15.2-41.3
				c8.7-12.6,20.3-19.9,31.3-30.1c-15.9,1.1-31.3,9.5-45.9,15.3c-3.1,1.2-6.2,2.6-9.3,3.7c-3.3,1.2-5.5,0.5-8.6,1
				c-7.2,1.3-13.4,4.3-20.4-0.5c-13.3-9.2,0-27.8,9.2-33.6c12.7-8,25.7-14.7,39.7-20.4c-7.6-8.2-1.1-20,5.9-25.8
				c8.9-7.4,20.1-11.6,30.8-15.6c8.4-3.1,16.7-6.1,25.5-8c9.2-2,20-5,29.3-4.7c8.8,0.3,16.5-1.3,25.4-1.5c7.4-0.2,14.8,0,22.2-0.2
				c19.9-0.5,39.8,0.8,59.3,2.3c-15.4-45,86-31.1,107.7-25.2c19.7,5.3,42.2,11.5,58.7,24.2c7,5.4,13.6,11.5,19.9,17.7
				c9.2,9.2,14.2,21.4,19.1,33.3c12.3-6,24-12.6,37.5-15.6c12.8-2.8,25.9-6.7,38.8-8.8c9.8-1.6,24-2.7,32.2,4.2
				c8.9,7.5,13.6,19.2,18.9,29.2c25.6-24.3,54.2-42.1,90.8-40.9c35.8,1.2,59.3,32,63.6,65.5c4.8,36.9-11.7,75.4-33.9,104
				c-10,12.8-20.3,25.2-33.8,34.7c-6.7,4.7-13.7,9.9-21,13.6c-3.6,1.8-7.6,3.5-11.5,4.9c-1.7,0.6-3.5,1.3-5.3,1.7
				c-5.1,1.2-4.1-0.4-6,4.1c-1.5,3.6-1.4,9.9-2,13.9c-0.8,4.6-1.2,9.2-2.3,13.7c-1.9,7.8-3.9,15.4-6.3,23.1
				c-4.5,14.4-10.7,29-18.1,42.2c6.3,2.8,15.2,3,22,3.9c7.3,0.9,14.7,2.8,22.3,4.9c15.3,4.3,28.9,7.9,43.5,14.3
				c15.1,6.6,28.5,16.6,43.1,24.5c13.4,7.3,26.9,16.4,39.3,25.1c3,2.1,4.8,3.9,7.1,6.5c2.4,2.7,3.2,3.2,6,5.5c1.3,1,5.1,6.3,6.5,6.5
				c2.6,0.4,2.2-1.6,4.3-4.4c4.3-5.8,10.4-10.2,14.7-16.1c3.6-4.9,7.3-9.9,11.2-14.2c9.3-10.3,17-21.6,23.6-33.9
				c3.4-6.4,7.1-12.5,10.8-18.5c3.7-6,10.3-13.9,17.7-13.6c-0.6-3.1-2.5-3.6,0.8-5.4c2.1-1.2,6.2,0.7,7.8,2
				c4.3,3.2,4.5,9.5,4.2,14.3c-0.7,12.2-3.2,24.2-6.8,35.7c-4.3,13.8-9.6,26.1-15.5,39.3c-4.7,10.5-10.4,24.4-22,29.3
				c7.8,11.1,4,20.1-1.2,31.9c-3.8,8.6-8.8,17.5-16.4,23.2c-8.6,6.4-17.9,1-26.9-3.3c-5.4-2.6-22.1-8.6-18.7-16.5
				c-4.2-0.6-6.8-3.6-10.5-4.5c-4-1-3.3,0.6-7.6,1.3c-3.2,0.5-8.1-2.4-11.2-3.5c-5.1-1.7-10.2-3.5-15.3-5.3
				c-14.4-4.9-28.5-9.8-43-13.8c-27-7.4-54.3-11.6-81.2-18.1c-5.4-1.3-10.7-2.6-16.4-3.6c-1.2-0.2-7.2-0.6-7.9-1.8
				c-1.3-2.2,2.7-14.3,3-16.8c2.2-16.3,1.5-34.1-1.6-50.2c-1.3-6.7-7.1-15.3-7-21.9c0-4.4,3.9-9.2,6.2-13.1
				c5.6-9.8,11.5-20.4,15.7-30.6c6.4-15.6,10.3-33.2,13.1-49.9c1.5-8.7,3.2-18.2,3.6-27c0.3-6.7-0.2-13.8,0.7-20.7
				c-3.7,0.4-9,2.3-12.3,0.2c-4.2-2.6-5.4-10-4.8-14.5c-14.5,2.5-14-11.2-13.1-22c-26.2,0,7.3-38.9,11.5-47.3c1.9-3.8,1.9,0.5,1-5.5
				c-0.4-2.6-2.2-5.5-3.2-7.9c-2.2-5.2-4.6-10.4-7.1-15.5c-5.4-10.7-11.4-21.1-18.1-31.1c-6,4.2-11.4,9.1-16.3,14.4
				c3.2-8.4,13-18.7,8.8-28.2c-3.9-8.8-16.8-8.2-24.5-6.6c-20.8,4.4-40.7,10.8-60.5,18.1c6.1,3.5,15.5,0.8,21.6-1.9
				c7.5-3.3,15.7-6.8,23.8-8.6c7.1-1.5,16.4-1,14.4,8.5c-1.7,7.7-9.2,15.2-14.2,21c-11,12.7-24.8,22.6-38.4,32.5
				c-14.6,10.6-28.6,22.1-43.4,32.4c-26.7,18.6-55.3,34.8-82.9,52.1c-14.3,9-30.5,16.3-46.1,23c-17.1,7.4-33.5,15.2-51.2,21
				c-9.8,3.2-19.6,5.9-29.3,9.6c-6.1,2.3-16.6,6.9-20.6,0.1c-8.1-13.9,21.3-32.1,29.4-40.6c5.6,5.4-21.9,25.5-19.7,33.4
				c1.7,6.2,8.2-1.8,11.4-3.5c5.1-2.7,11.1-4.1,16.2-7.2c10.5-6.4,22.9-13.7,25.3-26.9c-1.7-1.8-1.6-3.4,0.1-4.9
				c0.8-0.9,1.4-1.9,1.8-3c0.7-2.1,1-4.7,1.4-6.9c1.2-6.5-1.8-12.6,1-18.9c-16.2,12.3-31.7,26.1-47.1,39.4
				c-13.8,11.9-28.2,27.5-33.2,45.3c-0.6,2.3-1.7,4.9-1.6,7.3c0.2,4.7,0.7,3.7,4.5,5.2c3.8,1.5,9.3,1.4,13.4,1.5
				c2.3,0.1,12.7-2.4,10.7,2.7c-1.2,2.9-8.4,2.8-11,3.1c-6.5,0.7-10,0-6.9,7c1.4,3.1,4.2,5.3,6.4,7.7c6.1,6.8,9.4,17.2,14.2,25.1
				c5.5,9.1,11.5,17.7,17.8,26.2c2.6,3.5,6.1,10,9.8,12.5c3.4,2.3-0.6,2.1,5.1,1.2c2.5-0.4,4.7-2,7.1-2.6
				c14.1-3.4,28.6-7.3,43.2-11.5c18.6-5.4,38.2-10,56-17.8c15.9-7,31.7-15.3,47.8-22.4c4.7-2.1,9.4-3.4,13.1-7.2
				c4.4-4.6,8.1-10.6,12.1-15.5c6.9-8.4,13.3-16.9,20.7-24.9c5.5-5.9,15.4-16.9,23.2-19.3c14.9-4.5,6.9,18.1,5,23.9
				c3.5,0.8,5.3-3.7,9.4-2.4c4.9,1.5,5.4,8.1,6,12.2c0.2,1.1-1.3,3.1-0.9,4.1c0.2,0.3,3.4,2.2,4,3.1c2.2,3.2,1.8,7.1,1,10.5
				c-4.4,17.8-20,30.8-31.5,44c5.1-1,9-3.9,13.8-5.4c4.6-1.4,9.1-1.3,13.7-1.7c4.8-0.4,9.4-2.2,14.3-2.3
				C611.4,376.2,616.3,377.7,621.5,378.2" />
				<path class="s-b" d="M77.7,218c-2.8,1.9-3.6,3.7-3.7,7.9c0,1.8,0.1,8.3,2.5,8C78.8,233.8,77.7,220.2,77.7,218 M63.1,228.7
				c1.3-13.7,6.3-27.6,18.1-36.2c2.9-2.1,6.2-2,9.4-3.4c1.9-0.8,5-4.5,7.1-4.1c8,1.6-1.2,12.3-2.6,15.1c-4.2,8.7-3.9,16.3-3.8,25.7
				c0.1,7.1,1.6,19.1-2,25.6c-3.8,6.9-12.1,2.4-16.8-1.7C66.7,244.6,62.3,236.5,63.1,228.7" />
				<path class="s-b" d="M204,269.1c0,7.6,6.2,2.5,6-3C209.7,258.2,203.7,263.1,204,269.1 M237,226.9c-6.8,6.1-12,9.5-13.3,18.9
				c-1,7.1,0,14.2,0,21.3c0.1,12-9.6,24.6-20.1,10.9c-7.6-10-4.9-25.8,1.3-35.9c3.3-5.3,7.9-10.5,13.3-13.8
				C222.3,225.8,233.6,220.9,237,226.9" />
				<path class="s-b" d="M142.2,412c-0.8,1.9-2.6,9.5,1.1,7.7C146.6,418.2,144.5,413.2,142.2,412 M122.2,388.5
				c-0.6-2.9-0.3-20.8,4.6-19.4c3.9,1.1,4.5,10.2,6.1,13.4c5.9,11.9,19.4,19.3,24,31.6c5.2,13.7-10.5,14.1-18.9,8.6
				C128.2,416.1,122.5,400,122.2,388.5" />
				<path class="s-b" d="M110.1,315c2.1-2.9,2.4-4.4,1.1-7C109.7,309.7,110,312.1,110.1,315 M111.7,327.9
				c-11.2,1.3-11.7-19.3-9.8-26.4c1.5-5.6,4.8-11.7,8.2-16.3c0.7-0.9,7.1-9.2,8.4-9.3c4.9-0.1,3.5,5.4,3,7.5
				c-1.7,6.4-2.3,11.8-1.9,19C120,310.1,123.7,328.2,111.7,327.9" />
				<path class="s-b" d="M619,149.6c-16,13.4-31.1,27.9-48.5,39.6c-8.5,5.7-17.4,10.8-25.9,16.6c-4.3,3-8.7,5.6-13.5,7.8
				c-4.2,1.9-7,2.2-3.5-2.4c2.3-3.1,7.6-5.2,10.8-7.4c4.9-3.3,9.6-7.1,14.7-10c9.1-5.2,18.2-9.5,26.6-15.9
				c7.5-5.7,15.2-11.3,22.3-17.3C605.1,158.1,615.3,146.2,619,149.6" />
				<path class="s-b" d="M619.3,198c7.2,6.1-10.8,23-14.9,26.8c-4.3,4-9.1,7.6-13.8,11.2c-1.7,1.3-10.7,9.7-13,9
				c-4.5-1.3,1.4-6.8,3-8.2c5-4.6,10.1-9.1,15-13.8c4.4-4.3,9.2-8.2,13.4-12.6C612.5,206.8,615.4,200.7,619.3,198" />
				<path class="s-b" d="M87,445.8c-1.9-4.3-5.2,0.5-3.5,2.6C85.1,450.5,86.8,446.6,87,445.8 M76,437.2c1-6.4,3.3-9.9,9.3-4.5
				c4.1,3.7,12.4,14.4,11.6,20.2c-1,7.6-9.4,5.5-13.8,1.5C78.7,450.3,76.7,442.8,76,437.2" />
				<path class="s-b"
					d="M89.1,563c-7.3-0.6-13.6-6.2-16.7-12.8c-2.6-5.6-5.1-14.5,4.1-11.6C82.5,540.5,105.7,563.9,89.1,563" />
				<path class="s-b" d="M178.2,526.7c-5.7,1.3-11.3-2.4-14.8-6.7c-2.2-2.6-7.2-11.8-4.7-15.6c3.6-5.3,8.9,5.3,10.8,7.4
				C172.4,515.2,181.8,521.5,178.2,526.7" />
				<path class="s-b"
					d="M183.3,383c-4.4-2.1-8.6-4.6-10.4-9.5c-1.1-3.1-2.1-12.6,3-12.5C181.7,361.1,195.1,382.1,183.3,383" />
				<path class="s-b" d="M152.1,285c6-0.1,7.4,3.2,8.2,7.9c0.6,3.2,3.3,14.1,0.5,16.3c-4,3.2-10.5-4.1-11.8-7
				C146.3,296.3,150,290.5,152.1,285" />
				<path class="s-b" d="M254.5,611.1c2.9,1.3,9.5,4.2,7,8.8c-2.6,4.8-10.2,0.1-13-1.9c-1.2-0.9-8.7-6.6-8.4-8.5
				C240.7,605.5,251,610.8,254.5,611.1" />
				<path class="s-b"
					d="M63.3,314.5c2,5,4.2,22-6.2,12.8c-3.2-2.8-3.7-6.3-2.6-10.2C56.1,311.5,58.4,312.7,63.3,314.5" />
				<path class="s-b"
					d="M616.5,251c-2.3-4.7,3.4-7.8,6.4-10.8c2-2,10.4-12.8,13.1-12.2C641.7,229.3,619.3,248.9,616.5,251" />
				<path class="s-b"
					d="M152,593.1c5.4-0.9,6.7,5.2,10.2,7.8c1.5,1.1,6.7,2.1,5.6,4.5C165.1,611.7,151.7,597.3,152,593.1" />
				<path class="s-b" d="M198,450.2c3.7-1.6,14.6,6.9,11.4,10.5C204.8,466.1,198.3,453.2,198,450.2" />
				<path class="s-b" d="M276.9,572c-2.7,0.3-14.2-3.3-10-8.2C269.9,560.4,277.9,568.9,276.9,572" />
				<path class="s-b" d="M139,548.7c-2.7,1.1-12.5-1.1-9.4-5.4C132.5,539.3,139,545.4,139,548.7" />
				<path class="s-b" d="M219,567c3.2-0.3,5.5,1.6,6,4.8C221,572.4,219.8,571.5,219,567" />
				<path class="s-b" d="M631,97.5c1.3,0,2.7,0,4,0C633.7,97.5,632.3,97.5,631,97.5" />
				<path class="s-b" d="M610,376c-2,0-4,0-6,0C606,376,608,376,610,376" />
				<path class="s-b" d="M337.1,50c-0.1,2-0.2,4-0.3,6C337,54,337,52,337.1,50" />
				<path class="s-b" d="M956.8,390c0.6,2.2-0.3,2.6-2.8,1.1C954.9,390.7,955.9,390.4,956.8,390" />
				<path class="s-b" d="M900,564.5c1,0,2,0,3,0C902,564.5,901,564.5,900,564.5" />
				<path class="s-b" d="M710,403.5c-1.7,1.3-3.3,1.5-5-0.1C706.7,403.5,708.3,403.5,710,403.5" />
				<path class="s-b" d="M672.6,233c0,1.7-0.1,3.3-0.1,5C672.5,236.3,672.5,234.7,672.6,233" />
				<path class="s-b" d="M759,78.7c-1.7,0-3.3,0-5,0C755.7,78.1,757.3,78.3,759,78.7" />
				<path class="s-b" d="M270,58.4c-1.7,0.1-3.3,0.2-5,0.3C266.7,58.5,268.3,58.5,270,58.4" />
				<path class="s-b" d="M311,58.7c-1.3-0.1-2.7-0.2-4-0.3C308.3,58.4,309.7,58.6,311,58.7" />
				<path class="s-b" d="M333,60.3c-1.3,0.5-2.7,0.8-4,0C330.3,60.3,331.7,60.3,333,60.3" />
				<path class="s-b" d="M214,63c-1.7,0.3-3.3,0.7-5,1C210.7,63.7,212.3,63.3,214,63" />
				<path class="s-b" d="M673.6,470c0,1-0.1,2-0.1,3C673.5,472,673.5,471,673.6,470" />
				<path class="s-b" d="M122.5,389c0,0.7,0,1.3,0.1,2C122.5,390.3,122.5,389.7,122.5,389" />
				<path class="s-b" d="M963,385.4l-5,0C959.7,384.2,961.3,384.4,963,385.4" />
				<path class="s-b" d="M621,378.3c-1.3-0.2-2.7-0.4-4-0.7C618.3,377.9,619.7,378.1,621,378.3" />
				<path class="s-b" d="M255,611c-1.7-0.3-3.3-0.7-5-1L255,611z" />
				<path class="s-b" d="M591.5,324c0-1-0.1-2-0.1-3C591.5,322,591.5,323,591.5,324" />
				<path class="s-b" d="M275,58.7c-1-0.1-2-0.2-3-0.4C273,58.4,274,58.6,275,58.7" />
				<path class="s-b" d="M439,34c-1-0.3-2-0.6-3-0.9C437,33.3,438,33.7,439,34" />
				<path class="s-b" d="M558,708.4c0.7,0,1.3,0.1,2,0.1C559.3,708.5,558.7,708.5,558,708.4" />
				<path class="s-b" d="M99,171.5c1,0,2,0.1,3,0.1C101,171.5,100,171.5,99,171.5" />
				<path class="s-b" d="M770,79.7c-1.7-0.1-3.3-0.2-5-0.4C766.7,79.4,768.3,79.6,770,79.7" />
				<path class="s-b" d="M243,75c-2.3,0-4.7,0-7,0C238.3,75,240.7,75,243,75" />
				<path class="s-b" d="M715.5,281c0,1.7,0.1,3.3,0.1,5C715.5,284.3,715.5,282.7,715.5,281" />
				<path class="s-b" d="M593,639c-1.3,0-2.7,0-4-0.1C590.3,639,591.7,639,593,639" />
				<path class="s-b" d="M735,109.2c2-0.2,4-0.4,6-0.7C739.1,110.2,737,109.1,735,109.2" />
				<path class="s-b" d="M582,639.6c-1,0-2-0.1-3-0.1C580,639.5,581,639.5,582,639.6" />
				<path class="s-b" d="M547.4,657c0,1.7,0.1,3.3,0.2,5C547.5,660.3,547.5,658.7,547.4,657" />
				<path class="s-b" d="M700,170.6c1.3-0.1,2.7-0.2,4-0.4C702.8,171.2,701.4,170.6,700,170.6" />
				<path class="s-b" d="M263,436.6c1.3,0.2,2.7,0.5,4,0.7C265.7,437.1,264.3,436.9,263,436.6" />
				<path class="s-b" d="M471,173.5c1.7-1.4,3.3-1.3,5,0C474.3,173.5,472.7,173.5,471,173.5" />
				<path class="s-b" d="M408.4,224c0-0.7,0.1-1.3,0.1-2C408.5,222.7,408.5,223.3,408.4,224" />
				<path class="s-b" d="M699.5,205c0,1.3,0,2.7,0,4C699.5,207.7,699.5,206.3,699.5,205" />
				<path class="s-b" d="M258.3,414c2.2,0.7,6.6,3,9.2,2.7c2-0.2,3.7-2.7,5.7-2.7c5.3,0,4.3,6.2,1.8,9.4
				C268,432.4,252.5,422.7,258.3,414" />
				<path class="s-b" d="M280,382c7.2,1.9,3.6,17.8-2.5,18.9c-7.2,1.3-8.4-11.7-7-16.4c3.7,2.2,1.4,10,6.1,7.9
				C279.5,391,279.1,384.7,280,382" />
			</g>
		</g>
	</g>
</svg>