<svg xmlns="http://www.w3.org/2000/svg" viewBox="0 0 46.4 46.4"><defs><style>.fillPrimaryLight{fill:#fee78b;}.fillSvgCutout{fill:#fff;}</style></defs><title>fork</title><g id="Layer_2" data-name="Layer 2"><g id="Layer_1-2" data-name="Layer 1"><g id="_Group_" data-name="&lt;Group&gt;"><path id="_Path_" data-name="&lt;Path&gt;" class="fillPrimaryLight" d="M46.4,23.2A23.2,23.2,0,1,1,23.2,0,23.22,23.22,0,0,1,46.4,23.2Z"/><path id="_Path_2" data-name="&lt;Path&gt;" class="fillSvgCutout" d="M30.2,27.7c0-.1,0-5-2.5-20.4H26.5l.8,18.1a.7.7,0,0,1-1.4,0L25.1,7.3H23.9V25.4a.7.7,0,1,1-1.4,0V7.3H21.4l-.8,18.1a.7.7,0,1,1-1.4,0L20,7.3H18.8c-2.5,15.4-2.5,20.4-2.5,20.4,0,3.3,2.3,5.2,5.3,5.6l-.3,12.9a12.1,12.1,0,0,0,1.9.1,12.1,12.1,0,0,0,1.9-.1l-.3-12.9C28,32.8,30.2,31,30.2,27.7Z"/></g></g></g></svg>