<svg viewBox="0 0 28 28" fill="none" xmlns="http://www.w3.org/2000/svg" aria-hidden="true" focusable="false">
    <path
        d="M28 14.322C28 13.3703 27.9212 12.4135 27.7533 11.4773H14.282V16.8683H21.9964C21.6763 18.6069 20.6477 20.145 19.1416 21.1224V24.6203H23.7439C26.4466 22.1821 28 18.5812 28 14.322Z"
        fill="#4285F4"></path>
    <path
        d="M14.2821 28C18.134 28 21.3825 26.7603 23.7492 24.6204L19.1469 21.1224C17.8664 21.9763 16.2133 22.4599 14.2873 22.4599C10.5614 22.4599 7.40214 19.9959 6.26861 16.6831H1.51929V20.2891C3.9438 25.0165 8.88204 28 14.2821 28V28Z"
        fill="#34A853"></path>
    <path
        d="M6.26333 16.6831C5.66507 14.9444 5.66507 13.0617 6.26333 11.323V7.71704H1.51926C-0.506419 11.6728 -0.506419 16.3333 1.51926 20.2891L6.26333 16.6831V16.6831Z"
        fill="#FBBC04"></path>
    <path
        d="M14.2821 5.54108C16.3183 5.51022 18.2862 6.26125 19.7609 7.63985L23.8385 3.64293C21.2565 1.26638 17.8297 -0.040209 14.2821 0.000943412C8.88204 0.000943412 3.9438 2.98449 1.51929 7.71702L6.26336 11.323C7.39165 8.00508 10.5561 5.54108 14.2821 5.54108V5.54108Z"
        fill="#EA4335"></path>
</svg>