<svg xmlns="http://www.w3.org/2000/svg" viewBox="0 0 46.4 46.4"><defs><style>.fillSecondaryBase{fill:#212529;}.fillSvgCutout{fill:#fff;}</style></defs><title>knife</title><g id="Layer_2" data-name="Layer 2"><g id="Layer_1-2" data-name="Layer 1"><g id="_Group_" data-name="&lt;Group&gt;"><path id="_Path_" data-name="&lt;Path&gt;" class="fillSecondaryBase" d="M46.4,23.2A23.2,23.2,0,1,1,23.2,0,23.22,23.22,0,0,1,46.4,23.2Z"/><path id="_Path_2" data-name="&lt;Path&gt;" class="fillSvgCutout" d="M25.9,8.7c-.3-1.3-1.1-2.7-3.4.8-2.1,3.1-3.7,8.8-3.7,18.8,0,7-.2,10.8,1.9,13.8a3.92,3.92,0,0,0,1.4,1.2L22,46.4h1.2c.9,0,1.7-.1,2.6-.1l-.1-3.2a.1.1,0,0,0,.1-.1c.4-.4.5-9.1.5-17.7C26.4,17.2,26.2,9.8,25.9,8.7Z"/></g></g></g></svg>