<?xml version="1.0" encoding="utf-8"?>
<!-- Generator: Adobe Illustrator 22.0.1, SVG Export Plug-In . SVG Version: 6.00 Build 0)  -->
<svg version="1.1" xmlns="http://www.w3.org/2000/svg" xmlns:xlink="http://www.w3.org/1999/xlink" x="0px" y="0px"
	viewBox="0 0 660 660" style="enable-background:new 0 0 660 660;" xml:space="preserve">
	<title>Eateri Restaurant</title>
	<g>
		<path d="M659.7,177.9c-0.1-11.3-0.9-22.5-2.5-33.7c-3.5-26.4-12.7-48.5-27.5-66.5c-12.1-14.7-27.9-26.6-47.2-35.9
		c-43.4-20.9-89.6-26.6-136.6-25c-3.8,0.1-7.7,0.3-11.5,0.5l-9.8,0.6c-112.4,7.7-217.8,38.5-315.1,94.7c-8.2,4.7-16.4,9.7-24.5,14.8
		c-10.4,6.6-20.2,13.9-29.5,21.9c-7.3,6.3-14.3,12.9-20.8,20c-33.8,36.3-39,79.8-31.8,126.4c2.7,17.1,6.7,34,12.1,50.5
		c8.4,25.5,19.5,50.1,33,73.3c4.2,7.1,8.4,14.2,12.9,21.1c20.9,32.7,45.5,62.8,73.3,89.8c26.4,25.5,55.9,47.7,87.7,66.1
		c2.9,1.7,5.9,3.4,8.9,5c19.2,10.6,39.3,19.3,60.2,25.9l9,2.7c0.5,0.1,0.9,0.2,1.4,0.4l14.4-95.8c2.7-38.1-12.8-75.3-41.8-100.2
		l-13.9-11.9c-13.8-11.8-23.5-27.7-27.9-45.3c-0.7-3.2-1.2-6.5-1.7-9.7v-184c0-12.2,9.9-22.1,22.1-22.1c12.2,0,22.1,9.9,22.1,22.1
		v154.8c0,11,8.9,19.9,19.9,19.9s19.9-8.9,19.9-19.9V183.6c0-7.7,4-14.8,10.7-18.7c7.3-2.1,15.1-2.2,22.4-0.2
		c6.8,3.9,11,11.1,11,18.9v154.8c0,11,8.9,19.9,19.9,19.9s19.9-8.9,19.9-19.9V183.6c0-12.2,9.9-22.1,22.1-22.1s22.1,9.9,22.1,22.1
		v184.2c-0.5,3.2-1,6.5-1.8,9.7c-4.3,17.6-14,33.5-27.8,45.3l-13.7,11.9c-29.1,24.8-44.7,62-42,100.2l16.3,108.5
		c7.8,0.3,15.7-0.2,23.4-1.5c35.7-6,66.6-28.6,94.8-57.5c13.8-14.1,26.6-29.2,38.4-45c30.2-40.5,53.6-85.3,74-132
		c0.8-1.5,1.5-3.1,2.1-4.7c24.6-57.2,42-116.6,50.5-178.2C658.9,209,659.9,193.4,659.7,177.9z" />
	</g>
</svg>