<svg xmlns="http://www.w3.org/2000/svg" version="1.1" x="0" y="0" viewBox="0 0 659.7 627" xml:space="preserve">
    <linearGradient id="logoBgGradient" gradientUnits="userSpaceOnUse" x1="387.155" y1="848.41" x2="221.87" y2="285.547"
        gradientTransform="matrix(1 0 0 -1 0 876.507)">
        <stop id="logoLightStop" offset="0" style="stop-color:#fccc3e" />
        <stop id="logoDarkStop" offset="1" style="stop-color:#fec21c" />
    </linearGradient>
    <path id="logoBg" fill="url(#logoBgGradient)"
        d="M659.7 161.5c.2 15.6-.8 31.1-2.9 46.6-8.5 61.6-25.9 121-50.5 178.2-.6 1.6-1.3 3.1-2.1 4.7-20.4 46.7-43.8 91.5-74 132-11.7 15.7-24.5 30.8-38.4 45-28.2 28.9-59.1 51.5-94.8 57.5-7.6 1.3-15.3 1.8-23.4 1.5-1.3 0-2.7-.1-4-.2-2.7-.2-5.4-.5-8.1-.9-2.8-.4-5.6-.9-8.5-1.5-16.9-2-32.9-5.1-48.1-9.2-1.1-.3-2.3-.6-3.4-1-.5-.2-1-.3-1.5-.4l-9-2.7c-21.2-6.7-41-15.4-60.2-25.9-3-1.6-6-3.3-8.9-5-32.4-18.7-61.5-40.8-87.7-66.1-27.6-26.6-52-56.8-73.3-89.8-4.5-6.9-8.7-14-12.9-21.1-13.4-23.4-24.7-47.7-33-73.3-5.3-16.3-9.4-33.1-12.1-50.5-7.2-46.6-2-90.1 31.8-126.4 6.6-7.1 13.5-13.8 20.8-20 9.3-8 19.1-15.3 29.5-21.9 8.1-5.1 16.3-10.1 24.5-14.8 97.3-56.2 202.7-87 315.1-94.8 3.3-.2 6.6-.4 9.8-.6 3.8-.2 7.7-.4 11.5-.5 47-1.6 93.2 4.1 136.6 25 19.3 9.3 35.1 21.2 47.2 35.9 14.8 18 24 40.1 27.5 66.5 1.6 11.2 2.4 22.5 2.5 33.7z" />
    <path id="logoTopShadow" opacity=".05" fill="#0A0F17"
        d="M659.7 161.5C607.3 120.8 547 95.7 484.9 86.1c-120.5-18.8-248 20.2-337.9 115.8-26.6 28.2-48 59.4-64.3 92.4C65.5 329 54 365.7 48 403.1c-13.4-23.4-24.7-47.7-33-73.3-5.3-16.3-9.4-33.1-12.1-50.5-7.2-46.6-2-90.1 31.8-126.4 6.6-7.1 13.5-13.8 20.8-20 9.3-8 19.1-15.3 29.5-21.9 8.1-5.1 16.3-10.1 24.5-14.8C206.8 40 312.2 9.2 424.6 1.4c3.3-.2 6.6-.4 9.8-.6 3.8-.2 7.7-.4 11.5-.5 47-1.6 93.2 4.1 136.6 25 19.3 9.3 35.1 21.2 47.2 35.9 14.8 18 24 40.1 27.5 66.5 1.6 11.3 2.4 22.6 2.5 33.8z" />
    <path id="logoRightShadow" opacity=".05" fill="#0A0F17"
        d="M659.7 161.5c.2 15.6-.8 31.1-2.9 46.6-8.5 61.6-25.9 121-50.5 178.2-.6 1.6-1.3 3.1-2.1 4.7-20.4 46.7-43.8 91.5-74 132-11.7 15.7-24.5 30.8-38.4 45-28.2 28.9-59.1 51.5-94.8 57.5-7.6 1.3-15.3 1.8-23.4 1.5-6.7-.3-13.6-1.1-20.7-2.6-18.2-2.1-35.2-5.6-51.5-10.2-.5-.2-1-.3-1.5-.4 43.4-19 83.2-46.1 117.1-80 37-37 66.9-82.3 86.7-134.4 40.5-106.5 30.2-219.9-18.8-313.4-16.1-30.6-36.3-59.2-60.3-84.6 3.3-.2 6.6-.4 9.8-.6 3.8-.2 7.7-.4 11.5-.5 47-1.6 93.2 4.1 136.6 25 19.3 9.3 35.1 21.2 47.2 35.9 14.8 18 24 40.1 27.5 66.5 1.6 11.3 2.4 22.6 2.5 33.8z" />
    <path id="logoLeftShadow" opacity=".05" fill="#0A0F17"
        d="M530.2 523c-11.7 15.7-24.5 30.8-38.4 45-28.2 28.9-59.1 51.5-94.8 57.5-7.6 1.3-15.3 1.8-23.4 1.5-6.7-.3-13.6-1.1-20.7-2.6-18.2-2.1-35.2-5.6-51.5-10.2-.5-.2-1-.3-1.5-.4-24.6-7-47.3-16.7-69.2-28.6-3-1.6-6-3.3-8.9-5-32.4-18.7-61.5-40.8-87.7-66.1-27.6-26.6-52-56.8-73.3-89.8-4.5-6.9-8.7-14-12.9-21.1-13.4-23.4-24.7-47.7-33-73.3-5.3-16.3-9.4-33.1-12.1-50.5-7.2-46.6-2-90.1 31.8-126.4 6.6-7.1 13.5-13.8 20.8-20-2.7 55.4 6.7 110.5 27.1 161.4C114.9 375.3 175 445.6 258 489.7c50.8 27 104.9 41.3 158.8 44.2 38.5 2 76.7-1.7 113.4-10.9z" />
    <path id="logoForkShadow" opacity=".05" fill="#0A0F17"
        d="M431.2 171v184.3c-.5 3.2-1 6.5-1.8 9.7-4.2 17.4-13.9 33.3-27.8 45.3l-13.7 11.9c-29.1 24.8-44.7 61.9-42 100.2L361.4 626c-2.8-.4-5.6-.9-8.5-1.5-18.2-2.1-35.2-5.6-51.5-10.2-.5-.2-1-.3-1.5-.4l-9-2.7 13.3-88.8c2.7-38.3-12.9-75.3-41.8-100.2l-13.9-11.9c-13.9-11.9-23.6-27.9-27.9-45.3-.7-3.2-1.2-6.5-1.7-9.7V171c0-12.2 9.9-21.9 22.1-21.9 12.2 0 22.1 9.7 22.1 21.9v154.9c0 11 9 19.9 19.9 19.9s19.9-9 19.9-19.9V171c0-8 4.2-14.9 10.7-18.7 7.2-2 14.9-2.3 22.4-.2 6.5 3.7 11 10.7 11 18.9v154.9c0 11 8.9 19.9 19.9 19.9s19.9-9 19.9-19.9V171c0-12.2 10-21.9 22.1-21.9 12.3 0 22.3 9.7 22.3 21.9z" />
    <path id="logoForkOuter" fill="#0A0F17"
        d="M442.6 167.2v184.2c-.5 3.2-1 6.5-1.8 9.7-4.2 17.4-13.9 33.3-27.8 45.3l-13.7 11.9c-29.1 24.8-44.7 61.9-42 100.2L373.6 627c-6.7-.3-13.6-1.1-20.7-2.6-18.2-2.1-35.2-5.6-51.5-10.2l14.4-95.8c2.7-38.3-12.9-75.3-41.8-100.2l-13.9-11.9c-13.9-11.9-23.6-27.9-27.9-45.3-.7-3.2-1.2-6.5-1.7-9.7V167.2c0-12.2 9.9-21.9 22.1-21.9 12.2 0 22.1 9.7 22.1 21.9v154.9c0 11 9 19.9 19.9 19.9s19.9-9 19.9-19.9V167.2c0-8 4.2-14.9 10.7-18.7 7.2-2 14.9-2.3 22.4-.2 6.5 3.7 11 10.7 11 18.9v154.9c0 11 8.9 19.9 19.9 19.9s19.9-9 19.9-19.9V167.2c0-12.2 10-21.9 22.1-21.9 12.2 0 22.1 9.7 22.1 21.9z" />
    <path id="logoForkInner" fill="#212529"
        d="M438.8 167.2v183.9c-.5 3.2-1 6.1-1.6 9.1-4 16.6-13.5 31.9-26.6 43.2l-13.7 12c-29.9 25.5-46.1 64.2-43.3 103.3l16 108c-2.7-.2-5.4-.5-8.1-.9-2.8-.4-5.6-.9-8.5-1.5-16.9-2-32.9-5.1-48.1-9.2l14.7-96.1c2.8-39.4-13.3-78-43.1-103.7l-13.9-11.9c-13.1-11.3-22.6-26.6-26.6-43.3-.6-2.9-1.1-5.9-1.6-9.1V167.2c0-10 8.2-18.1 18.3-18.1 10.1 0 18.3 8.1 18.3 18.1v154.9c0 13.1 10.6 23.7 23.7 23.7s23.7-10.6 23.7-23.7V167.2c0-6.3 3.1-11.9 8.4-15.1 3.4-.9 6.9-1.4 10.3-1.4 3.1 0 6.1.4 9.1 1.1 5.4 3.3 8.6 9 8.6 15.3V322c0 13.1 10.6 23.7 23.7 23.7s23.7-10.6 23.7-23.7V167.2c0-10 8.2-18.1 18.3-18.1 10.1 0 18.3 8.1 18.3 18.1z" />
</svg>