<svg xmlns="http://www.w3.org/2000/svg" viewBox="0 0 209.33333079020184 60"><g transform="matrix(6.666666666666667,0,0,6.666666666666667,-4.200003266334534,0)"><path d="M0.63 1.86L0.63 8.86L0.63 8.86Q1.96 8.86 3.29 8.86L3.29 8.86L3.29 8.86Q4.62 8.86 5.95 8.86L5.95 8.86L5.95 7.18L2.59 7.18L2.59 6.13L5.53 6.13L5.53 4.52L2.59 4.52L2.59 3.47L5.95 3.47L5.95 1.86L5.95 1.86Q4.62 1.86 3.29 1.86L3.29 1.86L3.29 1.86Q1.96 1.86 0.63 1.86L0.63 1.86ZM10.00 5.89L10.00 6.09L10.00 6.09Q9.73 5.94 9.37 5.82L9.37 5.82L9.37 5.82Q9.00 5.71 8.57 5.71L8.57 5.71L8.57 5.71Q7.76 5.71 7.20 6.10L7.20 6.10L7.20 6.10Q6.65 6.48 6.65 7.29L6.65 7.29L6.65 7.29Q6.65 7.98 6.91 8.34L6.91 8.34L6.91 8.34Q7.17 8.71 7.57 8.86L7.57 8.86L7.57 8.86Q7.97 9.00 8.36 9.00L8.36 9.00L8.36 9.00Q8.90 9.00 9.32 8.80L9.32 8.80L9.32 8.80Q9.73 8.60 10.00 8.30L10.00 8.30L10.00 8.86L11.89 8.86L11.89 5.47L11.89 5.47Q11.89 4.45 11.35 3.89L11.35 3.89L11.35 3.89Q10.81 3.33 9.90 3.33L9.90 3.33L9.90 3.33Q9.09 3.33 8.36 3.65L8.36 3.65L8.36 3.65Q7.63 3.96 7 4.35L7 4.35L7.70 5.33L7.70 5.33Q8.12 5.04 8.56 4.92L8.56 4.92L8.56 4.92Q9.00 4.80 9.20 4.80L9.20 4.80L9.20 4.80Q9.70 4.80 9.85 5.05L9.85 5.05L9.85 5.05Q10.00 5.29 10.00 5.89L10.00 5.89ZM10.00 7.00L10.00 7.00L10.00 7.56L10.00 7.56Q9.86 7.71 9.65 7.83L9.65 7.83L9.65 7.83Q9.45 7.94 9.20 7.94L9.20 7.94L9.20 7.94Q8.90 7.94 8.79 7.72L8.79 7.72L8.79 7.72Q8.68 7.50 8.68 7.31L8.68 7.31L8.68 7.31Q8.68 7.11 8.83 6.93L8.83 6.93L8.83 6.93Q8.97 6.75 9.27 6.75L9.27 6.75L9.27 6.75Q9.58 6.75 9.74 6.83L9.74 6.83L9.74 6.83Q9.90 6.92 10.00 7.00ZM12.73 3.47L12.73 4.87L13.71 4.87L13.71 8.86L15.60 8.86L15.60 4.87L16.72 4.87L16.72 3.47L15.60 3.47L15.60 1.72L13.71 2.56L13.71 3.47L12.73 3.47ZM17.56 6.17L17.56 6.17L17.56 6.17Q17.56 7.06 17.96 7.69L17.96 7.69L17.96 7.69Q18.35 8.33 19.03 8.67L19.03 8.67L19.03 8.67Q19.71 9.00 20.52 9.00L20.52 9.00L20.52 9.00Q21.24 9.00 21.83 8.78L21.83 8.78L21.83 8.78Q22.41 8.55 22.79 8.09L22.79 8.09L21.95 6.79L21.95 6.79Q21.73 7.14 21.42 7.37L21.42 7.37L21.42 7.37Q21.11 7.60 20.66 7.60L20.66 7.60L20.66 7.60Q20.34 7.60 20.10 7.48L20.10 7.48L20.10 7.48Q19.85 7.35 19.68 7.14L19.68 7.14L23.07 5.89L23.07 5.89Q23.07 5.15 22.74 4.57L22.74 4.57L22.74 4.57Q22.41 3.99 21.81 3.66L21.81 3.66L21.81 3.66Q21.20 3.33 20.38 3.33L20.38 3.33L20.38 3.33Q19.57 3.33 18.93 3.68L18.93 3.68L18.93 3.68Q18.28 4.02 17.92 4.66L17.92 4.66L17.92 4.66Q17.56 5.29 17.56 6.17ZM21.45 5.14L21.45 5.14L19.31 5.95L19.31 5.95Q19.33 5.47 19.59 5.08L19.59 5.08L19.59 5.08Q19.85 4.68 20.43 4.68L20.43 4.68L20.43 4.68Q20.78 4.68 21.04 4.80L21.04 4.80L21.04 4.80Q21.29 4.93 21.45 5.14ZM27.75 5.75L28.80 4.35L28.80 4.35Q28.66 4.17 28.48 3.95L28.48 3.95L28.48 3.95Q28.29 3.72 28.03 3.56L28.03 3.56L28.03 3.56Q27.76 3.40 27.37 3.40L27.37 3.40L27.37 3.40Q26.98 3.40 26.57 3.71L26.57 3.71L26.57 3.71Q26.17 4.02 25.86 4.52L25.86 4.52L25.73 3.47L24.12 3.47L24.12 8.86L26.01 8.86L26.01 5.50L26.01 5.50Q26.19 5.32 26.40 5.20L26.40 5.20L26.40 5.20Q26.61 5.08 26.81 5.08L26.81 5.08L26.81 5.08Q27.20 5.08 27.37 5.27L27.37 5.27L27.37 5.27Q27.54 5.46 27.75 5.75L27.75 5.75ZM29.75 3.47L29.75 8.86L31.64 8.86L31.64 3.47L29.75 3.47ZM29.36 1.34L30.69 2.67L32.03 1.34L30.69 0L29.36 1.34Z"></path></g></svg>