<?xml version="1.0" encoding="utf-8"?>
<!-- Generator: Adobe Illustrator 22.0.1, SVG Export Plug-In . SVG Version: 6.00 Build 0) -->
<svg version="1.1" xmlns="http://www.w3.org/2000/svg" xmlns:xlink="http://www.w3.org/1999/xlink" x="0px" y="0px"
	 viewBox="0 0 251 305.6" style="enable-background:new 0 0 251 305.6;" xml:space="preserve">
<path class="p-b" d="M183.3,301.8c-29-11.3-27.7-47.6-41.5-59.9c-19.2-17-29.8-7.6-62.3-22.6c-13.2-6.1-35.4-16.4-47.2-37.7
	c-18.1-33,10.8-55.9-15.1-94.4C8.5,74.5-1.5,69.5,0.2,61.9c3-13.5,37-23.9,62.3-16.1c35.7,10.9,27.9,50.4,69.8,83
	c21.7,16.8,45.4,14.8,68.8,25.5c24.8,11.3,43.2,38.5,48.4,64.7C257.3,258.4,234.1,321.7,183.3,301.8z"/>
<g class="s-b">
	<ellipse transform="matrix(0.7071 -0.7071 0.7071 0.7071 15.0385 45.9792)" cx="63" cy="4.8" rx="4.8" ry="4.8"/>
	<ellipse transform="matrix(0.9239 -0.3827 0.3827 0.9239 5.5235 37.4412)" cx="96.9" cy="4.8" rx="4.8" ry="4.8"/>
	<ellipse transform="matrix(0.7071 -0.7071 0.7071 0.7071 34.8705 93.8578)" cx="130.7" cy="4.8" rx="4.8" ry="4.8"/>
	<ellipse transform="matrix(0.9239 -0.3827 0.3827 0.9239 10.6776 63.353)" cx="164.6" cy="4.8" rx="4.8" ry="4.8"/>
	<ellipse transform="matrix(0.7071 -0.7071 0.7071 0.7071 54.7025 141.7364)" cx="198.4" cy="4.8" rx="4.8" ry="4.8"/>
	<ellipse transform="matrix(0.9239 -0.3827 0.3827 0.9239 15.8318 89.2647)" cx="232.3" cy="4.8" rx="4.8" ry="4.8"/>
	<ellipse transform="matrix(0.2298 -0.9732 0.9732 0.2298 10.8852 91.1375)" cx="63" cy="38.7" rx="4.8" ry="4.8"/>
	<ellipse transform="matrix(0.1602 -0.9871 0.9871 0.1602 43.1664 128.1195)" cx="96.9" cy="38.7" rx="4.8" ry="4.8"/>
	<ellipse transform="matrix(0.2298 -0.9732 0.9732 0.2298 63.0391 157.0368)" cx="130.7" cy="38.7" rx="4.8" ry="4.8"/>
	<ellipse transform="matrix(0.1602 -0.9871 0.9871 0.1602 100.031 194.9558)" cx="164.6" cy="38.7" rx="4.8" ry="4.8"/>
	<ellipse transform="matrix(0.2298 -0.9732 0.9732 0.2298 115.193 222.936)" cx="198.4" cy="38.7" rx="4.8" ry="4.8"/>
	<ellipse transform="matrix(0.1602 -0.9871 0.9871 0.1602 156.8955 261.792)" cx="232.3" cy="38.7" rx="4.8" ry="4.8"/>
	<circle cx="63" cy="72.5" r="4.8"/>
	<circle cx="96.9" cy="72.5" r="4.8"/>
	<circle cx="130.7" cy="72.5" r="4.8"/>
	<circle cx="164.6" cy="72.5" r="4.8"/>
	<circle cx="198.4" cy="72.5" r="4.8"/>
	<circle cx="232.3" cy="72.5" r="4.8"/>
	<ellipse transform="matrix(0.2298 -0.9732 0.9732 0.2298 -55.0141 143.2914)" cx="63" cy="106.4" rx="4.8" ry="4.8"/>
	<ellipse transform="matrix(0.1602 -0.9871 0.9871 0.1602 -23.6698 184.9841)" cx="96.9" cy="106.4" rx="4.8" ry="4.8"/>
	<ellipse transform="matrix(0.2298 -0.9732 0.9732 0.2298 -2.8602 209.1907)" cx="130.7" cy="106.4" rx="4.8" ry="4.8"/>
	<ellipse transform="matrix(0.1602 -0.9871 0.9871 0.1602 33.1947 251.8203)" cx="164.6" cy="106.4" rx="4.8" ry="4.8"/>
	<ellipse transform="matrix(0.2298 -0.9732 0.9732 0.2298 49.2938 275.0899)" cx="198.4" cy="106.4" rx="4.8" ry="4.8"/>
	<ellipse transform="matrix(0.1602 -0.9871 0.9871 0.1602 90.0593 318.6566)" cx="232.3" cy="106.4" rx="4.8" ry="4.8"/>
	<circle cx="63" cy="140.3" r="4.8"/>
	<circle cx="96.9" cy="140.3" r="4.8"/>
	<circle cx="130.7" cy="140.3" r="4.8"/>
	<circle cx="164.6" cy="140.3" r="4.8"/>
	<circle cx="198.4" cy="140.3" r="4.8"/>
	<circle cx="232.3" cy="140.3" r="4.8"/>
	<ellipse transform="matrix(0.7071 -0.7071 0.7071 0.7071 -104.6579 95.5591)" cx="63" cy="174.1" rx="4.8" ry="4.8"/>
	<ellipse transform="matrix(0.9239 -0.3827 0.3827 0.9239 -59.2559 50.3266)" cx="96.9" cy="174.1" rx="4.8" ry="4.8"/>
	<ellipse transform="matrix(0.7071 -0.7071 0.7071 0.7071 -84.826 143.4377)" cx="130.7" cy="174.1" rx="4.8" ry="4.8"/>
	<ellipse transform="matrix(0.9239 -0.3827 0.3827 0.9239 -54.1017 76.2384)" cx="164.6" cy="174.1" rx="4.8" ry="4.8"/>
	<ellipse transform="matrix(0.7071 -0.7071 0.7071 0.7071 -64.994 191.3163)" cx="198.4" cy="174.1" rx="4.8" ry="4.8"/>
	<ellipse transform="matrix(0.9239 -0.3827 0.3827 0.9239 -48.9476 102.1501)" cx="232.3" cy="174.1" rx="4.8" ry="4.8"/>
</g>
</svg>
