<?xml version="1.0" encoding="utf-8"?>
<!-- Generator: Adobe Illustrator 22.0.1, SVG Export Plug-In . SVG Version: 6.00 Build 0)  -->
<svg version="1.1" xmlns="http://www.w3.org/2000/svg" xmlns:xlink="http://www.w3.org/1999/xlink" x="0px" y="0px"
	viewBox="0 0 2855.4 3070.9" enable-background="new 0 0 2855.4 3070.9" xml:space="preserve">
	<g>
		<g>
			<g fill="#FFE69E" class="p-d pm-bubble">
				<g>
					<circle cx="1635.9" cy="1775.6" r="1219.4" />

					<ellipse transform="matrix(0.7071 -0.7071 0.7071 0.7071 -445.0749 815.4578)" fill="#FFE69E"
						cx="761.8" cy="945" rx="725" ry="725" />
					<g>
						<path
							d="M1408.5,393.2c0,2.5,0,5,0,7.6c-0.5,12.5,2.1,24.2,7.8,35c3.7,11.3,9.9,21,18.8,29.2
						c8.2,8.9,18,15.1,29.2,18.8c10.8,5.7,22.5,8.3,35,7.8c8-1.1,16.1-2.2,24.1-3.2c15.4-4.3,28.7-12.1,40.1-23.3
						c4.7-6.1,9.5-12.2,14.2-18.4c8.2-14.2,12.3-29.4,12.4-45.8c0-2.5,0-5,0-7.6c0.5-12.5-2.1-24.2-7.8-35
						c-3.7-11.3-9.9-21-18.8-29.2c-8.2-8.9-18-15.1-29.2-18.8c-10.8-5.7-22.5-8.3-35-7.8c-8,1.1-16.1,2.2-24.1,3.2
						c-15.4,4.3-28.7,12.1-40.1,23.3c-4.7,6.1-9.5,12.2-14.2,18.4C1412.7,361.6,1408.6,376.8,1408.5,393.2L1408.5,393.2z" />
					</g>
					<g>
						<path
							d="M1298.9,283.5c58.4,0,58.5-90.8,0-90.8C1240.5,192.8,1240.4,283.5,1298.9,283.5L1298.9,283.5z" />
					</g>
					<g>
						<path
							d="M1741.4,303.5c40.3,0,40.4-62.6,0-62.6C1701.1,240.9,1701,303.5,1741.4,303.5L1741.4,303.5z" />
					</g>
				</g>
				<circle cx="205.8" cy="1717" r="60.5" />
				<path d="M115,1996.9c0,25.1-20.3,45.4-45.4,45.4c-25.1,0-45.4-20.3-45.4-45.4c0-25.1,20.3-45.4,45.4-45.4
				C94.7,1951.5,115,1971.8,115,1996.9z" />
			</g>
			<g>
				<g>
					<g>
						<path fill="#007DFF" stroke="#000000" stroke-width="28.8439" stroke-miterlimit="10"
							d="M2307,2744.5L2307,2744.5V1339.9
						l-1569.1,9.5l-415.4-510l-167.8,213.5l340.9,623c16.8,14.2,38.1,22,60.1,22l786.9-2.1C1440,1921.8,2114.5,2654.8,2307,2744.5" />

						<line fill="none" stroke="#000000" stroke-width="28.8439" stroke-miterlimit="10" x1="1342.6"
							y1="1695.8" x2="1440" y2="1526.6" />

						<line fill="none" stroke="#000000" stroke-width="28.8439" stroke-miterlimit="10" x1="737.9"
							y1="1349.4" x2="707.2" y2="1558.9" />

						<line fill="none" stroke="#000000" stroke-width="28.8439" stroke-miterlimit="10" x1="737.9"
							y1="1349.4" x2="630" y2="1454.2" />
					</g>
					<path fill="#FCB9BE" stroke="#000000" stroke-width="28.8439" stroke-miterlimit="10" d="M373,1018.2
					c26.7-45.1,30.9-96.7,16.5-142.5c-10.8-34.5-14.8-70.7-15.4-106.8l-1.8-73.5c-0.4-24-17-45.5-40.6-49.8
					c-32.4-6-60.4,19-59.9,50.2l1.6,59l-172.6-97.5c-28.3-15.4-63.7-4.9-79.1,23.5c-15.4,28.3-4.9,63.8,23.5,79.1l58.7,36.5
					c-14.9,13.2-27.9,29.1-37.9,47.6c-47.6,87.8-13.1,198.1,77.3,242.7C224.7,1126.8,326.6,1096.5,373,1018.2z" />
				</g>
				<g>
					<g>

						<line fill="none" stroke="#000000" stroke-width="28.8439" stroke-miterlimit="10" x1="2303.4"
							y1="0" x2="2303.9" y2="3070.9" />
					</g>
					<g>

						<ellipse transform="matrix(0.9629 -0.2697 0.2697 0.9629 -331.9963 563.2194)" fill="#FFFFFF"
							cx="1883.3" cy="1489.6" rx="237.8" ry="195.4" />
						<g>
							<path fill="#FCB9BE" stroke="#000000" stroke-width="28.8439" stroke-miterlimit="10" d="M1583.8,742.3
							c108.8-185.3,312.6-269.7,462.5-188.6c154.1,83.4,192.9,310.2,86.6,506.5c-8.6,16-27.9,45.7-27.9,45.7l-51.1,248.7
							c-17.5,85.1-92.3,146.3-179.2,146.4l0,0c-76,0.1-144.3-46.7-171.5-117.7l-46.6-121.5c-186.5-90.7-206.4-220.4-127.7-385.8
							c-1.7-0.8-3.4-1.2-5.1-2.1c-35.3-19.1-48.4-63.2-29.3-98.6C1511.9,743.1,1550.4,729.7,1583.8,742.3z" />
							<g>
								<g>
									<g>
										<path d="M1715,799.6c-11.2,20.4-10.4,42.3,1.9,49c12.2,6.7,31.2-4.4,42.4-24.7c11.2-20.4,10.4-42.3-1.9-49
										C1745.2,768.2,1726.2,779.3,1715,799.6z" />

										<line fill="none" stroke="#000000" stroke-width="28.8439" stroke-miterlimit="10"
											x1="1806.5" y1="736.5" x2="1742.2" y2="716.8" />
									</g>
									<path fill="none" stroke="#000000" stroke-width="28.8439" stroke-miterlimit="10" d="M1548.6,1036.3
									c1.1,1.4,28.9,33.7,69.9,26.7c33.1-5.7,49.2-32.5,51.4-36.4" />
								</g>
								<g>
									<path d="M1827,475.9c89.4-10.5,169.1,13.7,246.1,57.7c78.4,44.8,153.9,105.9,186.5,192.9c25.7,68.8,21.4,143.8,1.8,213.5
									c-19.7,69.6-54.1,134.1-89.5,197.2c-27.8,49.6-56.3,98.9-88.9,145.6c-34,48.8-76.2,97.2-133.6,112.8
									c-27.1,7.4-32.5-14.8-23-35.2c9.1-19.4,18.2-38.8,27.3-58.3c4.9-10.4,22-62.7-6.2-61c-6.6,0.4-10.4,7.3-13.4,13.2
									c-7.7,15.2-17.8,29.5-31.6,39.4c-22.2,16-59.7,19.6-76.2-6.9c-34.1-55.1,41.2-120.9,47.5-173.3c1.5-12.2-1.5-36.4-20.6-28.3
									c-8.1,3.4-12.7,11.8-16.4,19.8c-3.7,8-7.5,16.5-14.9,21.2c-28.5,18-39-27.6-37.4-46c2.5-28.6,17.1-56.6,28.6-82.3
									c41-91.5,102.7-168.9,146.6-258c7.2-14.6,16.6-42.6-5.6-48c-10.5-2.6-30.9,16.3-47.4,12.9c-47.2-9.7-47.8-83.1,3.4-82.7
									c-30.2-43.8-92.3-33.9-137.8-38.6c-20-2.1-43.4-9.7-48.6-29.2c-2.6-9.9,0.4-20.6,5.7-29.4
									C1748.5,493.1,1787.9,480.5,1827,475.9z" />
									<path stroke="#000000" stroke-width="28.8439" stroke-miterlimit="10" d="M2214.1,670.3c-0.2,2.6-0.3,5.3-0.5,7.9
									c24.8-22.9,40.3-55.7,42.1-89.4" />
									<path stroke="#000000" stroke-width="28.8439" stroke-miterlimit="10" d="M2307.9,711.2c-0.8,1.1,2,1.5,2,0.1
									c0.1-1.4-1.4-2.2-2.7-2.6c-43.7-15.8-91.9-19.1-137.4-9.4" />
									<path stroke="#000000" stroke-width="28.8439" stroke-miterlimit="10"
										d="M1977.2,676.7c-18.4,60.5-75.1,101-105.5,156.5" />
									<path stroke="#000000" stroke-width="28.8439" stroke-miterlimit="10"
										d="M2192.3,651.8c-88.3-128.1-242.4-208.1-398-206.5" />
								</g>
							</g>
						</g>
					</g>
				</g>
				<path fill="#FCB9BE" stroke="#000000" stroke-width="28.8439" stroke-miterlimit="10" d="M2430.6,2014.1l-7.7-0.5
				c8.4-18.8,13.8-39.3,15.4-61.1c7.3-103-72.3-192.2-176.5-195.6c-94-3.1-177.1,69-187.4,162.5c-4.9,44.2,6.4,86.1,28.8,120.2
				c5.6,8.6,8.4,18.7,8.4,29l0,82.7c0,32.2,23.6,61,55.7,64.1c36.8,3.5,67.8-25.4,67.8-61.4l0-32.9c1,0.2,2,0.5,3,0.5l180.9,12.9
				c29.5,2.1,58.3-15.9,65.6-44.6C2494.4,2052,2467.6,2016.7,2430.6,2014.1z" />
			</g>
		</g>
	</g>
	<g>
	</g>
</svg>