<?xml version="1.0" encoding="utf-8"?>
<!-- Generator: Adobe Illustrator 22.0.1, SVG Export Plug-In . SVG Version: 6.00 Build 0)  -->
<svg version="1.1" xmlns="http://www.w3.org/2000/svg" xmlns:xlink="http://www.w3.org/1999/xlink" x="0px" y="0px"
	viewBox="0 0 1000 500" style="enable-background:new 0 0 1000 500;" xml:space="preserve">
	<g transform="scale(1.1312217194570136)">
		<rect x="0" fill="transparent" width="884" height="442" />
		<rect x="0" class="a-b" width="221" height="221" />
		<polygon class="a-h" points="221,0 221,221 0,221" />
		<rect x="221" class="a-h" width="221" height="221" />
		<path class="a-b" d="M221,221C221,98.9,319.9,0,442,0L221,221c122.1,0,221-98.9,221-221" />
		<rect x="442" fill="transparent" width="221" height="221" />
		<rect x="442" y="0" class="a-h" width="110.5" height="110.5" />
		<path class="a-b" d="M442,110.5C442,49.5,491.5,0,552.5,0v27.6c-45.8,0-82.9,37.1-82.9,82.9" />
		<rect x="552.5" y="0" class="a-h" width="110.5" height="110.5" />
		<path class="a-h" d="M552.5,0C613.5,0,663,49.5,663,110.5h-27.6c0-45.8-37.1-82.9-82.9-82.9" />
		<rect x="442" y="110.5" class="a-h" width="110.5" height="110.5" />
		<path class="a-b" d="M442,110.5c0,61,49.5,110.5,110.5,110.5v-27.6c-45.8,0-82.9-37.1-82.9-82.9" />
		<rect x="552.5" y="110.5" class="a-h" width="110.5" height="110.5" />
		<path class="a-b" d="M552.5,221c61,0,110.5-49.5,110.5-110.5h-27.6c0,45.8-37.1,82.9-82.9,82.9" />
		<rect x="663" class="a-b" width="221" height="221" />
		<path class="a-h" d="M663,0c122.1,0,221,98.9,221,221H663" />
		<rect x="0" y="221" fill="transparent" width="221" height="221" />
		<rect x="0" y="221" class="a-h" width="110.5" height="110.5" />
		<circle class="a-h" cx="55.2" cy="276.2" r="55.2" />
		<rect x="110.5" y="221" class="a-h" width="110.5" height="110.5" />
		<rect x="110.5" y="221" class="a-b" width="110.5" height="110.5" />
		<rect x="0" y="331.5" class="a-b" width="110.5" height="110.5" />
		<circle class="a-b" cx="55.2" cy="386.7" r="55.2" />
		<rect x="110.5" y="331.5" class="a-h" width="110.5" height="110.5" />
		<rect x="110.5" y="331.5" class="a-b" width="110.5" height="110.5" />
		<rect x="221" y="221" class="a-b" width="221" height="221" />
		<path class="a-h" d="M221,442c0-122.1,98.9-221,221-221L221,442c122.1,0,221-98.9,221-221" />
		<rect x="442" y="221" class="a-b" width="221" height="221" />
		<path class="a-b" d="M442,442c0-122.1,98.9-221,221-221v221" />
		<rect x="663" y="221" fill="transparent" width="221" height="221" />
		<rect x="663" y="221" class="a-h" width="110.5" height="110.5" />
		<path class="a-h" d="M663,221c61,0,110.5,49.5,110.5,110.5l0,0H663" />
		<rect x="773.5" y="221" class="a-h" width="110.5" height="110.5" />
		<path class="a-h" d="M773.5,331.5c0-61,49.5-110.5,110.5-110.5v110.5" />
		<rect x="663" y="331.5" class="a-b" width="110.5" height="110.5" />
		<path class="a-h" d="M663,442c61,0,110.5-49.5,110.5-110.5l0,0H663" />
		<rect x="773.5" y="331.5" class="a-b" width="110.5" height="110.5" />
		<path class="a-h" d="M773.5,331.5c0,61,49.5,110.5,110.5,110.5l0,0V331.5" />
	</g>
</svg>