<svg xmlns="http://www.w3.org/2000/svg" viewBox="0 0 477.9 133.7"><defs><style>.fillAccentBase{fill:#94d82d;}.fillSvgCutout{fill:#fff;}.fillSecondaryBase{fill:#212529;}.fillSecondaryHover{fill:#343a40;}.fillSecondaryLight{fill:#d7e3e9;}.fillPrimaryDark{fill:#b5871f;}.fillPrimaryBase{fill:#fccc3e;}.fillPrimaryLight{fill:#fee78b;}</style></defs><title>splash-banner</title><g id="Layer_2" data-name="Layer 2"><g id="Layer_1-2" data-name="Layer 1"><path id="_Path_" data-name="&lt;Path&gt;" class="fillAccentBase" d="M56.6,133.7a23.2,23.2,0,1,1,23.2-23.2,23.22,23.22,0,0,1-23.2,23.2"/><path id="_Path_2" data-name="&lt;Path&gt;" class="fillSvgCutout" d="M58.3,133.7l-.1-2.7c-.1-7,1.7-7.7,2.5-8.4h0a14.48,14.48,0,0,0,5.9-11.2c0-5.5-4.5-15.2-10-15.2s-10,9.7-10,15.2a14.72,14.72,0,0,0,5.7,11.2h0c.8.7,2.6,1.5,2.5,8.4l-.1,2.7"/><g id="_Group_" data-name="&lt;Group&gt;"><path id="_Path_3" data-name="&lt;Path&gt;" class="fillAccentBase" d="M183,98.3a23.2,23.2,0,1,1-23.2-23.2A23.22,23.22,0,0,1,183,98.3Z"/><path id="_Path_4" data-name="&lt;Path&gt;" class="fillSvgCutout" d="M169.8,99.1c0-5.5-4.5-15.2-10-15.2s-10,9.7-10,15.2a14.72,14.72,0,0,0,5.7,11.2h0c.8.7,2.6,1.5,2.5,8.4l-.1,2.7c.6,0,1.2.1,1.8.1a10.87,10.87,0,0,0,1.8-.1l-.1-2.7c-.1-7,1.7-7.7,2.5-8.4h0A14.32,14.32,0,0,0,169.8,99.1Z"/></g><g id="_Group_2" data-name="&lt;Group&gt;"><path id="_Path_5" data-name="&lt;Path&gt;" class="fillAccentBase" d="M287.5,84.1a23.2,23.2,0,1,1-23.2-23.2A23.22,23.22,0,0,1,287.5,84.1Z"/><path id="_Path_6" data-name="&lt;Path&gt;" class="fillSvgCutout" d="M274.3,85c0-5.5-4.5-15.2-10-15.2s-10,9.7-10,15.2A14.72,14.72,0,0,0,260,96.2h0c.8.7,2.6,1.5,2.5,8.4l-.1,2.7c.6,0,1.2.1,1.8.1a10.87,10.87,0,0,0,1.8-.1l-.1-2.7c-.1-7,1.7-7.7,2.5-8.4h0A14.63,14.63,0,0,0,274.3,85Z"/></g><g id="_Group_3" data-name="&lt;Group&gt;"><path id="_Path_7" data-name="&lt;Path&gt;" class="fillAccentBase" d="M102.9,29.6A23.2,23.2,0,1,1,79.7,6.4,23.22,23.22,0,0,1,102.9,29.6Z"/><path id="_Path_8" data-name="&lt;Path&gt;" class="fillSvgCutout" d="M89.8,30.4c0-5.5-4.5-15.2-10-15.2s-10,9.7-10,15.2a14.72,14.72,0,0,0,5.7,11.2h0c.8.7,2.6,1.5,2.5,8.4l-.1,2.7c.6,0,1.2.1,1.8.1a10.87,10.87,0,0,0,1.8-.1L81.4,50c-.1-7,1.7-7.7,2.5-8.4h0A14.62,14.62,0,0,0,89.8,30.4Z"/></g><g id="_Group_4" data-name="&lt;Group&gt;"><path id="_Path_9" data-name="&lt;Path&gt;" class="fillAccentBase" d="M460.4,36.4a23.2,23.2,0,1,1-23.2-23.2A23.22,23.22,0,0,1,460.4,36.4Z"/><path id="_Path_10" data-name="&lt;Path&gt;" class="fillSvgCutout" d="M447.2,37.3c0-5.5-4.5-15.2-10-15.2s-10,9.7-10,15.2a14.72,14.72,0,0,0,5.7,11.2h0c.8.7,2.6,1.5,2.5,8.4l-.1,2.7c.6,0,1.2.1,1.8.1a10.87,10.87,0,0,0,1.8-.1l-.1-2.7c-.1-7,1.7-7.7,2.5-8.4h0A14.32,14.32,0,0,0,447.2,37.3Z"/></g><g id="_Group_5" data-name="&lt;Group&gt;"><path id="_Path_11" data-name="&lt;Path&gt;" class="fillAccentBase" d="M392,70a23.2,23.2,0,1,1-23.2-23.2A23.22,23.22,0,0,1,392,70Z"/><path id="_Path_12" data-name="&lt;Path&gt;" class="fillSvgCutout" d="M378.8,70.8c0-5.5-4.5-15.2-10-15.2s-10,9.7-10,15.2A14.72,14.72,0,0,0,364.5,82h0c.8.7,2.6,1.5,2.5,8.4l-.1,2.7c.6,0,1.2.1,1.8.1a10.87,10.87,0,0,0,1.8-.1l-.1-2.7c-.1-7,1.7-7.7,2.5-8.4h0A14.32,14.32,0,0,0,378.8,70.8Z"/></g><path id="_Path_13" data-name="&lt;Path&gt;" class="fillSecondaryBase" d="M98.3,133.7a23.2,23.2,0,1,1,23.2-23.2,23.22,23.22,0,0,1-23.2,23.2"/><path id="_Path_14" data-name="&lt;Path&gt;" class="fillSvgCutout" d="M101,133.6l-.1-3.2a.1.1,0,0,0,.1-.1c.4-.4.5-9.1.5-17.7.1-8-.2-15.4-.4-16.6s-1.1-2.7-3.4.8c-2.1,3.1-3.7,8.8-3.7,18.8,0,7-.2,10.8,1.9,13.8a3.92,3.92,0,0,0,1.4,1.2l-.1,3.1"/><g id="_Group_6" data-name="&lt;Group&gt;"><path id="_Path_15" data-name="&lt;Path&gt;" class="fillSecondaryBase" d="M224.8,98.3a23.2,23.2,0,1,1-23.2-23.2A23.22,23.22,0,0,1,224.8,98.3Z"/><path id="_Path_16" data-name="&lt;Path&gt;" class="fillSvgCutout" d="M204.3,83.8c-.3-1.3-1.1-2.7-3.4.8-2.1,3.1-3.7,8.8-3.7,18.8,0,7-.2,10.8,1.9,13.8a3.92,3.92,0,0,0,1.4,1.2l-.1,3.1h1.2c.9,0,1.7-.1,2.6-.1l-.1-3.2a.1.1,0,0,0,.1-.1c.4-.4.5-9.1.5-17.7C204.8,92.4,204.6,85,204.3,83.8Z"/></g><g id="_Group_7" data-name="&lt;Group&gt;"><path id="_Path_17" data-name="&lt;Path&gt;" class="fillSecondaryBase" d="M329.3,84.1a23.2,23.2,0,1,1-23.2-23.2A23.22,23.22,0,0,1,329.3,84.1Z"/><path id="_Path_18" data-name="&lt;Path&gt;" class="fillSvgCutout" d="M308.8,69.6c-.3-1.3-1.1-2.7-3.4.8-2.1,3.1-3.7,8.8-3.7,18.8,0,7-.2,10.8,1.9,13.8a3.92,3.92,0,0,0,1.4,1.2l-.1,3.1h1.2c.9,0,1.7-.1,2.6-.1l-.1-3.2a.1.1,0,0,0,.1-.1c.4-.4.5-9.1.5-17.7C309.3,78.2,309.1,70.8,308.8,69.6Z"/></g><g id="_Group_8" data-name="&lt;Group&gt;"><path id="_Path_19" data-name="&lt;Path&gt;" class="fillSecondaryBase" d="M433.8,70a23.2,23.2,0,1,1-23.2-23.2A23.22,23.22,0,0,1,433.8,70Z"/><path id="_Path_20" data-name="&lt;Path&gt;" class="fillSvgCutout" d="M413.3,55.5c-.3-1.3-1.1-2.7-3.4.8-2.1,3.1-3.7,8.8-3.7,18.8,0,7-.2,10.8,1.9,13.8a3.92,3.92,0,0,0,1.4,1.2l-.1,3.1h1.2c.9,0,1.7-.1,2.6-.1l-.1-3.2a.1.1,0,0,0,.1-.1c.4-.4.5-9.1.5-17.7C413.8,64,413.6,56.6,413.3,55.5Z"/></g><g id="_Group_9" data-name="&lt;Group&gt;"><path id="_Path_21" data-name="&lt;Path&gt;" class="fillSecondaryHover" d="M261,109.6a23.2,23.2,0,1,1-23.2-23.2A23.22,23.22,0,0,1,261,109.6Z"/><path id="_Path_22" data-name="&lt;Path&gt;" class="fillSvgCutout" d="M244.8,114.1c0-.1,0-5-2.5-20.4h-1.2l.9,18.1a.7.7,0,1,1-1.4,0l-.8-18.1h-1.2v18.1a.7.7,0,1,1-1.4,0V93.7H236l-.8,18.1a.7.7,0,0,1-1.4,0l.8-18.1h-1.2c-2.5,15.4-2.5,20.4-2.5,20.4,0,3.3,2.3,5.2,5.3,5.6l-.3,12.9a18.1,18.1,0,0,0,3.8,0l-.3-12.9C242.6,119.3,244.8,117.4,244.8,114.1Z"/></g><g id="_Group_10" data-name="&lt;Group&gt;"><path id="_Path_23" data-name="&lt;Path&gt;" class="fillSecondaryHover" d="M140.2,42.6A23.2,23.2,0,1,1,117,19.4,23.22,23.22,0,0,1,140.2,42.6Z"/><path id="_Path_24" data-name="&lt;Path&gt;" class="fillSvgCutout" d="M124,47.1c0-.1,0-5-2.5-20.4h-1.2l.8,18.1a.7.7,0,1,1-1.4,0l-.8-18.1h-1.2V44.8a.7.7,0,1,1-1.4,0V26.7h-1.2l-.8,18.1a.7.7,0,1,1-1.4,0l.8-18.1h-1.2C110,42.1,110,47.1,110,47.1c0,3.3,2.3,5.2,5.3,5.6L115,65.6a18.1,18.1,0,0,0,3.8,0l-.3-12.9C121.8,52.3,124,50.4,124,47.1Z"/></g><g id="_Group_11" data-name="&lt;Group&gt;"><path id="_Path_25" data-name="&lt;Path&gt;" class="fillSecondaryHover" d="M365.5,95.4a23.2,23.2,0,1,1-23.2-23.2A23.22,23.22,0,0,1,365.5,95.4Z"/><path id="_Path_26" data-name="&lt;Path&gt;" class="fillSvgCutout" d="M349.3,100c0-.1,0-5-2.5-20.4h-1.2l.8,18.1a.7.7,0,0,1-1.4,0l-.8-18.1H343V97.7a.7.7,0,0,1-1.4,0V79.6h-1.2l-.8,18.1a.7.7,0,0,1-1.4,0l.8-18.1h-1.2c-2.5,15.4-2.5,20.4-2.5,20.4,0,3.3,2.3,5.2,5.3,5.6l-.3,12.9a18.1,18.1,0,0,0,3.8,0l-.3-12.9C347.1,105.1,349.3,103.2,349.3,100Z"/></g><g id="_Group_12" data-name="&lt;Group&gt;"><path id="_Path_27" data-name="&lt;Path&gt;" class="fillSecondaryLight" d="M66.6,63.8A23.15,23.15,0,1,1,43.5,40.6,23.22,23.22,0,0,1,66.6,63.8Z"/><path id="_Path_28" data-name="&lt;Path&gt;" class="fillSvgCutout" d="M53.4,64.7c0-5.5-4.5-15.2-10-15.2s-10,9.7-10,15.2a14.72,14.72,0,0,0,5.7,11.2h0c.8.7,2.6,1.5,2.5,8.4L41.5,87c.6,0,1.2.1,1.8.1a10.87,10.87,0,0,0,1.8-.1L45,84.3c-.1-7,1.7-7.7,2.5-8.4h0A14.63,14.63,0,0,0,53.4,64.7Z"/></g><g id="_Group_13" data-name="&lt;Group&gt;"><path id="_Path_29" data-name="&lt;Path&gt;" class="fillSecondaryLight" d="M169.8,42.6a23.2,23.2,0,1,1-23.2-23.2A23.22,23.22,0,0,1,169.8,42.6Z"/><path id="_Path_30" data-name="&lt;Path&gt;" class="fillSvgCutout" d="M156.7,43.4c0-5.5-4.5-15.2-10-15.2s-10,9.7-10,15.2a14.72,14.72,0,0,0,5.7,11.2h0c.8.7,2.6,1.5,2.5,8.4l-.1,2.7c.6,0,1.2.1,1.8.1a10.87,10.87,0,0,0,1.8-.1l-.1-2.7c-.1-7,1.7-7.7,2.5-8.4h0A14.62,14.62,0,0,0,156.7,43.4Z"/></g><g id="_Group_14" data-name="&lt;Group&gt;"><path id="_Path_31" data-name="&lt;Path&gt;" class="fillSecondaryLight" d="M274.3,28.4A23.2,23.2,0,1,1,251.1,5.2,23.22,23.22,0,0,1,274.3,28.4Z"/><path id="_Path_32" data-name="&lt;Path&gt;" class="fillSvgCutout" d="M261.2,29.2c0-5.5-4.5-15.2-10-15.2s-10,9.7-10,15.2a14.72,14.72,0,0,0,5.7,11.2h0c.8.7,2.6,1.5,2.5,8.4l-.1,2.7c.6,0,1.2.1,1.8.1a10.87,10.87,0,0,0,1.8-.1l.1-2.7c-.1-7,1.7-7.7,2.5-8.4h0A15,15,0,0,0,261.2,29.2Z"/></g><path id="_Path_33" data-name="&lt;Path&gt;" class="fillSecondaryLight" d="M450.4,109.6a23.2,23.2,0,1,1-23.2-23.2A23.22,23.22,0,0,1,450.4,109.6Z"/><path id="_Path_34" data-name="&lt;Path&gt;" class="fillSvgCutout" d="M427.1,132.8a10.87,10.87,0,0,0,1.8-.1l-.1-2.7c-.1-7,1.7-7.7,2.5-8.4h0a14.32,14.32,0,0,0,5.9-11.2c0-5.5-4.5-15.2-10-15.2s-10,9.7-10,15.2a14.72,14.72,0,0,0,5.7,11.2h0c.8.7,2.6,1.5,2.5,8.4l-.1,2.7c.6,0,1.2.1,1.8.1"/><g id="_Group_15" data-name="&lt;Group&gt;"><path id="_Path_35" data-name="&lt;Path&gt;" class="fillPrimaryDark" d="M104.9,71.9A23.2,23.2,0,1,1,81.7,48.7,23.22,23.22,0,0,1,104.9,71.9Z"/><path id="_Path_36" data-name="&lt;Path&gt;" class="fillSvgCutout" d="M88.7,76.4c0-.1,0-5-2.5-20.4H85l.8,18.1a.7.7,0,1,1-1.4,0L83.6,56H82.4V74.1a.7.7,0,0,1-1.4,0V56H79.8L79,74.1a.7.7,0,0,1-1.4,0L78.4,56H77.2c-2.5,15.4-2.5,20.4-2.5,20.4,0,3.3,2.3,5.2,5.3,5.6l-.3,12.9a18.1,18.1,0,0,0,3.8,0L83.2,82C86.4,81.5,88.7,79.7,88.7,76.4Z"/></g><g id="_Group_16" data-name="&lt;Group&gt;"><path id="_Path_37" data-name="&lt;Path&gt;" class="fillPrimaryDark" d="M208.1,59.6a23.2,23.2,0,1,1-23.2-23.2A23.22,23.22,0,0,1,208.1,59.6Z"/><path id="_Path_38" data-name="&lt;Path&gt;" class="fillSvgCutout" d="M192,64.1c0-.1,0-5-2.5-20.4h-1.2l.8,18.1a.7.7,0,0,1-1.4,0l-.8-18.1h-1.2V61.8a.7.7,0,1,1-1.4,0V43.7h-1.2l-.8,18.1a.7.7,0,1,1-1.4,0l.8-18.1h-1.2C178,59.1,178,64.1,178,64.1c0,3.3,2.3,5.2,5.3,5.6L183,82.6a18.1,18.1,0,0,0,3.8,0l-.3-12.9C189.7,69.3,192,67.4,192,64.1Z"/></g><g id="_Group_17" data-name="&lt;Group&gt;"><path id="_Path_39" data-name="&lt;Path&gt;" class="fillPrimaryDark" d="M312.6,45.4a23.2,23.2,0,1,1-23.2-23.2A23.22,23.22,0,0,1,312.6,45.4Z"/><path id="_Path_40" data-name="&lt;Path&gt;" class="fillSvgCutout" d="M296.5,50c0-.1,0-5-2.5-20.4h-1.2l.8,18.1a.7.7,0,0,1-1.4,0l-.8-18.1h-1.2V47.7a.7.7,0,1,1-1.4,0V29.6h-1.2l-.8,18.1a.7.7,0,1,1-1.4,0l.8-18.1H285C282.5,45,282.5,50,282.5,50c0,3.3,2.3,5.2,5.3,5.6l-.3,12.9a18.1,18.1,0,0,0,3.8,0L291,55.6C294.2,55.1,296.5,53.3,296.5,50Z"/></g><g id="_Group_18" data-name="&lt;Group&gt;"><path id="_Path_41" data-name="&lt;Path&gt;" class="fillPrimaryDark" d="M477.9,75.1a23.2,23.2,0,1,1-23.2-23.2A23.22,23.22,0,0,1,477.9,75.1Z"/><path id="_Path_42" data-name="&lt;Path&gt;" class="fillSvgCutout" d="M461.7,79.7c0-.1,0-5-2.5-20.4H458l.8,18.1a.7.7,0,0,1-1.4,0l-.8-18.1h-1.2V77.4a.7.7,0,1,1-1.4,0V59.3h-1.2L452,77.4a.7.7,0,1,1-1.4,0l.8-18.1h-1.2c-2.5,15.4-2.5,20.4-2.5,20.4,0,3.3,2.3,5.2,5.3,5.6l-.3,12.9a18.1,18.1,0,0,0,3.8,0l-.3-12.9C459.4,84.8,461.7,82.9,461.7,79.7Z"/></g><g id="_Group_19" data-name="&lt;Group&gt;"><path id="_Path_43" data-name="&lt;Path&gt;" class="fillPrimaryDark" d="M417.1,31.3A23.2,23.2,0,1,1,393.9,8.1,23.22,23.22,0,0,1,417.1,31.3Z"/><path id="_Path_44" data-name="&lt;Path&gt;" class="fillSvgCutout" d="M401,35.8c0-.1,0-5-2.5-20.4h-1.2l.8,18.1a.7.7,0,0,1-1.4,0l-.8-18.1h-1.2V33.5a.7.7,0,0,1-1.4,0V15.4h-1.2l-.8,18.1a.7.7,0,1,1-1.4,0l.8-18.1h-1.2C387,30.8,387,35.7,387,35.8c0,3.3,2.3,5.2,5.3,5.6L392,54.3a18.1,18.1,0,0,0,3.8,0l-.3-12.9C398.7,41,401,39.1,401,35.8Z"/></g><g id="_Group_20" data-name="&lt;Group&gt;"><path id="_Path_45" data-name="&lt;Path&gt;" class="fillPrimaryBase" d="M68.8,23.2A23.2,23.2,0,1,1,45.6,0,23.22,23.22,0,0,1,68.8,23.2Z"/><path id="_Path_46" data-name="&lt;Path&gt;" class="fillSvgCutout" d="M48.3,8.8c-.3-1.3-1.1-2.7-3.4.8-2.1,3.1-3.7,8.8-3.7,18.8,0,7-.2,10.8,1.9,13.8a3.92,3.92,0,0,0,1.4,1.2l-.1,3.1h1.2c.9,0,1.7-.1,2.6-.1l-.1-3.2a.1.1,0,0,0,.1-.1c.4-.4.5-9.1.5-17.7C48.8,17.3,48.6,9.9,48.3,8.8Z"/></g><g id="_Group_21" data-name="&lt;Group&gt;"><path id="_Path_47" data-name="&lt;Path&gt;" class="fillPrimaryBase" d="M149.5,79.1a23.2,23.2,0,1,1-23.2-23.2A23.22,23.22,0,0,1,149.5,79.1Z"/><path id="_Path_48" data-name="&lt;Path&gt;" class="fillSvgCutout" d="M129.1,64.6c-.3-1.3-1.1-2.7-3.4.8-2.1,3.1-3.7,8.8-3.7,18.8,0,7-.2,10.8,1.9,13.8a3.92,3.92,0,0,0,1.4,1.2l-.1,3.1h1.2c.9,0,1.7-.1,2.6-.1l-.1-3.2a.1.1,0,0,0,.1-.1c.4-.4.5-9.1.5-17.7C129.6,73.2,129.3,65.8,129.1,64.6Z"/></g><g id="_Group_22" data-name="&lt;Group&gt;"><path id="_Path_49" data-name="&lt;Path&gt;" class="fillPrimaryBase" d="M254,65a23.2,23.2,0,1,1-23.2-23.2A23.22,23.22,0,0,1,254,65Z"/><path id="_Path_50" data-name="&lt;Path&gt;" class="fillSvgCutout" d="M233.6,50.5c-.3-1.3-1.1-2.7-3.4.8-2.1,3.1-3.7,8.8-3.7,18.8,0,7-.2,10.8,1.9,13.8a3.92,3.92,0,0,0,1.4,1.2l-.1,3.1h1.2c.9,0,1.7-.1,2.6-.1l-.1-3.2a.1.1,0,0,0,.1-.1c.4-.4.5-9.1.5-17.7C234.1,59,233.8,51.6,233.6,50.5Z"/></g><g id="_Group_23" data-name="&lt;Group&gt;"><path id="_Path_51" data-name="&lt;Path&gt;" class="fillPrimaryBase" d="M358.5,50.8a23.2,23.2,0,1,1-23.2-23.2A23.22,23.22,0,0,1,358.5,50.8Z"/><path id="_Path_52" data-name="&lt;Path&gt;" class="fillSvgCutout" d="M338.1,36.3c-.3-1.3-1.1-2.7-3.4.8-2.1,3.1-3.7,8.8-3.7,18.8,0,7-.2,10.8,1.9,13.8a3.92,3.92,0,0,0,1.4,1.2l-.1,3.1h1.2c.9,0,1.7-.1,2.6-.1l-.1-3.2a.1.1,0,0,0,.1-.1c.4-.4.5-9.1.5-17.7C338.6,44.9,338.3,37.5,338.1,36.3Z"/></g><g id="_Group_24" data-name="&lt;Group&gt;"><path id="_Path_53" data-name="&lt;Path&gt;" class="fillPrimaryLight" d="M46.3,91.4A23.15,23.15,0,1,1,23.2,68.2,23.22,23.22,0,0,1,46.3,91.4Z"/><path id="_Path_54" data-name="&lt;Path&gt;" class="fillSvgCutout" d="M25.8,76.9c-.3-1.3-1.1-2.7-3.4.8-2.1,3.1-3.7,8.8-3.7,18.8,0,7-.2,10.8,1.9,13.8a3.92,3.92,0,0,0,1.4,1.2l-.1,3.1h1.2c.9,0,1.7-.1,2.6-.1l-.1-3.2a.1.1,0,0,0,.1-.1c.4-.4.5-9.1.5-17.7C26.3,85.4,26.1,78.1,25.8,76.9Z"/></g><g id="_Group_25" data-name="&lt;Group&gt;"><path id="_Path_55" data-name="&lt;Path&gt;" class="fillPrimaryLight" d="M234,29.6A23.2,23.2,0,1,1,210.8,6.4,23.22,23.22,0,0,1,234,29.6Z"/><path id="_Path_56" data-name="&lt;Path&gt;" class="fillSvgCutout" d="M217.8,34.1c0-.1,0-5-2.5-20.4h-1.2l.8,18.1a.7.7,0,1,1-1.4,0l-.8-18.1h-1.2V31.8a.7.7,0,0,1-1.4,0V13.7H209l-.8,18.1a.7.7,0,1,1-1.4,0l.8-18.1h-1.2c-2.5,15.4-2.5,20.4-2.5,20.4,0,3.3,2.3,5.2,5.3,5.6l-.3,12.9a18.1,18.1,0,0,0,3.8,0l-.3-12.9C215.6,39.2,217.8,37.4,217.8,34.1Z"/></g><g id="_Group_26" data-name="&lt;Group&gt;"><path id="_Path_57" data-name="&lt;Path&gt;" class="fillPrimaryLight" d="M411.8,109a23.2,23.2,0,1,1-23.2-23.2A23.22,23.22,0,0,1,411.8,109Z"/><path id="_Path_58" data-name="&lt;Path&gt;" class="fillSvgCutout" d="M395.6,113.5c0-.1,0-5-2.5-20.4H392l.8,18.1a.7.7,0,1,1-1.4,0l-.8-18.1h-1.2v18.1a.7.7,0,1,1-1.4,0V93.1h-1.2l-.8,18.1a.7.7,0,1,1-1.4,0l.8-18.1h-1.2c-2.5,15.4-2.5,20.4-2.5,20.4,0,3.3,2.3,5.2,5.3,5.6l-.3,12.9a18.1,18.1,0,0,0,3.8,0l-.3-12.9C393.4,118.7,395.6,116.8,395.6,113.5Z"/></g></g></g></svg>