<?xml version="1.0" encoding="utf-8"?>
<!-- Generator: Adobe Illustrator 22.0.1, SVG Export Plug-In . SVG Version: 6.00 Build 0)  -->
<svg version="1.1" id="Layer_1" xmlns="http://www.w3.org/2000/svg" xmlns:xlink="http://www.w3.org/1999/xlink" x="0px" y="0px"
	 viewBox="0 0 441.4 99.1" style="enable-background:new 0 0 441.4 99.1;" xml:space="preserve">
<style type="text/css">
	.fillPrimaryBase{fill:#FCCC3E;}
	.fillPrimaryLight{fill:#FEE78B;}
	.fillPrimaryDark{fill:#B5871F;}
	.fillSecondaryLight{fill:#D7E3E9;}
	.fillSecondaryBase{fill:#212529;}
	.fillSecondaryHover{fill:#343A40;}
	.fillAccentBase{fill:#94D82D;}
	.fillSvgCutout{fill:#FFFFFF;}
	.st0{clip-path:url(#SVGID_2_);}
</style>
<g>
	<defs>
		<rect id="SVGID_1_" width="441.4" height="99.1"/>
	</defs>
	<clipPath id="SVGID_2_">
		<use xlink:href="#SVGID_1_"  style="overflow:visible;"/>
	</clipPath>
	<g class="st0">
		<path id="XMLID_56778_" class="fillAccentBase" d="M36.3,133.7c-12.8,0-23.2-10.4-23.2-23.2s10.4-23.2,23.2-23.2
			c12.8,0.1,23.2,10.4,23.2,23.2S49.1,133.7,36.3,133.7"/>
		<path id="XMLID_56777_" class="fillSvgCutout" d="M38,133.7l-0.1-2.7c-0.1-7,1.7-7.7,2.5-8.4l0,0c3.6-2.4,5.9-7.3,5.9-11.2
			c0-5.5-4.5-15.2-10-15.2s-10,9.7-10,15.2c0,4,2.3,8.8,5.7,11.2l0,0c0.8,0.7,2.6,1.5,2.5,8.4l-0.1,2.7"/>
	</g>
	<g id="XMLID_55509_" class="st0">
		<path id="XMLID_55701_" class="fillAccentBase" d="M162.7,98.3c0,12.8-10.4,23.2-23.2,23.2s-23.2-10.4-23.2-23.2
			s10.4-23.2,23.2-23.2S162.7,85.5,162.7,98.3z"/>
		<path id="XMLID_55605_" class="fillSvgCutout" d="M149.5,99.1c0-5.5-4.5-15.2-10-15.2s-10,9.7-10,15.2c0,4,2.3,8.8,5.7,11.2l0,0
			c0.8,0.7,2.6,1.5,2.5,8.4l-0.1,2.7c0.6,0,1.2,0.1,1.8,0.1s1.2,0,1.8-0.1l-0.1-2.7c-0.1-7,1.7-7.7,2.5-8.4l0,0
			C147.2,107.9,149.5,103.1,149.5,99.1z"/>
	</g>
	<g id="XMLID_55183_" class="st0">
		<path id="XMLID_55185_" class="fillAccentBase" d="M267.2,84.1c0,12.8-10.4,23.2-23.2,23.2c-12.8,0-23.2-10.4-23.2-23.2
			s10.4-23.2,23.2-23.2C256.8,60.9,267.2,71.3,267.2,84.1z"/>
		<path id="XMLID_55184_" class="fillSvgCutout" d="M254,85c0-5.5-4.5-15.2-10-15.2s-10,9.7-10,15.2c0,4,2.3,8.8,5.7,11.2l0,0
			c0.8,0.7,2.6,1.5,2.5,8.4l-0.1,2.7c0.6,0,1.2,0.1,1.8,0.1c0.6,0,1.2,0,1.8-0.1l-0.1-2.7c-0.1-7,1.7-7.7,2.5-8.4l0,0
			C251.7,93.7,254,88.9,254,85z"/>
	</g>
	<g id="XMLID_55173_" class="st0">
		<path id="XMLID_55175_" class="fillAccentBase" d="M82.6,29.6c0,12.8-10.4,23.2-23.2,23.2S36.2,42.4,36.2,29.6S46.6,6.4,59.4,6.4
			S82.6,16.8,82.6,29.6z"/>
		<path id="XMLID_55174_" class="fillSvgCutout" d="M69.5,30.4c0-5.5-4.5-15.2-10-15.2s-10,9.7-10,15.2c0,4,2.3,8.8,5.7,11.2l0,0
			c0.8,0.7,2.6,1.5,2.5,8.4l-0.1,2.7c0.6,0,1.2,0.1,1.8,0.1s1.2,0,1.8-0.1L61.1,50c-0.1-7,1.7-7.7,2.5-8.4l0,0
			C67.1,39.2,69.5,34.4,69.5,30.4z"/>
	</g>
	<g id="XMLID_55150_" class="st0">
		<path id="XMLID_55152_" class="fillAccentBase" d="M440.1,36.4c0,12.8-10.4,23.2-23.2,23.2c-12.8,0-23.2-10.4-23.2-23.2
			s10.4-23.2,23.2-23.2C429.7,13.3,440.1,23.7,440.1,36.4z"/>
		<path id="XMLID_55151_" class="fillSvgCutout" d="M426.9,37.3c0-5.5-4.5-15.2-10-15.2s-10,9.7-10,15.2c0,4,2.3,8.8,5.7,11.2l0,0
			c0.8,0.7,2.6,1.5,2.5,8.4l-0.1,2.7c0.6,0,1.2,0.1,1.8,0.1c0.6,0,1.2,0,1.8-0.1l-0.1-2.7c-0.1-7,1.7-7.7,2.5-8.4l0,0
			C424.6,46.1,426.9,41.3,426.9,37.3z"/>
	</g>
	<g id="XMLID_55132_" class="st0">
		<path id="XMLID_55134_" class="fillAccentBase" d="M371.7,70c0,12.8-10.4,23.2-23.2,23.2c-12.8,0-23.2-10.4-23.2-23.2
			s10.4-23.2,23.2-23.2C361.4,46.8,371.7,57.2,371.7,70z"/>
		<path id="XMLID_55133_" class="fillSvgCutout" d="M358.5,70.8c0-5.5-4.5-15.2-10-15.2s-10,9.7-10,15.2c0,4,2.3,8.8,5.7,11.2l0,0
			c0.8,0.7,2.6,1.5,2.5,8.4l-0.1,2.7c0.6,0,1.2,0.1,1.8,0.1c0.6,0,1.2,0,1.8-0.1l-0.1-2.7c-0.1-7,1.7-7.7,2.5-8.4l0,0
			C356.2,79.6,358.5,74.8,358.5,70.8z"/>
	</g>
	<g class="st0">
		<path id="XMLID_56783_" class="fillSecondaryBase" d="M78,133.7c-12.8,0-23.2-10.4-23.2-23.2S65.2,87.3,78,87.3
			c12.9,0.1,23.2,10.4,23.2,23.2S90.8,133.7,78,133.7"/>
		<path id="XMLID_56782_" class="fillSvgCutout" d="M80.7,133.6l-0.1-3.2c0,0,0.1,0,0.1-0.1c0.4-0.4,0.5-9.1,0.5-17.7
			c0.1-8-0.2-15.4-0.4-16.6c-0.3-1.3-1.1-2.7-3.4,0.8c-2.1,3.1-3.7,8.8-3.7,18.8c0,7-0.2,10.8,1.9,13.8c0.4,0.6,0.9,0.9,1.4,1.2
			l-0.1,3.1"/>
	</g>
	<g id="XMLID_55989_" class="st0">
		<path id="XMLID_56181_" class="fillSecondaryBase" d="M204.5,98.3c0,12.8-10.4,23.2-23.2,23.2s-23.2-10.4-23.2-23.2
			s10.4-23.2,23.2-23.2S204.5,85.5,204.5,98.3z"/>
		<path id="XMLID_56085_" class="fillSvgCutout" d="M184,83.8c-0.3-1.3-1.1-2.7-3.4,0.8c-2.1,3.1-3.7,8.8-3.7,18.8
			c0,7-0.2,10.8,1.9,13.8c0.4,0.6,0.9,0.9,1.4,1.2l-0.1,3.1c0.4,0,0.8,0,1.2,0c0.9,0,1.7-0.1,2.6-0.1l-0.1-3.2c0,0,0.1,0,0.1-0.1
			c0.4-0.4,0.5-9.1,0.5-17.7C184.5,92.4,184.3,85,184,83.8z"/>
	</g>
	<g id="XMLID_55197_" class="st0">
		<path id="XMLID_55199_" class="fillSecondaryBase" d="M309,84.1c0,12.8-10.4,23.2-23.2,23.2c-12.8,0-23.2-10.4-23.2-23.2
			s10.4-23.2,23.2-23.2C298.6,61,309,71.3,309,84.1z"/>
		<path id="XMLID_55198_" class="fillSvgCutout" d="M288.5,69.6c-0.3-1.3-1.1-2.7-3.4,0.8c-2.1,3.1-3.7,8.8-3.7,18.8
			c0,7-0.2,10.8,1.9,13.8c0.4,0.6,0.9,0.9,1.4,1.2l-0.1,3.1c0.4,0,0.8,0,1.2,0c0.9,0,1.7-0.1,2.6-0.1l-0.1-3.2c0,0,0.1,0,0.1-0.1
			c0.4-0.4,0.5-9.1,0.5-17.7C289,78.2,288.8,70.8,288.5,69.6z"/>
	</g>
	<g id="XMLID_55140_" class="st0">
		<path id="XMLID_55142_" class="fillSecondaryBase" d="M413.5,70c0,12.8-10.4,23.2-23.2,23.2c-12.8,0-23.2-10.4-23.2-23.2
			s10.4-23.2,23.2-23.2S413.5,57.2,413.5,70z"/>
		<path id="XMLID_55141_" class="fillSvgCutout" d="M393,55.5c-0.3-1.3-1.1-2.7-3.4,0.8c-2.1,3.1-3.7,8.8-3.7,18.8
			c0,7-0.2,10.8,1.9,13.8c0.4,0.6,0.9,0.9,1.4,1.2l-0.1,3.1c0.4,0,0.8,0,1.2,0c0.9,0,1.7-0.1,2.6-0.1l-0.1-3.2c0,0,0.1,0,0.1-0.1
			c0.4-0.4,0.5-9.1,0.5-17.7C393.5,64,393.3,56.6,393,55.5z"/>
	</g>
	<g id="XMLID_55194_" class="st0">
		<path id="XMLID_55196_" class="fillSecondaryHover" d="M240.7,109.6c0,12.8-10.4,23.2-23.2,23.2s-23.2-10.4-23.2-23.2
			s10.4-23.2,23.2-23.2S240.7,96.8,240.7,109.6z"/>
		<path id="XMLID_55195_" class="fillSvgCutout" d="M224.5,114.1c0-0.1,0-5-2.5-20.4h-1.2l0.9,18.1c0,0.4-0.3,0.7-0.7,0.7
			s-0.7-0.3-0.7-0.7l-0.8-18.1h-0.4h-0.8v18.1c0,0.4-0.3,0.7-0.7,0.7s-0.7-0.3-0.7-0.7V93.7h-0.8h-0.4l-0.8,18.1
			c0,0.4-0.3,0.7-0.7,0.7s-0.7-0.3-0.7-0.7l0.8-18.1h-1.2c-2.5,15.4-2.5,20.4-2.5,20.4c0,3.3,2.3,5.2,5.3,5.6l-0.3,12.9
			c0.6,0.1,1.3,0.1,1.9,0.1c0.6,0,1.3,0,1.9-0.1l-0.3-12.9C222.3,119.3,224.5,117.4,224.5,114.1z"/>
	</g>
	<g id="XMLID_55191_" class="st0">
		<path id="XMLID_55193_" class="fillSecondaryHover" d="M119.9,42.6c0,12.8-10.4,23.2-23.2,23.2S73.5,55.4,73.5,42.6
			s10.4-23.2,23.2-23.2S119.9,29.8,119.9,42.6z"/>
		<path id="XMLID_55192_" class="fillSvgCutout" d="M103.7,47.1c0-0.1,0-5-2.5-20.4H100l0.8,18.1c0,0.4-0.3,0.7-0.7,0.7
			s-0.7-0.3-0.7-0.7l-0.8-18.1h-0.4h-0.8v18.1c0,0.4-0.3,0.7-0.7,0.7c-0.4,0-0.7-0.3-0.7-0.7V26.7h-0.8h-0.4L94,44.8
			c0,0.4-0.3,0.7-0.7,0.7s-0.7-0.3-0.7-0.7l0.8-18.1h-1.2c-2.5,15.4-2.5,20.4-2.5,20.4c0,3.3,2.3,5.2,5.3,5.6l-0.3,12.9
			c0.6,0.1,1.3,0.1,1.9,0.1c0.6,0,1.3,0,1.9-0.1l-0.3-12.9C101.5,52.3,103.7,50.4,103.7,47.1z"/>
	</g>
	<g id="XMLID_55137_" class="st0">
		<path id="XMLID_55139_" class="fillSecondaryHover" d="M345.2,95.4c0,12.8-10.4,23.2-23.2,23.2c-12.8,0-23.2-10.4-23.2-23.2
			s10.4-23.2,23.2-23.2C334.8,72.3,345.2,82.6,345.2,95.4z"/>
		<path id="XMLID_55138_" class="fillSvgCutout" d="M329,100c0-0.1,0-5-2.5-20.4h-1.2l0.8,18.1c0,0.4-0.3,0.7-0.7,0.7
			c-0.4,0-0.7-0.3-0.7-0.7l-0.8-18.1h-0.4h-0.8v18.1c0,0.4-0.3,0.7-0.7,0.7c-0.4,0-0.7-0.3-0.7-0.7V79.6h-0.8h-0.4l-0.8,18.1
			c0,0.4-0.3,0.7-0.7,0.7c-0.4,0-0.7-0.3-0.7-0.7l0.8-18.1h-1.2C315,95,315,100,315,100c0,3.3,2.3,5.2,5.3,5.6l-0.3,12.9
			c0.6,0.1,1.3,0.1,1.9,0.1s1.3,0,1.9-0.1l-0.3-12.9C326.8,105.1,329,103.2,329,100z"/>
	</g>
	<g id="XMLID_56469_" class="st0">
		<path id="XMLID_56661_" class="fillSecondaryLight" d="M46.3,63.8C46.3,76.6,35.9,87,23.1,87S0,76.6,0,63.8s10.4-23.2,23.2-23.2
			S46.3,51,46.3,63.8z"/>
		<path id="XMLID_56565_" class="fillSvgCutout" d="M33.1,64.7c0-5.5-4.5-15.2-10-15.2s-10,9.7-10,15.2c0,4,2.3,8.8,5.7,11.2l0,0
			c0.8,0.7,2.6,1.5,2.5,8.4L21.2,87c0.6,0,1.2,0.1,1.8,0.1s1.2,0,1.8-0.1l-0.1-2.7c-0.1-7,1.7-7.7,2.5-8.4l0,0
			C30.8,73.4,33.1,68.6,33.1,64.7z"/>
	</g>
	<g id="XMLID_55202_" class="st0">
		<path id="XMLID_55204_" class="fillSecondaryLight" d="M149.5,42.6c0,12.8-10.4,23.2-23.2,23.2s-23.2-10.4-23.2-23.2
			s10.4-23.2,23.2-23.2C139.2,19.4,149.5,29.8,149.5,42.6z"/>
		<path id="XMLID_55203_" class="fillSvgCutout" d="M136.4,43.4c0-5.5-4.5-15.2-10-15.2s-10,9.7-10,15.2c0,4,2.3,8.8,5.7,11.2l0,0
			c0.8,0.7,2.6,1.5,2.5,8.4l-0.1,2.7c0.6,0,1.2,0.1,1.8,0.1s1.2,0,1.8-0.1L128,63c-0.1-7,1.7-7.7,2.5-8.4l0,0
			C134,52.2,136.4,47.4,136.4,43.4z"/>
	</g>
	<g id="XMLID_55160_" class="st0">
		<path id="XMLID_55162_" class="fillSecondaryLight" d="M254,28.4c0,12.8-10.4,23.2-23.2,23.2s-23.2-10.4-23.2-23.2
			S218,5.2,230.8,5.2C243.7,5.2,254,15.6,254,28.4z"/>
		<path id="XMLID_55161_" class="fillSvgCutout" d="M240.9,29.2c0-5.5-4.5-15.2-10-15.2s-10,9.7-10,15.2c0,4,2.3,8.8,5.7,11.2l0,0
			c0.8,0.7,2.6,1.5,2.5,8.4l-0.1,2.7c0.6,0,1.2,0.1,1.8,0.1s1.2,0,1.8-0.1l0.1-2.7c-0.1-7,1.7-7.7,2.5-8.4l0,0
			C238.5,38,240.9,33.2,240.9,29.2z"/>
	</g>
	<g class="st0">
		<path id="XMLID_55147_" class="fillSecondaryLight" d="M430.1,109.6c0,12.8-10.4,23.2-23.2,23.2c-12.8,0-23.2-10.4-23.2-23.2
			s10.4-23.2,23.2-23.2C419.7,86.4,430.1,96.8,430.1,109.6z"/>
		<path id="XMLID_55146_" class="fillSvgCutout" d="M406.8,132.8c0.6,0,1.2,0,1.8-0.1l-0.1-2.7c-0.1-7,1.7-7.7,2.5-8.4l0,0
			c3.6-2.4,5.9-7.2,5.9-11.2c0-5.5-4.5-15.2-10-15.2s-10,9.7-10,15.2c0,4,2.3,8.8,5.7,11.2l0,0c0.8,0.7,2.6,1.5,2.5,8.4l-0.1,2.7
			C405.6,132.7,406.2,132.8,406.8,132.8"/>
	</g>
	<g id="XMLID_56664_" class="st0">
		<path id="XMLID_56666_" class="fillPrimaryDark" d="M84.6,71.9c0,12.8-10.4,23.2-23.2,23.2S38.2,84.7,38.2,71.9
			s10.4-23.2,23.2-23.2S84.6,59.1,84.6,71.9z"/>
		<path id="XMLID_56665_" class="fillSvgCutout" d="M68.4,76.4c0-0.1,0-5-2.5-20.4h-1.2l0.8,18.1c0,0.4-0.3,0.7-0.7,0.7
			s-0.7-0.3-0.7-0.7L63.3,56h-0.4h-0.8v18.1c0,0.4-0.3,0.7-0.7,0.7s-0.7-0.3-0.7-0.7V56h-0.8h-0.4l-0.8,18.1c0,0.4-0.3,0.7-0.7,0.7
			c-0.4,0-0.7-0.3-0.7-0.7L58.1,56h-1.2c-2.5,15.4-2.5,20.4-2.5,20.4c0,3.3,2.3,5.2,5.3,5.6l-0.3,12.9C60,95,60.7,95,61.3,95
			s1.3,0,1.9-0.1L62.9,82C66.1,81.5,68.4,79.7,68.4,76.4z"/>
	</g>
	<g id="XMLID_55212_" class="st0">
		<path id="XMLID_55305_" class="fillPrimaryDark" d="M187.8,59.6c0,12.8-10.4,23.2-23.2,23.2s-23.2-10.4-23.2-23.2
			s10.4-23.2,23.2-23.2S187.8,46.8,187.8,59.6z"/>
		<path id="XMLID_55304_" class="fillSvgCutout" d="M171.7,64.1c0-0.1,0-5-2.5-20.4H168l0.8,18.1c0,0.4-0.3,0.7-0.7,0.7
			s-0.7-0.3-0.7-0.7l-0.8-18.1h-0.4h-0.8v18.1c0,0.4-0.3,0.7-0.7,0.7s-0.7-0.3-0.7-0.7V43.7h-0.8h-0.4L162,61.8
			c0,0.4-0.3,0.7-0.7,0.7s-0.7-0.3-0.7-0.7l0.8-18.1h-1.2c-2.5,15.4-2.5,20.4-2.5,20.4c0,3.3,2.3,5.2,5.3,5.6l-0.3,12.9
			c0.6,0.1,1.3,0.1,1.9,0.1c0.6,0,1.3,0,1.9-0.1l-0.3-12.9C169.4,69.3,171.7,67.4,171.7,64.1z"/>
	</g>
	<g id="XMLID_55165_" class="st0">
		<path id="XMLID_55167_" class="fillPrimaryDark" d="M292.3,45.4c0,12.8-10.4,23.2-23.2,23.2s-23.2-10.4-23.2-23.2
			s10.4-23.2,23.2-23.2C282,22.3,292.3,32.7,292.3,45.4z"/>
		<path id="XMLID_55166_" class="fillSvgCutout" d="M276.2,50c0-0.1,0-5-2.5-20.4h-1.2l0.8,18.1c0,0.4-0.3,0.7-0.7,0.7
			c-0.4,0-0.7-0.3-0.7-0.7l-0.8-18.1h-0.4h-0.8v18.1c0,0.4-0.3,0.7-0.7,0.7c-0.4,0-0.7-0.3-0.7-0.7V29.6h-0.8h-0.4l-0.8,18.1
			c0,0.4-0.3,0.7-0.7,0.7c-0.4,0-0.7-0.3-0.7-0.7l0.8-18.1h-1.2C262.2,45,262.2,50,262.2,50c0,3.3,2.3,5.2,5.3,5.6l-0.3,12.9
			c0.6,0.1,1.3,0.1,1.9,0.1s1.3,0,1.9-0.1l-0.3-12.9C273.9,55.1,276.2,53.3,276.2,50z"/>
	</g>
	<g id="XMLID_55155_" class="st0">
		<path id="XMLID_55157_" class="fillPrimaryDark" d="M457.6,75.1c0,12.8-10.4,23.2-23.2,23.2c-12.8,0-23.2-10.4-23.2-23.2
			s10.4-23.2,23.2-23.2C447.2,52,457.6,62.3,457.6,75.1z"/>
		<path id="XMLID_55156_" class="fillSvgCutout" d="M441.4,79.7c0-0.1,0-5-2.5-20.4h-1.2l0.8,18.1c0,0.4-0.3,0.7-0.7,0.7
			c-0.4,0-0.7-0.3-0.7-0.7l-0.8-18.1h-0.4h-0.8v18.1c0,0.4-0.3,0.7-0.7,0.7c-0.4,0-0.7-0.3-0.7-0.7V59.3h-0.8h-0.4l-0.8,18.1
			c0,0.4-0.3,0.7-0.7,0.7c-0.4,0-0.7-0.3-0.7-0.7l0.8-18.1h-1.2c-2.5,15.4-2.5,20.4-2.5,20.4c0,3.3,2.3,5.2,5.3,5.6l-0.3,12.9
			c0.6,0.1,1.3,0.1,1.9,0.1s1.3,0,1.9-0.1l-0.3-12.9C439.1,84.8,441.4,82.9,441.4,79.7z"/>
	</g>
	<g id="XMLID_55119_" class="st0">
		<path id="XMLID_55121_" class="fillPrimaryDark" d="M396.8,31.3c0,12.8-10.4,23.2-23.2,23.2c-12.8,0-23.2-10.4-23.2-23.2
			s10.4-23.2,23.2-23.2C386.5,8.1,396.8,18.5,396.8,31.3z"/>
		<path id="XMLID_55120_" class="fillSvgCutout" d="M380.7,35.8c0-0.1,0-5-2.5-20.4H377l0.8,18.1c0,0.4-0.3,0.7-0.7,0.7
			c-0.4,0-0.7-0.3-0.7-0.7l-0.8-18.1h-0.4h-0.8v18.1c0,0.4-0.3,0.7-0.7,0.7c-0.4,0-0.7-0.3-0.7-0.7V15.4h-0.8h-0.4L371,33.5
			c0,0.4-0.3,0.7-0.7,0.7c-0.4,0-0.7-0.3-0.7-0.7l0.8-18.1h-1.2c-2.5,15.4-2.5,20.3-2.5,20.4c0,3.3,2.3,5.2,5.3,5.6l-0.3,12.9
			c0.6,0.1,1.3,0.1,1.9,0.1s1.3,0,1.9-0.1l-0.3-12.9C378.4,41,380.7,39.1,380.7,35.8z"/>
	</g>
	<g id="XMLID_55314_" class="st0">
		<path id="XMLID_55316_" class="fillPrimaryBase" d="M48.5,23.2c0,12.8-10.4,23.2-23.2,23.2S2.1,36,2.1,23.2S12.5,0,25.3,0
			C38.1,0.1,48.5,10.5,48.5,23.2z"/>
		<path id="XMLID_55315_" class="fillSvgCutout" d="M28,8.8c-0.3-1.3-1.1-2.7-3.4,0.8c-2.1,3.1-3.7,8.8-3.7,18.8
			c0,7-0.2,10.8,1.9,13.8c0.4,0.6,0.9,0.9,1.4,1.2l-0.1,3.1c0.4,0,0.8,0,1.2,0c0.9,0,1.7-0.1,2.6-0.1l-0.1-3.2c0,0,0.1,0,0.1-0.1
			c0.4-0.4,0.5-9.1,0.5-17.7C28.5,17.3,28.3,9.9,28,8.8z"/>
	</g>
	<g id="XMLID_55311_" class="st0">
		<path id="XMLID_55313_" class="fillPrimaryBase" d="M129.2,79.1c0,12.8-10.4,23.2-23.2,23.2S82.8,91.9,82.8,79.1
			S93.2,55.9,106,55.9C118.9,56,129.2,66.3,129.2,79.1z"/>
		<path id="XMLID_55312_" class="fillSvgCutout" d="M108.8,64.6c-0.3-1.3-1.1-2.7-3.4,0.8c-2.1,3.1-3.7,8.8-3.7,18.8
			c0,7-0.2,10.8,1.9,13.8c0.4,0.6,0.9,0.9,1.4,1.2l-0.1,3.1c0.4,0,0.8,0,1.2,0c0.9,0,1.7-0.1,2.6-0.1l-0.1-3.2c0,0,0.1,0,0.1-0.1
			c0.4-0.4,0.5-9.1,0.5-17.7C109.3,73.2,109,65.8,108.8,64.6z"/>
	</g>
	<g id="XMLID_55170_" class="st0">
		<path id="XMLID_55172_" class="fillPrimaryBase" d="M233.7,65c0,12.8-10.4,23.2-23.2,23.2S187.3,77.8,187.3,65
			s10.4-23.2,23.2-23.2C223.4,41.8,233.7,52.2,233.7,65z"/>
		<path id="XMLID_55171_" class="fillSvgCutout" d="M213.3,50.5c-0.3-1.3-1.1-2.7-3.4,0.8c-2.1,3.1-3.7,8.8-3.7,18.8
			c0,7-0.2,10.8,1.9,13.8c0.4,0.6,0.9,0.9,1.4,1.2l-0.1,3.1c0.4,0,0.8,0,1.2,0c0.9,0,1.7-0.1,2.6-0.1l-0.1-3.2c0,0,0.1,0,0.1-0.1
			c0.4-0.4,0.5-9.1,0.5-17.7C213.8,59,213.5,51.6,213.3,50.5z"/>
	</g>
	<g id="XMLID_55124_" class="st0">
		<path id="XMLID_55126_" class="fillPrimaryBase" d="M338.2,50.8c0,12.8-10.4,23.2-23.2,23.2c-12.8,0-23.2-10.4-23.2-23.2
			s10.4-23.2,23.2-23.2C327.9,27.6,338.2,38,338.2,50.8z"/>
		<path id="XMLID_55125_" class="fillSvgCutout" d="M317.8,36.3c-0.3-1.3-1.1-2.7-3.4,0.8c-2.1,3.1-3.7,8.8-3.7,18.8
			c0,7-0.2,10.8,1.9,13.8c0.4,0.6,0.9,0.9,1.4,1.2l-0.1,3.1c0.4,0,0.8,0,1.2,0c0.9,0,1.7-0.1,2.6-0.1l-0.1-3.2c0,0,0.1,0,0.1-0.1
			c0.4-0.4,0.5-9.1,0.5-17.7C318.3,44.9,318,37.5,317.8,36.3z"/>
	</g>
	<g id="XMLID_56764_" class="st0">
		<path id="XMLID_56770_" class="fillPrimaryLight" d="M26,91.4c0,12.8-10.4,23.2-23.2,23.2s-23.1-10.4-23.1-23.2
			S-9.9,68.2,2.9,68.2S26,78.6,26,91.4z"/>
		<path id="XMLID_56769_" class="fillSvgCutout" d="M5.5,76.9c-0.3-1.3-1.1-2.7-3.4,0.8C0,80.8-1.6,86.5-1.6,96.5
			c0,7-0.2,10.8,1.9,13.8c0.4,0.6,0.9,0.9,1.4,1.2l-0.1,3.1c0.4,0,0.8,0,1.2,0c0.9,0,1.7-0.1,2.6-0.1l-0.1-3.2c0,0,0.1,0,0.1-0.1
			c0.4-0.4,0.5-9.1,0.5-17.7C6,85.4,5.8,78.1,5.5,76.9z"/>
	</g>
	<g id="XMLID_55178_" class="st0">
		<path id="XMLID_55180_" class="fillPrimaryLight" d="M213.7,29.6c0,12.8-10.4,23.2-23.2,23.2s-23.2-10.4-23.2-23.2
			s10.4-23.2,23.2-23.2S213.7,16.8,213.7,29.6z"/>
		<path id="XMLID_55179_" class="fillSvgCutout" d="M197.5,34.1c0-0.1,0-5-2.5-20.4h-1.2l0.8,18.1c0,0.4-0.3,0.7-0.7,0.7
			s-0.7-0.3-0.7-0.7l-0.8-18.1H192h-0.8v18.1c0,0.4-0.3,0.7-0.7,0.7s-0.7-0.3-0.7-0.7V13.7H189h-0.3l-0.8,18.1
			c0,0.4-0.3,0.7-0.7,0.7s-0.7-0.3-0.7-0.7l0.8-18.1h-1.2c-2.5,15.4-2.5,20.4-2.5,20.4c0,3.3,2.3,5.2,5.3,5.6l-0.3,12.9
			c0.6,0.1,1.3,0.1,1.9,0.1c0.6,0,1.3,0,1.9-0.1l-0.3-12.9C195.3,39.2,197.5,37.4,197.5,34.1z"/>
	</g>
	<g id="XMLID_55127_" class="st0">
		<path id="XMLID_55129_" class="fillPrimaryLight" d="M391.5,109c0,12.8-10.4,23.2-23.2,23.2c-12.8,0-23.2-10.4-23.2-23.2
			s10.4-23.2,23.2-23.2C381.2,85.8,391.5,96.2,391.5,109z"/>
		<path id="XMLID_55128_" class="fillSvgCutout" d="M375.3,113.5c0-0.1,0-5-2.5-20.4h-1.1l0.8,18.1c0,0.4-0.3,0.7-0.7,0.7
			c-0.4,0-0.7-0.3-0.7-0.7l-0.8-18.1h-0.4h-0.8v18.1c0,0.4-0.3,0.7-0.7,0.7c-0.4,0-0.7-0.3-0.7-0.7V93.1h-0.8h-0.4l-0.8,18.1
			c0,0.4-0.3,0.7-0.7,0.7c-0.4,0-0.7-0.3-0.7-0.7l0.8-18.1h-1.2c-2.5,15.4-2.5,20.4-2.5,20.4c0,3.3,2.3,5.2,5.3,5.6l-0.3,12.9
			c0.6,0.1,1.3,0.1,1.9,0.1s1.3,0,1.9-0.1l-0.3-12.9C373.1,118.7,375.3,116.8,375.3,113.5z"/>
	</g>
</g>
</svg>
