<svg xmlns="http://www.w3.org/2000/svg" viewBox="0 0 46.4 46.4"><defs><style>.fillAccentBase{fill:#94d82d;}.fillSvgCutout{fill:#fff;}</style></defs><title>spoon</title><g id="Layer_2" data-name="Layer 2"><g id="Layer_1-2" data-name="Layer 1"><g id="_Group_" data-name="&lt;Group&gt;"><path id="_Path_" data-name="&lt;Path&gt;" class="fillAccentBase" d="M46.4,23.2A23.2,23.2,0,1,1,23.2,0,23.22,23.22,0,0,1,46.4,23.2Z"/><path id="_Path_2" data-name="&lt;Path&gt;" class="fillSvgCutout" d="M33.2,24c0-5.5-4.5-15.2-10-15.2s-10,9.7-10,15.2a14.72,14.72,0,0,0,5.7,11.2h0c.8.7,2.6,1.5,2.5,8.4l-.1,2.7c.6,0,1.2.1,1.8.1a10.87,10.87,0,0,0,1.8-.1l-.1-2.7c-.1-7,1.7-7.7,2.5-8.4h0A14.32,14.32,0,0,0,33.2,24Z"/></g></g></g></svg>