<svg width="200" height="118" viewBox="0 0 200 118" fill="none" xmlns="http://www.w3.org/2000/svg">
<path d="M56.8241 117.927C53.286 117.927 49.6988 117.682 46.0625 117.19C30.7309 115.126 15.1044 108.542 1.00133 98.1731C-0.0797426 97.3868 -0.325459 95.8144 0.460777 94.7333C1.24701 93.6522 2.81948 93.4065 3.90056 94.1928C17.3648 104.07 32.2051 110.311 46.7504 112.276C60.2147 114.094 73.1385 112.276 84.0475 107.018C91.3202 103.529 97.3152 98.6645 101.934 92.7677C95.5462 92.5711 89.1089 91.7849 82.6716 90.3598C72.0574 88.0011 63.7528 79.9913 61.0992 69.4754C58.3965 59.0087 61.8363 48.0505 69.9444 40.9253C78.6913 33.2595 90.6322 31.6378 101.148 36.6501C111.615 41.6623 117.806 51.9326 117.315 63.4804C116.971 72.2764 114.809 80.4336 111.074 87.608C132.696 86.1338 153.138 77.0921 169.551 61.3183C178.592 52.6205 185.718 42.4486 190.189 31.8835C194.563 21.515 196.037 11.4905 194.514 2.89109C194.268 1.56432 195.152 0.286689 196.479 0.04099C197.806 -0.204709 199.084 0.679807 199.329 2.00658C202.818 21.4168 192.499 46.1341 172.941 64.9054C154.809 82.3009 132.057 91.9323 108.028 92.7677C102.77 100.63 95.3496 107.018 86.1605 111.441C77.3153 115.716 67.34 117.927 56.8241 117.927ZM88.6175 38.7631C83.0647 38.7631 77.6102 40.7778 73.1385 44.6599C66.308 50.6549 63.5562 59.5001 65.8166 68.2961C68.0771 77.1413 74.76 83.6277 83.7035 85.5933C90.927 87.1658 98.1506 87.952 105.276 87.9028C109.551 80.7776 112.008 72.473 112.352 63.3821C112.745 53.7999 107.635 45.2987 98.986 41.171C95.6445 39.5493 92.1064 38.7631 88.6175 38.7631Z" fill="#353E44"/>
</svg>
