<svg width="200" height="135" viewBox="0 0 200 135" fill="none" xmlns="http://www.w3.org/2000/svg">
<path d="M150.653 134.666C144.043 134.666 137.74 131.361 134.051 125.442C130.131 119.216 125.98 104.919 140.277 77.9401C131.514 68.1784 120.6 58.0323 108.301 48.8086C73.6357 22.6749 35.588 7.6864 3.8432 7.6864C1.69101 7.6864 0 5.99539 0 3.8432C0 1.69101 1.69101 0 3.8432 0C37.2022 0 77.0177 15.5265 112.99 42.6595C124.904 51.6526 135.511 61.3375 144.274 70.8686C153.728 55.1115 169.101 35.4343 193.39 11.2222C194.927 9.68489 197.31 9.68489 198.847 11.2222C200.384 12.7594 200.384 15.1422 198.847 16.6795C174.789 40.7379 159.108 60.7994 149.654 77.0177C160.953 90.5458 168.101 103.459 169.254 113.528C170.331 122.675 165.642 130.515 157.34 133.513C155.111 134.281 152.882 134.666 150.653 134.666ZM145.657 84.2429C136.741 101.999 136.203 114.297 140.584 121.291C144.12 126.902 150.423 127.748 154.804 126.211C159.723 124.443 162.26 120.062 161.645 114.45C160.646 106.303 154.804 95.6957 145.657 84.2429Z" fill="#353E44"/>
</svg>
