<svg width="200" height="96" viewBox="0 0 200 96" fill="none" xmlns="http://www.w3.org/2000/svg">
<path d="M130.236 95.3313C115.429 95.3313 101.067 91.374 88.9284 83.7706C77.012 76.3006 67.9858 65.9404 62.8724 53.8017C60.8271 48.9551 59.4931 43.9751 58.7817 38.9062C50.3335 43.2637 41.4406 45.1312 33.526 44.153C21.2094 42.6856 5.42463 33.9262 0 0.71143L4.40194 0C8.31479 24.1441 18.586 37.8835 34.0596 39.751C40.418 40.5069 50.0222 38.4171 58.337 34.0596C58.0258 27.2566 58.9151 20.3646 61.0049 13.6061C62.5611 8.53713 65.8959 5.06893 69.8977 4.31303C72.9213 3.735 75.856 4.80214 77.7679 7.15874C80.3913 10.3602 80.5691 15.2957 78.3015 20.6759C76.0338 26.0116 70.2534 31.9698 63.0058 36.5496C63.5393 41.8853 64.8288 47.0876 66.9631 52.1121C71.7208 63.406 80.1245 73.0547 91.285 80.0356C105.336 88.795 122.588 92.4411 139.973 90.3068C159.849 87.8613 179.546 77.9013 196.976 61.5829L200 64.8288C181.903 81.8141 161.316 92.1299 140.507 94.7088C137.128 95.1089 133.659 95.3313 130.236 95.3313ZM71.5429 8.62605C71.2761 8.62605 71.0093 8.67052 70.787 8.71499C68.4304 9.15963 66.3851 11.5162 65.3179 14.9844C63.6283 20.498 62.7834 26.056 62.7834 31.5696C67.8968 28.2348 72.121 23.9662 74.2108 18.9862C75.8115 15.2068 75.8559 11.8719 74.3441 10.0044C73.6327 9.0707 72.6545 8.62605 71.5429 8.62605Z" fill="#353E44"/>
</svg>
