<?xml version="1.0" encoding="utf-8"?>
<!-- Generator: Adobe Illustrator 22.0.1, SVG Export Plug-In . SVG Version: 6.00 Build 0)  -->
<svg version="1.1" xmlns="http://www.w3.org/2000/svg" xmlns:xlink="http://www.w3.org/1999/xlink" x="0px" y="0px"
	 viewBox="0 0 216 144" enable-background="new 0 0 216 144" xml:space="preserve">
<g>
	<path  class="s-p" d="M112.4,25.8C105.3,1.8,73.4-6,55.1,12c-0.3,0.3-0.5,0.5-0.8,0.8c-26.2,26.6-13.8,92.3,40.9,109
		c54.8,16.6,111.7-13.7,114.9-40.9c3.2-27.2-22.1-35.7-61.3-28.1C126.7,57,116.8,40.7,112.4,25.8z"/>
	<path  class="s-p" d="M160.2,31.5c-7.1,2-8.2,8.3-2,11.8c2.1,1.2,4.9,2,8.7,2.1c14.7,0.4,21.4-6.6,14.5-13.5
		C177.3,27.6,167.3,29.5,160.2,31.5z"/>
	<path  class="s-p" d="M49,94.5c-5.6-4.5-11.9-2-11.8,4.8c0,2.3,0.8,4.9,2.8,8c7.5,11.8,17.4,13.4,20,4.2
		C61.6,105.9,54.6,99,49,94.5z"/>
	<path  class="s-p" d="M175.1,119.1c-6.5,3.4-6.1,9.8,0.8,12c2.3,0.7,5.2,1,9,0.3c14.4-2.6,19.4-10.7,11.1-16.1
		C190.8,111.9,181.5,115.7,175.1,119.1z"/>
	<path  class="s-p" d="M197.1,107.5c-2.1,2.7-0.5,6,3.1,6.1c1.2,0,2.5-0.3,4.1-1.2c5.8-3.5,6.2-8.5,1.2-10
		C202.4,101.5,199.1,104.8,197.1,107.5z"/>
</g>
<path  class="s-p" d="M216,137.7c0,3.5-48.4,6.3-108,6.3c-59.6,0-108-2.8-108-6.3c0-3.5,48.4-6.3,108-6.3
	C167.6,131.5,216,134.3,216,137.7z"/>
<g>
	<g>
		<g>
			<g>
				<path  class="p-d" d="M124,75.1c0-0.1,0.9-12.9,7.7-17.1c1.6-1,3.3-1.4,5.3-1.2c11.5,0.9,11.8,18.2,11.8,18.4l2.1,0
					c0-0.8-0.3-18.8-13.7-19.9c-2.5-0.2-4.9,0.3-6.9,1.6c-7.4,4.6-8.4,17.6-8.4,18.2L124,75.1z"/>
			</g>
		</g>
		<polygon  class="p-b" points="155.3,73.6 104.3,73.4 94.1,137.6 165.9,137.8 		"/>
		<ellipse  class="p-d" cx="131.9" cy="103.7" rx="16.5" ry="11.9"/>
		<g>
			<g>
				<g>
					<path  class="p-b" d="M119.5,74.6c0-0.1,0.9-12.9,7.7-17.1c1.6-1,3.3-1.4,5.3-1.2c11.5,0.9,11.8,18.2,11.8,18.4l2.1,0
						c0-0.8-0.3-18.8-13.7-19.9c-2.5-0.2-4.9,0.3-6.9,1.6c-7.4,4.6-8.4,17.6-8.4,18.2L119.5,74.6z"/>
				</g>
			</g>
		</g>
		<polygon  class="p-d" points="165.9,137.8 171.6,133.2 160,76.3 155.3,73.6 		"/>
	</g>
	<g>
		<g>
			<path  class="s-b" d="M87.5,77.5c0-0.1,0.9-12.9,7.7-17.1c1.6-1,3.3-1.4,5.3-1.2c11.5,0.9,11.8,18.2,11.8,18.4l2.1,0
				c0-0.8-0.3-18.8-13.7-19.9c-2.5-0.2-4.9,0.3-6.9,1.6c-7.4,4.6-8.4,17.6-8.4,18.2L87.5,77.5z"/>
		</g>
		<polygon  class="s-h" points="118.8,76 67.8,75.8 57.6,140 129.3,140.2 		"/>
		<ellipse  class="s-b" cx="91.2" cy="106.6" rx="16.5" ry="11.9"/>
		<g>
			<g>
				<path  class="s-h" d="M83,76.9c0-0.1,0.9-12.9,7.7-17.1c1.6-1,3.3-1.4,5.3-1.2c11.5,0.9,11.8,18.2,11.8,18.4l2.1,0
					c0-0.8-0.3-18.8-13.7-19.9c-2.5-0.2-4.9,0.3-6.9,1.6c-7.4,4.6-8.4,17.6-8.4,18.2L83,76.9z"/>
			</g>
		</g>
		<polygon  class="s-b" points="129.3,140.2 135.1,135.5 123.5,78.7 118.8,76 		"/>
		<path  class="s-h" d="M98.8,111.6H83.1c-0.2,0-0.4-0.2-0.4-0.4s0.2-0.4,0.4-0.4h15.7c0.2,0,0.4,0.2,0.4,0.4S99,111.6,98.8,111.6
			z M99.2,108.2v0.7c0,0.6-0.5,1.1-1.2,1.1H83.9c-0.7,0-1.2-0.5-1.2-1.1v-0.7c0-4.2,3.4-7.7,7.8-7.9v-0.8h-0.4
			c-0.2,0-0.4-0.2-0.4-0.4s0.2-0.4,0.4-0.4h1.6c0.2,0,0.4,0.2,0.4,0.4s-0.2,0.4-0.4,0.4h-0.4v0.8C95.7,100.5,99.2,104,99.2,108.2z
			 M97.4,106.6c-0.8-2.8-3.4-4.8-6.5-4.8c-0.2,0-0.4,0.2-0.4,0.4s0.2,0.4,0.4,0.4c2.7,0,5,1.7,5.7,4.2c0.1,0.2,0.3,0.3,0.5,0.3
			C97.3,107,97.4,106.8,97.4,106.6L97.4,106.6z"/>
	</g>
</g>
<g>
	<g>
		<g>
			<path  class="s-b" d="M188.1,18.3c-1.7,0-3.1-1.3-3.1-2.8c0-1.6,1.4-2.8,3.1-2.8s3.1,1.3,3.1,2.8
				C191.3,17,189.8,18.3,188.1,18.3z M188.1,13.6c-1.2,0-2.2,0.9-2.2,1.9s1,1.9,2.2,1.9s2.2-0.9,2.2-1.9S189.3,13.6,188.1,13.6z"/>
		</g>
		<g>
			<path  class="s-b" d="M182.9,5.6c-1.7,0-3.1-1.3-3.1-2.8c0-1.6,1.4-2.8,3.1-2.8s3.1,1.3,3.1,2.8C186.1,4.4,184.7,5.6,182.9,5.6
				z M182.9,0.9c-1.2,0-2.2,0.9-2.2,1.9s1,1.9,2.2,1.9c1.2,0,2.2-0.9,2.2-1.9S184.1,0.9,182.9,0.9z"/>
		</g>
		<g>
			<g>
				<g>
					<g>
						<path  class="h-b" d="M195.2,26c-0.3,0-0.5-0.2-0.5-0.4v-2c0-0.2,0.2-0.4,0.5-0.4c0.3,0,0.5,0.2,0.5,0.4v2
							C195.7,25.8,195.5,26,195.2,26z"/>
					</g>
					<g>
						<path  class="h-b" d="M195.2,29.4c-0.3,0-0.5-0.2-0.5-0.4v-2c0-0.2,0.2-0.4,0.5-0.4c0.3,0,0.5,0.2,0.5,0.4v2
							C195.7,29.2,195.5,29.4,195.2,29.4z"/>
					</g>
				</g>
				<g>
					<g>
						<path  class="h-b" d="M198.3,26.8h-2c-0.3,0-0.5-0.2-0.5-0.4c0-0.2,0.2-0.4,0.5-0.4h2c0.3,0,0.5,0.2,0.5,0.4
							C198.8,26.6,198.6,26.8,198.3,26.8z"/>
					</g>
					<g>
						<path  class="h-b" d="M194.1,26.8h-2c-0.3,0-0.5-0.2-0.5-0.4c0-0.2,0.2-0.4,0.5-0.4h2c0.3,0,0.5,0.2,0.5,0.4
							C194.6,26.6,194.4,26.8,194.1,26.8z"/>
					</g>
				</g>
			</g>
		</g>
		<g>
			<g>
				<g>
					<g>
						<path  class="h-b" d="M172.6,12c-0.3,0-0.5-0.2-0.5-0.4v-2c0-0.2,0.2-0.4,0.5-0.4s0.5,0.2,0.5,0.4v2
							C173.1,11.8,172.9,12,172.6,12z"/>
					</g>
					<g>
						<path  class="h-b" d="M172.6,15.5c-0.3,0-0.5-0.2-0.5-0.4v-2c0-0.2,0.2-0.4,0.5-0.4s0.5,0.2,0.5,0.4v2
							C173.1,15.3,172.9,15.5,172.6,15.5z"/>
					</g>
				</g>
				<g>
					<g>
						<path  class="h-b" d="M175.7,12.8h-2c-0.3,0-0.5-0.2-0.5-0.4c0-0.2,0.2-0.4,0.5-0.4h2c0.3,0,0.5,0.2,0.5,0.4
							C176.2,12.6,176,12.8,175.7,12.8z"/>
					</g>
					<g>
						<path  class="h-b" d="M171.5,12.8h-2c-0.3,0-0.5-0.2-0.5-0.4c0-0.2,0.2-0.4,0.5-0.4h2c0.3,0,0.5,0.2,0.5,0.4
							C172,12.6,171.8,12.8,171.5,12.8z"/>
					</g>
				</g>
			</g>
		</g>
	</g>
	<g>
		<g>
			<path  class="s-b" d="M20,106.3c-1.7,0-3.1-1.3-3.1-2.8s1.4-2.8,3.1-2.8s3.1,1.3,3.1,2.8S21.7,106.3,20,106.3z M20,101.6
				c-1.2,0-2.2,0.9-2.2,1.9c0,1.1,1,1.9,2.2,1.9c1.2,0,2.2-0.9,2.2-1.9C22.2,102.4,21.2,101.6,20,101.6z"/>
		</g>
		<g>
			<path  class="h-b" d="M27.6,118.3c-1.7,0-3.1-1.3-3.1-2.8s1.4-2.8,3.1-2.8c1.7,0,3.1,1.3,3.1,2.8S29.3,118.3,27.6,118.3z
				 M27.6,113.6c-1.2,0-2.2,0.9-2.2,1.9c0,1.1,1,1.9,2.2,1.9c1.2,0,2.2-0.9,2.2-1.9C29.7,114.4,28.7,113.6,27.6,113.6z"/>
		</g>
		<g>
			<g>
				<g>
					<path  class="s-b" d="M33.6,127.2c-0.3,0-0.5-0.2-0.5-0.4v-2c0-0.2,0.2-0.4,0.5-0.4s0.5,0.2,0.5,0.4v2
						C34.1,127,33.9,127.2,33.6,127.2z"/>
				</g>
				<g>
					<path  class="s-b" d="M33.6,130.6c-0.3,0-0.5-0.2-0.5-0.4v-2c0-0.2,0.2-0.4,0.5-0.4s0.5,0.2,0.5,0.4v2
						C34.1,130.5,33.9,130.6,33.6,130.6z"/>
				</g>
			</g>
			<g>
				<g>
					<path  class="s-b" d="M36.6,128h-2c-0.3,0-0.5-0.2-0.5-0.4c0-0.2,0.2-0.4,0.5-0.4h2c0.3,0,0.5,0.2,0.5,0.4
						C37.1,127.8,36.9,128,36.6,128z"/>
				</g>
				<g>
					<path  class="s-b" d="M32.5,128h-2c-0.3,0-0.5-0.2-0.5-0.4c0-0.2,0.2-0.4,0.5-0.4h2c0.3,0,0.5,0.2,0.5,0.4
						C33,127.8,32.8,128,32.5,128z"/>
				</g>
			</g>
		</g>
		<g>
			<g>
				<g>
					<g>
						<path  class="h-b" d="M11,113.2c-0.3,0-0.5-0.2-0.5-0.4v-2c0-0.2,0.2-0.4,0.5-0.4c0.3,0,0.5,0.2,0.5,0.4v2
							C11.5,113,11.3,113.2,11,113.2z"/>
					</g>
					<g>
						<path  class="h-b" d="M11,116.7c-0.3,0-0.5-0.2-0.5-0.4v-2c0-0.2,0.2-0.4,0.5-0.4c0.3,0,0.5,0.2,0.5,0.4v2
							C11.5,116.5,11.3,116.7,11,116.7z"/>
					</g>
				</g>
				<g>
					<g>
						<path  class="h-b" d="M14,114h-2c-0.3,0-0.5-0.2-0.5-0.4c0-0.2,0.2-0.4,0.5-0.4h2c0.3,0,0.5,0.2,0.5,0.4
							C14.5,113.8,14.3,114,14,114z"/>
					</g>
					<g>
						<path  class="h-b" d="M9.9,114h-2c-0.3,0-0.5-0.2-0.5-0.4c0-0.2,0.2-0.4,0.5-0.4h2c0.3,0,0.5,0.2,0.5,0.4
							C10.4,113.8,10.2,114,9.9,114z"/>
					</g>
				</g>
			</g>
		</g>
	</g>
</g>
</svg>
