<?xml version="1.0" encoding="utf-8"?>
<!-- Generator: Adobe Illustrator 22.0.1, SVG Export Plug-In . SVG Version: 6.00 Build 0)  -->
<svg version="1.1" id="Layer_1" xmlns="http://www.w3.org/2000/svg" xmlns:xlink="http://www.w3.org/1999/xlink" x="0px" y="0px"
	 viewBox="0 0 1440 250" style="enable-background:new 0 0 1440 250;" xml:space="preserve">
<style type="text/css">
	.st0{fill:#FCCC3E;}
</style>
<path class="st0" d="M0,0l40,24.4c40,24.4,120,73.2,200,92.2c80,19.2,160,8,240-2.7S640,92,720,92.2c80-0.2,160,11,240,21.7
	s160,21.9,240,2.7c80-19,160-67.8,200-92.2L1440,0l0,0h-40c-40,0-120,0-200,0s-160,0-240,0S800,0,720,0S560,0,480,0S320,0,240,0
	S80,0,40,0H0z"/>
</svg>
