<?xml version="1.0"?>
<svg xmlns="http://www.w3.org/2000/svg" class="" viewBox="0 0 496 496.151" width="512px" height="512px"><g><g><path class="" style="fill:#F8F7E0" fill="#e3e7f2" d="m 287.703 116.156 c -13.5 16.4375 -21.6523 36.6055 -23.3672 57.8047 l -34.4375 -0.875 c -1.98438 -20.8711 -10.1172 -40.6836 -23.3711 -56.9297 Z m 0 0" data-original="#F8F7E0" data-old_color="#FFF700"/><path class="active-path" style="fill:#FCE205" fill="#a4c2f7" d="m 487.301 421.703 c -0.066406 9.09375 -7.42188 16.4492 -16.5156 16.5195 h -445.934 c -9.11328 -0.027344 -16.4922 -7.40625 -16.5156 -16.5195 c -0.023438 -4.37891 1.73437 -8.58203 4.87109 -11.6406 c 3.05859 -3.14063 7.26172 -4.89844 11.6445 -4.875 h 445.934 c 9.10938 0.027344 16.4883 7.40625 16.5156 16.5156 Z m 0 0" data-original="#FCE205" data-old_color="#Fce205"/><path class="" style="fill:#F8F7E0" fill="#e3e7f2" d="m 462.527 421.703 c -0.066406 9.09375 -7.42188 16.4492 -16.5156 16.5195 h -421.16 c -9.11328 -0.027344 -16.4922 -7.40625 -16.5156 -16.5195 c -0.023438 -4.37891 1.73437 -8.58203 4.87109 -11.6406 c 3.05859 -3.14063 7.26172 -4.89844 11.6445 -4.875 h 421.16 c 9.10938 0.027344 16.4883 7.40625 16.5156 16.5156 Z m 0 0" data-original="#F8F7E0" data-old_color="#FFF700"/><path class="active-path" style="fill:#FCE205" fill="#a4c2f7" d="m 235.43 165.703 h 24.7734 c 116.301 0 210.582 94.2813 210.582 210.582 v 28.9023 h -445.934 v -28.9023 c 0 -116.301 94.2773 -210.582 210.578 -210.582 Z m 0 0" data-original="#FCE205" data-old_color="#Fce205"/><path class="" style="fill:#F8F7E0" fill="#e3e7f2" d="m 231.301 165.703 h 8.25781 c 54.7539 0 107.266 21.7539 145.984 60.4688 c 38.7188 38.7188 60.4688 91.2305 60.4688 145.984 v 33.0313 h -421.16 v -33.0313 c 0 -114.02 92.4297 -206.453 206.449 -206.453 Z m 0 0" data-original="#F8F7E0" data-old_color="#FFF700"/><path class="" style="fill:#F5F5F5" fill="#f5f5f5" d="m 156.98 215.254 s -41.293 24.7734 -57.8086 57.8047 h 41.293 c 1.33594 -20.2227 6.96484 -39.9297 16.5156 -57.8047 Z m 0 0" data-original="#F5F5F5"/><path class="" style="fill:#F5F5F5" fill="#f5f5f5" d="m 132.203 306.09 h -49.5469 s -16.5156 16.5195 -16.5156 66.0664 h 66.0625 c -5.27344 -21.707 -5.27344 -44.3594 0 -66.0664 Z m 0 0" data-original="#F5F5F5"/><path class="" style="fill:#F8F7E0" fill="#e3e7f2" d="m 115.688 487.77 c -22.8008 0 -41.2891 -18.4883 -41.2891 -41.2891 c 0 -22.8047 18.4883 -41.293 41.2891 -41.293 c 22.8047 0 41.293 18.4883 41.293 41.293 c -0.027344 22.7891 -18.5 41.2617 -41.293 41.2891 Z m 0 0" data-original="#F8F7E0" data-old_color="#FFF700"/><path class="" style="fill:#FCD928" fill="#d4e1f4" d="m 115.688 462.996 c -9.12109 0 -16.5156 -7.39453 -16.5156 -16.5156 c 0 -9.125 7.39453 -16.5195 16.5156 -16.5195 s 16.5156 7.39453 16.5156 16.5195 c 0 9.12109 -7.39453 16.5156 -16.5156 16.5156 Z m 0 0" data-original="#FCD928" data-old_color="#FCD81F"/><path class="active-path" style="fill:#FCE205" fill="#a4c2f7" d="m 379.945 405.188 c -4.19141 0.015625 -8.36328 0.625 -12.3867 1.81641 c -17.207 5.45313 -28.9023 21.4219 -28.9023 39.4766 c 0 18.0508 11.6953 34.0234 28.9023 39.4727 c 4.02344 1.19141 8.19531 1.80469 12.3867 1.81641 c 22.8047 0 41.293 -18.4883 41.293 -41.2891 c 0 -22.8047 -18.4883 -41.293 -41.293 -41.293 Z m 0 0" data-original="#FCE205" data-old_color="#Fce205"/><path class="" style="fill:#F8F7E0" fill="#e3e7f2" d="m 367.559 407.004 c -17.207 5.45313 -28.9023 21.4219 -28.9023 39.4766 c 0 18.0508 11.6953 34.0234 28.9023 39.4727 c 17.2109 -5.44922 28.9063 -21.4219 28.9063 -39.4727 c 0 -18.0547 -11.6953 -34.0234 -28.9063 -39.4766 Z m 0 0" data-original="#F8F7E0" data-old_color="#FFF700"/><path class="active-path" style="fill:#FCE205" fill="#a4c2f7" d="m 239.641 83.0508 c 0.746094 0.558594 1.46484 1.15625 2.16406 1.78125 c -14.9609 -13.4336 -23.8398 -29.1563 -45.2852 -32.5195 c -21.4453 -3.35938 -46.5586 2.89063 -63.6641 -13.7578 c -7.21094 -8.84375 -15.6367 -16.625 -25.0195 -23.1211 c -9.80469 -5.07813 -20.7539 -7.53516 -31.7852 -7.13672 c -9.01563 0.332031 -17.9609 1.75391 -26.6328 4.23828 c -4.55078 1.22266 -9.08203 2.64844 -13.5117 4.12891 c -2.47656 0.824219 -8.50391 4.30078 -11.0469 3.79688 c 11.2969 2.23047 22.5273 4.99609 33.6016 8.15234 c 18.332 5.21875 33.8594 10.8438 45.0703 27.25 c 3.53906 5.97266 7.38281 11.7617 11.5117 17.3438 c 11.0273 13.0977 30.6641 12.6094 46.1641 9.91016 c 13.7813 -2.42188 27.1875 -6.98047 41.1094 -8.41797 c 13.0469 -1.97266 26.3633 1.00391 37.3242 8.35156 Z m 0 0" data-original="#FCE205" data-old_color="#Fce205"/><path class="active-path" style="fill:#FCE205" fill="#a4c2f7" d="m 8.33594 101.613 c 1.19531 0.304688 6.13281 -2.78125 7.29687 -3.24609 c 6.72266 -2.64844 13.7031 -4.58594 20.8281 -5.78125 c 12.4609 -2.47656 25.3711 -1.27734 37.1602 3.45312 c 12.2031 6.21484 24.7695 11.6797 37.6328 16.3672 c 14.6914 5.01172 30.3516 6.50391 45.7266 4.35156 c -0.828125 0.140626 -6.03906 11.168 -7.30859 12.8906 c -3.05469 4.1875 -6.69531 7.91016 -10.8125 11.0586 c -14.5313 9.74609 -33.0625 11.3086 -49.0195 4.12891 c -16.9102 -6.97656 -27.8281 -21.125 -43.418 -29.5039 c -12.1016 -6.07813 -24.8906 -10.6836 -38.0859 -13.7188 Z m 0 0" data-original="#FCE205" data-old_color="#Fce205"/><path class="" style="fill:#FCD928" fill="#d4e1f4" d="m 379.945 462.996 c -9.12109 0 -16.5156 -7.39453 -16.5156 -16.5156 c 0 -9.125 7.39453 -16.5195 16.5156 -16.5195 c 9.125 0 16.5195 7.39453 16.5195 16.5195 c 0 9.12109 -7.39453 16.5156 -16.5195 16.5156 Z m 0 0" data-original="#FCD928" data-old_color="#FCD81F"/><path class="" fill="#fff" d="m 115.688 487.77 c 4.21484 -0.058593 8.39453 -0.769531 12.3867 -2.10547 c -20.1641 -6.24219 -32.3086 -26.7617 -28.0742 -47.4414 h -24.7773 c -2.47656 12.1484 0.632813 24.7695 8.47656 34.375 c 7.84375 9.60156 19.5898 15.1758 31.9883 15.1719 Z m 0 0" data-original="#FFF"/><path class="" fill="#fff" d="m 89.8398 144.805 c 10.7578 4.48437 22.6563 5.47656 34.0078 2.83984 c -3.14844 -0.695312 -6.23828 -1.64453 -9.23047 -2.83984 c -16.9141 -6.94531 -27.8477 -21.0938 -43.4219 -29.4492 c -12.1016 -6.08594 -24.8867 -10.6992 -38.0859 -13.7422 c 1.19531 0.304688 6.13281 -2.78125 7.30078 -3.24609 c 6.71875 -2.64844 13.6992 -4.58594 20.8242 -5.78125 h 0.339844 c -8.3125 -1.40625 -16.8008 -1.40625 -25.1133 0 c -7.125 1.21094 -14.1055 3.16016 -20.8281 5.82422 c -1.16406 0.460938 -6.10156 3.55078 -7.29687 3.24609 c 13.1953 3.01953 25.9805 7.60938 38.0859 13.6758 c 15.5898 8.37891 26.5078 22.5273 43.418 29.4727 Z m 0 0" data-original="#FFF"/><path class="" fill="#fff" d="m 229.246 165.754 c -113.199 1.12891 -204.375 93.1992 -204.395 206.402 v 33.0313 c -4.38281 -0.023438 -8.58594 1.73438 -11.6445 4.875 c -3.13672 3.05859 -4.89453 7.26172 -4.87109 11.6406 c 0.023437 9.11328 7.40234 16.4922 16.5156 16.5195 h 24.7734 c -9.10938 -0.027344 -16.4883 -7.40625 -16.5156 -16.5195 c 0.066406 -9.09375 7.42188 -16.4453 16.5156 -16.5156 v -33.0313 c 0.019531 -113.203 91.1992 -205.273 204.395 -206.402" data-original="#FFF"/><path class="" fill="#fff" d="m 58.4531 28.6211 c 18.332 5.21875 33.8555 10.8438 45.0703 27.25 c 3.53906 5.97656 7.38281 11.7617 11.5117 17.3438 c 10.3984 12.3438 28.4102 12.5859 43.4297 10.2969 c -7.21484 -1.18359 -13.8047 -4.82031 -18.6523 -10.2969 c -4.13281 -5.58203 -7.97656 -11.3672 -11.5117 -17.3438 c -11.207 -16.4414 -26.7422 -22.0625 -45.0742 -27.25 c -11.0742 -3.13672 -22.3047 -5.90625 -33.6016 -8.13281 c 2.54297 0.503907 8.59766 -2.97656 11.0469 -3.80078 c 4.46875 -1.50391 8.96094 -2.92969 13.5117 -4.12891 c 4.98047 -1.35547 10.0352 -2.41797 15.1367 -3.1875 c -4.37891 -0.761719 -8.82422 -1.12109 -13.2695 -1.07422 c -9.01563 0.332031 -17.9609 1.75391 -26.6328 4.23828 c -4.55078 1.22266 -9.08203 2.64844 -13.5117 4.12891 c -2.47656 0.824219 -8.50391 4.30078 -11.0469 3.79688 c 11.2891 2.25391 22.5195 5.02344 33.5938 8.16016 Z m 0 0" data-original="#FFF"/><path class="" fill="#fff" d="m 156.805 116.98 c 0.050781 -0.046875 0.140624 -0.171875 0.175781 -0.179688 c -0.273438 0 -0.554688 0 -0.828125 0.074219 c 0.222656 -0.015625 0.4375 0.03125 0.652344 0.105469 Z m 0 0" data-original="#FFF"/><path class="" fill="#fff" d="m 241.805 84.832 c -3.78125 -3.35938 -7.19922 -6.93359 -10.5039 -10.3867 c -1.41797 0.066407 -2.83984 0.15625 -4.24219 0.296876 c -1.65234 0.171874 -3.30469 0.503906 -4.95703 0.75 c 6.32813 1.15234 12.3086 3.73828 17.4844 7.55859 c 0.800781 0.558594 1.51953 1.15625 2.21875 1.78125 Z m 0 0" data-original="#FFF"/><path class="" style="fill:#F7DD04" fill="#428dff" d="m 470.785 446.48 h -50.375 c -4.55859 0 -8.25781 -3.69922 -8.25781 -8.25781 c 0 -4.5625 3.69922 -8.26172 8.25781 -8.26172 h 50.375 c 2.15625 0.023437 4.22656 -0.835938 5.73047 -2.375 c 1.61719 -1.53125 2.53125 -3.65625 2.52734 -5.88281 c 0 -4.55859 -3.69531 -8.25781 -8.25781 -8.25781 h -445.934 c -2.15625 -0.019531 -4.22656 0.839844 -5.73437 2.37891 c -1.61328 1.52734 -2.52734 3.65625 -2.52344 5.87891 c 0 4.5625 3.69531 8.25781 8.25781 8.25781 h 50.3711 c 4.5625 0 8.25781 3.69922 8.25781 8.26172 c 0 4.55859 -3.69531 8.25781 -8.25781 8.25781 h -50.3711 c -13.6836 0 -24.7773 -11.0938 -24.7773 -24.7773 c -0.0390626 -6.61328 2.625 -12.9531 7.375 -17.5547 c 4.58594 -4.66406 10.8633 -7.26563 17.4023 -7.21875 h 445.934 c 13.6836 0 24.7734 11.0938 24.7734 24.7734 c -0.074219 13.6523 -11.1211 24.6992 -24.7734 24.7773 Z m 0 0" data-original="#F7DD04" data-old_color="#F0D703"/><path class="" style="fill:#F7DD04" fill="#428dff" d="m 339.48 446.48 h -183.328 c -4.55859 0 -8.25781 -3.69922 -8.25781 -8.25781 c 0 -4.5625 3.69922 -8.26172 8.25781 -8.26172 h 183.328 c 4.5625 0 8.26172 3.69922 8.26172 8.26172 c 0 4.55859 -3.69922 8.25781 -8.26172 8.25781 Z m 0 0" data-original="#F7DD04" data-old_color="#F0D703"/><path class="" fill="#fff" d="m 16.5938 376.285 c 0.226562 -37.3672 9.82422 -74.082 27.9102 -106.785 c 9.57813 -16.8242 21.2305 -32.3789 34.6836 -46.3047 c 13.582 -13.793 28.9258 -25.7305 45.6367 -35.5078 l 6.19922 -3.75781 l 6.52344 -3.16406 l 13.0977 -6.25 c 8.96484 -3.62891 18.1445 -6.71094 27.4844 -9.22266 c 18.6875 -5.05078 37.9453 -7.6875 57.3008 -7.84766 v 16.5156 c -17.8984 0.15625 -35.707 2.59766 -52.9922 7.26172 c -8.62891 2.32422 -17.1094 5.16406 -25.4023 8.50391 l -12.0898 5.78125 l -6.03516 2.90625 l -5.73047 3.49219 c -15.4531 9.04297 -29.6445 20.082 -42.207 32.8359 c -12.4297 12.8828 -23.1992 27.2656 -32.0664 42.8164 c -16.6992 30.2422 -25.5703 64.1797 -25.7969 98.7266 Z m 0 0" data-original="#FFF"/><g fill="#428dff"><path class="" style="fill:#212121" d="m 28.9141 335.25 c -2.17187 -0.410156 -4.41406 0.097656 -6.19531 1.39844 c -1.78516 1.30469 -2.94531 3.28906 -3.21094 5.48047 c -1.75781 11.3047 -2.73047 22.7188 -2.91406 34.1563 h 16.5156 c 0.183594 -10.582 1.08984 -21.1367 2.71484 -31.5938 c 0.515625 -4.46875 -2.49609 -8.58203 -6.91016 -9.44141 Z m 0 0" data-original="#212121" data-old_color="#333333"/><path class="" style="fill:#212121" d="m 235.43 173.961 v -16.5156 c -19.3594 0.15625 -38.6172 2.78906 -57.3086 7.83984 c -9.33984 2.51172 -18.5195 5.59375 -27.4844 9.22266 l -13.0977 6.25 l -6.52344 3.16406 l -6.20313 3.75781 c -16.707 9.77734 -32.0508 21.7148 -45.6328 35.5078 c -13.4531 13.9258 -25.1055 29.4805 -34.6836 46.3047 c -1.48438 2.44531 -2.80859 4.98437 -3.97266 7.59766 c -1.00781 1.98047 -1.17578 4.28125 -0.46875 6.38672 c 0.710937 2.10938 2.24219 3.83984 4.24219 4.80078 c 4.03906 1.91797 8.87109 0.300781 10.9414 -3.65625 c 1.07031 -2.42188 2.29297 -4.76953 3.66797 -7.02734 c 8.86719 -15.5508 19.6367 -29.9336 32.0664 -42.8203 c 12.5625 -12.7539 26.7539 -23.793 42.207 -32.832 l 5.73047 -3.49219 l 6.03516 -2.91016 l 12.0898 -5.77734 c 8.29297 -3.33984 16.7734 -6.18359 25.4023 -8.50781 c 17.2813 -4.67578 35.0898 -7.125 52.9922 -7.29297 Z m 0 0" data-original="#212121" data-old_color="#333333"/><path class="" style="fill:#212121" d="m 27.3281 308.75 c -0.769531 2.14063 -0.574219 4.51172 0.527344 6.5 l 0.941406 1.32813 c 0.355469 0.441406 0.773437 0.828125 1.23828 1.14844 c 0.386719 0.363282 0.828125 0.664063 1.30469 0.894532 c 0.5 0.234375 1.01563 0.4375 1.54688 0.601562 c 2.08594 0.554688 4.30469 0.316406 6.22656 -0.667968 c 0.894531 -0.527344 1.67969 -1.22266 2.3125 -2.05078 c 2.14844 -2.39453 2.65625 -5.84375 1.29297 -8.76172 c -0.5 -0.9375 -1.16797 -1.77734 -1.97266 -2.47656 c -2.44531 -2.30078 -6.05469 -2.86328 -9.08203 -1.41016 c -1.99219 1.05078 -3.53516 2.78906 -4.33594 4.89453 Z m 0 0" data-original="#212121" data-old_color="#333333"/><path class="" style="fill:#212121" d="m 470.785 413.445 h -445.934 c -4.5625 0 -8.25781 -3.69531 -8.25781 -8.25781 v -28.9023 c 0 -4.5625 3.69531 -8.25781 8.25781 -8.25781 c 4.55859 0 8.25781 3.69531 8.25781 8.25781 v 20.6445 h 429.418 v -20.6445 c -0.128906 -111.688 -90.6367 -202.195 -202.324 -202.324 h -24.7734 c -4.55859 0 -8.25781 -3.69531 -8.25781 -8.25781 c 0 -4.55859 3.69922 -8.25781 8.25781 -8.25781 h 24.7734 c 120.805 0.136719 218.703 98.0352 218.84 218.84 v 28.9023 c 0 4.5625 -3.69531 8.25781 -8.25781 8.25781 Z m 0 0" data-original="#212121" data-old_color="#333333"/><path class="" style="fill:#212121" d="m 231.301 173.137 c -4.50781 0 -8.18359 -3.61719 -8.25781 -8.125 c -1.58984 -16.3555 -9 -31.5938 -20.8828 -42.9414 c -2.10938 -2.06641 -2.95703 -5.10156 -2.22266 -7.96094 c 0.730469 -2.85938 2.9375 -5.10938 5.77734 -5.90234 c 2.84375 -0.796875 5.89453 -0.011719 8.00391 2.05469 c 15.0508 14.3242 24.2578 33.7188 25.8398 54.4336 c 0.039062 2.19141 -0.796875 4.30859 -2.31641 5.88281 c -1.52344 1.57422 -3.60938 2.48047 -5.80078 2.51563 Z m 0 0" data-original="#212121" data-old_color="#333333"/><path class="" style="fill:#212121" d="m 264.336 173.961 c -4.5625 0 -8.26172 -3.69531 -8.26172 -8.25781 c 0 -28 19.8203 -49.5469 25.8594 -55.4531 c 3.25781 -3.19141 8.49219 -3.13672 11.6836 0.125 c 3.19141 3.26172 3.13672 8.49219 -0.125 11.6875 c -3.50781 3.41016 -20.8984 21.5352 -20.8984 43.6406 c 0 4.5625 -3.69922 8.25781 -8.25781 8.25781 Z m 0 0" data-original="#212121" data-old_color="#333333"/><path class="" style="fill:#212121" d="m 305.625 124.414 h -115.613 c -4.5625 0 -8.25781 -3.69531 -8.25781 -8.25781 s 3.69531 -8.25781 8.25781 -8.25781 h 115.613 c 4.55859 0 8.25781 3.69531 8.25781 8.25781 s -3.69922 8.25781 -8.25781 8.25781 Z m 0 0" data-original="#212121" data-old_color="#333333"/><path class="" style="fill:#212121" d="m 140.465 281.316 h -41.293 c -2.86328 0.003906 -5.51953 -1.48047 -7.02734 -3.91406 c -1.50391 -2.43359 -1.64063 -5.47266 -0.363281 -8.03516 c 17.3984 -34.7813 59.1797 -60.1328 60.9453 -61.1914 c 3.14063 -1.875 7.14063 -1.46094 9.83203 1.01953 c 2.6875 2.48047 3.42578 6.43359 1.8125 9.71484 c -8.91797 16.7695 -14.2461 35.2109 -15.6484 54.1484 c 0 4.5625 -3.69922 8.25781 -8.25781 8.25781 Z m -26.5664 -16.5156 h 18.9258 c 1.12109 -8.74609 3.01953 -17.3711 5.67188 -25.7813 c -9.1875 7.59375 -17.4453 16.2461 -24.5977 25.7813 Z m 0 0" data-original="#212121" data-old_color="#333333"/><path class="" style="fill:#212121" d="m 132.203 380.414 h -66.0625 c -4.5625 0 -8.25781 -3.69531 -8.25781 -8.25781 c 0 -51.4805 17.0039 -69.9688 18.9336 -71.9023 c 1.55078 -1.55078 3.64844 -2.41797 5.83984 -2.42188 h 49.5469 c 2.48047 0 4.83203 1.11328 6.39844 3.03516 c 1.57031 1.92187 2.19141 4.44531 1.69531 6.875 c -4.875 20.3281 -4.96094 41.5078 -0.246094 61.8711 c 0.8125 2.51172 0.375 5.26172 -1.17578 7.39453 c -1.55078 2.13672 -4.03125 3.40234 -6.67188 3.40625 Z m -57.6328 -16.5156 h 47.3789 c -2.38672 -16.4414 -2.24219 -33.1523 0.429687 -49.5469 h -35.6445 c -3.46484 5.38281 -10.957 20.2461 -12.1641 49.5469 Z m 0 0" data-original="#212121" data-old_color="#333333"/><path class="" style="fill:#212121" d="m 115.688 496.027 c -27.3633 0 -49.5469 -22.1836 -49.5469 -49.5469 c 0 -27.3672 22.1836 -49.5508 49.5469 -49.5508 c 27.3672 0 49.5508 22.1836 49.5508 49.5508 c -0.027343 27.3516 -22.1953 49.5195 -49.5508 49.5469 Z m 0 -82.582 c -18.2422 0 -33.0313 14.7891 -33.0313 33.0352 c 0 18.2422 14.7891 33.0313 33.0313 33.0313 c 18.2461 0 33.0352 -14.7891 33.0352 -33.0313 c 0 -18.2461 -14.7891 -33.0352 -33.0352 -33.0352 Z m 0 0" data-original="#212121" data-old_color="#333333"/><path class="" style="fill:#212121" d="m 115.688 496.027 h -66.0625 c -4.5625 0 -8.25781 -3.69922 -8.25781 -8.25781 c 0 -4.5625 3.69531 -8.25781 8.25781 -8.25781 h 66.0625 c 4.5625 0 8.25781 3.69531 8.25781 8.25781 c 0 4.55859 -3.69531 8.25781 -8.25781 8.25781 Z m 0 0" data-original="#212121" data-old_color="#333333"/><path class="" style="fill:#212121" d="m 16.5938 496.152 h -8.25781 c -4.5625 0 -8.26172 -3.69922 -8.26172 -8.25781 c 0 -4.5625 3.69922 -8.25781 8.26172 -8.25781 h 8.25781 c 4.55859 0 8.25781 3.69531 8.25781 8.25781 c 0 4.55859 -3.69922 8.25781 -8.25781 8.25781 Z m 0 0" data-original="#212121" data-old_color="#333333"/><path class="" style="fill:#212121" d="m 379.945 496.027 c -27.3633 0 -49.5469 -22.1836 -49.5469 -49.5469 c 0 -27.3672 22.1836 -49.5508 49.5469 -49.5508 c 27.3672 0 49.5508 22.1836 49.5508 49.5508 c -0.027344 27.3516 -22.1953 49.5195 -49.5508 49.5469 Z m 0 -82.582 c -18.2422 0 -33.0313 14.7891 -33.0313 33.0352 c 0 18.2422 14.7891 33.0313 33.0313 33.0313 c 18.2461 0 33.0352 -14.7891 33.0352 -33.0313 c 0 -18.2461 -14.7891 -33.0352 -33.0352 -33.0352 Z m 0 0" data-original="#212121" data-old_color="#333333"/><path class="" style="fill:#212121" d="m 379.945 496.027 h -66.0625 c -4.5625 0 -8.25781 -3.69922 -8.25781 -8.25781 c 0 -4.5625 3.69531 -8.25781 8.25781 -8.25781 h 66.0625 c 4.5625 0 8.25781 3.69531 8.25781 8.25781 c 0 4.55859 -3.69531 8.25781 -8.25781 8.25781 Z m 0 0" data-original="#212121" data-old_color="#333333"/><path class="" style="fill:#212121" d="m 280.852 496.152 h -8.25781 c -4.5625 0 -8.25781 -3.69922 -8.25781 -8.25781 c 0 -4.5625 3.69531 -8.25781 8.25781 -8.25781 h 8.25781 c 4.55859 0 8.25781 3.69531 8.25781 8.25781 c 0 4.55859 -3.69922 8.25781 -8.25781 8.25781 Z m 0 0" data-original="#212121" data-old_color="#333333"/><path class="" style="fill:#212121" d="m 241.797 93.1016 c -2.03125 -0.003906 -3.99609 -0.757812 -5.50781 -2.11719 l -0.179687 -0.15625 c -0.472656 -0.421875 -0.96875 -0.824219 -1.47266 -1.20703 c -9.34766 -5.92969 -20.5195 -8.29297 -31.4688 -6.65234 c -7.85938 0.996094 -15.6406 2.51953 -23.2969 4.55859 c -5.58203 1.35156 -11.3555 2.75 -17.2344 3.77344 c -24.9883 4.39063 -43.125 0.105469 -53.9102 -12.7031 c -3.02734 -3.76172 -5.75781 -7.75 -8.17578 -11.9336 c -1.24609 -2.04687 -2.47656 -4.12891 -3.84766 -6.08594 c -9.75391 -14.3164 -23.5195 -19.1563 -40.4648 -23.9453 c -11.3867 -3.28125 -22.4688 -5.97266 -32.9805 -8.01172 c -4.23047 -0.839844 -7.10547 -4.79297 -6.59375 -9.07813 c 0.511719 -4.28125 4.23047 -7.44922 8.54297 -7.27344 c 1.46094 -0.523437 2.89453 -1.12109 4.29297 -1.79297 c 1.50391 -0.683593 2.83984 -1.26953 3.77344 -1.58594 c 4.625 -1.58203 9.27344 -3.0625 13.9883 -4.33203 c 9.32031 -2.65234 18.9258 -4.16797 28.6055 -4.51953 c 12.4688 -0.410156 24.832 2.39453 35.8984 8.15234 c 7.6875 4.59766 14.5195 10.4922 20.1914 17.4219 c 2.15625 2.37109 4.32813 4.75781 6.60547 7.01953 c 9.72266 9.46484 23.6523 9.77734 38.3945 10.1172 c 6.95703 0.007812 13.9063 0.476562 20.8008 1.40234 c 18.7695 2.94922 29.293 13.9336 39.4727 24.5625 c 3.14844 3.30078 6.39063 6.67969 9.91016 9.83594 l 0.191406 0.171875 c 2.52734 2.29297 3.38672 5.90625 2.15625 9.09375 c -1.22656 3.18359 -4.29297 5.28516 -7.70703 5.28516 Z m -185.797 -73.7227 l 4.71484 1.3125 c 18.8281 5.37109 36.7969 11.7344 49.6328 30.5547 c 1.5 2.21484 2.90625 4.50391 4.30078 6.78906 c 1.98437 3.46875 4.22656 6.78125 6.70703 9.91016 c 6.71094 7.97656 19.6367 10.3633 38.4141 7.07813 c 5.46875 -0.984376 10.8281 -2.25391 16.2031 -3.55859 c 8.37109 -2.22266 16.8828 -3.87891 25.4766 -4.95703 c 2.78516 -0.28125 5.58203 -0.421874 8.38281 -0.421874 c -4.39453 -2.91797 -9.375 -4.83203 -14.5938 -5.61328 c -6.17188 -0.808594 -12.3945 -1.21094 -18.6211 -1.20703 c -16.5156 -0.378906 -35.1641 -0.824219 -49.5469 -14.7969 c -2.57031 -2.47656 -4.95703 -5.11328 -7.34375 -7.73047 c -4.47266 -5.52734 -9.83203 -10.2734 -15.8633 -14.0391 c -8.52734 -4.43359 -18.0625 -6.55469 -27.6641 -6.15234 c -6.8125 0.230469 -13.5859 1.17969 -20.1992 2.83203 Z m 0 0" data-original="#212121" data-old_color="#333333"/><path class="" style="fill:#212121" d="m 111.715 157.488 c -8.58594 -0.035156 -17.082 -1.75 -25.0117 -5.04688 c -9.67969 -4.40625 -18.6484 -10.2344 -26.6094 -17.293 c -5.45703 -4.71094 -11.3438 -8.89844 -17.5781 -12.5195 c -11.5234 -5.75391 -23.6875 -10.125 -36.2383 -13.0117 c -3.83203 -0.992188 -6.42188 -4.5625 -6.17188 -8.51172 c 0.246093 -3.95313 3.26172 -7.17188 7.1875 -7.67578 c 0.828125 -0.363282 1.77734 -0.925782 2.58594 -1.35547 c 0.886719 -0.503907 1.80469 -0.960938 2.74219 -1.37109 c 7.25781 -2.88281 14.8008 -4.99219 22.5039 -6.28906 c 14.0859 -2.74609 28.668 -1.33203 41.9648 4.07031 c 3.4375 1.56641 6.82031 3.1875 10.207 4.80469 c 8.55859 4.35938 17.4141 8.10547 26.5 11.207 c 13.4258 4.66016 27.7617 6.07422 41.8359 4.12891 c 3.50781 -0.585938 6.99609 1.13672 8.66016 4.28125 c 1.66406 3.14063 1.12891 6.99609 -1.32813 9.56641 c -0.757813 1.23047 -1.89844 3.49219 -2.99609 5.58203 c -1.05859 2.24609 -2.26953 4.41406 -3.625 6.49219 c -3.53125 4.83594 -7.74219 9.13672 -12.5039 12.7656 c -9.32031 6.78906 -20.5938 10.3594 -32.125 10.1758 Z m -76.6484 -56.2969 c 5.22656 1.96484 10.3203 4.26172 15.25 6.87891 c 7.15234 4.08984 13.8984 8.85156 20.1445 14.2227 c 6.74219 6.02344 14.3281 11.0273 22.5195 14.8633 c 13.2617 6.06641 28.7031 4.91406 40.918 -3.05469 c 3.04687 -2.32422 5.78125 -5.03516 8.13281 -8.05859 c -11.3008 -0.324219 -22.5 -2.27344 -33.2461 -5.78125 c -9.82422 -3.33984 -19.3984 -7.36719 -28.6563 -12.0586 c -3.30078 -1.57813 -6.60547 -3.14453 -9.91016 -4.66406 c -10.3047 -4.05469 -21.5664 -5.03516 -32.4219 -2.82422 c -0.898437 0.132812 -1.80469 0.296875 -2.73047 0.476562 Z m -24.7734 -7.60547 h 0.136719 Z m 0 0" data-original="#212121" data-old_color="#333333"/></g></g></g> </svg>
