<?xml version="1.0" encoding="utf-8"?>
<!-- Generator: Adobe Illustrator 22.0.1, SVG Export Plug-In . SVG Version: 6.00 Build 0)  -->
<svg version="1.1" id="svg" xmlns="http://www.w3.org/2000/svg" xmlns:xlink="http://www.w3.org/1999/xlink" x="0px" y="0px"
	 viewBox="0 0 260 240" style="enable-background:new 0 0 260 240;" xml:space="preserve">
<style type="text/css">
	.st0{fill:#FCC41A;}
	.st1{fill:#171717;}
</style>
<g id="logo-icon">
	<path id="logo-outer" class="st0" d="M110.9,9.5c-24.5,1.4-46.3,10.3-66.5,27.3c-1.4,1.2-9,8.9-10.7,10.9
		c-43.8,51.1-32.8,128.3,23.4,165c40.2,26.3,93.3,23.4,130.5-7c3.9-3.2,10.7-9.7,12.1-11.5c0.4-0.6,2.5-11.6,2.2-11.8
		c0,0-0.7,0.1-1.4,0.3c-5.5,1.7-11,0.5-15.6-3.4l-1.1-1l-1.6,1.9c-9.5,10.9-25.3,20.6-40.6,24.9c-52.3,14.6-105-20.3-111.9-74.1
		c-5.6-43.9,22.8-85.6,65.8-96.6c26.6-6.8,55.6-0.6,76.6,16.2c2.2,1.8,1.8,1.7,3.6,0.8c8.7-4,18.7-3.9,27.3,0.3
		c2.5,1.2,2.5,1.2,1.1-0.5C181,22.5,147.4,7.5,110.9,9.5 M111.1,41c-65.5,6.5-96,82-53.1,131.4c29.9,34.5,84.8,35.7,116.5,2.7
		c3.9-4,5-5.5,4.8-6.2c-0.1-0.4-0.3-3.6-0.6-7.1c-0.6-7.4-0.5-7-1.3-5.6c-12.9,21.2-35.2,33.8-59.6,33.8
		c-44.3,0-77.5-40.3-68.8-83.6c9.9-49.6,68.2-72.7,109.2-43.2c1.3,0.9,2.5,1.8,2.6,1.9c0.2,0.1,0.4-0.2,0.8-0.8
		c0.7-1.3,3.3-4.6,4.2-5.4c0.9-0.9,0.9-1-0.5-2c-11.9-8.6-23.5-13.3-37.4-15.2C124.8,41.1,113.6,40.8,111.1,41 M186.5,59.5
		c-8.2,1.3-14.4,6.1-17.4,13.7c-4.7,11.9,2.8,25.9,15.5,28.6l0.5,0.1l2.4,31.6c2.8,37.3,2.6,34.7,3.2,36c2.7,5.3,10.9,3.3,10.9-2.6
		c0-0.6-1.1-15.3-2.4-32.8c-1.3-17.5-2.4-32.1-2.4-32.4c0-0.6,0.1-0.7,1.5-1.4c16.3-7.8,16.3-31,0-38.8
		C194.9,59.7,190,59,186.5,59.5 M191.2,70.9c2.7,0.5,5.7,2.9,6.8,5.2c4.9,10.2-7.7,19.6-15.8,11.8C175.1,81,181.5,68.9,191.2,70.9
		 M215,96.9c-1.8,0.6-3.3,2-3.9,3.5c-0.7,1.8-2.1,11.5-2.1,14.1c0,7.5,4,14.6,10.4,18.4c1,0.6,1.8,1.2,1.8,1.3
		c0,0.1-2.5,14.8-5.5,32.6c-5.8,34.2-5.7,33.2-4.9,35.1c1.7,4,7.4,4.5,10,0.9c0.8-1.1,0.5,0.8,6.4-34.2c3-17.5,5.4-32.1,5.5-32.4
		c0.1-0.5,0.3-0.6,1.4-0.8c8.5-1.6,15.1-7.9,17.1-16c1-4.3,2.1-11.6,1.8-12.8c-0.8-3.8-4.8-5.7-8.3-4c-2.4,1.2-2.7,1.8-3.8,8.3
		c-1.2,7.3-1.7,8.5-3.6,10.4c-0.9,0.8-2.2,1.8-2.4,1.7c0,0,0.6-4,1.4-8.9c1.6-9.3,1.6-9.7,0.9-11.4c-1.9-4.6-8.8-4.5-10.7,0.1
		c-0.2,0.4-0.9,4.6-1.7,9.4c-1.6,9.8-1.5,9.1-2.1,8.3c-2.3-2.8-2.5-4.9-1.3-12.1c1.1-6.5,1.1-7.6-0.4-9.5
		C219.8,97.3,216.8,96.3,215,96.9"/>
	<path id="logo-inner" class="st1" d="M108,93.9c-11,0.7-12.4,4.7-11.9,32.3c0.4,20.5,1.6,23.9,9.1,25.7c3.4,0.8,24.4,0.4,27.5-0.6
		c2.5-0.8,3.5-3.1,2.6-6.2c-0.9-2.9-1.3-3-13.9-3c-15.6,0-14.4,0.7-14.6-8.4l-0.1-5.8l4.4,0c13.4,0,15.8-0.8,15.8-5
		c0-4.8-2.3-5.6-15.8-5.6l-4,0l-0.1-5.6c-0.1-3.1-0.1-5.9,0-6.2c0.3-1.3,0.1-1.3,11.4-1.4c13.9-0.2,15.3-0.4,16.5-3.1
		c1.3-2.8,0-5.5-2.8-6.4C129.7,93.9,114.3,93.5,108,93.9"/>
</g>
</svg>
