<?xml version="1.0" encoding="utf-8"?>
<!-- Generator: Adobe Illustrator 22.0.1, SVG Export Plug-In . SVG Version: 6.00 Build 0)  -->
<svg version="1.1" id="svg" xmlns="http://www.w3.org/2000/svg" xmlns:xlink="http://www.w3.org/1999/xlink" x="0px" y="0px"
	 viewBox="0 0 400 100" style="enable-background:new 0 0 400 100;" xml:space="preserve">
<style type="text/css">
	.st0{fill:#171717;}
</style>
<g id="logo-text">
	<path id="text-fill" class="st0" d="M64.9,5.8c-12.1,0.8-16,4.6-17.3,16.9c-1.2,11.8-1,45.8,0.4,55.3c1.5,10.4,5.7,14.9,15.2,16
		c2.6,0.3,30.4,0.2,33.6-0.2c7.6-0.8,9.7-2.4,9.7-7.1c0-3.9-1.3-6.1-4.2-7c-0.9-0.3-2.8-0.4-17.8-0.5c-19-0.1-19.1-0.2-20.4-1.6
		c-0.9-1-1.3-4.8-1.3-14.7v-5.6l8.8-0.1c14.3-0.2,17.9-0.7,20.2-2.6c2.8-2.4,2.2-8.6-0.9-10.7c-2.5-1.7-4.8-2-17.5-2.1L63,41.5
		l-0.1-8.9c-0.2-10.3-0.1-10.5,1.2-11.1c0.8-0.4,1.4-0.4,14.9-0.5c22.6-0.2,25-0.7,26.6-4.9c1.5-4-0.1-7.8-3.8-9
		C98.1,5.8,76.3,5.1,64.9,5.8 M341.6,6.3c-0.4,0.1-0.9,0.3-1.2,0.3c-0.2,0-0.4,0.1-0.4,0.2s-0.3,0.3-0.7,0.5
		c-4.1,2.2-5.7,8.1-3.2,12c0.8,1.3,3.2,3.7,3.5,3.5c0.1,0,0.3,0.1,0.4,0.3c0.2,0.2,0.4,0.3,0.4,0.2c0,0,0.4,0.1,1,0.2
		c6.3,1.9,13-4.2,11.6-10.4C351.8,8.3,345.8,4.7,341.6,6.3 M195.2,10.2c-3.8,1.4-5.1,6.1-5.2,17.8v1.1l-4.1,0.1
		c-8.1,0.2-10.8,2.1-10.9,7.5c0,5.6,2.6,7.3,11,7.4l3.8,0.1l0.1,16c0.2,23,0.4,26.7,1.7,29.5c2.1,4.8,9.6,5.1,11.9,0.5
		c1.3-2.7,2-15.5,2-37.8v-8.3l4.2-0.1c8.2-0.2,11.2-2,11.8-6.8c0.6-5.5-3.3-8.2-11.9-8.2h-4.3v-3.8c0-8.4-1.5-13-4.9-14.7
		C199.3,10,196.4,9.8,195.2,10.2 M296.3,27.7c-5,1.7-5.8,6.9-5.6,34.9c0.2,28.9,1,31.6,9,31.2c6.7-0.3,7.6-4.1,7.6-32v-10l0.5-0.7
		c1.6-2.6,5-4.2,11.8-5.7c8.2-1.8,10.9-4.1,10.9-9.7c0-9.6-12.9-10.4-22.7-1.4c-1.2,1.1-1.3,1.1-1.4-0.5
		C305.8,29.1,300.9,26.1,296.3,27.7 M342.7,27.7c-3.2,0.7-5,3.7-5.8,9.9c-0.3,2.3-0.4,3.8-0.6,9.1c-0.1,2.6-0.1,23.6,0,25.5
		c0,0.7,0.1,3.1,0.2,5.3c0.3,11,0.9,13.5,3.7,15.3c1.9,1.2,4.8,1.5,6.8,0.5c0.9-0.4,2.9-1.9,2.5-1.9c-0.1,0,0.1-0.4,0.3-0.8
		c0.9-1.8,1.2-4,1.5-13.3c0.1-2.1,0.2-5,0.3-6.4c0.2-4.9,0.1-21.4-0.3-28c0-0.9-0.1-2.7-0.2-4.1c-0.2-4.1-1-8-1.5-8
		c-0.1,0-0.2-0.1-0.2-0.2s-0.4-0.6-0.9-1.1s-0.9-0.8-0.9-0.8s-0.2,0-0.5-0.2C346.1,27.8,343.9,27.4,342.7,27.7 M132.4,28.3
		c-15,2.2-24.2,14.5-24.7,33.1c-0.5,17.8,7.4,29.4,22.1,32.4c9.5,1.9,18.7,0,24.6-5.2c0.7-0.6,1-0.5,1,0.2c0,2,2.9,4.6,5.6,5
		c4.5,0.7,7-1.6,7.7-7.3c1.6-11.9,1.2-47.5-0.6-53.1c-2-6.1-11.3-5.7-13,0.4c-0.3,1.1-0.3,1.1-1,0.4
		C149.9,29.7,140.4,27.1,132.4,28.3 M249.9,29.2c-17.9,2.6-28.7,16.7-27.1,35.4c1.7,20.6,17,31.7,40.2,29.2
		c12-1.3,18.6-5.4,18.4-11.6c-0.2-5.4-3.9-6.9-12-4.9c-15,3.7-25.8,1.2-29.1-7c-0.6-1.4-0.6-1.5,0.7-1.1c8.4,2.7,22.1,2.7,29.8,0
		c8.8-3.2,13.1-10.2,12.1-19.6c-1.1-10.7-8.9-17.8-22.1-20.2C258.8,29,252,28.9,249.9,29.2 M140.4,43.5c9,1.4,13.8,7.7,13.8,18
		c0,12.4-6.1,19.4-16.6,18.8c-9.7-0.5-14.4-6.6-14.4-18.8C123.2,48.3,129.4,41.8,140.4,43.5 M260.7,44.2c6.5,1.7,9.1,10.2,3.9,12.8
		c-4.5,2.2-16.6,1.9-23.7-0.7c-1.9-0.7-1.9-0.6-1.2-2.7c1.7-5.3,5.5-8.5,11.5-9.6C253.6,43.4,258.5,43.6,260.7,44.2"/>
</g>
</svg>
