<svg version="1" xmlns="http://www.w3.org/2000/svg" width="933.333" height="933.333" viewBox="0 0 700.000000 700.000000"><path d="M474.7 17.6c-.1.1-6.7.5-14.5.9-7.9.4-15.3.8-16.5 1-1.2.2-6.2.7-11.2 1-4.9.3-10.3.7-12 1-1.6.2-5.7.6-9 1-3.3.3-7.1.8-8.5 1-1.4.2-6.1.9-10.6 1.5-4.4.6-8.9 1.2-10 1.4-1 .2-3.9.7-6.4 1.1-2.5.3-9.4 1.6-15.5 2.7-6 1.1-12.1 2.2-13.5 2.4-1.4.3-3.2.7-4 .9-.8.2-3.1.7-5 1-6.8 1.1-37.7 8.8-53 13.2-24.9 7.1-66.7 21.7-82.4 28.7-1.7.8-5.3 2.4-8.1 3.6-11.7 4.9-16.1 7-37.5 17.7-62.8 31.2-99.1 56.8-126.7 89.3-11 12.9-21.1 33.3-25.7 51.5-1.4 5.7-1.8 8.1-3.6 20.5-.8 5.4-.5 38.6.3 42.5.3 1.1.8 4.5 1.1 7.5.4 3 1.6 10 2.7 15.5 1 5.5 2.1 10.9 2.3 12 4 20.7 16.4 54.9 29.6 82 6.4 13.1 20 37.8 23.2 42 .4.5 4.9 7.3 10 15 11.6 17.7 29.5 41.3 41.2 54.3 33.3 37.3 61.5 62.1 100.1 87.9 21.8 14.6 48.3 28.9 70.2 37.9 11.4 4.7 37.7 13.4 38 12.6.1-.4 1.6-10.1 3.3-21.7 3.6-24.5 3.9-26.2 4.5-29.5.3-1.4.7-4.5 1-7 .3-2.5.9-7 1.5-10 .5-3 1.2-7.5 1.5-10 .4-2.5 1.2-7.9 2-12 .7-4.1 1.3-13.1 1.3-20 .2-40-16.4-74-49.3-101.5-17.5-14.5-27.7-27.1-34.3-42.1-6.9-15.8-6.5-9.1-6.6-120.8-.1-69.8.2-102.2 1-105.2 3.9-15.6 23.6-22 36.8-11.9 1.9 1.5 4.8 5.2 6.2 8.1l2.7 5.5.1 87.2.1 87.2 2.7 4.6c1.5 2.5 4.6 5.8 6.8 7.4 3.7 2.5 5.1 2.9 11.4 3 7.5 0 10.5-1.2 15.5-6.4 5.7-5.9 5.5-2.1 5.6-96.6.2-96.4-.2-90.7 6.8-97.7 4.3-4.3 9.6-5.8 19.3-5.4 10.1.5 14.6 3.5 18.7 12.6 2 4.4 2 6.2 2.1 91.5l.1 87 2.7 4.5c7.1 12.2 22.7 14.7 32.4 5.2 7.2-7 6.8-1.1 6.9-97.7.1-83.7.2-87.2 2-91 2.7-5.7 6.1-9.1 11.2-11.6 11.7-5.7 25.8-.8 31.4 10.8l2.2 4.8.1 99.5c.2 102.5.1 105.3-3.9 118-2.6 8.2-8.7 19.7-14.6 27.5-5 6.7-8.1 9.7-23.4 23-20.5 17.8-31.7 33.2-40.6 55.8-2.7 6.9-6.5 22-7.4 29.1-1 8.9-.8 24.3.3 31.1.6 3.3 1.3 7.8 1.6 10 .3 2.2 1 7.1 1.6 11 .6 3.8 1.3 8.6 1.6 10.5.2 1.9.9 6 1.4 9 .5 3 1.2 7.1 1.4 9 .3 1.9 1 6.9 1.6 11 .6 4.1 1.3 8.8 1.5 10.3.2 1.5.7 4.5 1 6.7.3 2.2.8 5.2 1 6.7.6 4.6 1.5 10.6 2 13.3.3 1.4.8 4.3 1.1 6.5.3 2.2.8 4.3 1 4.6.9 1.5 21.7-.5 32.4-3.1 14.1-3.4 32.9-11.4 42.4-17.9 2.4-1.7 4.9-3.1 5.5-3.1.6 0 1.1-.5 1.1-1 0-.6.6-1 1.4-1 .8 0 1.6-.3 1.8-.8.2-.4 3-2.7 6.3-5.1 13.5-9.9 35.8-31.1 50-47.5 3.3-3.8 6.5-7.4 7-8 10.1-11 34.3-45 47.9-67.5 13-21.3 31.8-57.5 42.4-81.6 2.2-5 5.1-11.5 6.5-14.5 13.6-29.6 35.4-93 41.2-120 .2-.8.9-3.8 1.5-6.5.6-2.8 1.3-5.8 1.5-6.8.2-1 .6-2.6.9-3.5.3-.9.8-3.3 1.1-5.2.3-1.9.8-4.2 1-5 .2-.8.6-2.6.9-4 .2-1.4 1.6-8.6 3-16 11-59 9.4-111.2-4.6-147.3-3.9-10.3-13.7-27.6-18.3-32.3-.5-.6-2.8-3.2-5-5.9-9.6-11.4-27.8-24.8-45.5-33.5-21.7-10.7-52-20-76.5-23.5-6-.8-12.3-1.7-14-2-8.1-1.1-52.8-2.7-53.8-1.9z"/></svg>