<svg xmlns="http://www.w3.org/2000/svg" viewBox="0 0 68.7 43.27">
    <title>Apple Pay</title>
    <rect x="0.75" y="0.75" width="67.2" height="41.77" rx="4" ry="4" fill="#fff" stroke="#000" stroke-miterlimit="10"
        stroke-width="1.5" />
    <path d="M18.36,13.56a3.86,3.86,0,0,0,.89-2.8,4,4,0,0,0-2.59,1.31,3.7,3.7,0,0,0-.93,2.68,3,3,0,0,0,2.63-1.19" />
    <path
        d="M19.25,15c-1.44-.09-2.67.8-3.35.8s-1.75-.76-2.89-.76a4.27,4.27,0,0,0-3.62,2.21c-1.53,2.68-.42,6.63,1.11,8.8.72,1.06,1.61,2.25,2.76,2.21s1.53-.73,2.85-.73,1.7.73,2.89.68,1.95-1.06,2.68-2.16a8.68,8.68,0,0,0,1.19-2.47,3.85,3.85,0,0,1-.47-6.84A4,4,0,0,0,19.25,15" />
    <path
        d="M31.75,12a5.06,5.06,0,0,1,5.31,5.27,5.11,5.11,0,0,1-5.4,5.31H28.22v5.48H25.71V12Zm-3.53,8.5h2.85c2.17,0,3.4-1.19,3.4-3.19s-1.23-3.19-3.4-3.19H28.18v6.38Z" />
    <path
        d="M37.7,24.78c0-2,1.57-3.31,4.38-3.48l3.23-.17v-.9c0-1.31-.9-2.08-2.34-2.08a2.25,2.25,0,0,0-2.47,1.7H38.21c.13-2.12,1.95-3.7,4.84-3.7s4.68,1.49,4.68,3.87V28.1h-2.3V26.18h0a4.17,4.17,0,0,1-3.7,2.13C39.31,28.31,37.7,26.86,37.7,24.78Zm7.61-1.06v-.94L42.42,23c-1.45.09-2.26.73-2.26,1.75s.85,1.7,2.13,1.7A2.81,2.81,0,0,0,45.31,23.72Z" />
    <path
        d="M49.85,32.43V30.48a5,5,0,0,0,.77,0,2,2,0,0,0,2.08-1.66s.21-.72.21-.72L48.66,16.41h2.6l3,9.56h0l3-9.56H59.8L55.42,28.78c-1,2.84-2.17,3.74-4.59,3.74C50.66,32.47,50.07,32.47,49.85,32.43Z" />
</svg>