<svg xmlns="http://www.w3.org/2000/svg" viewBox="0 0 68.7 43.27">
    <title>PayPal</title>
    <rect x="0.75" y="0.75" width="67.2" height="41.77" rx="4" ry="4" fill="#fff" stroke="#000" stroke-miterlimit="10"
        stroke-width="1.5" />
    <path
        d="M15.23,22.93h-3.9a.63.63,0,0,0-.6.5l-1.6,10c0,.2.1.3.3.4h1.9a.63.63,0,0,0,.6-.5l.4-2.7a.56.56,0,0,1,.6-.5h1.2c2.6,0,4.1-1.2,4.4-3.7a2.88,2.88,0,0,0-.5-2.5A3.56,3.56,0,0,0,15.23,22.93Zm.4,3.6c-.2,1.4-1.3,1.4-2.4,1.4h-.6l.4-2.6a.32.32,0,0,1,.3-.3h.3c.7,0,1.4,0,1.7.4A1.07,1.07,0,0,1,15.63,26.53Zm11.2,0h-1.9a.27.27,0,0,0-.3.3l-.1.5-.1-.2a2.61,2.61,0,0,0-2.2-.8,4.38,4.38,0,0,0-4.2,3.8,3.56,3.56,0,0,0,.7,2.9,2.9,2.9,0,0,0,2.4.9,3.49,3.49,0,0,0,2.6-1.1l-.1.5c0,.2.1.3.3.4h1.7a.63.63,0,0,0,.6-.5l1-6.4c0-.1-.1-.3-.4-.3Zm-2.6,3.6a2.06,2.06,0,0,1-2.1,1.8,1.73,1.73,0,0,1-1.3-.5,1.44,1.44,0,0,1-.3-1.3,2.06,2.06,0,0,1,2.1-1.8,1.36,1.36,0,0,1,1.2.5A1.25,1.25,0,0,1,24.23,30.13Zm12.6-3.6h-1.9c-.2,0-.3.1-.5.3l-2.6,3.8-1.1-3.7a.66.66,0,0,0-.5-.4h-1.9a.27.27,0,0,0-.3.3v.1l2.1,6.1-1.9,2.8c-.1.1-.1.3.1.5h2.1c.2,0,.3-.1.5-.2l6.2-9c.1-.1.1-.3-.1-.5a.31.31,0,0,0-.2-.1Z"
        fill="#253b80" />
    <path
        d="M43,22.93h-3.9a.63.63,0,0,0-.6.5l-1.6,10c0,.2.1.3.3.4h2c.2,0,.3-.1.4-.3l.5-2.8a.56.56,0,0,1,.6-.5h1.2c2.6,0,4.1-1.2,4.4-3.7a2.88,2.88,0,0,0-.5-2.5A3.07,3.07,0,0,0,43,22.93Zm.4,3.6c-.2,1.4-1.3,1.4-2.3,1.4h-.6l.4-2.6a.32.32,0,0,1,.3-.3h.3c.7,0,1.4,0,1.7.4S43.53,26,43.43,26.53Zm11.2,0h-1.9a.27.27,0,0,0-.3.3l-.1.5-.1-.2a2.61,2.61,0,0,0-2.2-.8,4.38,4.38,0,0,0-4.2,3.8,3.56,3.56,0,0,0,.7,2.9,2.9,2.9,0,0,0,2.4.9,3.49,3.49,0,0,0,2.6-1.1l-.1.5c0,.2.1.3.3.4h1.7a.63.63,0,0,0,.6-.5l1-6.4c0-.1-.1-.3-.4-.3ZM52,30.13a2.06,2.06,0,0,1-2.1,1.8,1.73,1.73,0,0,1-1.3-.5,1.44,1.44,0,0,1-.3-1.3,2.06,2.06,0,0,1,2.1-1.8,1.36,1.36,0,0,1,1.2.5A1.25,1.25,0,0,1,52,30.13Zm4.8-6.9-1.6,10.1c0,.2.1.3.3.4h1.6a.63.63,0,0,0,.6-.5l1.6-10c0-.2-.1-.3-.3-.4h-1.8C57,22.93,56.83,23,56.83,23.23Z"
        fill="#179bd7" />
    <path
        d="M31.36,19.63l.3-1.7h-3.5l2-13c0-.1.1-.1.2-.1h4.9c1.7,0,2.8.3,3.3,1a2.07,2.07,0,0,1,.6,1,3.27,3.27,0,0,1,0,1.4h0v.3l.3.2c.2.1.4.3.6.4a1.91,1.91,0,0,1,.5,1,4,4,0,0,1-.1,1.5,4.92,4.92,0,0,1-.6,1.7,5.24,5.24,0,0,1-1,1.1,3.1,3.1,0,0,1-1.3.6,7.77,7.77,0,0,1-1.6.2h-.4a1.14,1.14,0,0,0-.8.3,1.61,1.61,0,0,0-.4.7v.1l-.5,3.1v.2h-2.5Z"
        fill="#253b80" />
    <path
        d="M39.66,8.33v.3c-.6,3.3-2.9,4.5-5.7,4.5h-1.4a.86.86,0,0,0-.7.6l-.8,4.7-.2,1.4c0,.2.1.4.3.4h2.6a.56.56,0,0,0,.6-.5v-.1l.5-3.1v-.2a.56.56,0,0,1,.6-.5h.4c2.5,0,4.4-1,5-3.9a3.4,3.4,0,0,0-.5-3A1.34,1.34,0,0,0,39.66,8.33Z"
        fill="#179bd7" />
    <path
        d="M39,8c-.2,0-.4-.1-.6-.1a5.28,5.28,0,0,0-1.3-.1h-3.8a.56.56,0,0,0-.6.5l-.8,5.2v.2a.67.67,0,0,1,.7-.6H34c2.8,0,5.1-1.1,5.7-4.5v-.3A2.39,2.39,0,0,0,39,8Z"
        fill="#222d65" />
    <path
        d="M32.56,8.33a.56.56,0,0,1,.6-.5h3.9a5.28,5.28,0,0,1,1.3.1,2.35,2.35,0,0,1,.8.2c.2.1.4.1.6.2a3,3,0,0,0-.7-2.8,5.09,5.09,0,0,0-3.8-1.2h-5a.86.86,0,0,0-.7.6l-2.1,13c0,.2.1.5.3.5H31l.8-4.9Z"
        fill="#253b80" />
</svg>