<svg xmlns="http://www.w3.org/2000/svg" viewBox="0 0 68.7 43.27">
    <title>Paystack</title>
    <rect x="0.75" y="0.75" width="67.2" height="41.77" rx="4" ry="4" fill="#fff" stroke="#000" stroke-miterlimit="10"
        stroke-width="1.5" />
    <path
        d="M43.93,9.54H23.23a1.32,1.32,0,0,0-1.3,1.3v2.3a1.32,1.32,0,0,0,1.3,1.3h20.6a1.32,1.32,0,0,0,1.3-1.3v-2.3A1.18,1.18,0,0,0,43.93,9.54Zm0,12.8H23.23a1.32,1.32,0,0,0-1.3,1.3v2.3a1.32,1.32,0,0,0,1.3,1.3h20.6a1.32,1.32,0,0,0,1.3-1.3v-2.3a1.18,1.18,0,0,0-1.2-1.3Zm-9,6.5H23.33a1.32,1.32,0,0,0-1.3,1.3v2.3a1.32,1.32,0,0,0,1.3,1.3h11.6a1.32,1.32,0,0,0,1.3-1.3v-2.3a1.26,1.26,0,0,0-1.3-1.3Zm10.3-12.9H23.33a1.32,1.32,0,0,0-1.3,1.3v2.3a1.32,1.32,0,0,0,1.3,1.3h21.9a1.32,1.32,0,0,0,1.3-1.3v-2.3A1.32,1.32,0,0,0,45.23,15.94Z"
        fill="#0ba4db" />
</svg>