<svg xmlns="http://www.w3.org/2000/svg" viewBox="0 0 68.7 43.27">
    <title>Stripe</title>
    <rect x="0.75" y="0.75" width="67.2" height="41.77" rx="4" ry="4" fill="#fff" stroke="#000" stroke-miterlimit="10"
        stroke-width="1.5" />
    <path
        d="M61,22c0-3.8-1.8-6.8-5.4-6.8s-5.7,3-5.7,6.8c0,4.5,2.5,6.7,6.2,6.7a7.74,7.74,0,0,0,4.1-1v-3a8,8,0,0,1-3.6.8c-1.4,0-2.7-.5-2.9-2.3H61A4.74,4.74,0,0,1,61,22Zm-7.4-1.4c0-1.7,1-2.4,2-2.4s1.9.7,1.9,2.4Z"
        fill="#6772e5" />
    <path
        d="M44.18,15.19a3.94,3.94,0,0,0-2.9,1.2l-.2-.9h-3.3v17.3l3.7-.8v-4.2a4,4,0,0,0,2.6.9c2.7,0,5.1-2.1,5.1-6.9C49.18,17.49,46.78,15.19,44.18,15.19Zm-.9,10.2a2.32,2.32,0,0,1-1.8-.7v-5.5a2.32,2.32,0,0,1,1.8-.7c1.4,0,2.3,1.5,2.3,3.5S44.58,25.39,43.28,25.39Z"
        fill="#6772e5" />
    <polygon points="32.68 14.29 36.38 13.49 36.38 10.49 32.68 11.29 32.68 14.29" fill="#6772e5" />
    <rect x="32.68" y="15.39" width="3.7" height="13" fill="#6772e5" />
    <path d="M28.68,16.49l-.3-1.1h-3.2v13h3.7v-8.8a2.87,2.87,0,0,1,2.8-.8v-3.4A2.39,2.39,0,0,0,28.68,16.49Z"
        fill="#6772e5" />
    <path
        d="M21.18,12.19l-3.6.8v11.9a3.76,3.76,0,0,0,3.6,3.8,6,6,0,0,0,2.8-.5v-3c-.5.2-2.8.9-2.8-1.3v-5.3H24v-3.2h-2.8Z"
        fill="#6772e5" />
    <path
        d="M11.18,19.19c0-.6.5-.8,1.3-.8a7.36,7.36,0,0,1,3.7,1v-3.5a9.71,9.71,0,0,0-3.7-.7c-3,0-5,1.6-5,4.2,0,4.1,5.7,3.5,5.7,5.2,0,.7-.6.9-1.4.9a9.55,9.55,0,0,1-4.1-1.2v3.5a10.3,10.3,0,0,0,4.1.8c3.1,0,5.2-1.5,5.2-4.2C16.78,20.09,11.18,20.89,11.18,19.19Z"
        fill="#6772e5" />
</svg>