<svg xmlns="http://www.w3.org/2000/svg" xmlns:xlink="http://www.w3.org/1999/xlink" viewBox="0 0 800 520"><defs><path d="M210.45 315.39s-41-40.42-93.31-13.08c-50.76 26.54-44.5 111.54 6.54 130.74C179 453.85 220.5 407 204.5 390.27c-13.66-14.27-41 33.27-74.88 17.82-40.41-18.42-39.81-71.9-11.29-93.3s63.59-10.7 90.93 7.73c5.35-.6 1.19-7.13 1.19-7.13Z" fill="#ff95af" id="reuse-0"/><path fill="#ffe246" d="m145.77 333.22-2.24 4.49-2.24 13.87 15.51 11.35 15.97-7.29-2.96-18.67-8.89-8.72-15.15 4.97z" id="reuse-1"/><path d="M138.55 382.62a7 7 0 0 0 2.83 1.18 12.83 12.83 0 0 0 5.51.25 6.63 6.63 0 0 0 4.45-3.05c2.63-4.75-3.28-10.65-8.11-9.43-4.08 1.03-9.23 7.52-4.68 11.05Z" fill="url(#a)" id="reuse-2"/><path d="M157.75 377.6a4.65 4.65 0 0 0 .63 4.54 4.84 4.84 0 0 0 3.15 1.28 31.8 31.8 0 0 0 3.51.22c1.41 0 3-.16 3.94-1.35a5.34 5.34 0 0 0 1-2.81 6.57 6.57 0 0 0-.12-2.3 5 5 0 0 0-4.08-3.54c-3-.45-6.78.46-8.03 3.96Z" fill="#af384c" id="reuse-3"/><path d="M120.06 341.23a4.15 4.15 0 0 0 .45 3.63 3.18 3.18 0 0 0 2.21 1 20 20 0 0 0 2.45.18 3.06 3.06 0 0 0 2.76-1.08 4.64 4.64 0 0 0 .67-2.24 5.9 5.9 0 0 0-.09-1.83 3.65 3.65 0 0 0-2.85-2.82 4.75 4.75 0 0 0-5.6 3.16Z" fill="url(#b)" id="reuse-4"/></defs><defs><clipPath id="c"><path fill="none" d="M0 0h800v520H0z"/></clipPath><clipPath id="d"><use xlink:href="#reuse-0"/></clipPath><clipPath id="e"><use xlink:href="#reuse-1"/></clipPath><clipPath id="f"><use xlink:href="#reuse-2"/></clipPath><clipPath id="g"><use xlink:href="#reuse-3"/></clipPath><clipPath id="h"><use xlink:href="#reuse-4"/></clipPath><linearGradient id="a" x1="142.02" y1="384.83" x2="146.24" y2="374.13" gradientUnits="userSpaceOnUse"><stop offset="0" stop-color="#ff9540"/><stop offset="1" stop-color="#ffb748"/></linearGradient><linearGradient id="b" x1="116.75" y1="358.41" x2="125.8" y2="339.27" xlink:href="#a"/></defs><g clip-path="url(#c)" style="isolation:isolate"><path d="M230.88 165.27c8.18 4.5 14.9 11.22 20.5 18.69C280.65 223 329 249.89 385 253.05s107-18.12 140.51-53.61c6.41-6.8 13.84-12.71 22.47-16.27a34.63 34.63 0 0 0 21.43-30.1l.16-2.92a34.63 34.63 0 0 0-17.9-32.32c-8.18-4.5-14.89-11.22-20.49-18.69-29.27-39-77.61-65.93-133.61-69.09S290.52 48.17 257 83.67c-6.41 6.79-13.83 12.7-22.47 16.26A34.64 34.64 0 0 0 213.14 130l-.14 3a34.65 34.65 0 0 0 17.88 32.27Z" fill="#392929" opacity=".1"/><path d="M241.51 150.94c8.18 4.5 14.89 11.22 20.49 18.69 29.27 39 77.61 65.93 133.61 69.09s107.05-18.12 140.53-53.62c6.4-6.79 13.83-12.71 22.46-16.26a34.62 34.62 0 0 0 21.4-30.1l.17-2.92a34.63 34.63 0 0 0-17.91-32.32c-8.14-4.5-14.86-11.22-20.46-18.69-29.27-39-77.61-65.93-133.6-69.1S301.14 33.84 267.66 69.33c-6.4 6.8-13.83 12.71-22.46 16.27a34.61 34.61 0 0 0-21.43 30.09l-.17 2.93a34.66 34.66 0 0 0 17.91 32.32Z" fill="#392929"/><path d="m240.39 119.57.16-2.93a17.63 17.63 0 0 1 11.06-15.49c9.95-4.11 19.46-10.93 28.28-20.28C311.52 47.32 358 29.71 407.26 32.49 455.4 35.21 498.64 57 526.34 92.3c.67.84 1.33 1.72 2 2.6 7.75 10.28 16.43 18.13 25.86 23.33a17.71 17.71 0 0 1 9.24 16.64l-.17 2.93a17.81 17.81 0 0 1-11 15.53c-10 4.07-19.47 10.89-28.28 20.24-31.69 33.55-78.11 51.16-127.43 48.43a170.25 170.25 0 0 1-68.95-18.58 152.27 152.27 0 0 1-52.17-43.83c-7.7-10.28-16.43-18.14-25.81-23.33a17.65 17.65 0 0 1-9.24-16.69Z" fill="#93a632"/><path d="m290.64 160.9.16-2.94a17.63 17.63 0 0 1 11.06-15.48c9.95-4.11 19.46-10.94 28.28-20.28C361.77 88.65 408.2 71 457.51 73.82a171 171 0 0 1 68.83 18.48c.67.84 1.33 1.72 2 2.6 7.75 10.28 16.43 18.13 25.86 23.33a17.71 17.71 0 0 1 9.24 16.64l-.17 2.93a17.81 17.81 0 0 1-11 15.53c-10 4.07-19.47 10.89-28.28 20.24-31.69 33.55-78.11 51.16-127.43 48.43a170.25 170.25 0 0 1-68.95-18.58c-.66-.84-1.29-1.67-1.92-2.5-7.7-10.28-16.43-18.14-25.81-23.29a17.75 17.75 0 0 1-9.24-16.73Z" fill="#b1c54a"/><path d="M317.78 164a7.36 7.36 0 1 1 6.93 7.76 7.36 7.36 0 0 1-6.93-7.76Z" fill="#fdcd51"/><circle cx="453.89" cy="137.71" r="17.5" transform="rotate(-60.73 453.866 137.712)" fill="#fdcd51"/><path d="m338.44 105.75 44.36-26a25.93 25.93 0 0 0-44.36 26ZM424 167l-31.57 21.72A19.33 19.33 0 0 0 424 167Z" fill="#4d571a"/><path d="M466 79.89a4.32 4.32 0 1 1 4.06 4.55 4.32 4.32 0 0 1-4.06-4.55ZM513.46 131.78a9.28 9.28 0 1 1 8.75 9.78 9.29 9.29 0 0 1-8.75-9.78ZM287.49 104.77a9.44 9.44 0 1 1 8.9 10 9.44 9.44 0 0 1-8.9-10Z" fill="#9a1808"/><path d="M668.17 205.8a49.87 49.87 0 0 1-11.09-96.61 48.84 48.84 0 0 1 21.92-2.68 49.82 49.82 0 0 1 38 24.75 28.83 28.83 0 0 0 10.42 10.56c10.34 6 16.46 14 15.56 22.07-.44 4-2.55 7.55-5.91 10.58a35.27 35.27 0 0 1-11.55 6.62c-.83.34-1.68.63-2.56.92a29 29 0 0 0-12.54 8 48.16 48.16 0 0 1-6.49 5.89 49.46 49.46 0 0 1-35.76 9.9Z" fill="#392929" opacity=".1"/><path d="M673.73 198.31a49.87 49.87 0 0 1-11.08-96.61 48.81 48.81 0 0 1 21.93-2.7 49.8 49.8 0 0 1 37.95 24.75A28.91 28.91 0 0 0 733 134.33c10.34 6 16.47 14 15.57 22.07-.44 4-2.56 7.54-5.92 10.58a35.11 35.11 0 0 1-11.54 6.62c-.84.34-1.69.63-2.56.92a29 29 0 0 0-12.55 8 47.56 47.56 0 0 1-6.49 5.89 49.5 49.5 0 0 1-35.78 9.9Z" fill="#e8e8e8"/><path d="M687.25 191a49.8 49.8 0 0 1-24.6-89.29A48.81 48.81 0 0 1 684.58 99a49.8 49.8 0 0 1 37.95 24.75A28.91 28.91 0 0 0 733 134.33c10.34 6 16.47 14 15.57 22.07-.44 4-2.56 7.54-5.92 10.58a4 4 0 0 1-.61.21 29.24 29.24 0 0 0-10.93 6.41c-.55.5-1.07 1-1.59 1.59a49.77 49.77 0 0 1-20 13.21 49.18 49.18 0 0 1-22.27 2.6Z" fill="#fff"/><path d="M675.15 185.67a37.28 37.28 0 1 1 30.66-10.92 37.23 37.23 0 0 1-30.66 10.92Z" fill="#e09c39"/><path d="M697.51 174.77a37.21 37.21 0 0 1-22.43-63.06 37.17 37.17 0 0 1 41.19 41.09 36.91 36.91 0 0 1-10.46 21.95 34.9 34.9 0 0 1-8.3.02Z" fill="#e8b854"/><path d="M98.52 218a49.87 49.87 0 0 1-27.09-93.4 48.73 48.73 0 0 1 21.17-6.3 49.82 49.82 0 0 1 41.56 18 28.77 28.77 0 0 0 12 8.66c11.2 4.21 18.57 11.05 19 19.15a16.89 16.89 0 0 1-4.07 11.43A35 35 0 0 1 150.9 184c-.76.48-1.56.9-2.37 1.33a29 29 0 0 0-11 10 46.59 46.59 0 0 1-5.42 6.89A49.46 49.46 0 0 1 98.52 218Z" fill="#392929" opacity=".1"/><path d="M102.75 209.65a49.87 49.87 0 0 1-27.09-93.4 48.75 48.75 0 0 1 21.18-6.31 49.82 49.82 0 0 1 41.55 18 29 29 0 0 0 12 8.67c11.2 4.2 18.58 11 19 19.15.23 4-1.26 7.87-4.06 11.42a35 35 0 0 1-10.28 8.46c-.76.48-1.55.91-2.37 1.34a29 29 0 0 0-11 10 47 47 0 0 1-5.42 6.88 49.47 49.47 0 0 1-33.51 15.79Z" fill="#e8e8e8"/><path d="M114.85 200.16a49.8 49.8 0 0 1-39.19-83.91 48.75 48.75 0 0 1 21.18-6.31 49.82 49.82 0 0 1 41.55 18 29 29 0 0 0 12 8.67c11.2 4.2 18.58 11 19 19.15.23 4-1.26 7.87-4.06 11.42a3.91 3.91 0 0 1-.57.31 29.3 29.3 0 0 0-9.71 8.15c-.45.59-.87 1.2-1.3 1.84a49.54 49.54 0 0 1-17.52 16.36 49 49 0 0 1-21.38 6.32Z" fill="#fff"/><path d="M102 197a37.3 37.3 0 1 1 28.4-15.9A37.24 37.24 0 0 1 102 197Z" fill="#851d15"/><path d="M122.26 182.46A37.21 37.21 0 0 1 89.59 124a37.18 37.18 0 0 1 40.84 57 35 35 0 0 1-8.17 1.46Z" fill="#a2231a"/><circle cx="385.18" cy="375.54" r="100.38" transform="rotate(-45 385.172 375.536)" fill="#392929" opacity=".1"/><circle cx="395.18" cy="364.54" r="100.38" transform="rotate(-45 395.175 364.533)" fill="#392929"/><circle cx="395.18" cy="364.54" r="79.67" transform="rotate(-80.42 395.182 364.537)" fill="#342121"/><path d="M431.84 352.58c1.57-1.77 7-6.64 15.89-1 10.67 6.82-7.36 33-7.36 33s12.48-10.65 20.24-.56c13.29 17.22-27.44 47-27.44 47s-17.82 9.05-33.34 10.87c-9.17 1.08-17.54-.36-21-7.64-5.47-11.5 9.65-17.8 9.65-17.8s-31.53 4.23-32.77-8.38c-1-10.51 5.75-13.14 8-13.74-4.2.85-25 4.27-31.18-9.19-4.05-8.82 13.95-14.94 13.95-14.94s-24.5-8.15-21.17-19.5c3.21-10.88 17.59-5.92 18.69-5.54-1-.66-23.47-14.93-18.38-22.13 5.24-7.35 18.6-3.24 18.6-3.24s-13.59-21.43 1.66-30.8 28.22 12.43 28.22 12.43 1.93-11.26 8.92-14.39a8.14 8.14 0 0 1 2.38-.73c6.74-1 9.83 14.51 10.95 22.24.33 2.27.49 3.89.51 4.15 0-.25.15-1.16.44-2.37 1-4.48 4.18-13.43 12.94-11.8 11.63 2.15 7.81 27.71 7.81 27.71s13.61-13.31 19.65-5.7c9.23 11.69-3.2 28.69-5.86 32.05Z" fill="#076e21"/><path d="M390.52 298.32c2.09 3.4 4.06 6.83 5.86 10.31.34.6.65 1.19.95 1.78 24 46.77 24.13 97.82 2.5 131.57-9.17 1.08-17.54-.36-21-7.64-5.47-11.5 9.65-17.8 9.65-17.8s-31.53 4.23-32.77-8.38c-1-10.51 5.75-13.14 8-13.74-4.2.85-25 4.27-31.18-9.19-4.05-8.82 13.95-14.94 13.95-14.94s-24.5-8.15-21.17-19.5c3.21-10.88 17.59-5.92 18.69-5.54-1-.66-23.47-14.93-18.38-22.13 5.24-7.35 18.6-3.24 18.6-3.24s-13.59-21.43 1.66-30.8 28.22 12.43 28.22 12.43 1.93-11.26 8.92-14.39q3.93 5.4 7.5 11.2Z" fill="#09942d"/><path d="M408.54 308.86c8.26 13.44-4.56 29.35-24.79 41.79-18.62 11.43-37 15.93-46.27 6.11a16.26 16.26 0 0 1-2.22-2.89c-8.26-13.44-6.27-47 14-59.41 8.7-5.34 19.37-5.92 29.37-3.74 13.16 2.84 25.2 10.47 29.91 18.14Z" fill="#ae430f"/><path d="M393.7 303.48c8.26 13.44-4.56 29.36-24.79 41.79-11.19 6.87-22.31 11.24-31.43 11.49a16.26 16.26 0 0 1-2.22-2.89c-8.26-13.44-6.27-47 14-59.41 8.7-5.34 19.37-5.92 29.37-3.74 6.76 3.56 12.24 8.16 15.07 12.76Z" fill="#bf5312"/><path d="m403.47 312-49.68 30.52a2.37 2.37 0 0 1-3.27-.78 2.39 2.39 0 0 1 .78-3.28l49.7-30.55a2.39 2.39 0 0 1 3.27.79 2.37 2.37 0 0 1-.8 3.3ZM395.56 299.11 366 317.25a2.38 2.38 0 0 0 2.49 4.06l29.55-18.15ZM434.59 351.27c8.26 13.44-4.55 29.36-24.79 41.79-18.61 11.43-37 15.93-46.26 6.11a16.26 16.26 0 0 1-2.22-2.89c-8.26-13.44-6.27-47 14-59.4 8.69-5.35 19.37-5.93 29.36-3.75 13.17 2.87 25.2 10.47 29.91 18.14Z" fill="#ae430f"/><path d="M419.75 345.89c8.26 13.44-4.55 29.36-24.79 41.79-11.19 6.88-22.3 11.24-31.42 11.49a16.26 16.26 0 0 1-2.22-2.89c-8.26-13.44-6.27-47 14-59.4 8.69-5.35 19.37-5.93 29.36-3.75 6.77 3.56 12.25 8.16 15.07 12.76Z" fill="#bf5312"/><path d="m429.52 354.38-49.67 30.52a2.37 2.37 0 0 1-3.27-.78 2.39 2.39 0 0 1 .78-3.28L427 350.33a2.39 2.39 0 0 1 3.28.78 2.39 2.39 0 0 1-.76 3.27ZM421.62 341.52l-29.54 18.15a2.38 2.38 0 1 0 2.49 4.05l29.54-18.15ZM460.65 393.68c8.26 13.44-4.56 29.36-24.79 41.79-18.61 11.43-37 15.93-46.27 6.11a16.5 16.5 0 0 1-2.21-2.88c-8.26-13.45-6.27-47 14-59.41 8.7-5.35 19.37-5.93 29.37-3.75 13.16 2.84 25.19 10.46 29.9 18.14Z" fill="#ae430f"/><path d="M445.81 388.3c8.26 13.44-4.56 29.36-24.79 41.79-11.19 6.88-22.3 11.25-31.43 11.49a16.5 16.5 0 0 1-2.21-2.88c-8.26-13.45-6.27-47 14-59.41 8.7-5.35 19.37-5.93 29.37-3.75 6.76 3.56 12.25 8.16 15.06 12.76Z" fill="#bf5312"/><path d="m455.58 396.79-49.67 30.52a2.39 2.39 0 0 1-3.28-.78 2.39 2.39 0 0 1 .78-3.28l49.68-30.51a2.37 2.37 0 0 1 3.27.78 2.37 2.37 0 0 1-.78 3.27ZM447.68 383.93l-29.54 18.15a2.38 2.38 0 1 0 2.49 4.05L450.17 388Z" fill="#ae430f"/><circle cx="142.18" cy="376.54" r="100.38" transform="rotate(-45 142.177 376.538)" fill="#392929" opacity=".1"/><circle cx="152.18" cy="365.54" r="100.38" transform="rotate(-45 152.18 365.535)" fill="#392929"/><circle cx="152.18" cy="365.54" r="79.67" transform="rotate(-80.42 152.178 365.54)" fill="#342121"/><use xlink:href="#reuse-0"/><g clip-path="url(#d)"><path d="M203 344.57c4.17-2.07 5.51-5.44 5.25-10.09s1.46-5.18-.89-9.35c-5-8.92-23.92-20.1-33.79-22.8-20.45-5.6-37.26-2.86-55.38 8.15a58.46 58.46 0 0 0-14.16 11.7 53.58 53.58 0 0 0-9.36 16.06 62.59 62.59 0 0 0 3 50.65A60.65 60.65 0 0 0 138 419.56a32.71 32.71 0 0 0 15.49-.23c28.25-7.76 38.41-25.16 43.63-31.82s-14.41 2.18-8.14-3.3c5.1-4.47 10.63-8.62 14.53-14.16s6-13 3.31-19.2" fill="#f8f0a7" opacity=".92" style="mix-blend-mode:soft-light"/></g><path d="M129 348.14c-1.16 1.86-2.1 4.12-1.39 6.2.57 1.7 2.14 2.9 2.79 4.57 1 2.73-.57 5.67-1.94 8.25-2.3 4.31-4.05 9.31-2.78 14a15.25 15.25 0 0 0 7.53 9c4.43 2.48 10.35 3.13 14.41.08 2.95-2.22 4.37-5.88 6.74-8.7a16.29 16.29 0 0 1 12.8-5.71c3.86.14 7.61 1.65 11.46 1.37a14.28 14.28 0 0 0 11.21-7.74 19.35 19.35 0 0 0 1.2-13.86c-2.11-7.8-8.26-14.1-15.48-17.75-4.24-2.15-9.18-3.52-14-2.77-4.4.68-7.89 4.33-12.29 4.64-3.7.26-6.78-1-10.55.22a19.07 19.07 0 0 0-9.71 8.2Z" fill="#84c44a"/><use xlink:href="#reuse-1"/><g clip-path="url(#e)" fill="#3d172b"><path opacity=".15" style="mix-blend-mode:multiply" d="m139.11 330.2 4.42 7.51 11.69 9.65 2.11 18.21-13.99 2.12-6.6-22.18 3.43-15.84M161.82 367.69l-2.9-20.07L171 335.94l9.57 20.39-18.75 11.36z"/><path opacity=".15" style="mix-blend-mode:multiply" d="m167.15 364.91-.41-20.77 2.48-2.04 2.15 14.65-4.22 8.16z"/></g><path d="M154.78 338.38s-12.5-2.64-4.31-14c10.12 4.85 4.31 14 4.31 14Z" fill="#84c44a"/><path d="M158 338.05s-2.22-10.37 9.16-8c-.24 9.32-9.16 8-9.16 8Z" fill="#84c44a"/><path d="M141.76 347.94s-20 6.12-19.88 10.16c.23 1.95 14.15 14.13 14.15 14.13l19-10.54s-5.77-11.54-13.27-13.75Z" fill="#af384c"/><path d="m124 358.19 12 11.72s-.1-7.77-2.12-9.32-9.88-2.4-9.88-2.4Z" fill="#3d172b" opacity=".15" style="mix-blend-mode:multiply"/><path d="M159.71 362.58a4.32 4.32 0 1 1-4.31-4.31 4.32 4.32 0 0 1 4.31 4.31ZM168.38 363.85a3.43 3.43 0 1 1-4.85 0 3.42 3.42 0 0 1 4.85 0Z" fill="#bdff64"/><circle cx="180.21" cy="353.43" r="3.43" fill="#bdff64"/><path d="M183.52 366.66a2.69 2.69 0 1 1-3.8 0 2.68 2.68 0 0 1 3.8 0Z" fill="#bdff64"/><use xlink:href="#reuse-2"/><g clip-path="url(#f)"><path d="M136.38 369.55a6.74 6.74 0 0 0 5.55 10.56c3.51 0 7.12-2.68 10.26-1.11a5.19 5.19 0 0 1 2.38 5.83 8.2 8.2 0 0 1-4.3 5 12.66 12.66 0 0 1-13.65-1.65 14.53 14.53 0 0 1-4.75-13.12" fill="#3d172b" opacity=".15" style="mix-blend-mode:multiply"/></g><path d="M137.23 347.6s-5.27.25-4.39 4.73c.72 3.67 5.81 1.78 5.81 1.78s-.17 4.62 3.73 4.26c4.5-.41 2.49-5.68 2.49-5.68s4.1-.18 3.66-3.49c-.55-4.22-4.67-3.08-4.67-3.08s-.65-4.55-4.8-3.29c-2.81.86-1.83 4.77-1.83 4.77Z" fill="#ffda5f"/><path d="M139.44 348a.67.67 0 0 0-.42 0 .53.53 0 0 0-.36.49 1 1 0 0 0 .17.61 1.7 1.7 0 0 0 .94.68c.25.07.83.18 1-.13.23-.52-.95-1.49-1.33-1.65ZM139.73 351.4a.75.75 0 0 0-.09.39.33.33 0 0 0 .22.3.43.43 0 0 0 .27 0c.41-.15 1.27-.86.92-1.37-.49-.72-1.14.28-1.32.68ZM142.88 352.28a.43.43 0 0 0 .31 0 .34.34 0 0 0 .21-.28.89.89 0 0 0 0-.36 2.36 2.36 0 0 0-.67-1.18c-.47-.4-1.46-.42-1.15.41a2.47 2.47 0 0 0 1.3 1.41ZM141.6 349a.74.74 0 0 0-.09.48.53.53 0 0 0 .54.36 1.08 1.08 0 0 0 .64-.27 2 2 0 0 0 .63-.79 1.33 1.33 0 0 0 0-1 .6.6 0 0 0-.14-.21c-.58-.57-1.4.99-1.58 1.43Z" fill="#3d172b" opacity=".15" style="mix-blend-mode:multiply"/><use xlink:href="#reuse-3"/><g clip-path="url(#g)"><path d="M156.92 371.35a4.31 4.31 0 0 0-1.08 5.1 7.29 7.29 0 0 0 3.62 3 3 3 0 0 0 2.53.34 3.59 3.59 0 0 0 1.3-1.4 10.73 10.73 0 0 1 6.31-4.28 2.14 2.14 0 0 1 1.15 0 2.06 2.06 0 0 1 1 .91 8.23 8.23 0 0 1-4.39 12.2 4.37 4.37 0 0 1-2 .25c-1.73-.25-7.71-3-8.61-4.49" fill="#3d172b" opacity=".15" style="mix-blend-mode:multiply"/></g><use xlink:href="#reuse-4"/><g clip-path="url(#h)"><path d="M117.67 335.59a5.73 5.73 0 0 0 1.53 5 15.17 15.17 0 0 0 4.4 3.1 9.32 9.32 0 0 0 4.38 1.41 14.54 14.54 0 0 0 3.42-.75.81.81 0 0 1 .46 0c.42.13.39.73.2 1.12a6 6 0 0 1-3.05 2.66 7 7 0 0 1-4.38.75 8.18 8.18 0 0 1-2.9-1.46 12.24 12.24 0 0 1-3.59-3.54 5.23 5.23 0 0 1-.42-4.86" fill="#3d172b" opacity=".15" style="mix-blend-mode:multiply"/></g><path d="M188.92 405.14a5.84 5.84 0 0 0 .46 5.1 7.92 7.92 0 0 0 2.71 2 5.39 5.39 0 0 0 3 .9 4.59 4.59 0 0 0 1.79-.7 12.7 12.7 0 0 0 6.05-7.76c.87-3.72-.5-9-5.12-8.38-3.9.6-7.81 5.27-8.89 8.84ZM183.32 418.34a2.58 2.58 0 0 0 .2 2.24 3.26 3.26 0 0 0 1.18.89 1.69 1.69 0 0 0 2.1.09 5.59 5.59 0 0 0 2.63-3.41c.38-1.63-.22-4-2.23-3.68-1.71.25-3.41 2.3-3.88 3.87Z" fill="#f8f0a7" opacity=".92" style="mix-blend-mode:soft-light"/><path d="M153.91 336.85a11.19 11.19 0 0 1-3.16-9.67c1.88 6.21 3.16 9.67 3.16 9.67ZM159.43 336.75s4.84-2.17 6.32-5.63c-2.27 1.68-6.32 5.63-6.32 5.63Z" fill="#3d172b" opacity=".15" style="mix-blend-mode:multiply"/><circle cx="630.18" cy="373.54" r="100.38" transform="rotate(-45 630.181 373.53)" fill="#392929" opacity=".1"/><circle cx="640.18" cy="362.54" r="100.38" transform="rotate(-45 640.179 362.54)" fill="#392929"/><circle cx="640.18" cy="362.54" r="79.67" transform="rotate(-80.42 640.179 362.533)" fill="#342121"/><path d="M715.53 384.89a100.13 100.13 0 0 1-30.15 28.18c-4.4 2.64-9.65 5-14.53 3.4-2.66-.9-4.84-2.91-7.45-4-5.9-2.39-12.46.49-18.54 2.42-5.86 1.85-12.16 2.8-18.18 1.56s-11.73-5-14.34-10.54c-1.8-3.85-2-8.21-2.18-12.55-.19-5.6-.27-11.16-3.36-15.64-3.58-5.19-10.38-7.49-13.74-12.79-6.32-10 1.7-22.77 8.41-30.17 8.95-9.84 21.74-22.15 35.47-24.21 8.93-1.34 17.35.17 25.62 2.56 9.2 2.66 18.22 6.4 27.56 8.48 7 1.56 15 2.11 19.83 7.5 6 6.73 3.74 17.43 7.59 25.57 1.1 2.33 2.69 4.41 3.67 6.8 3.16 7.81-.87 16.54-5.68 23.43Z" fill="#9c5534"/><path d="M715.53 384.89a100.13 100.13 0 0 1-30.15 28.18c-4.4 2.64-9.65 5-14.53 3.4-2.66-.9-4.84-2.91-7.45-4-5.9-2.39-12.46.49-18.54 2.42-5.86 1.85-12.16 2.8-18.18 1.56s-11.73-5-14.34-10.54c-1.8-3.85-2-8.21-2.18-12.55a4.78 4.78 0 0 1 1.6.86c2.07 1.7 2.06 4.84 3.21 7.28 2.08 4.41 7.76 5.88 12.6 5.28s9.37-2.71 14.22-3.36a24.22 24.22 0 0 1 14.93 2.76c3.83 2.1 7.21 5.29 11.51 6 5.37 1 10.64-2.18 14.71-5.82a52.72 52.72 0 0 0 15.81-26c.5-2 .85-4.24-.27-5.94A8.11 8.11 0 0 0 695 372c-7.06-3.33-14.68-6.75-22.35-5.44-7.95 1.35-15.87 7.66-23.23 4.36-6.94-3.09-8-12.52-6.87-20 2-13.75 7-31.28 20-37.72 9.2 2.66 18.22 6.4 27.56 8.48 7 1.56 15 2.11 19.83 7.5 6 6.73 3.74 17.43 7.59 25.57 1.1 2.33 2.69 4.41 3.67 6.8 3.17 7.72-.86 16.45-5.67 23.34Z" fill="#894429"/><path d="M695.78 315.86 663.31 314a8.11 8.11 0 0 0-8.42 7.07l-4.22 35.7a7 7 0 0 0 6.64 7.95l32.47 1.9a8.11 8.11 0 0 0 8.42-7.07l4.23-35.7a7 7 0 0 0-6.65-7.99Z" fill="#df9530"/><path d="m702.42 323.83-4.22 35.69a8.12 8.12 0 0 1-8.42 7.07l-32.47-1.9a7 7 0 0 1-6.64-7.95l4.22-35.69a8.13 8.13 0 0 1 8.42-7.09l32.47 1.9a7 7 0 0 1 6.64 8Z" fill="#df9530"/><path d="m702.42 323.83-4.22 35.69a8.12 8.12 0 0 1-8.42 7.07l-32.47-1.9a7 7 0 0 1-6.64-7.95l.19-1.59c7.34 3.31 16.62 2.86 24.29-.91 9.8-4.82 17-14.33 20.32-24.58 1.36-4.1 2.3-8.55 4.33-12.3a7.07 7.07 0 0 1 2.62 6.47Z" fill="#d0732d"/><path d="M659.22 330.18c-.57 2.61-1.15 5.31-.72 7.89s2.13 5.07 4.71 5.6 5.08-.84 7.22-2.38a38.18 38.18 0 0 0 8.74-8.7c2.08-2.89 3.75-6.81 2-9.66-1.37-2.16-4.2-2.8-6.77-3.28a18.35 18.35 0 0 0-5.77-.44c-5.32.71-8.4 6.39-9.41 10.97Z" fill="#eab25e"/><path d="M672.53 323c1.38-7.92-9-6.31-11.75-1.12-2.12 4.05-.51 8.89 4.39 8.24a8.26 8.26 0 0 0 4-1.84 9.06 9.06 0 0 0 3.36-5.28Z" fill="#fff"/><path d="m617.13 367.14-32.48-1.89a8.11 8.11 0 0 0-8.42 7.07L572 408a7 7 0 0 0 6.64 8l32.47 1.9a8.12 8.12 0 0 0 8.42-7.08l4.23-35.69a7 7 0 0 0-6.63-7.99Z" fill="#df9530"/><path d="m623.76 375.1-4.22 35.7a8.12 8.12 0 0 1-8.42 7.07L578.65 416a7 7 0 0 1-6.64-8l4.23-35.69a8.11 8.11 0 0 1 8.41-7.09l32.48 1.9a7 7 0 0 1 6.63 8Z" fill="#df9530"/><path d="m623.76 375.1-4.22 35.7a8.12 8.12 0 0 1-8.42 7.07L578.65 416a7 7 0 0 1-6.64-8l.19-1.59c7.34 3.31 16.62 2.86 24.29-.91 9.8-4.82 17-14.33 20.33-24.58 1.35-4.1 2.29-8.55 4.32-12.3a7 7 0 0 1 2.62 6.48Z" fill="#d0732d"/><path d="M580.56 381.46c-.57 2.61-1.15 5.31-.72 7.89s2.13 5.07 4.71 5.6 5.08-.85 7.22-2.38a38.18 38.18 0 0 0 8.74-8.7c2.08-2.89 3.75-6.81 2-9.66-1.37-2.16-4.2-2.8-6.77-3.28a18.33 18.33 0 0 0-5.77-.44c-5.32.71-8.39 6.38-9.41 10.97Z" fill="#eab25e"/><path d="M593.87 374.3c1.38-7.92-9-6.31-11.75-1.12-2.12 4.05-.51 8.89 4.4 8.24a8.2 8.2 0 0 0 3.94-1.85 9 9 0 0 0 3.41-5.27Z" fill="#fff"/><ellipse cx="619.66" cy="317.69" rx="27.87" ry="19.67" transform="rotate(-22.84 619.719 317.706)" fill="#ef7824"/><ellipse cx="616.32" cy="319.1" rx="24.24" ry="19.67" transform="rotate(-22.84 616.368 319.116)" fill="#f2982d"/><path d="M621.76 332c-8.53 3.6-17.92.73-20.91-6.39s1.5-15.84 10-19.44 17.92-.72 20.92 6.4-1.47 15.85-10.01 19.43Zm-9.28-22c-6.44 2.71-10 9-7.84 14s9.08 6.91 15.52 4.2 10-9 7.85-14-9.09-6.94-15.53-4.2Z" fill="#ef7824"/><path d="M610 361.29c2.74 2.5 5.65 5.17 6.58 8.76.69 2.7.17 5.53 0 8.31s.16 5.84 2.13 7.81c2.24 2.23 6 2.26 8.8.75s4.66-4.26 6-7.1c1.93-4 3-8.83 1-12.8-1.48-3-4.44-4.95-6.24-7.75-1.37-2.12-2-4.64-3.22-6.86-2.57-4.79-10.93-10.58-16.74-8.55-9.13 3.21-2.82 13.32 1.69 17.43ZM683 373.58c-10.91-3.85-24.34 12-14.16 20.59a9.16 9.16 0 0 0 7.88 1.67 14.83 14.83 0 0 0 7.09-4.2 14.52 14.52 0 0 0 4.55-9.51c.06-3.59-2-7.35-5.36-8.55Z" fill="#b7603e"/><path d="M667.62 406.11a9.23 9.23 0 0 1-2.79 6c-2.54 2.27-6.3 2.35-9.66 1.9a27 27 0 0 1-8.27-2.39c-3-1.5-5.73-4.26-6.18-7.4a5.92 5.92 0 0 1 .07-2.09 10.28 10.28 0 0 1 2.34-4.31c3.57-4.36 9-9.12 15.2-6.58a16 16 0 0 1 8.59 9.29 13 13 0 0 1 .7 5.58Z" fill="#bd301a"/><path d="M667.62 406.11a9.23 9.23 0 0 1-2.79 6c-2.54 2.27-6.3 2.35-9.66 1.9a27 27 0 0 1-8.27-2.39c-3-1.5-5.73-4.26-6.18-7.4a13.67 13.67 0 0 1 1.44.52c4.54 1.92 8.1 3.16 13.16 3.11 3.48-.05 7.37-.52 9.61-3.18a11.69 11.69 0 0 0 2-4.14 13 13 0 0 1 .69 5.58Z" fill="#a02c2d"/><path d="M659.16 397.9c-.37-3.47-4.94-5-7.42-2.52-2.82 2.78.17 7.83 3.91 7.22a4.42 4.42 0 0 0 3.51-4.7Z" fill="#cd3c40"/><path d="M658.48 395.54c.77-2.82-4.23-5.32-6.16-3.09-3.49 4.03 5.22 6.55 6.16 3.09Z" fill="#fff"/><path d="M241.85 459c.27-.82.57-1.63.92-2.43A26.28 26.28 0 0 1 277.33 443l2.31-5.27a32 32 0 0 0-42.14 16.5 32.57 32.57 0 0 0-1.7 5.11q3.03-.2 6.05-.34ZM608.39 91.83c.27-.82.57-1.63.92-2.43a26.28 26.28 0 0 1 34.56-13.54l2.31-5.27A32 32 0 0 0 604 87.09a32.57 32.57 0 0 0-1.7 5.11q3.07-.2 6.09-.37Z" fill="#fdbb13"/><path d="M110.09 231.13a24 24 0 0 1-1.62 2 26.28 26.28 0 0 1-37 2.21l-3.82 4.3a32 32 0 0 0 45.12-2.64 31.53 31.53 0 0 0 3.19-4.33c-1.96-.51-3.91-1.02-5.87-1.54ZM513.41 458.54c.73-.45 1.49-.87 2.27-1.25a26.27 26.27 0 0 1 35.08 12.12l5.18-2.51a32 32 0 0 0-42.77-14.78 31.69 31.69 0 0 0-4.61 2.78c1.63 1.2 3.24 2.42 4.85 3.64Z" fill="#bd301a"/><path d="M217.87 207.67s2-4.64-1-13.71-8.53-12.55-10-12-.38 8-.38 8-11.58-10.24-14.77-9 8.37 14.39 8.37 14.39-6.76-.94-6.51 1.47 10.8 12.56 24.29 10.85Z" fill="#09942d"/><path d="M221.35 212.56a84.59 84.59 0 0 0-6-9 86.25 86.25 0 0 1-3-13.58 31.34 31.34 0 0 0 .76 10.77 85.45 85.45 0 0 0-15.42-14.5c4.55 5 8.82 9.79 13.11 14.6a61.47 61.47 0 0 0-11-1.65 60.84 60.84 0 0 1 13.2 4.05c2.7 3.06 5.46 6.14 8.35 9.31Z" fill="#84c44a"/><path d="M620 226.11s-2.47-4.42-11.52-7.49-15.15-.77-15.62.7 6.19 5.15 6.19 5.15-15.15 3.06-16.07 6.36 16.52 2 16.52 2-4.82 4.82-2.75 6.07 16.47-1 23.25-12.79Z" fill="#09942d"/><path d="M626 226.28a84.87 84.87 0 0 0-10.81-.63 84.79 84.79 0 0 1-12.64-5.81 31.42 31.42 0 0 0 9.05 5.89 84.87 84.87 0 0 0-20.86 3.56c6.73-.62 13.12-1.13 19.55-1.66a61.07 61.07 0 0 0-7.92 7.75 60.43 60.43 0 0 1 11.14-8c4.09-.38 8.21-.7 12.49-1.1Z" fill="#84c44a"/></g></svg>