<svg xmlns="http://www.w3.org/2000/svg" viewBox="0 0 800 520"><defs><clipPath id="a"><path fill="none" d="M0 0h800v520H0z"/></clipPath><clipPath id="b"><path d="M476.34 41c2.87 2.37 5.7 4.79 8.53 7.22 2.6 2.22 5.21 4.45 7.65 6.85a76.15 76.15 0 0 1 5.93 6.51c1.42 1.76 2.82 4.11 1.83 6.15s-3.7 2.36-5.67 1.48-3.36-2.67-4.72-4.35C475.72 47.37 456.06 35.4 436.7 24c-14.18-8.39-28.63-16.75-44.55-21-2.74-.73-5.72-1.45-7.53-3.64-1.36-1.64-1.77-5.72.72-6.66 1.89-.71 7.32 1.81 9.28 2.38A184.9 184.9 0 0 1 416 2.9a230.68 230.68 0 0 1 39.81 22.46c7.09 4.89 13.91 10.12 20.53 15.64Z" fill="none"/></clipPath><clipPath id="c"><path d="M480.92 39.74c3.21 1.88 6.4 3.81 9.58 5.74 2.93 1.78 5.86 3.56 8.66 5.53a72.64 72.64 0 0 1 6.9 5.47c1.69 1.51 3.45 3.6 2.8 5.77s-3.26 2.93-5.35 2.38-3.75-2.09-5.37-3.53c-16.8-14.93-38.14-23.57-59.09-31.72-15.34-6-30.95-11.88-47.34-13.46-2.82-.28-5.88-.51-8-2.37-1.61-1.4-2.67-5.37-.37-6.69 1.75-1 7.53.6 9.54.85a184.9 184.9 0 0 1 22.4 4.21 231.75 231.75 0 0 1 42.91 15.73c7.73 3.7 15.31 7.75 22.73 12.09Z" fill="none"/></clipPath><clipPath id="d"><path d="M486.42 32.44c3.22 1.89 6.4 3.82 9.59 5.75 2.93 1.77 5.86 3.55 8.66 5.52a75.73 75.73 0 0 1 6.9 5.48c1.68 1.51 3.45 3.6 2.8 5.76s-3.27 2.94-5.36 2.38-3.75-2.09-5.36-3.52c-16.8-14.94-38.14-23.57-59.09-31.72-15.34-6-31-11.88-47.34-13.47-2.83-.27-5.89-.5-8-2.37-1.6-1.4-2.67-5.36-.36-6.69 1.75-1 7.52.61 9.54.86a181.3 181.3 0 0 1 22.39 4.21 231.84 231.84 0 0 1 42.92 15.73c7.72 3.69 15.29 7.75 22.71 12.08Z" fill="none"/></clipPath></defs><g clip-path="url(#a)" style="isolation:isolate"><circle cx="364.2" cy="385.6" r="110.38" fill="#392929" opacity=".1"/><circle cx="364.2" cy="376.21" r="110.38" fill="#fff"/><circle cx="364.2" cy="376.21" r="89.8" transform="rotate(-76.92 364.218 376.212)" fill="#f2f3f4"/><path d="M284.21 385.13a89.78 89.78 0 0 1 145.1-70.73A89.78 89.78 0 1 0 308.9 446.93a89.46 89.46 0 0 1-24.69-61.8Z" fill="#e3e4e5"/><path d="M339.71 295.48c14.42-3.19 29.41-.54 43.93 2.11 11.71 2.14 23.92 4.49 33.3 11.82 7.74 6 12.72 14.86 17.51 23.44 8 14.26 16.12 29.19 16.79 45.51.89 21.51-11.61 41.63-27.42 56.25-17.64 16.32-41 27.83-65 26.27-10.21-.66-20.12-3.63-29.82-6.88a41.54 41.54 0 0 1-8.8-3.77c-9-5.6-12.62-16.87-20.3-24.16-4.21-4-9.72-6.9-12.32-12.08-1.64-3.27-1.89-7-2.11-10.68q-.58-9.94-1.18-19.9c-.48-8-.94-16.1 1.26-23.77 2.44-8.55 6.65-16.1 8.58-24.86 1.33-6.06 2.6-11.72 7-16.32 9.58-10.06 25.12-20 38.58-22.98Z" fill="#fd7931"/><path d="M338.08 311.23c-8.89 2.67-17.16 9.54-18.66 18.69-1.09 6.66 1.46 13.53.29 20.18s-5.9 13.24-3.3 19.43c1.32 3.13 4.28 5.25 6.11 8.13 4.85 7.64.68 18.59 5.55 26.22 3.42 5.36 10.28 7.36 16.61 7.81s12.85-.2 18.93 1.63c4 1.19 7.58 3.4 11.49 4.8s8.5 1.88 12-.29c1.93-1.19 3.35-3 5.14-4.43 7.58-5.9 18.82-2 28-5 11.37-3.69 16.73-17.29 15.86-29.21s-6.31-22.95-9.86-34.36c-1.88-6-3.28-12.29-6.56-17.67-5.29-8.68-14.94-14-24.86-16.25s-19.51-1.57-29.41-1.29c-9.2.28-18.3-1.09-27.33 1.61Z" fill="#ff8c52" opacity=".5"/><circle cx="305.83" cy="394.67" r="4.38" opacity=".1"/><circle cx="306" cy="394.25" r="4.38" fill="#ff8c52"/><ellipse cx="306" cy="392.22" rx="3.04" ry="2.03" fill="#ffa076"/><circle cx="302.88" cy="356.44" r="4.38" opacity=".1"/><circle cx="303.05" cy="356.02" r="4.38" fill="#ff8c52"/><ellipse cx="303.05" cy="353.99" rx="3.04" ry="2.03" fill="#ffa076"/><circle cx="417.3" cy="425.2" r="4.38" opacity=".1"/><circle cx="417.48" cy="424.77" r="4.38" fill="#ff8c52"/><ellipse cx="417.48" cy="422.75" rx="3.04" ry="2.03" fill="#ffa076"/><circle cx="372.4" cy="447.14" r="4.38" opacity=".1"/><path d="M377 446.72a4.38 4.38 0 1 1-4.38-4.38 4.38 4.38 0 0 1 4.38 4.38Z" fill="#ff8c52"/><path d="M375.61 444.69c0 1.12-1.36 2-3 2s-3-.91-3-2 1.36-2 3-2 3 .88 3 2Z" fill="#ffa076"/><circle cx="399.68" cy="321.72" r="3.26" opacity=".1"/><path d="M403.07 321.4a3.26 3.26 0 1 1-3.26-3.25 3.26 3.26 0 0 1 3.26 3.25Z" fill="#ff8c52"/><ellipse cx="399.81" cy="319.9" rx="2.26" ry="1.51" fill="#ffa076"/><circle cx="326.75" cy="318.3" r="3.26" opacity=".1"/><path d="M330.14 318a3.26 3.26 0 1 1-3.26-3.26 3.26 3.26 0 0 1 3.26 3.26Z" fill="#ff8c52"/><ellipse cx="326.88" cy="316.48" rx="2.26" ry="1.51" fill="#ffa076"/><path d="M373.35 309.49a3.26 3.26 0 1 1-3.26-3.26 3.26 3.26 0 0 1 3.26 3.26Z" opacity=".1"/><circle cx="370.23" cy="309.17" r="3.26" fill="#ff8c52"/><path d="M372.48 307.66c0 .84-1 1.51-2.25 1.51s-2.26-.67-2.26-1.51 1-1.5 2.26-1.5 2.25.67 2.25 1.5Z" fill="#ffa076"/><path d="M338.65 317.49c14.62-8.51 32.39-5.27 39.69 7.25s1.34 29.58-13.28 38.1-32.39 5.27-39.69-7.25-1.37-29.59 13.28-38.1Z" fill="#ffdf5e"/><path d="M336.38 324c12.12-7.06 26.84-4.37 32.89 6s1.12 24.51-11 31.57-26.84 4.37-32.89-6-1.12-24.49 11-31.57Z" fill="#ffe67d"/><path d="M396.68 358.33c14.62-8.52 32.39-5.27 39.68 7.25s1.35 29.58-13.27 38.09-32.39 5.33-39.69-7.24-1.35-29.58 13.28-38.1Z" fill="#ffdf5e"/><path d="M394.4 364.85c12.12-7.06 26.85-4.37 32.9 6s1.11 24.51-11 31.57-26.84 4.37-32.89-6-1.13-24.51 10.99-31.57Z" fill="#ffe67d"/><path d="M329.22 388.11c14.62-8.52 32.39-5.27 39.69 7.25s1.35 29.58-13.28 38.09-32.39 5.28-39.69-7.24-1.34-29.58 13.28-38.1Z" fill="#ffdf5e"/><path d="M327 394.63c12.12-7.06 26.84-4.37 32.89 6s1.12 24.51-11 31.57-26.85 4.37-32.9-6-1.16-24.51 11.01-31.57Z" fill="#ffe67d"/><path d="M338.1 387.2c-2.71 0-7.05.14-7.76-.92s2.65.39 1.76-.66-3.45-.85-2.7-2 3.07-.13 3-.72-1.64-1-.74-1.23 3.21.53 6.33 2 5.37 1.22 5.13.43-5.17-1.81-9.13-2.89a11.92 11.92 0 0 1-6.2-4.51s.06-.65 2.13-.38 1.17-.37-.32-1-1.6-1.41-2.46-2.38-.92-1.13-.51-1 3.21 1.15 2.13.42c-1.27-.83-3.2-5.36-2-3.61a1.17 1.17 0 0 0 1.44.44c.84-.45-1.19-.94.92-.86 1.67.06 4.62 4.19 3.36 1.73s-.5-1.86-.5-1.86c4.66 2.08 5.23 5.63 6 7.14s1.23.75 1.13.38-2.81-6.11-.85-4.79 2.88 3.24 3.35 3.46-.22-.85-.41-1.42.95.31 1.74 2.06a8.42 8.42 0 0 0 2.31 3.45c2.74 2.11 10.48 10.26 11.79 12.39s1.53.89 1.53.89c.43-3.57-7.42-13.14-10.26-15.86s-7.25-4.32-9.28-5.72-2.71-3.1-2.59-3.66 1.15 0 2.11.8 6.75 3.32 2.82.69a19.83 19.83 0 0 1-5.92-5.59c-.24-.47 1.65.82 1.53 0s-2.31-3.7-1.27-3.19 2.16.21 4.35 1.59-.26-1.7-1.51-2.63-1.43-2.05-1.06-1.72 3 1.84 1.25.38-1-2.86-.77-2.94.22.13 1.72.36 2.65 2.94 3 2.68-.76-1.16-2-3.2-.25-2.81.07-2.62.89 1.81.77.53c-.11-1.1.25-2.25 1.2-2.49 1-.29 2.16.48 2.94 1.44s.09-.49.21-.78 1.5-.14 2.07 2.08.36 3.44.84 3.5-.68-2.66.36-3.54.85-1 1.11-1.07a2.35 2.35 0 0 1 1.63 2.72c-.26 2 .68-.44.72-.88s.76.55.46 1.87.1 4.91.81 2.81 1.82-2.39 2.28-3.28.91 2.47 1.43 3.16 1-1.22 1.21-.72a14.25 14.25 0 0 1-.48 7.21c-1.15 3.92 1.57-.77 1.74-1.85s.56-2 1.09-1.61a4.34 4.34 0 0 1 .72 4.13c-.56 2.06-2.88 5.38-3.09 8.86s.74 14 3.57 17.13c.17-.13.28-.51.19-1.47-.22-2.33 1.36-12.12 2.42-14.91.33-.86.25-2-.19-3.83s0-3 .21-2.4.28 1.75.55 1.39-.16-2.36.72-4.18 2.2 4.16 2.35 4.53 1.05.88.76-.72-2.08-4.93.7-8.33c0 0 .28-.79.76 1.81s.41-2 1.85-2.65.8 0 1 .29 1.18-.9 1.4-1.17 1 3.32.55 4.32 1.34-.83 1.62-1.08.32-.1.19 1.05.28 1.89-.64 2.93-1.32 1.9.35 1 2.12-.39 2.13-.38a7.82 7.82 0 0 1-2.56 6.07c-2.81 2.27-6.52 4.84-6.22 5.61s2.47.28 4.26-2.09 3.35-3.83 4.3-3.92-.17.78.14 1.34 1.69-1.15 3.11-.36-1 1.47-1.09 2.7 1.93-1.19 2 0-3.87 2.51-6.28 3.41 1.58.81 2.54.58a5.74 5.74 0 0 1 2.39.2 3.6 3.6 0 0 1-2.38 3c-2.32 1-9.77 2.76-12.52 5.51a12.56 12.56 0 0 0-1.59 1.91 7.43 7.43 0 0 0-.83 6.46l6.3 20.28a1.79 1.79 0 0 0-2-.31c-1 .59-3.29-16.16-9.33-21-.41-.33-.75-.62-1-.88a20.35 20.35 0 0 0-5.56-3c-4.23-1.51-12-.6-14.66-.69a5.51 5.51 0 0 1-4.06-1.88 4.51 4.51 0 0 1 2-1c1-.04 4.58-1.3 1.87-1.29Z" fill="#236900"/><path d="M343.93 353.42s.32 1 .89 2.74c.15.43.29.91.48 1.43s.4 1.09.61 1.69.46 1.24.71 1.92.54 1.38.84 2.11.59 1.51.92 2.3l1.05 2.44c.35.84.73 1.7 1.12 2.57s.8 1.77 1.21 2.68c.84 1.81 1.7 3.69 2.6 5.58l2.71 5.76c.9 1.93 1.82 3.86 2.68 5.76s1.7 3.79 2.51 5.61c.38.92.76 1.82 1.13 2.7l.54 1.3c.18.43.34.86.51 1.28l1 2.46c.3.8.56 1.57.83 2.32l.75 2.12c.21.68.42 1.33.61 1.93s.37 1.18.54 1.7.27 1 .4 1.45l.74 2.76-.69-2.76c-.12-.44-.23-.93-.38-1.46s-.32-1.09-.5-1.7-.37-1.26-.58-1.94-.47-1.39-.72-2.14-.51-1.52-.81-2.31-.61-1.63-.94-2.47c-.16-.43-.31-.86-.49-1.29l-.53-1.31c-.36-.88-.73-1.79-1.12-2.7-.8-1.83-1.61-3.72-2.49-5.62s-1.77-3.84-2.66-5.77l-2.73-5.75c-.91-1.9-1.78-3.77-2.62-5.58l-1.22-2.67c-.4-.88-.79-1.73-1.15-2.57s-.72-1.65-1.07-2.43-.64-1.55-.95-2.29-.59-1.43-.86-2.1l-.74-1.91-.64-1.68c-.2-.52-.36-1-.51-1.43Z" fill="#236900"/><path d="M363.4 398.31s-.09-.6-.18-1.65a27 27 0 0 1-.1-4.31 22.82 22.82 0 0 1 .34-2.81 19.3 19.3 0 0 1 .77-3 25.89 25.89 0 0 1 1.35-3c.52-1 1.1-2 1.65-3 1.11-2 2.12-4.08 3-6s1.59-3.86 2.17-5.49c.28-.82.53-1.57.74-2.25s.39-1.26.53-1.74.24-.88.31-1.14l.11-.4s-.18.55-.48 1.51a89.487 89.487 0 0 1-1.38 3.95c-.3.81-.64 1.67-1 2.59s-.8 1.86-1.23 2.84c-.89 2-1.91 4-3 6-.56 1-1.12 2-1.64 3a23.36 23.36 0 0 0-1.34 3.05 14.91 14.91 0 0 0-.45 1.54c-.11.52-.22 1-.29 1.52a21 21 0 0 0-.29 2.84 21.55 21.55 0 0 0 0 2.44c0 .73.11 1.37.18 1.9s.13.94.18 1.22.05.39.05.39ZM363.63 399.09s-.1-.12-.27-.36-.44-.59-.79-1-.79-.95-1.32-1.53-1.13-1.23-1.81-1.91c-1.36-1.38-3-2.93-4.75-4.6s-3.53-3.53-5.56-5.17a24.2 24.2 0 0 0-3.23-2.2c-1.12-.63-2.28-1.15-3.39-1.65s-2.17-1-3.14-1.53a23.25 23.25 0 0 1-6-4.87c-.37-.42-.65-.76-.83-1l-.28-.36.26.36c.18.24.44.59.8 1a22.68 22.68 0 0 0 6 5c1 .56 2 1.07 3.15 1.58s2.25 1 3.36 1.65a23.08 23.08 0 0 1 3.16 2.18c2 1.61 3.81 3.46 5.57 5.13s3.43 3.17 4.81 4.53c.68.68 1.31 1.3 1.85 1.87s1 1.07 1.35 1.5.64.76.82 1Z" fill="#236900"/><path d="M352.06 377.37c-2.5-1.05-6.55-2.62-6.79-3.87s2.29 1.39 1.88.08-2.85-2.13-1.71-2.92 2.89 1.08 3 .5-1.13-1.54-.21-1.42 2.76 1.74 5.06 4.33 4.46 3.21 4.55 2.39-4.06-3.68-7.29-6.21a11.89 11.89 0 0 1-3.95-6.57s.3-.57 2.11.48 1.22.11.09-1-.94-1.92-1.35-3.15-.4-1.39-.08-1.11 2.52 2.3 1.79 1.21c-.84-1.26-.85-6.19-.4-4.09a1.2 1.2 0 0 0 1.16 1c.94-.09-.73-1.34 1.17-.44 1.53.71 2.63 5.66 2.43 2.9s.26-1.91.26-1.91c3.48 3.73 2.63 7.22 2.76 8.91s.84 1.18.9.8-.22-6.72 1.08-4.75 1.39 4.11 1.74 4.5.12-.88.17-1.47.76.65.8 2.57a8.49 8.49 0 0 0 .79 4.08c1.7 3 5.66 13.52 6 16s1.06 1.41 1.06 1.41c1.79-3.12-1.72-15-3.28-18.6s-5-6.8-6.33-8.88-1.29-3.91-1-4.38 1.06.46 1.64 1.56 4.92 5.69 2.33 1.74-3.25-6.93-3.28-7.46 1.19 1.4 1.4.63-.7-4.31.07-3.44 1.9 1 3.38 3.15.43-1.66-.36-3-.52-2.45-.31-2 2 2.85 1 .84.18-3 .43-3 .15.19 1.44 1 1.3 3.74 1.72 3.64-.25-1.37-.6-3.73.86-2.69 1.09-2.39.11 2 .5.79c.33-1.06 1.1-2 2.08-1.82 1 .1 1.8 1.28 2.15 2.47.39 1.35.27-.42.5-.64s1.43.46 1.09 2.72-1 3.31-.58 3.55.41-2.72 1.7-3.12 1.19-.61 1.44-.55a2.33 2.33 0 0 1 .45 3.13c-1 1.71.79-.14 1-.53s.49.8-.3 1.91-1.82 4.56-.35 2.9 2.61-1.5 3.37-2.13-.11 2.63.09 3.46 1.43-.71 1.4-.19a14.11 14.11 0 0 1-3.25 6.45c-2.58 3.17 1.75-.1 2.32-1s1.31-1.63 1.63-1.06a4.32 4.32 0 0 1-.94 4.09c-1.31 1.67-4.75 3.83-6.29 6.95s-4.74 13.15-3.37 17.17c.2-.05.46-.36.74-1.28.71-2.23 6-10.63 8-12.79.64-.66 1-1.75 1.32-3.6s1.15-2.73 1.12-2.13-.42 1.72 0 1.5.77-2.24 2.29-3.58.41 4.69.41 5.09.62 1.22 1-.37 0-5.35 3.88-7.4c0 0 .57-.62 0 2s1.17-1.72 2.74-1.73.75.28.82.66 1.44-.37 1.74-.53-.32 3.47-1.17 4.19 1.56-.24 1.91-.37.33 0-.23 1-.48 1.86-1.73 2.45-2 1.25-.06 1 2.1.47 2.11.48a7.78 7.78 0 0 1-4.72 4.59c-3.47 1-7.89 1.92-7.91 2.75s2.16 1.22 4.74-.27 4.57-2.23 5.48-1.93-.46.65-.39 1.28 2-.4 3 .88-1.47 1-2.05 2.06 2.25-.34 1.84.77-4.55.81-7.11.7 1.13 1.36 2.11 1.52a5.73 5.73 0 0 1 2.12 1.11 3.59 3.59 0 0 1-3.36 1.86c-2.53 0-10.07-1.25-13.68.21a12 12 0 0 0-2.21 1.14 7.37 7.37 0 0 0-3.27 5.63l-2.1 21.13a1.76 1.76 0 0 0-1.69-1.05c-1.16.14 3.26-16.17-.45-22.93-.25-.47-.45-.87-.6-1.21a20.07 20.07 0 0 0-4-5c-3.3-3-10.78-5.21-13.23-6.34a5.48 5.48 0 0 1-3-3.31 4.45 4.45 0 0 1 2.2-.12c1.11.27 4.9.5 2.39-.54Z" fill="#2c8200"/><path d="M370.57 348.51s-.09 1.05-.24 2.87c0 .46-.09 1-.12 1.51s-.06 1.15-.09 1.79-.06 1.33-.1 2.05 0 1.48 0 2.27V366.94c0 .96 0 1.94.07 2.93.07 2 .13 4.06.22 6.16s.17 4.23.26 6.36.18 4.26.23 6.35.1 4.15.13 6.14v5.72c0 .9 0 1.78-.07 2.63s-.09 1.67-.14 2.46-.08 1.53-.13 2.25-.13 1.38-.19 2-.12 1.22-.17 1.77-.13 1-.19 1.49c-.25 1.8-.39 2.83-.39 2.83l.44-2.81c.06-.45.15-.94.22-1.49s.13-1.14.19-1.77.15-1.3.23-2 .1-1.46.16-2.25.13-1.6.16-2.45.07-1.73.1-2.63c0-.46 0-.91.05-1.38s0-.94 0-1.42v-2.92c0-2 0-4.05-.11-6.14s-.13-4.23-.21-6.36-.19-4.26-.28-6.36-.17-4.16-.24-6.16c0-1-.06-2-.08-2.93s-.06-1.9-.07-2.81 0-1.8 0-2.66v-4.75c0-.72 0-1.4.07-2s0-1.24.06-1.8.06-1.06.09-1.52c.07-1.86.14-2.91.14-2.91Z" fill="#2c8200"/><path d="M371 397.44s.16-.59.48-1.59a27.42 27.42 0 0 1 1.59-4 22.29 22.29 0 0 1 1.4-2.45 18.71 18.71 0 0 1 1.89-2.48 24.72 24.72 0 0 1 2.41-2.25c.87-.72 1.79-1.41 2.69-2.12 1.79-1.42 3.54-2.93 5.11-4.41s3-2.94 4.13-4.21c.58-.64 1.1-1.24 1.56-1.78s.84-1 1.16-1.41.56-.71.73-.92l.25-.33-1 1.21-1.2 1.37c-.47.51-1 1.1-1.6 1.72s-1.24 1.3-1.95 2-1.46 1.41-2.24 2.15a83.438 83.438 0 0 1-5.12 4.36c-.9.71-1.81 1.41-2.68 2.14a24 24 0 0 0-2.42 2.29 14.56 14.56 0 0 0-1 1.24c-.3.44-.59.86-.86 1.29a23.29 23.29 0 0 0-1.37 2.5A23.57 23.57 0 0 0 372 394c-.24.69-.43 1.3-.57 1.81s-.25.92-.31 1.19ZM371 398.25l-.11-.44c-.06-.29-.18-.71-.32-1.25s-.37-1.18-.62-1.92-.57-1.57-.93-2.46c-.72-1.8-1.62-3.87-2.58-6.08s-1.88-4.63-3.12-6.93a23.81 23.81 0 0 0-2.11-3.28c-.8-1-1.66-1.95-2.49-2.84s-1.62-1.76-2.3-2.64a22.58 22.58 0 0 1-1.74-2.59 23.18 23.18 0 0 1-1.93-4.24c-.17-.53-.3-.95-.38-1.24s-.11-.44-.11-.44 0 .15.1.44.17.71.34 1.25a22 22 0 0 0 1.83 4.3 23.82 23.82 0 0 0 1.73 2.65c.68.9 1.47 1.79 2.29 2.68s1.68 1.82 2.45 2.83a22.58 22.58 0 0 1 2.07 3.24c1.23 2.27 2.16 4.67 3.13 6.89s1.93 4.26 2.67 6c.37.89.7 1.71 1 2.45s.5 1.37.67 1.9.29.95.37 1.24Z" fill="#2c8200"/><path fill="#207800" d="m304.977 362.168 5.359-3.118 7.62 13.093-5.358 3.12zM425.584 377.93l4.191-2.44 5.961 10.242-4.192 2.44zM375.872 328.321l5.332-3.1 7.575 13.03-5.332 3.1zM329.136 431.18l5.36-3.118 7.618 13.095-5.36 3.118zM408.827 400.207l6.314 6.116-10.013 10.336-6.313-6.116zM316.028 317.995l4.26 4.505-11.008 10.41-4.26-4.505z"/><path d="M783.31 328.94a271.51 271.51 0 0 0-16.15-24.61 250.61 250.61 0 0 0-18.73-22.55q-7.56-8.06-15.43-14.94c-.71-.63-1.43-1.25-2.16-1.87l-.15-.13-2.15-1.84-.19-.15c-.71-.59-1.43-1.17-2.14-1.74q-5.58-4.46-11.22-8.28l-.22-.15-2-1.3-.45-.29c-.62-.41-1.25-.81-1.87-1.2l-.51-.32-1.86-1.15c-.17-.09-.33-.19-.49-.29-.63-.38-1.27-.76-1.9-1.12l-.32-.18q-4.25-2.46-8.48-4.51l-.53-.26-1.67-.78-.75-.35-1.58-.7-.83-.36-1.54-.65-.86-.35-1.51-.59c-.29-.12-.59-.22-.88-.33l-1.5-.56-.79-.27c-1.74-.61-3.47-1.17-5.2-1.66l-1-.28-1.3-.35c-.36-.09-.71-.19-1.07-.27l-1.26-.31-1.1-.25-1.22-.26-1.13-.22-1.19-.22-1.16-.19-1.15-.18-1.22-.16-1.07-.14c-.52-.06-1-.1-1.57-.15l-1.23-.11-1.66-.11h-5.49l-1.23.05-1 .06-1.24.1-.93.09c-.44 0-.87.1-1.3.15l-.85.11-1.5.24-.62.1c-.69.13-1.39.27-2.07.42l-.56.14-1.51.37-.77.22-1.28.37-.81.26-1.21.41-.81.3-1.19.46c-.26.11-.53.21-.79.33s-.8.34-1.2.52l-.74.34c-.43.21-.86.42-1.28.64l-.63.31c-.62.33-1.25.67-1.86 1-10.42 6.06-18.17 15.57-23.27 27.59-.63 1.5-1.23 3-1.78 4.62-4.15 11.81-6 25.71-5.48 40.92.17 5.22.61 10.6 1.33 16.1q.36 2.79.82 5.63c.23 1.44.48 2.88.75 4.34.32 1.75.68 3.52 1 5.29.1.48.21 1 .31 1.44q1.29 5.82 3 11.77c.18.64.36 1.29.55 1.93q1.29 4.51 2.82 9.07a14.9 14.9 0 0 0 1 2.83q1.71 4.89 3.66 9.82c.36.94.74 1.87 1.12 2.8.47 1.14 1 2.29 1.44 3.44q1.88 4.4 3.93 8.79 2.48 5.25 5.22 10.48l.35.67c1 2 2.08 3.89 3.17 5.83.77 1.38 1.55 2.75 2.35 4.13v.06l.13.23c42.93 73.59 111.38 113.61 153 89.4a53.25 53.25 0 0 0 18.64-18.56 57.85 57.85 0 0 0 6.72-1.72l-1.21-3.72-1-3.22c15.55-36 6.99-94.74-25.31-150.27Z" fill="#392929" opacity=".1"/><ellipse cx="707.85" cy="363.32" rx="87.3" ry="154.55" transform="rotate(-30.19 707.78 363.318)" fill="#f1f1f1"/><path d="M746.63 430c-21.7 12.62-56.75-7-78.14-43.77s-21.12-76.94.58-89.56 56.75 7 78.14 43.77 21.12 76.92-.58 89.56Zm-76.35-131.27c-20.56 12-20.43 50.67.29 86.28s54.3 54.86 74.85 42.9 20.43-50.66-.29-86.27-54.29-54.86-74.85-42.91Z" fill="#e5e5e5"/><path d="M719.43 249.58a196.93 196.93 0 0 1 17.39 13.72 274.75 274.75 0 0 1 30.82 32.22l-.48-.71c-42.55-57.72-100.26-86.46-137-65.08-41.68 24.25-40.67 103.71 2.25 177.49l.17.29c-1.65-3.34-3.39-6.63-4.91-10-.79-1.69-1.63-3.35-2.38-5.06l-2.29-5.13c-2.89-6.86-5.68-13.75-8-20.79a232.11 232.11 0 0 1-10.43-43c-2-14.56-2.43-29.36-.09-43.67a91.13 91.13 0 0 1 5.75-20.7 59.59 59.59 0 0 1 11.4-17.62 22.93 22.93 0 0 1 1.85-1.84l1.91-1.78 2.05-1.6 1-.8c.34-.27.72-.48 1.08-.72a49.17 49.17 0 0 1 9.17-4.88 53.82 53.82 0 0 1 10.08-2.73 60.52 60.52 0 0 1 10.53-.73 76.33 76.33 0 0 1 21.13 3.44 119.17 119.17 0 0 1 20.18 8.22 163.23 163.23 0 0 1 18.82 11.46Z" fill="#f8fbfc"/><path d="m753.07 296.65-99.29 91.59s-21.21-22-32.42-71.12-1-63.61-1-63.61Z" fill="#ec1c24"/><path d="M621.36 317.12c11.21 49.1 32.42 71.12 32.42 71.12l8.42-7.76c-9.55-13.22-23.85-36.56-29.72-64.29-5.51-26.1-4.33-47-2.53-59.57l-9.57-3.11s-10.23 14.49.98 63.61Z" fill="#f2ffde"/><path d="M621.36 317.12c11.21 49.1 32.42 71.12 32.42 71.12l2.88-2.65c-9.41-12.54-25.49-37.29-31.79-67.11-6.25-29.56-3.91-52.49-1.79-64.09l-2.7-.88s-10.23 14.49.98 63.61Z" fill="#8bc53f"/><path d="M637.49 269c2.38.41 9.69 2.2 9.08 2.63s-7.88 1.84-10.34 1.53c-1.34-.23-.99-4.6 1.26-4.16ZM702 321.44c2.12-1.15 9-4.27 8.75-3.56s-5 6.33-7.17 7.61c-1.14.69-3.58-2.96-1.58-4.05ZM650.91 324.25c2.33-.61 9.73-2 9.35-1.36s-6.4 4.94-8.78 5.67c-1.29.44-2.78-3.73-.57-4.31ZM685.77 302.23c-2.16 1.08-9.1 4-8.87 3.27s5.25-6.16 7.42-7.37c1.18-.65 3.49 3.08 1.45 4.1ZM674.78 351.05c-2.15 1.08-9.1 4-8.86 3.27s5.24-6.16 7.41-7.37c1.18-.66 3.5 3.05 1.45 4.1ZM662.65 285.68c-2.39-.26-9.8-1.59-9.22-2.06s7.75-2.33 10.22-2.17c1.35.08 1.28 4.47-1 4.23Z" fill="#333"/><path d="m620.38 253.51 132.69 43.14s-130.87-17.86-135.42-21.91-1.3-11.34 2.73-21.23Z" fill="#fff" opacity=".2"/><path d="m754 310.36-82.16 107.25s-24.68-18.06-44.14-64.51-11.87-62.5-11.87-62.5Z" fill="#ec1c24"/><path d="M627.7 353.1c19.46 46.45 44.14 64.51 44.14 64.51l7-9.09c-11.67-11.39-29.77-31.93-40.29-58.25-9.91-24.76-12.34-45.59-12.71-58.25l-10-1.42s-7.6 16.05 11.86 62.5Z" fill="#f2ffde"/><path d="M627.7 353.1c19.46 46.45 44.14 64.51 44.14 64.51l2.38-3.11c-11.42-10.73-31.5-32.36-42.83-60.66-11.22-28-12.85-51-12.75-62.84l-2.81-.4s-7.59 16.05 11.87 62.5Z" fill="#8bc53f"/><path d="M635.34 302.87c2.41 0 9.93.52 9.4 1s-7.45 3.17-9.93 3.28c-1.35.1-1.75-4.28.53-4.28ZM707.91 343.53c1.89-1.5 8.1-5.75 8-5s-3.88 7.1-5.76 8.72c-1.01.88-4.03-2.31-2.24-3.72ZM658 355.06c2.19-1 9.24-3.65 9-2.95s-5.46 6-7.68 7.1c-1.18.61-3.32-3.21-1.32-4.15ZM688.61 327.39c-1.94 1.43-8.29 5.48-8.17 4.74s4.11-7 6-8.53c1.09-.85 4.01 2.4 2.17 3.79ZM686.15 377.36c-1.93 1.44-8.28 5.48-8.17 4.75s4.11-7 6-8.53c1.09-.85 4.02 2.42 2.17 3.78ZM663 315c-2.41.16-9.94.12-9.44-.44s7.23-3.63 9.7-3.9c1.34-.1 2.02 4.24-.26 4.34Z" fill="#333"/><path d="M615.83 290.6 754 310.36S622 315.2 616.78 312s-3.22-11-.95-21.4Z" fill="#fff" opacity=".2"/><path d="m747 326.07-49.54 125.67s-28.69-10.6-60.15-49.92S608.75 345 608.75 345Z" fill="#ec1c24"/><path d="M637.31 401.82c31.46 39.32 60.15 49.92 60.15 49.92l4.2-10.65c-14.35-7.75-37.39-22.54-54.73-44.95-16.33-21.1-24.38-40.46-28.2-52.53l-10 1.36s-2.87 17.52 28.58 56.85Z" fill="#f2ffde"/><path d="M637.31 401.82c31.46 39.32 60.15 49.92 60.15 49.92l1.44-3.64c-13.93-7.19-39.18-22.48-57.83-46.59-18.49-23.89-26.37-45.55-29.51-56.92l-2.81.38s-2.89 17.52 28.56 56.85Z" fill="#8bc53f"/><path d="M630.88 351.42c2.32-.66 9.68-2.23 9.32-1.58s-6.29 5.09-8.65 5.88c-1.28.43-2.86-3.67-.67-4.3ZM711.82 370.61c1.4-2 6.21-7.75 6.33-7s-1.79 7.9-3.15 10c-.74 1.08-4.52-1.15-3.18-3ZM667 395.38c1.83-1.57 7.88-6 7.82-5.3s-3.61 7.24-5.43 8.93c-.96.92-4.1-2.15-2.39-3.63ZM688.83 360.38c-1.47 1.91-6.46 7.55-6.56 6.81s2-7.83 3.47-9.86c.78-1.11 4.48 1.24 3.09 3.05ZM700.18 409.11c-1.47 1.91-6.46 7.55-6.56 6.81s2-7.83 3.47-9.86c.78-1.06 4.49 1.24 3.09 3.05ZM660.81 355.54c-2.27.8-9.52 2.83-9.19 2.16s6-5.47 8.25-6.41c1.26-.5 3.13 3.48.94 4.25Z" fill="#333"/><path d="M608.75 345 747 326.07s-125.6 40.87-131.46 39.21-6.11-9.65-6.79-20.28Z" fill="#fff" opacity=".2"/><path d="m770.24 325.65-10.4 134.68s-30.54-1.69-72.17-30-44-45.94-44-45.94Z" fill="#ec1c24"/><path d="M687.67 430.3c41.63 28.34 72.17 30 72.17 30l.88-11.42c-16-3.18-42.36-10.54-65.53-26.87-21.8-15.37-35.19-31.51-42.39-41.92l-9.14 4.24S646 402 687.67 430.3Z" fill="#f2ffde"/><path d="M687.67 430.3c41.63 28.34 72.17 30 72.17 30l.3-3.9c-15.43-2.78-44-10-69-27.53-24.69-17.4-38.59-35.79-44.94-45.73l-2.57 1.19S646 402 687.67 430.3Z" fill="#8bc53f"/><path d="M666.71 384c2-1.32 8.6-5 8.44-4.25s-4.52 6.71-6.54 8.16c-1.1.8-3.82-2.64-1.9-3.91ZM749.71 378.56c.77-2.28 3.66-9.23 4-8.57s.61 8.07-.08 10.46c-.38 1.29-4.63.27-3.92-1.89ZM714.18 415.41c1.29-2 5.76-8.1 5.92-7.37s-1.33 8-2.57 10.13c-.67 1.17-4.53-.84-3.35-2.76ZM724.73 375.55c-.84 2.25-4 9.11-4.27 8.43s-.35-8.09.42-10.45c.41-1.28 4.65-.12 3.85 2.02ZM749.91 418.79c-.85 2.25-4 9.11-4.27 8.43s-.35-8.09.41-10.45c.42-1.28 4.66-.13 3.86 2.02ZM696.53 379.15c-1.94 1.44-8.27 5.51-8.16 4.77s4.09-7 6-8.55c1.06-.85 3.99 2.42 2.16 3.78Z" fill="#333"/><path d="m643.66 384.36 126.58-58.71s-108 76-114.13 76.12-8.67-7.42-12.45-17.41Z" fill="#fff" opacity=".2"/><path d="m769.24 348.14 41.68 128.49s-28.88 10.07-78.16-.28-58.2-25.71-58.2-25.71Z" fill="#ec1c24"/><path d="M732.76 476.35c49.28 10.35 78.16.28 78.16.28l-3.53-10.89c-16 3.15-43.19 6.38-70.83.11-26-5.9-44.54-15.72-55.16-22.61l-6.84 7.4s8.91 15.36 58.2 25.71Z" fill="#f2ffde"/><path d="M732.76 476.35c49.28 10.35 78.16.28 78.16.28l-1.21-3.72c-15.32 3.31-44.52 7.56-74.25.82-29.46-6.68-49.32-18.4-59-25.17l-1.93 2.08s8.94 15.36 58.23 25.71Z" fill="#8bc53f"/><path d="M695.75 441.55c1.36-2 6-7.88 6.18-7.15s-1.62 7.93-2.94 10c-.71 1.18-4.54-.97-3.24-2.85ZM770.41 404.89c-.16-2.41-.13-9.94.43-9.44s3.64 7.22 3.91 9.69c.14 1.34-4.19 2.03-4.34-.25ZM751.59 452.49c.42-2.38 2.25-9.68 2.67-9.07s1.81 7.89 1.49 10.35c-.18 1.34-4.55.97-4.16-1.28ZM746.17 411.61c.08 2.41-.2 9.94-.74 9.42s-3.4-7.34-3.59-9.81c-.11-1.35 4.25-1.89 4.33.39ZM785.91 442c.08 2.41-.19 9.94-.73 9.43s-3.4-7.34-3.59-9.82c-.11-1.35 4.25-1.89 4.32.39ZM721.46 425.69c-1.24 2.07-5.54 8.24-5.72 7.52s1.12-8 2.3-10.2c.64-1.19 4.6.72 3.42 2.68Z" fill="#333"/><path d="m674.56 450.64 94.68-102.5s-71 111.42-76.53 113.86-10.85-3.57-18.15-11.36Z" fill="#fff" opacity=".2"/><g opacity=".2" style="mix-blend-mode:multiply"><circle cx="136.41" cy="272.24" r="112.01" transform="rotate(-87.6 136.417 272.243)" fill="#595959"/><path d="M210.12 272.24a73.71 73.71 0 1 1-73.71-73.71 73.71 73.71 0 0 1 73.71 73.71Z" fill="#595959"/><path d="M135.63 264.81a39.52 39.52 0 1 0 39.51 39.52 39.52 39.52 0 0 0-39.51-39.52Zm0 50a10.48 10.48 0 1 1 10.48-10.48 10.48 10.48 0 0 1-10.48 10.48Z" fill="#595959"/><path d="M115.47 290.62a1.62 1.62 0 0 1-1.45-.89l-3.22-6.45a1.61 1.61 0 1 1 2.88-1.45l3.23 6.46a1.61 1.61 0 0 1-.72 2.16 1.58 1.58 0 0 1-.72.17ZM144.73 327.83a1.49 1.49 0 0 1-.61-.13 1.62 1.62 0 0 1-.88-2.1l2.75-6.67a1.61 1.61 0 1 1 3 1.23l-2.74 6.67a1.63 1.63 0 0 1-1.52 1ZM129.34 281.27a1.36 1.36 0 0 1-.29 0 1.61 1.61 0 0 1-1.3-1.88l1.29-7.09a1.61 1.61 0 1 1 3.17.57l-1.29 7.1a1.61 1.61 0 0 1-1.58 1.3ZM136.42 289a1.61 1.61 0 0 1-.71-3.06l6.47-3.17a1.61 1.61 0 1 1 1.43 2.89l-6.48 3.18a1.63 1.63 0 0 1-.71.16ZM154.8 295.7a1.74 1.74 0 0 1-.45-.06 1.61 1.61 0 0 1-1.1-2l2-6.94a1.62 1.62 0 0 1 3.11.88l-2 6.94a1.62 1.62 0 0 1-1.56 1.18ZM143.85 344.17h-.29a1.61 1.61 0 0 1-1.3-1.87l1.3-7.1a1.61 1.61 0 1 1 3.17.58l-1.29 7.09a1.62 1.62 0 0 1-1.59 1.3ZM162.24 332.55a1.55 1.55 0 0 1-.72-.17l-6.45-3.22a1.6 1.6 0 0 1-.73-2.16 1.62 1.62 0 0 1 2.17-.72l6.45 3.21a1.62 1.62 0 0 1-.72 3.06ZM156.45 315.13a1.61 1.61 0 0 1-1.58-1.31l-1.33-7.09a1.61 1.61 0 1 1 3.16-.6l1.34 7.09a1.61 1.61 0 0 1-1.29 1.88ZM119.94 277.88a1.62 1.62 0 0 1-1.52-1.06l-2.49-6.77a1.61 1.61 0 0 1 3-1.11l2.49 6.77a1.61 1.61 0 0 1-1 2.07 1.78 1.78 0 0 1-.48.1ZM141.67 275.11a1.61 1.61 0 0 1-1-2.88l5.66-4.46a1.6 1.6 0 0 1 2.26.26 1.63 1.63 0 0 1-.26 2.27l-5.67 4.47a1.59 1.59 0 0 1-.99.34ZM164.25 304.14a1.61 1.61 0 0 1-1-2.87l5.66-4.47a1.61 1.61 0 0 1 2.26.26 1.63 1.63 0 0 1-.26 2.27l-5.67 4.47a1.59 1.59 0 0 1-.99.34ZM160.86 280.33a1.8 1.8 0 0 1-.45-.06l-6.92-2a1.61 1.61 0 1 1 .89-3.09l6.93 2a1.61 1.61 0 0 1-.45 3.16ZM168.32 323a1.62 1.62 0 0 1-1.51-1.06l-2.49-6.77a1.61 1.61 0 1 1 3-1.11l2.5 6.77a1.62 1.62 0 0 1-1 2.07 1.54 1.54 0 0 1-.5.1ZM102.89 297.68a1.37 1.37 0 0 1-.28 0l-7.1-1.22a1.63 1.63 0 0 1-1.32-1.87 1.61 1.61 0 0 1 1.87-1.31l7.1 1.22a1.61 1.61 0 0 1-.27 3.2ZM127.08 334.78h-.27l-7.11-1.23a1.61 1.61 0 0 1 .55-3.18l7.11 1.23a1.61 1.61 0 0 1-.28 3.2ZM115.4 306.72a1.54 1.54 0 0 1-.74-.19 1.6 1.6 0 0 1-.68-2.17l3.34-6.39a1.61 1.61 0 0 1 2.86 1.49l-3.35 6.39a1.62 1.62 0 0 1-1.43.87ZM108.63 317a1.64 1.64 0 0 1-1-.34l-5.7-4.43a1.61 1.61 0 1 1 2-2.55l5.69 4.43a1.61 1.61 0 0 1 .29 2.26 1.63 1.63 0 0 1-1.28.63ZM119.32 320.54a1.61 1.61 0 0 1-1.12-2.77l5.19-5a1.61 1.61 0 0 1 2.24 2.32l-5.19 5a1.61 1.61 0 0 1-1.12.45ZM107.12 334a1.66 1.66 0 0 1-.85-.24 1.61 1.61 0 0 1-.52-2.22l3.78-6.14a1.62 1.62 0 0 1 2.75 1.7l-3.79 6.14a1.6 1.6 0 0 1-1.37.76ZM138.21 334.08a1.59 1.59 0 0 1-1.4-.82l-3.56-6.26a1.61 1.61 0 0 1 2.81-1.59l3.55 6.27a1.62 1.62 0 0 1-1.4 2.41ZM105.24 242.69c6.5 24.8-7.34 49.9-30.9 56.07S26.41 289.83 19.92 265s7.34-49.9 30.9-56.07 47.93 8.96 54.42 33.76Z" fill="#595959"/><path d="M105 252.78v-1.34c0-.11 0-.23.07-.35s0-.15-.06-.13a57.88 57.88 0 0 0-1.71-15.37 44.1 44.1 0 1 0-74.9 41.28l2.64 10.07a1.93 1.93 0 0 0 3.74-1l-1.14-4.33c.42.32.84.64 1.27.94l4.24 16.21a2.22 2.22 0 0 0 4.29-1.13l-3.07-11.73A44.57 44.57 0 0 0 45 288l1.36 5.18a2 2 0 1 0 3.92-1l-.7-2.67a43.92 43.92 0 0 0 22.34 0c20.26-5.31 11.59-21.86 17.4-18.53a14 14 0 0 0 2 1l2.32 8.85a1.74 1.74 0 1 0 3.36-.88l-1.93-7.37a6.53 6.53 0 0 0 2-.47l.45 1.73a1.26 1.26 0 0 0 2.43-.64l-.66-2.53a16.16 16.16 0 0 0 4-7 9.5 9.5 0 0 1 2.6 6 2 2 0 0 0 2.18 1.86 2 2 0 0 0 .35-.06 2 2 0 0 0 1.51-2.11c-.78-9.36-4.59-12.88-4.93-16.58Z" fill="#595959"/><path d="M54 262.47c2 1.07 1.22 2.76.16 3s-3.43.13-4-2-.49-5.37.58-5.6c3.26-.69 1.79 3.8 3.26 4.6ZM44.74 259.06a1.31 1.31 0 0 1-1.57-.88 6.14 6.14 0 0 0-3-4 4.41 4.41 0 0 0-1.13-.36 1.71 1.71 0 0 1-1.52-1 2.32 2.32 0 0 1-.16-1.22c-.07-.58.73-1.45 2.28-1.54 2.14-.13 5.28 2.09 6 7.43a1.38 1.38 0 0 1-.86 1.62ZM46.9 235.37s-1.58-2.43-3.15-.59 1.31 4.39 1.27 4.87 2.72 4.34 4.4 2.32-1.39-4.69-1.65-5.09-.87-1.51-.87-1.51ZM62.21 231.51a1.88 1.88 0 0 0-.62 3c1.47 1.8 1.16-.91 1.16-.91a1.25 1.25 0 0 1 1.11-1.09c.99-.09.14-1.86-1.65-1ZM89.87 247.21s-2.82-.86-3.09 4.2-.2 7.63 1.34 7.43 3.14-.22 3.59-1.54 1.91-9.48-1.84-10.09Z" fill="#595959"/><path d="M97.51 273.74a1.26 1.26 0 0 0 2.43-.64l-.66-2.53a16.16 16.16 0 0 0 4-7 9.5 9.5 0 0 1 2.6 6 2 2 0 0 0 2.18 1.86 2 2 0 0 0 .35-.06 2 2 0 0 0 1.51-2.11c-.73-9.28-4.54-12.8-4.85-16.5v-1.34c0-.11 0-.23.07-.35s0-.15-.06-.13a57.88 57.88 0 0 0-1.71-15.37 44.1 44.1 0 0 0-53.82-31.47s32.07 15.47 31.51 36.13S84.6 253 84.6 253s-1 27.33-5.81 30.07a19.86 19.86 0 0 0-6.9 6.33c20.26-5.31 11.59-21.86 17.4-18.53a14 14 0 0 0 2 1l2.32 8.85a1.74 1.74 0 1 0 3.36-.88l-1.93-7.37a6.53 6.53 0 0 0 2-.47l.45 1.73" fill="#595959" opacity=".17"/><path d="M44.55 266.84c.51 2 2.65 3.29 1.25 3.66s-4-.64-4.57-2.6 1.28-4.49 2.72-4.5c3.88-.02.05 1.48.6 3.44ZM63.31 250.51c-1.81.31 2.35 4-2.32 5.24-1.29.33-3-4.31-2.36-6.52s2.14-3.72 3.43-3.37 3.5 4.25 1.25 4.65ZM51.74 255.08a3.1 3.1 0 0 1-.42.08 2.81 2.81 0 0 1-3.08-2.5 9.64 9.64 0 0 1 .76-4.21 2.8 2.8 0 0 1 5.18 2.11 4.94 4.94 0 0 0-.37 1.53 2.8 2.8 0 0 1-2.07 2.99ZM83 253a2.08 2.08 0 0 1-1.09 2.68c-.93.25-1.94-.56-2.27-1.8a2.1 2.1 0 0 1 1.09-2.68c.94-.27 1.96.53 2.27 1.8ZM76.82 234.64s-4.14-1.31-4.27 3.51 1.57 6.78 2.18 6.82 2.58.72 2.45-2.84.43-3.7.79-4.6.3-2.67-1.15-2.89ZM92.43 232.55a2.09 2.09 0 0 1-1.1 2.68c-.92.24-1.94-.56-2.26-1.8a2.08 2.08 0 0 1 1.09-2.68c.93-.24 1.94.56 2.27 1.8ZM100 236.09c1.13 1.68 1.33 3.52.44 4.11s-2.51-.28-3.65-2-1.33-3.52-.45-4.12 2.55.33 3.66 2.01ZM77.05 221.81s-4.17.1-1.84 2.88 5.92 2 5.62.92-1.72-3.54-3.78-3.8ZM104.55 180.05c-1.07-.89-10.14 4.41-10.88 3.12-2.06-3.55.14-9.57 4-15.7 5.68-8.92 15-18.08 20.07-20.21 9.23-3.87 20-4.88 23.5-3.8s4 1.29 3.9 3.36-2 2.5-4 3.54c-.1 0-9.1 2.5-13.57 9.1a14 14 0 0 0-2.39 6.57c-1.06 10.84-11.71.05-14.65 12a3.76 3.76 0 0 1-4.55 2.75 3.6 3.6 0 0 1-1.43-.73Z" fill="#595959"/><path d="M127.65 159.46a14 14 0 0 0-2.39 6.57c-1.06 10.84-11.71.05-14.65 12a3.76 3.76 0 0 1-4.55 2.75 3.6 3.6 0 0 1-1.51-.76c-1.07-.89-10.14 4.41-10.88 3.12-2.06-3.55.14-9.57 4-15.7 0 0 21.94-13.73 28.14-8.95Z" fill="#595959"/><path d="M108.54 180.57a3.73 3.73 0 0 0 2.07-2.51c2.94-12 13.59-1.19 14.65-12 1.13-11.61 15.83-15.6 16-15.67s3.64-3.66-1.47-4.15-20.75 5.32-26.9 17.53-3.13 9.19-3.13 9.19 2-1.13 1.23 0-2.54 2.15-2.54 3.66.5 2.42 0 3.28-.66 1.02.09.67Z" fill="#595959"/><path d="M127.65 159.46a14 14 0 0 0-2.39 6.57c-1.06 10.84-13.92-1.39-16.86 10.59-.5 2-1.05-15.18 7.25-17.86 4.23-1.36 8.11-1.85 10.2-.24Z" fill="#595959"/><path d="M130.33 182.56a33.87 33.87 0 0 0-.82-7.46c-.89-3.76 1.11-7.37-.89-8.28-1.78-.81-7.24-1.72-19.13 5.22a90.55 90.55 0 0 0-4.78 3c-15.24 10.16-16.26 11.07-15.59 13.89s.38 11.61 2.85 14.68 4 4.56 5.79 4.81c.92.13 9.52-6.72 17.65-13.41 7.67-6.3 14.92-12.45 14.92-12.45Z" fill="#595959"/><path d="M92 203.61c2.48 3.06 4 4.56 5.79 4.81.92.13 9.52-6.72 17.65-13.41 7.67-6.3 14.92-12.45 14.92-12.45a33.87 33.87 0 0 0-.82-7.46Z" fill="#595959"/><path d="M114.42 194.8c8-5.79 15.68-11.47 15.68-11.47a34 34 0 0 0-.33-7.49c-.65-3.81 1.57-7.28-.36-8.32-1.73-.93-2.82-5.71-19.43 4l-2 8.61s.62 1.22-1.13 2.22-6.06 3-4.65 4.63 3.78-1.47 3.78-1.47 2.8-2.66 4.48-.8-1.26 4.63 1.57 7.85 2.39 2.24 2.39 2.24Z" fill="#595959"/><path d="M115.41 195c7.67-6.3 14.92-12.45 14.92-12.45a33.87 33.87 0 0 0-.82-7.46l-19 14.44s-3.23 12.17 4.9 5.47Z" fill="#595959"/><path d="M139.87 194a12.27 12.27 0 0 1-4.22-7.29c-.7-4.6-1.57-8.08-4.8-6s-10.15 7.37-14.57 10c-.76.45-1.94 1.21-3.38 2.21-7 4.85-20 15.14-18.6 19.67a34.75 34.75 0 0 0 8.3 13.62 19.91 19.91 0 0 0 4.48 3.3l3.78-.62 16.6-13.7 7.48-6.18 4.19-12.58Z" fill="#595959"/><path d="M135.54 187s-3.57 15-13 21.35-19.92 17.86-19.92 17.86a19.91 19.91 0 0 0 4.48 3.3l3.78-.62 16.6-13.7 7.48-6.18 4.19-12.58.74-2.39a12.27 12.27 0 0 1-4.22-7.29M191.53 252.34c1.09.87-2.28 10.81-.87 11.28 3.92 1.31 9.42-2.1 14.68-7.22 7.56-7.36 14.6-18.24 15.65-23.62 1.94-9.82.76-20.59-1-23.78s-2.07-3.69-4.08-3.15-2 2.46-2.66 4.59c0 .11-.53 7.88-4.86 13.57a14.38 14.38 0 0 1-7.29 5.22c-10.4 3.21 2.31 11.48-8.83 16.77a3.76 3.76 0 0 0-1.79 5 3.83 3.83 0 0 0 1.05 1.34Z" fill="#595959"/><path d="M208.39 224a14.38 14.38 0 0 1-7.29 5.22c-10.4 3.21 2.31 11.48-8.83 16.77a3.76 3.76 0 0 0-1.79 5 3.83 3.83 0 0 0 1.05 1.33c1.09.87-2.28 10.81-.87 11.28 3.92 1.31 9.42-2.1 14.68-7.22 0 0 6.19-14.23 5.59-20.34s-1-9.65-1.77-10.72-.77-1.32-.77-1.32Z" fill="#595959"/><path d="M221 232.78c2-9.8.76-20.59-1-23.78s-2.07-3.69-4.08-3.15-2 2.46-2.66 4.59c0 .14-1 15.35-12.15 18.79-10.4 3.21 2.31 11.48-8.83 16.77 0 0 17.65-2.22 20.84-4.84s7.41-6.16 7.88-8.38Z" fill="#595959"/><path d="M208.39 224a14.38 14.38 0 0 1-7.29 5.22c-10.4 3.21 2.31 11.48-8.83 16.77-1.88.89 16.28 3 17.85-3.38a21.38 21.38 0 0 0 .81-6.56c-.61-6.11-1-9.65-1.77-10.72s-.77-1.33-.77-1.33Z" fill="#595959"/><path d="M183.89 227.58a34 34 0 0 1 7.48-.69c3.86.12 7-2.57 8.28-.79 1.2 1.63 3.28 7.1-1.73 21.12-.44 1.25-.94 2.57-1.51 3.95-6.89 17-7.58 18.15-10.48 18.06-1.79-.05-5.78.72-9.38.88a12 12 0 0 1-5.56-.72c-3.5-1.81-5.28-3-5.88-4.7-.3-.86 4.37-10.1 9.14-19.14s9.64-17.97 9.64-17.97Z" fill="#595959"/><path d="M191.37 226.89a34 34 0 0 0-7.48.69s-4.86 8.89-9.64 18-9.44 18.28-9.14 19.14c.6 1.72 2.38 2.89 5.88 4.7a12 12 0 0 0 5.56.72s13.91-20.86 15.47-34.54c0 0 .79-4.94-.57-8.32" fill="#595959"/><path d="M174.25 245.55s2.25 2.8 3.78 3.07 8.72-2 10.8-1.81a13.09 13.09 0 0 1 5.21 1.58c2.15 1 3.88-1.17 3.88-1.17 5-14 2.93-19.49 1.73-21.12-1.29-1.78-4.42.91-8.28.79a34 34 0 0 0-7.48.69s-4.86 8.89-9.64 18" fill="#595959"/><path d="M191.37 226.89a34 34 0 0 0-7.48.69s-10.12 7.72-9.64 18c0 .15 9.05 8.88 14.65 1.29 2.5-3.38 2.72-7.82 3.12-11.27 0 0 .79-4.94-.57-8.32" fill="#595959"/><path d="M170.75 220.54a12.27 12.27 0 0 0 8 2.68c4.64-.25 8.23-.1 6.84 3.49s-5.18 11.42-6.83 16.28c-.31.89-.88 2.35-1.66 4.14-3.42 7.93-10.71 22.27-15.36 21.78a35 35 0 0 1-7.64-1.76c-4.29-1.49-8.68-3.9-11.5-7.36l-.15-3.83 10-18.84 4.63-8.74 11.48-6.64Z" fill="#595959"/><path d="M178.74 223.22a12.27 12.27 0 0 1-8-2.68l-2.2 1.2-11.48 6.64-4.63 8.74-10 18.84.15 3.83c2.82 3.46 7.21 5.87 11.5 7.36 0 0 22.61-24.85 24.3-41.36l.39-2.46M127.46 215.17l7.48-6.18 4.19-12.58.74-2.39a12.27 12.27 0 0 1-4.22-7.29c-.7-4.6-1.57-8.08-4.8-6s-10.15 7.37-14.57 10c-.76.45-1.94 1.21-3.38 2.21 0 0 4.57 3.3 4.84 6.29a6.69 6.69 0 0 1-2.19 6c-1.39 1.36-1.86 3.73.19 3.68s2.87-3.14 3.86-2.82 3.31 1.75 4.62 5.61 3.24 3.47 3.24 3.47Z" fill="#595959"/><path d="M135.54 187s-4 14.32-13 21.35c-1.32 1 2.41 5.43 2.41 5.43l10-4.77 4.19-12.58.74-2.39a12.27 12.27 0 0 1-4.22-7.29M177.09 247.13c.78-1.79 1.35-3.25 1.66-4.14 1.65-4.86 5.45-12.69 6.83-16.28s-2.2-3.74-6.84-3.49a12.27 12.27 0 0 1-8-2.68l-2.2 1.2-11.48 6.64-4.63 8.74-1.19 2.24 12.89 4.23h3.16c1.24 0 5.37.27 7.62 2.39s2.18 1.15 2.18 1.15Z" fill="#595959"/><path d="M178.74 223.22a12.27 12.27 0 0 1-8-2.68l-2.2 1.2-11.48 6.64-4.63 8.74s16.48 10.26 18.35 7.65a41.79 41.79 0 0 0 7.6-19l.39-2.46" fill="#595959"/><path d="m132.2 256.93-6.48-4a35.29 35.29 0 0 1-8.51-7.27l-8.15-9.54c-3-2.49-2.61-5.65-.1-8.62l15.84-13.87c3.19-3 7.2-6 9.4-9.82l4.12-8.87c1.36-1.52 3.28-2.29 4.84-1a16.5 16.5 0 0 0 7.1 5.65c8.42 3.75 11.79 6.55 18.29 12.72 5.93 5.64 6.31 14.4 2.5 21.65a52.79 52.79 0 0 1-7.08 9.56 148.15 148.15 0 0 1-10.77 10.75c-7.85 8.58-14.69 7.1-21 2.66Z" fill="#595959"/><path d="M164 243.57c3.73-2 5.66-6.34 7.64-9 7.69-10.48 2.87-16.52-3.06-22.16-6.5-6.17-9.87-9-18.29-12.72a16.5 16.5 0 0 1-7.1-5.65c-1.56-1.3-3.48-.53-4.84 1l-6.16 9.18a38.43 38.43 0 0 1-7.36 9.51s.66 2.49 5.8 4.76 5.22 6.1 8.11 7.76 3.29 4.49 1.71 6.69-5.66 7.09-4 8.45 4-.91 4.62-1.93 2-5.38 3.83-4.6 3.71 1.58 2.15 4.06 0 4.79 1.59 3.82 3.65-6.5 5.65-4.08 7.94 5.85 9.71 4.91ZM245.93 301.77A33.82 33.82 0 1 1 212.11 268a33.82 33.82 0 0 1 33.82 33.77Z" fill="#595959"/><path d="M242.18 301.77a30.07 30.07 0 1 1-30.07-30.07 30.07 30.07 0 0 1 30.07 30.07Z" fill="#595959"/><path d="M233.61 301.77c-3.3 12.72-8.35 23.79-21.5 23.79s-22.22-10.74-23.79-23.79c-2.12-17.7 10-20.86 23.16-20.86s26.52 3.79 22.13 20.86Z" fill="#595959"/><path d="M233.13 289.59a26 26 0 0 1-16.68 30.32 17 17 0 0 1-22.29-12.27 16.65 16.65 0 0 1 10.67-19.4 10.87 10.87 0 0 1 14.27 7.85 10.67 10.67 0 0 1-6.83 12.42 7 7 0 0 1-9.13-5 6.8 6.8 0 0 1 4.37-7.94 4.45 4.45 0 0 1 5.84 3.21 4.37 4.37 0 0 1-2.8 5.09 2.86 2.86 0 0 1-3.74-2.06" fill="none" stroke="#595959" stroke-linecap="round" stroke-linejoin="round" stroke-width="2"/><path d="M177.9 384.13a26 26 0 1 1 28.63-23.07 26 26 0 0 1-28.63 23.07Z" fill="#595959"/><path d="M178.21 381.27a23.12 23.12 0 1 1 25.45-20.52 23.12 23.12 0 0 1-25.45 20.52Z" fill="#595959"/><path d="M178.91 374.71c-9.45-3.57-17.5-8.34-16.42-18.38s10-16.11 20.14-16.24c13.7-.16 15.12 9.38 14 19.42s-5.04 19.98-17.72 15.2Z" fill="#595959"/><path d="M188.26 375.35a20 20 0 0 1-21.81-15.24 13.06 13.06 0 0 1 11.21-16 12.81 12.81 0 0 1 14 9.75 8.37 8.37 0 0 1-7.18 10.27 8.19 8.19 0 0 1-8.93-6.25 5.34 5.34 0 0 1 4.59-6.56 5.24 5.24 0 0 1 5.72 4 3.43 3.43 0 0 1-2.94 4.21 3.36 3.36 0 0 1-3.66-2.56 2.19 2.19 0 0 1 1.88-2.69" fill="none" stroke="#595959" stroke-linecap="round" stroke-linejoin="round"/></g><circle cx="138.41" cy="264.24" r="112.01" transform="rotate(-87.6 138.42 264.246)" fill="#f1f1f1"/><path d="M212.12 264.24a73.71 73.71 0 1 1-73.71-73.71 73.71 73.71 0 0 1 73.71 73.71Z" fill="#ccc"/><path d="M137.63 256.81a39.52 39.52 0 1 0 39.51 39.52 39.52 39.52 0 0 0-39.51-39.52Zm0 50a10.48 10.48 0 1 1 10.48-10.48 10.48 10.48 0 0 1-10.48 10.48Z" fill="#824217"/><path d="M117.47 282.62a1.62 1.62 0 0 1-1.45-.89l-3.22-6.45a1.61 1.61 0 1 1 2.88-1.45l3.23 6.46a1.61 1.61 0 0 1-.72 2.16 1.58 1.58 0 0 1-.72.17Z" fill="#ff4c6c"/><path d="M146.73 319.83a1.49 1.49 0 0 1-.61-.13 1.62 1.62 0 0 1-.88-2.1l2.75-6.67a1.61 1.61 0 1 1 3 1.23l-2.74 6.67a1.63 1.63 0 0 1-1.52 1Z" fill="#86ebee"/><path d="M131.34 273.27a1.36 1.36 0 0 1-.29 0 1.61 1.61 0 0 1-1.3-1.88l1.29-7.09a1.61 1.61 0 1 1 3.17.57l-1.29 7.1a1.61 1.61 0 0 1-1.58 1.3Z" fill="#ff8c95"/><path d="M138.42 281a1.61 1.61 0 0 1-.71-3.06l6.47-3.17a1.61 1.61 0 1 1 1.43 2.89l-6.48 3.18a1.63 1.63 0 0 1-.71.16Z" fill="#ff4c6c"/><path d="M156.8 287.7a1.74 1.74 0 0 1-.45-.06 1.61 1.61 0 0 1-1.1-2l2-6.94a1.62 1.62 0 0 1 3.11.88l-2 6.94a1.62 1.62 0 0 1-1.56 1.18Z" fill="#86ebee"/><path d="M145.85 336.17h-.29a1.61 1.61 0 0 1-1.3-1.87l1.3-7.1a1.61 1.61 0 1 1 3.17.58l-1.29 7.09a1.62 1.62 0 0 1-1.59 1.3ZM164.24 324.55a1.55 1.55 0 0 1-.72-.17l-6.45-3.22a1.6 1.6 0 0 1-.73-2.16 1.62 1.62 0 0 1 2.17-.72l6.45 3.21a1.62 1.62 0 0 1-.72 3.06Z" fill="#ff8c95"/><path d="M158.45 307.13a1.61 1.61 0 0 1-1.58-1.31l-1.33-7.09a1.61 1.61 0 1 1 3.16-.6l1.34 7.09a1.61 1.61 0 0 1-1.29 1.88Z" fill="#ff4c6c"/><path d="M121.94 269.88a1.62 1.62 0 0 1-1.52-1.06l-2.49-6.77a1.61 1.61 0 0 1 3-1.11l2.49 6.77a1.61 1.61 0 0 1-1 2.07 1.78 1.78 0 0 1-.48.1ZM143.67 267.11a1.61 1.61 0 0 1-1-2.88l5.66-4.46a1.6 1.6 0 0 1 2.26.26 1.63 1.63 0 0 1-.26 2.27l-5.67 4.47a1.59 1.59 0 0 1-.99.34Z" fill="#f2d160"/><path d="M166.25 296.14a1.61 1.61 0 0 1-1-2.87l5.66-4.47a1.61 1.61 0 0 1 2.26.26 1.63 1.63 0 0 1-.26 2.27l-5.67 4.47a1.59 1.59 0 0 1-.99.34Z" fill="#ff8c95"/><path d="M162.86 272.33a1.8 1.8 0 0 1-.45-.06l-6.92-2a1.61 1.61 0 1 1 .89-3.09l6.93 2a1.61 1.61 0 0 1-.45 3.16Z" fill="#fff"/><path d="M170.32 315a1.62 1.62 0 0 1-1.51-1.06l-2.49-6.77a1.61 1.61 0 1 1 3-1.11l2.5 6.77a1.62 1.62 0 0 1-1 2.07 1.54 1.54 0 0 1-.5.1Z" fill="#f2d160"/><path d="M104.89 289.68a1.37 1.37 0 0 1-.28 0l-7.1-1.22a1.63 1.63 0 0 1-1.32-1.87 1.61 1.61 0 0 1 1.87-1.31l7.1 1.22a1.61 1.61 0 0 1-.27 3.2Z" fill="#86ebee"/><path d="M129.08 326.78h-.27l-7.11-1.23a1.61 1.61 0 0 1 .55-3.18l7.11 1.23a1.61 1.61 0 0 1-.28 3.2ZM117.4 298.72a1.54 1.54 0 0 1-.74-.19 1.6 1.6 0 0 1-.68-2.17l3.34-6.39a1.61 1.61 0 0 1 2.86 1.49l-3.35 6.39a1.62 1.62 0 0 1-1.43.87Z" fill="#fff"/><path d="M110.63 309a1.64 1.64 0 0 1-1-.34l-5.7-4.43a1.61 1.61 0 1 1 2-2.55l5.69 4.43a1.61 1.61 0 0 1 .29 2.26 1.63 1.63 0 0 1-1.28.63Z" fill="#ff4c6c"/><path d="M121.32 312.54a1.61 1.61 0 0 1-1.12-2.77l5.19-5a1.61 1.61 0 0 1 2.24 2.32l-5.19 5a1.61 1.61 0 0 1-1.12.45Z" fill="#f2d160"/><path d="M109.12 326a1.66 1.66 0 0 1-.85-.24 1.61 1.61 0 0 1-.52-2.22l3.78-6.14a1.62 1.62 0 0 1 2.75 1.7l-3.79 6.14a1.6 1.6 0 0 1-1.37.76Z" fill="#ff8c95"/><path d="M140.21 326.08a1.59 1.59 0 0 1-1.4-.82l-3.56-6.26a1.61 1.61 0 0 1 2.81-1.59l3.55 6.27a1.62 1.62 0 0 1-1.4 2.41Z" fill="#ff4c6c"/><path d="M107.24 234.69c6.5 24.8-7.34 49.9-30.9 56.07S28.41 281.83 21.92 257s7.34-49.9 30.9-56.07 47.93 8.96 54.42 33.76Z" fill="#7c604d"/><path d="M107 244.78v-1.34c0-.11 0-.23.07-.35s0-.15-.06-.13a57.88 57.88 0 0 0-1.71-15.37 44.1 44.1 0 1 0-74.9 41.28l2.64 10.07a1.93 1.93 0 0 0 3.74-1l-1.14-4.33c.42.32.84.64 1.27.94l4.24 16.21a2.22 2.22 0 0 0 4.29-1.13l-3.07-11.73A44.57 44.57 0 0 0 47 280l1.36 5.18a2 2 0 1 0 3.92-1l-.7-2.67a43.92 43.92 0 0 0 22.34 0c20.26-5.31 11.59-21.86 17.4-18.53a14 14 0 0 0 2 1l2.32 8.85a1.74 1.74 0 1 0 3.36-.88l-1.93-7.37a6.53 6.53 0 0 0 2-.47l.45 1.73a1.26 1.26 0 0 0 2.43-.64l-.66-2.53a16.16 16.16 0 0 0 4-7 9.5 9.5 0 0 1 2.6 6 2 2 0 0 0 2.18 1.86 2 2 0 0 0 .35-.06 2 2 0 0 0 1.51-2.11c-.78-9.36-4.59-12.88-4.93-16.58Z" fill="#fde9c1"/><path d="M56 254.47c2 1.07 1.22 2.76.16 3s-3.43.13-4-2-.49-5.37.58-5.6c3.26-.69 1.79 3.8 3.26 4.6ZM46.74 251.06a1.31 1.31 0 0 1-1.57-.88 6.14 6.14 0 0 0-3-4 4.41 4.41 0 0 0-1.13-.36 1.71 1.71 0 0 1-1.52-1 2.32 2.32 0 0 1-.16-1.22c-.07-.58.73-1.45 2.28-1.54 2.14-.13 5.28 2.09 6 7.43a1.38 1.38 0 0 1-.86 1.62ZM48.9 227.37s-1.58-2.43-3.15-.59 1.31 4.39 1.27 4.87 2.72 4.34 4.4 2.32-1.39-4.69-1.65-5.09-.87-1.51-.87-1.51ZM64.21 223.51a1.88 1.88 0 0 0-.62 3c1.47 1.8 1.16-.91 1.16-.91a1.25 1.25 0 0 1 1.11-1.09c.99-.09.14-1.86-1.65-1ZM91.87 239.21s-2.82-.86-3.09 4.2-.2 7.63 1.34 7.43 3.14-.22 3.59-1.54 1.91-9.48-1.84-10.09Z" fill="#513823"/><path d="M99.51 265.74a1.26 1.26 0 0 0 2.43-.64l-.66-2.53a16.16 16.16 0 0 0 4-7 9.5 9.5 0 0 1 2.6 6 2 2 0 0 0 2.18 1.86 2 2 0 0 0 .35-.06 2 2 0 0 0 1.51-2.11c-.73-9.28-4.54-12.8-4.85-16.5v-1.34c0-.11 0-.23.07-.35s0-.15-.06-.13a57.88 57.88 0 0 0-1.71-15.37 44.1 44.1 0 0 0-53.82-31.47s32.07 15.47 31.51 36.13S86.6 245 86.6 245s-1 27.33-5.81 30.07a19.86 19.86 0 0 0-6.9 6.33c20.26-5.31 11.59-21.86 17.4-18.53a14 14 0 0 0 2 1l2.32 8.85a1.74 1.74 0 1 0 3.36-.88l-1.93-7.37a6.53 6.53 0 0 0 2-.47l.45 1.73" fill="#6d4d33" opacity=".17"/><path d="M46.55 258.84c.51 2 2.65 3.29 1.25 3.66s-4-.64-4.57-2.6 1.28-4.49 2.72-4.5c3.88-.02.05 1.48.6 3.44ZM65.31 242.51c-1.81.31 2.35 4-2.32 5.24-1.29.33-3-4.31-2.36-6.52s2.14-3.72 3.43-3.37 3.5 4.25 1.25 4.65ZM53.74 247.08a3.1 3.1 0 0 1-.42.08 2.81 2.81 0 0 1-3.08-2.5 9.64 9.64 0 0 1 .76-4.21 2.8 2.8 0 0 1 5.18 2.11 4.94 4.94 0 0 0-.37 1.53 2.8 2.8 0 0 1-2.07 2.99ZM85 245a2.08 2.08 0 0 1-1.09 2.68c-.93.25-1.94-.56-2.27-1.8a2.1 2.1 0 0 1 1.09-2.68c.94-.27 1.96.53 2.27 1.8ZM78.82 226.64s-4.14-1.31-4.27 3.51 1.57 6.78 2.18 6.82 2.58.72 2.45-2.84.43-3.7.79-4.6.3-2.67-1.15-2.89ZM94.43 224.55a2.09 2.09 0 0 1-1.1 2.68c-.92.24-1.94-.56-2.26-1.8a2.08 2.08 0 0 1 1.09-2.68c.93-.24 1.94.56 2.27 1.8ZM102 228.09c1.13 1.68 1.33 3.52.44 4.11s-2.51-.28-3.65-2-1.33-3.52-.45-4.12 2.55.33 3.66 2.01ZM79.05 213.81s-4.17.1-1.84 2.88 5.92 2 5.62.92-1.72-3.54-3.78-3.8Z" fill="#954f1f"/><path d="M106.55 172.05c-1.07-.89-10.14 4.41-10.88 3.12-2.06-3.55.14-9.57 4-15.7 5.68-8.92 15-18.08 20.07-20.21 9.23-3.87 20-4.88 23.5-3.8s4 1.29 3.9 3.36-2 2.5-4 3.54c-.1 0-9.1 2.5-13.57 9.1a14 14 0 0 0-2.39 6.57c-1.06 10.84-11.71.05-14.65 12a3.76 3.76 0 0 1-4.55 2.75 3.6 3.6 0 0 1-1.43-.73Z" fill="#fdb678"/><path d="M129.65 151.46a14 14 0 0 0-2.39 6.57c-1.06 10.84-11.71.05-14.65 12a3.76 3.76 0 0 1-4.55 2.75 3.6 3.6 0 0 1-1.51-.76c-1.07-.89-10.14 4.41-10.88 3.12-2.06-3.55.14-9.57 4-15.7 0 0 21.94-13.73 28.14-8.95Z" fill="#eb8f4b"/><path d="M110.54 172.57a3.73 3.73 0 0 0 2.07-2.51c2.94-12 13.59-1.19 14.65-12 1.13-11.61 15.83-15.6 16-15.67s3.64-3.66-1.47-4.15-20.75 5.32-26.9 17.53-3.13 9.19-3.13 9.19 2-1.13 1.23 0-2.54 2.15-2.54 3.66.5 2.42 0 3.28-.66 1.02.09.67Z" fill="#a03e2c"/><path d="M129.65 151.46a14 14 0 0 0-2.39 6.57c-1.06 10.84-13.92-1.39-16.86 10.59-.5 2-1.05-15.18 7.25-17.86 4.23-1.36 8.11-1.85 10.2-.24Z" fill="#6b2518"/><path d="M132.33 174.56a33.87 33.87 0 0 0-.82-7.46c-.89-3.76 1.11-7.37-.89-8.28-1.78-.81-7.24-1.72-19.13 5.22a90.55 90.55 0 0 0-4.78 3c-15.24 10.16-16.26 11.07-15.59 13.89s.38 11.61 2.85 14.68 4 4.56 5.79 4.81c.92.13 9.52-6.72 17.65-13.41 7.67-6.3 14.92-12.45 14.92-12.45Z" fill="#fdb678"/><path d="M94 195.61c2.48 3.06 4 4.56 5.79 4.81.92.13 9.52-6.72 17.65-13.41 7.67-6.3 14.92-12.45 14.92-12.45a33.87 33.87 0 0 0-.82-7.46Z" fill="#eb8f4b"/><path d="M116.42 186.8c8-5.79 15.68-11.47 15.68-11.47a34 34 0 0 0-.33-7.49c-.65-3.81 1.57-7.28-.36-8.32-1.73-.93-2.82-5.71-19.43 4l-2 8.61s.62 1.22-1.13 2.22-6.06 3-4.65 4.63 3.78-1.47 3.78-1.47 2.8-2.66 4.48-.8-1.26 4.63 1.57 7.85 2.39 2.24 2.39 2.24Z" fill="#a03e2c"/><path d="M117.41 187c7.67-6.3 14.92-12.45 14.92-12.45a33.87 33.87 0 0 0-.82-7.46l-19 14.44s-3.23 12.17 4.9 5.47Z" fill="#6b2518"/><path d="M141.87 186a12.27 12.27 0 0 1-4.22-7.29c-.7-4.6-1.57-8.08-4.8-6s-10.15 7.37-14.57 10c-.76.45-1.94 1.21-3.38 2.21-7 4.85-20 15.14-18.6 19.67a34.75 34.75 0 0 0 8.3 13.62 19.91 19.91 0 0 0 4.48 3.3l3.78-.62 16.6-13.7 7.48-6.18 4.19-12.58Z" fill="#fdb678"/><path d="M137.54 179s-3.57 15-13 21.35-19.92 17.86-19.92 17.86a19.91 19.91 0 0 0 4.48 3.3l3.78-.62 16.6-13.7 7.48-6.18 4.19-12.58.74-2.39a12.27 12.27 0 0 1-4.22-7.29" fill="#eb8f4b"/><path d="M193.53 244.34c1.09.87-2.28 10.81-.87 11.28 3.92 1.31 9.42-2.1 14.68-7.22 7.56-7.36 14.6-18.24 15.65-23.62 1.94-9.82.76-20.59-1-23.78s-2.07-3.69-4.08-3.15-2 2.46-2.66 4.59c0 .11-.53 7.88-4.86 13.57a14.38 14.38 0 0 1-7.29 5.22c-10.4 3.21 2.31 11.48-8.83 16.77a3.76 3.76 0 0 0-1.79 5 3.83 3.83 0 0 0 1.05 1.34Z" fill="#fdb678"/><path d="M210.39 216a14.38 14.38 0 0 1-7.29 5.22c-10.4 3.21 2.31 11.48-8.83 16.77a3.76 3.76 0 0 0-1.79 5 3.83 3.83 0 0 0 1.05 1.33c1.09.87-2.28 10.81-.87 11.28 3.92 1.31 9.42-2.1 14.68-7.22 0 0 6.19-14.23 5.59-20.34s-1-9.65-1.77-10.72-.77-1.32-.77-1.32Z" fill="#eb8f4b"/><path d="M223 224.78c2-9.8.76-20.59-1-23.78s-2.07-3.69-4.08-3.15-2 2.46-2.66 4.59c0 .14-1 15.35-12.15 18.79-10.4 3.21 2.31 11.48-8.83 16.77 0 0 17.65-2.22 20.84-4.84s7.41-6.16 7.88-8.38Z" fill="#a03e2c"/><path d="M210.39 216a14.38 14.38 0 0 1-7.29 5.22c-10.4 3.21 2.31 11.48-8.83 16.77-1.88.89 16.28 3 17.85-3.38a21.38 21.38 0 0 0 .81-6.56c-.61-6.11-1-9.65-1.77-10.72s-.77-1.33-.77-1.33Z" fill="#6b2518"/><path d="M185.89 219.58a34 34 0 0 1 7.48-.69c3.86.12 7-2.57 8.28-.79 1.2 1.63 3.28 7.1-1.73 21.12-.44 1.25-.94 2.57-1.51 3.95-6.89 17-7.58 18.15-10.48 18.06-1.79-.05-5.78.72-9.38.88a12 12 0 0 1-5.56-.72c-3.5-1.81-5.28-3-5.88-4.7-.3-.86 4.37-10.1 9.14-19.14s9.64-17.97 9.64-17.97Z" fill="#fdb678"/><path d="M193.37 218.89a34 34 0 0 0-7.48.69s-4.86 8.89-9.64 18-9.44 18.28-9.14 19.14c.6 1.72 2.38 2.89 5.88 4.7a12 12 0 0 0 5.56.72s13.91-20.86 15.47-34.54c0 0 .79-4.94-.57-8.32" fill="#eb8f4b"/><path d="M176.25 237.55s2.25 2.8 3.78 3.07 8.72-2 10.8-1.81a13.09 13.09 0 0 1 5.21 1.58c2.15 1 3.88-1.17 3.88-1.17 5-14 2.93-19.49 1.73-21.12-1.29-1.78-4.42.91-8.28.79a34 34 0 0 0-7.48.69s-4.86 8.89-9.64 18" fill="#a03e2c"/><path d="M193.37 218.89a34 34 0 0 0-7.48.69s-10.12 7.72-9.64 18c0 .15 9.05 8.88 14.65 1.29 2.5-3.38 2.72-7.82 3.12-11.27 0 0 .79-4.94-.57-8.32" fill="#6b2518"/><path d="M172.75 212.54a12.27 12.27 0 0 0 8 2.68c4.64-.25 8.23-.1 6.84 3.49s-5.18 11.42-6.83 16.28c-.31.89-.88 2.35-1.66 4.14-3.42 7.93-10.71 22.27-15.36 21.78a35 35 0 0 1-7.64-1.76c-4.29-1.49-8.68-3.9-11.5-7.36l-.15-3.83 10-18.84 4.63-8.74 11.48-6.64Z" fill="#fdb678"/><path d="M180.74 215.22a12.27 12.27 0 0 1-8-2.68l-2.2 1.2-11.48 6.64-4.63 8.74-10 18.84.15 3.83c2.82 3.46 7.21 5.87 11.5 7.36 0 0 22.61-24.85 24.3-41.36l.39-2.46" fill="#eb8f4b"/><path d="m129.46 207.17 7.48-6.18 4.19-12.58.74-2.39a12.27 12.27 0 0 1-4.22-7.29c-.7-4.6-1.57-8.08-4.8-6s-10.15 7.37-14.57 10c-.76.45-1.94 1.21-3.38 2.21 0 0 4.57 3.3 4.84 6.29a6.69 6.69 0 0 1-2.19 6c-1.39 1.36-1.86 3.73.19 3.68s2.87-3.14 3.86-2.82 3.31 1.75 4.62 5.61 3.24 3.47 3.24 3.47Z" fill="#a03e2c"/><path d="M137.54 179s-4 14.32-13 21.35c-1.32 1 2.41 5.43 2.41 5.43l10-4.77 4.19-12.58.74-2.39a12.27 12.27 0 0 1-4.22-7.29" fill="#6b2518"/><path d="M179.09 239.13c.78-1.79 1.35-3.25 1.66-4.14 1.65-4.86 5.45-12.69 6.83-16.28s-2.2-3.74-6.84-3.49a12.27 12.27 0 0 1-8-2.68l-2.2 1.2-11.48 6.64-4.63 8.74-1.19 2.24 12.89 4.23h3.16c1.24 0 5.37.27 7.62 2.39s2.18 1.15 2.18 1.15Z" fill="#a03e2c"/><path d="M180.74 215.22a12.27 12.27 0 0 1-8-2.68l-2.2 1.2-11.48 6.64-4.63 8.74s16.48 10.26 18.35 7.65a41.79 41.79 0 0 0 7.6-19l.39-2.46" fill="#6b2518"/><path d="m134.2 248.93-6.48-4a35.29 35.29 0 0 1-8.51-7.27l-8.15-9.54c-3-2.49-2.61-5.65-.1-8.62l15.84-13.87c3.19-3 7.2-6 9.4-9.82l4.12-8.87c1.36-1.52 3.28-2.29 4.84-1a16.5 16.5 0 0 0 7.1 5.65c8.42 3.75 11.79 6.55 18.29 12.72 5.93 5.64 6.31 14.4 2.5 21.65a52.79 52.79 0 0 1-7.08 9.56 148.15 148.15 0 0 1-10.77 10.75c-7.85 8.58-14.69 7.1-21 2.66Z" fill="#fdb678"/><path d="M166 235.57c3.73-2 5.66-6.34 7.64-9 7.69-10.48 2.87-16.52-3.06-22.16-6.5-6.17-9.87-9-18.29-12.72a16.5 16.5 0 0 1-7.1-5.65c-1.56-1.3-3.48-.53-4.84 1l-6.16 9.18a38.43 38.43 0 0 1-7.36 9.51s.66 2.49 5.8 4.76 5.22 6.1 8.11 7.76 3.29 4.49 1.71 6.69-5.66 7.09-4 8.45 4-.91 4.62-1.93 2-5.38 3.83-4.6 3.71 1.58 2.15 4.06 0 4.79 1.59 3.82 3.65-6.5 5.65-4.08 7.94 5.85 9.71 4.91Z" fill="#a94c37"/><path d="M247.93 293.77A33.82 33.82 0 1 1 214.11 260a33.82 33.82 0 0 1 33.82 33.77Z" fill="#fff"/><path d="M244.18 293.77a30.07 30.07 0 1 1-30.07-30.07 30.07 30.07 0 0 1 30.07 30.07Z" fill="#f7b088"/><path d="M235.61 293.77c-3.3 12.72-8.35 23.79-21.5 23.79s-22.22-10.74-23.79-23.79c-2.12-17.7 10-20.86 23.16-20.86s26.52 3.79 22.13 20.86Z" fill="#ff8c95"/><path d="M235.13 281.59a26 26 0 0 1-16.68 30.32 17 17 0 0 1-22.29-12.27 16.65 16.65 0 0 1 10.67-19.4 10.87 10.87 0 0 1 14.27 7.85 10.67 10.67 0 0 1-6.83 12.42 7 7 0 0 1-9.13-5 6.8 6.8 0 0 1 4.37-7.94 4.45 4.45 0 0 1 5.84 3.21 4.37 4.37 0 0 1-2.8 5.09 2.86 2.86 0 0 1-3.74-2.06" fill="none" stroke="#d65e5c" stroke-linecap="round" stroke-linejoin="round" stroke-width="2"/><path d="M179.9 376.13a26 26 0 1 1 28.63-23.07 26 26 0 0 1-28.63 23.07Z" fill="#fff"/><path d="M180.21 373.27a23.12 23.12 0 1 1 25.45-20.52 23.12 23.12 0 0 1-25.45 20.52Z" fill="#f7b088"/><path d="M180.91 366.71c-9.45-3.57-17.5-8.34-16.42-18.38s10-16.11 20.14-16.24c13.7-.16 15.12 9.38 14 19.42s-5.04 19.98-17.72 15.2Z" fill="#d65e5c"/><path d="M190.26 367.35a20 20 0 0 1-21.81-15.24 13.06 13.06 0 0 1 11.21-16 12.81 12.81 0 0 1 14 9.75 8.37 8.37 0 0 1-7.18 10.27 8.19 8.19 0 0 1-8.93-6.25 5.34 5.34 0 0 1 4.59-6.56 5.24 5.24 0 0 1 5.72 4 3.43 3.43 0 0 1-2.94 4.21 3.36 3.36 0 0 1-3.66-2.56 2.19 2.19 0 0 1 1.88-2.69" fill="none" stroke="#a14543" stroke-linecap="round" stroke-linejoin="round"/><g opacity=".2" style="mix-blend-mode:multiply" fill="#595959"><rect x="511.84" y="349.09" width="73.42" height="58.87" rx="2" ry="2" transform="rotate(-65.77 548.544 378.528)"/><rect x="498.25" y="368" width="55" height="123.33" rx="3" ry="3"/><rect x="495.96" y="437.33" width="59.97" height="24.67" rx="2" ry="2"/><path d="M503.42 394h44.67v3.42h-44.67z"/><path d="M526.55 374c-.2-1.85-.37-3.49-.58-4.95-.41-2.81-1.72-11.25-1.72-11.25a1.78 1.78 0 0 0-3.51.54l1.83 12.07a2.25 2.25 0 0 1-2.24 2.24 2.22 2.22 0 0 1-2.22-2.23V358a1.78 1.78 0 0 0-1.78-1.78h-.55A1.78 1.78 0 0 0 514 358v12.42a2.22 2.22 0 0 1-2.22 2.23 2.25 2.25 0 0 1-2.24-2.24l1.83-12.07a1.78 1.78 0 0 0-3.51-.54s-1.31 8.44-1.72 11.25c-.21 1.46-.38 3.1-.59 4.95-.9 8.14 3.81 12.07 8.81 12.76a7.44 7.44 0 0 0-.23 1.61l-.27 9h5v.08l-.27-9.13a7 7 0 0 0-.27-1.71c4.81-.92 9.1-4.85 8.23-12.61Z"/><rect x="539.67" y="393.33" width="47.67" height="41" rx="2" ry="2" transform="rotate(-80.25 563.54 413.832)"/></g><rect x="513.84" y="341.09" width="73.42" height="58.87" rx="2" ry="2" transform="rotate(-65.77 550.537 370.528)" fill="#ff8c6d"/><rect x="500.25" y="360" width="55" height="123.33" rx="3" ry="3" fill="#df674b"/><rect x="497.96" y="429.33" width="59.97" height="24.67" rx="2" ry="2" fill="#566278"/><path fill="#474559" d="M505.42 386h44.67v3.42h-44.67z"/><path d="M528.55 366c-.2-1.85-.37-3.49-.58-4.95-.41-2.81-1.72-11.25-1.72-11.25a1.78 1.78 0 0 0-3.51.54l1.83 12.07a2.25 2.25 0 0 1-2.24 2.24 2.22 2.22 0 0 1-2.22-2.23V350a1.78 1.78 0 0 0-1.78-1.78h-.55A1.78 1.78 0 0 0 516 350v12.42a2.22 2.22 0 0 1-2.22 2.23 2.25 2.25 0 0 1-2.24-2.24l1.83-12.07a1.78 1.78 0 0 0-3.51-.54s-1.31 8.44-1.72 11.25c-.21 1.46-.38 3.1-.59 4.95-.9 8.14 3.81 12.07 8.81 12.76a7.44 7.44 0 0 0-.23 1.61l-.27 9h5v.08l-.27-9.13a7 7 0 0 0-.27-1.71c4.81-.92 9.1-4.85 8.23-12.61Z" fill="#fff"/><rect x="541.67" y="385.33" width="47.67" height="41" rx="2" ry="2" transform="rotate(-80.25 565.539 405.827)" fill="#f7fafb"/><g opacity=".2" style="mix-blend-mode:multiply" fill="#595959"><path d="M140.13 461.89a37.85 37.85 0 1 0 30-44.35 37.85 37.85 0 0 0-30 44.35Z"/><path d="M145.4 462.08a30.34 30.34 0 1 0 24-35.56 30.34 30.34 0 0 0-24 35.56Z"/><path d="M205.15 449.3a28.38 28.38 0 0 0-56.1 8.26 5.29 5.29 0 0 0-3.21-.39l-10.45 2a5.32 5.32 0 0 0 2 10.45l10.45-2a5.3 5.3 0 0 0 3.21-2 28.39 28.39 0 0 0 54.07-16.31Z"/><path d="M172.64 432.71a22.47 22.47 0 1 0 26.63 17.34 22.48 22.48 0 0 0-26.63-17.34Z"/><path d="M158.46 442.43A22.47 22.47 0 0 1 196.12 467s-5.1-29.27-36.28-24.29Z" opacity=".49"/></g><path d="M142.13 453.89a37.85 37.85 0 1 0 30-44.35 37.85 37.85 0 0 0-30 44.35Z" fill="#e6e6e6"/><path d="M147.4 454.08a30.34 30.34 0 1 0 24-35.56 30.34 30.34 0 0 0-24 35.56Z" fill="#b3b3b3"/><path d="M207.15 441.3a28.38 28.38 0 0 0-56.1 8.26 5.29 5.29 0 0 0-3.21-.39l-10.45 2a5.32 5.32 0 0 0 2 10.45l10.45-2a5.3 5.3 0 0 0 3.21-2 28.39 28.39 0 0 0 54.07-16.31Z" fill="#fff"/><path d="M174.64 424.71a22.47 22.47 0 1 0 26.63 17.34 22.48 22.48 0 0 0-26.63-17.34Z" fill="#7c604d"/><path d="M160.46 434.43A22.47 22.47 0 0 1 198.12 459s-5.1-29.27-36.28-24.29Z" fill="#131313" opacity=".49"/><circle cx="542.1" cy="199.38" r="32.58" transform="rotate(-11.5 541.683 198.668)" fill="#392929" opacity=".1"/><circle cx="544.1" cy="196.38" r="32.58" transform="rotate(-11.5 543.683 195.668)" fill="#eceae6" opacity=".44"/><circle cx="544.15" cy="196.57" r="31.55" transform="rotate(-24.37 544.21 196.567)" fill="#eceae6" opacity=".44"/><path d="M530.66 213.38c-1 2-1.86 3.84-2.46 5.33a28.65 28.65 0 0 0 3.07 2.1 28.27 28.27 0 0 0 19.63 3.44 29 29 0 0 1-20.24-10.87Z" fill="#973440"/><path d="M528.4 180.67a28.84 28.84 0 0 1 15.31-12.6 28.36 28.36 0 0 0-15.51 50.64c.6-1.49 1.41-3.29 2.46-5.33a29 29 0 0 1-2.26-32.71Z" fill="#6d2125"/><path d="M530.66 213.38a29 29 0 0 0 20.24 10.87 28.37 28.37 0 0 0 17.49-44.89 71.89 71.89 0 0 0-37.73 34.02Z" fill="#a13333"/><path d="M530.66 213.38a71.89 71.89 0 0 1 37.73-34 28.37 28.37 0 0 0-24.68-11.29 29 29 0 0 0-13.05 45.31Z" fill="#8e2929"/><path d="m633.06 192-69.75 15.45a7.13 7.13 0 0 1-8.5-5.44l-2.43-11.17a7.12 7.12 0 0 1 5-8.36L626.21 163a13 13 0 0 0 8.11-6.76l1.81-3.65a33.14 33.14 0 0 1 21.56-17.44l178.65-45.29a13 13 0 0 1 15.86 9.69l10.41 45.33a13 13 0 0 1-9.79 15.59l-180.45 41a32.54 32.54 0 0 1-28.15-6.8 13 13 0 0 0-11.16-2.67Z" fill="#382c2f" style="mix-blend-mode:multiply"/><path d="m639.34 184.15-89 20.62a6.18 6.18 0 0 1-7.38-4.72l-1.23-4.21a6 6 0 0 1 4.44-7.08l87.47-20.59c3.07-.87 7.36-8.4 8.77-11.26l1.57-3.17a28.71 28.71 0 0 1 18.71-15.13l166.86-42a11.28 11.28 0 0 1 13.82 8.39l9 39.34a11.29 11.29 0 0 1-8.5 13.53l-156.6 35.61c-8.62 2-29.49 2.5-36.26-3.18-2.64-2.22-8.25-6.91-11.67-6.15Z" fill="#8e2929" style="mix-blend-mode:multiply"/><path d="M713.56 189.54s-5-35.28-17.49-55.94c0 0 98.9-25.29 98-23.79s18.77 35.29 13.7 59Z" fill="#8e2929"/><path d="M730.71 197.91a2.66 2.66 0 0 1-3.86.45c-3.55-3-9-10.52-.35-24.61 11.79-19.3 16.49-28.64 16.49-28.64s-29.68-26.38-85.09-9.78c0 0-3.59-15.85 11.59-21 0 0-6.82-9.67 7.91-17.54 0 0-3-8.62 9.08-14 0 0-1.9-15.26 25.91-13.8S768 73.86 768 73.86s26 33.92 25.15 35.42-15.78 34.31-19.31 40.3c-3.36 5.74-31.19 32.24-43.13 48.33Z" fill="#e8a989"/><path fill="#fff" d="m793.25 109.52-25.28-35.39 80.52-56.62 62.34 36.75-117.58 55.26z"/><path d="M774.34 64.86c.9.53 40.49 51 40.49 51l107.74-55.49-82.71-48.76Z" fill="#373737"/><ellipse cx="365.77" cy="86.24" rx="170.71" ry="114.5" transform="rotate(-1.67 365.556 86.308)" fill="#392929"/><ellipse cx="365.77" cy="97.24" rx="170.71" ry="114.5" transform="rotate(-1.67 365.396 97.286)" fill="#392929" opacity=".1"/><ellipse cx="365.77" cy="86.24" rx="125.98" ry="84.5" transform="rotate(-1.67 365.556 86.308)" fill="#211717"/><path d="m488.11 92.54-8.24 3.09a36 36 0 0 0 3.19-10 37.93 37.93 0 0 0 0-11.21 32 32 0 0 0-1.92 4.5 34.61 34.61 0 0 0-1 3.53 33.86 33.86 0 0 0-1.29-5.35s-.1.27-.24.77a32.79 32.79 0 0 0-1.2 9.09 31 31 0 0 0 .31 3.88 36.22 36.22 0 0 0 1.1 5.15l-8.71 3.26.62 1.64 6.27-2.32c.1.1.22.2.39.35a36 36 0 0 0 8.36 5.53 35 35 0 0 0 5.67 2.08 32.16 32.16 0 0 0 4.79 1 35.34 35.34 0 0 0-4.37-3.45c.37 0 .75.09 1.1.11a29.56 29.56 0 0 0 4.56.07 32.43 32.43 0 0 0-16.5-5.11 32.25 32.25 0 0 0-3.52-.73l8.24-3.09.33.25c.46.33 1.13.8 2 1.33s1.86 1.13 3 1.72a34.73 34.73 0 0 0 3.85 1.68 36.87 36.87 0 0 0 7.44 1.8 29.51 29.51 0 0 0 3.26.27 35.45 35.45 0 0 0-5.76-3.62c.18 0 .37.06.54.07a42.24 42.24 0 0 0 6.24.13 32.36 32.36 0 0 0 3.68-.38 40.67 40.67 0 0 0-11.74-3.86 41.44 41.44 0 0 0-10.35-.32l7.16-2.68c.46.18 1.42.52 2.73.91l.19.08c.92.37 2 .78 3.27 1.15a33.31 33.31 0 0 0 4.09 1 36.06 36.06 0 0 0 10.9.12s-.74-.4-2-.94a37.21 37.21 0 0 0 4.82-.89 40.81 40.81 0 0 0-12.06-2.68 41.84 41.84 0 0 0-10.41.73h-.07l.25-.09-.43-1.14a36.41 36.41 0 0 0 8.63-3.7 35.43 35.43 0 0 0 8.21-6.9s-.3.06-.78.19h-.15a35.7 35.7 0 0 0-7 2.68 41.47 41.47 0 0 0 6.58-9.33 40.55 40.55 0 0 0-10 7.31c-.59.6-1.15 1.2-1.67 1.81a41.1 41.1 0 0 0-5.38 7.88l-5.71 2.14a35.93 35.93 0 0 0 4.26-9.14 37.74 37.74 0 0 0 1.5-11.11 31.19 31.19 0 0 0-2.44 4.2 37.29 37.29 0 0 0-1.8 4.29 37.94 37.94 0 0 0-.94-9.17s-.14.29-.34.81a36.66 36.66 0 0 0-1.51 20.61Zm.81-.3-.49.18c.13-.32.3-.76.51-1.38-.02.52-.02.96-.02 1.2Zm-1.75 2.92-.85-.07.4-.15Zm-7.61.42a.89.89 0 0 1 0 .15h-.07a1.21 1.21 0 0 0 .07-.15Z" fill="#82992a"/><path d="M299.24-12.58a28.32 28.32 0 1 1-17.52 36 28.33 28.33 0 0 1 17.52-36Z" fill="#7eac39"/><path d="M300.24-9.69a25.27 25.27 0 1 1-15.62 32.13 25.26 25.26 0 0 1 15.62-32.13Z" fill="#dae4a2"/><path d="M302.2-4a19.26 19.26 0 1 1-11.91 24.49A19.26 19.26 0 0 1 302.2-4Z" fill="#b3ce62"/><path d="M294.27 17.49a9.59 9.59 0 0 1 5.81.14 9.31 9.31 0 0 1-4.48 3.7c-2.05.7-2.55-.08-2.92-1.14s-.45-1.99 1.59-2.7ZM303.82 27.11a8.92 8.92 0 0 1 2.85-4.69 8.81 8.81 0 0 1 .91 5.41c-.39 2-1.27 2.05-2.31 1.85s-1.84-.57-1.45-2.57ZM320.21 21.13a9.39 9.39 0 0 1-2.72-5 9.13 9.13 0 0 1 5.32 2c1.59 1.39 1.17 2.2.46 3s-1.46 1.38-3.06 0ZM312.46 25a6.49 6.49 0 0 1-1.88-3.45 6.31 6.31 0 0 1 3.68 1.45c1.1.95.81 1.51.31 2.08s-1.01.92-2.11-.08ZM320.73 10.48a9.32 9.32 0 0 1-5.64-.66 9 9 0 0 1 4.69-3.19c2.05-.5 2.47.31 2.73 1.37s.27 2-1.78 2.48ZM314.53 1.59a9.48 9.48 0 0 1-3 4.94 9.2 9.2 0 0 1-1-5.71c.47-2.11 1.37-2.15 2.47-1.94s1.94.6 1.53 2.71ZM312 10.7a5.78 5.78 0 0 1-2.6 2.36 5.59 5.59 0 0 1 .42-3.49c.6-1.16 1.15-1 1.75-.72s1.04.69.43 1.85ZM299.36 2.06A8.9 8.9 0 0 1 302 6.81a8.63 8.63 0 0 1-5.07-1.89c-1.52-1.32-1.12-2.09-.44-2.88s1.35-1.3 2.87.02ZM301.54 10a6.57 6.57 0 0 1 2.74 3 6.44 6.44 0 0 1-4-.43c-1.34-.67-1.19-1.3-.85-2s.78-1.23 2.11-.57Z" fill="#e9eba3"/><circle cx="283.89" cy="10.98" r="16.62" fill="#ea1920"/><path d="M276.43 30.69a16.62 16.62 0 1 1-15.85-17.36 16.62 16.62 0 0 1 15.85 17.36Z" fill="#ea1920"/><path d="M252.67 29.9c0 1-.79 1.83-1.21 2.75-1.39 3 1.25 6.87 4.57 7.34s6.57-1.79 8.11-4.76c.74-1.42 1.26-3.12 2.65-3.9.84-.47 1.94-.58 2.5-1.35C272 26.33 262 18.8 258.88 18.5c-8.14-.78-5.98 6.84-6.21 11.4ZM274.88 12.42c2.91 2.71 8 2.59 10.08 6a2.88 2.88 0 0 0 1 1.23c.86.44 1.85-.37 2.31-1.21a6.1 6.1 0 0 0-1-7c-2.29-2.3-6-2.68-6.93-6.18-.76-2.84 2.6-5.12-.82-6-6.32-1.7-8.18 9.86-4.64 13.16Z" fill="#ff1e25"/><path d="M339.82-11.55a28.33 28.33 0 1 1-17.52 36 28.33 28.33 0 0 1 17.52-36Z" fill="#7eac39"/><path d="M340.82-8.65a25.26 25.26 0 1 1-15.63 32.13 25.27 25.27 0 0 1 15.63-32.13Z" fill="#dae4a2"/><path d="M342.78-3a19.26 19.26 0 1 1-11.91 24.49A19.24 19.24 0 0 1 342.78-3Z" fill="#b3ce62"/><path d="M334.85 18.53a9.59 9.59 0 0 1 5.81.14 9.38 9.38 0 0 1-4.49 3.7c-2 .7-2.55-.08-2.91-1.14s-.46-1.99 1.59-2.7ZM344.39 28.14a9 9 0 0 1 2.86-4.68 8.81 8.81 0 0 1 .9 5.41c-.38 2-1.26 2-2.3 1.84s-1.85-.56-1.46-2.57ZM360.79 22.16a9.32 9.32 0 0 1-2.72-5 9.14 9.14 0 0 1 5.32 2c1.59 1.38 1.17 2.19.45 3s-1.46 1.39-3.05 0ZM353 26.05a6.36 6.36 0 0 1-1.88-3.44 6.31 6.31 0 0 1 3.71 1.39c1.1 1 .81 1.52.32 2.09s-1.01.91-2.15-.04ZM361.3 11.51a9.27 9.27 0 0 1-5.63-.65 9 9 0 0 1 4.69-3.19c2.05-.51 2.47.3 2.73 1.36s.26 1.97-1.79 2.48ZM355.11 2.63a9.47 9.47 0 0 1-3 4.94 9.27 9.27 0 0 1-.95-5.71c.41-2.11 1.34-2.16 2.43-1.94s1.93.59 1.52 2.71ZM352.59 11.74A5.76 5.76 0 0 1 350 14.1a5.6 5.6 0 0 1 .43-3.49c.6-1.16 1.15-1 1.75-.72s1.01.68.41 1.85ZM339.93 3.1a8.89 8.89 0 0 1 2.6 4.75A8.62 8.62 0 0 1 337.46 6c-1.52-1.31-1.12-2.09-.44-2.87s1.39-1.35 2.91-.03ZM342.12 11.05a6.55 6.55 0 0 1 2.73 2.95 6.45 6.45 0 0 1-4-.44c-1.33-.67-1.19-1.29-.84-2s.77-1.18 2.11-.51Z" fill="#e9eba3"/><path d="M476.34 41c2.87 2.37 5.7 4.79 8.53 7.22 2.6 2.22 5.21 4.45 7.65 6.85a76.15 76.15 0 0 1 5.93 6.51c1.42 1.76 2.82 4.11 1.83 6.15s-3.7 2.36-5.67 1.48-3.36-2.67-4.72-4.35C475.72 47.37 456.06 35.4 436.7 24c-14.18-8.39-28.63-16.75-44.55-21-2.74-.73-5.72-1.45-7.53-3.64-1.36-1.64-1.77-5.72.72-6.66 1.89-.71 7.32 1.81 9.28 2.38A184.9 184.9 0 0 1 416 2.9a230.68 230.68 0 0 1 39.81 22.46c7.09 4.89 13.91 10.12 20.53 15.64Z" fill="#82992a"/><g clip-path="url(#b)"><path d="M378.71-6.37S401.83-1.72 419.54 8s51.21 31.67 61.68 40.43 21 23.41 21 23.41a17.91 17.91 0 0 0-1.27-3c-.68-1.14-11.51-17.12-30.68-29.87S425.69 9.31 419.36 6.43 396-3.66 390-4.87a86.86 86.86 0 0 0-11.29-1.5Z" fill="#52731f"/></g><path d="M480.92 39.74c3.21 1.88 6.4 3.81 9.58 5.74 2.93 1.78 5.86 3.56 8.66 5.53a72.64 72.64 0 0 1 6.9 5.47c1.69 1.51 3.45 3.6 2.8 5.77s-3.26 2.93-5.35 2.38-3.75-2.09-5.37-3.53c-16.8-14.93-38.14-23.57-59.09-31.72-15.34-6-30.95-11.88-47.34-13.46-2.82-.28-5.88-.51-8-2.37-1.61-1.4-2.67-5.37-.37-6.69 1.75-1 7.53.6 9.54.85a184.9 184.9 0 0 1 22.4 4.21 231.75 231.75 0 0 1 42.91 15.73c7.73 3.7 15.31 7.75 22.73 12.09Z" fill="#82992a"/><g clip-path="url(#c)"><path d="M376.92 8.81s23.57.85 42.63 7.61 55.65 23 67.4 29.94 24.52 19.7 24.52 19.7a17.67 17.67 0 0 0-1.75-2.79c-.86-1-14.12-15-35.11-24.52s-48.79-22.06-55.5-23.87-24.65-6.2-30.78-6.43a86.16 86.16 0 0 0-11.41.36Z" fill="#52731f"/></g><path d="M486.42 32.44c3.22 1.89 6.4 3.82 9.59 5.75 2.93 1.77 5.86 3.55 8.66 5.52a75.73 75.73 0 0 1 6.9 5.48c1.68 1.51 3.45 3.6 2.8 5.76s-3.27 2.94-5.36 2.38-3.75-2.09-5.36-3.52c-16.8-14.94-38.14-23.57-59.09-31.72-15.34-6-31-11.88-47.34-13.47-2.83-.27-5.89-.5-8-2.37-1.6-1.4-2.67-5.36-.36-6.69 1.75-1 7.52.61 9.54.86a181.3 181.3 0 0 1 22.39 4.21 231.84 231.84 0 0 1 42.92 15.73c7.72 3.69 15.29 7.75 22.71 12.08Z" fill="#82992a"/><g clip-path="url(#d)"><path d="M382.43 1.52s23.56.84 42.63 7.61 55.64 23 67.4 29.93S517 58.76 517 58.76a17.67 17.67 0 0 0-1.78-2.76c-.85-1-14.12-15-35.1-24.52s-48.79-22-55.51-23.87S400 1.39 393.84 1.16a86.16 86.16 0 0 0-11.41.36Z" fill="#52731f"/></g><path d="M269.07 108.23c-3.09-5.72-7.48-9.42-20.63-10s-23.75 11-25.35 20.79 1.28 23 14.53 28.74 22.68 1.61 30.46-8.09 6.25-16.65 5.55-22.41a15.23 15.23 0 0 0-4.56-9.03Z" fill="#ff3425" fill-rule="evenodd"/><path d="M261.07 106.73c-1.8-2.19-7.13-6.18-16.89-3s-15.38 8.83-16.79 14.58 1.32 7.54 4.35 7.4c3.8-.17 7.32.28 11-.37 2.15-.38 5.34-2.41 12.41-6.83 1.05-.66 5.3-5.43 6.12-6 .92-1.18 1.49-2.32 1-3.31l-1.21-2.54ZM242.52 129c17.62-10.53 9.27-7.79 23.33-8.54l.86.24c12.85 4-.61 22.7-16.9 24.62-10.62 1.26-13.8-3.7-14-7.79-.17-3.78 4.73-6.44 6.71-8.53Z" fill="#ea1920" fill-rule="evenodd"/><path d="M255.14 118.55c.55-2.6 5.15-6.57 4.8-9s-1.86-3.55-6.65-4.45-14.47 3.66-18.79 6.72-7.08 9.79-5.37 10.66 10.76.79 13.38 2.33 3.47 2.69 1.61 4.42-5.84 6-6.25 7.92.68 4.66 2.13 4.88 9.81 2.61 15.23-.09 9.55-5.75 11.57-9.67 3.29-7.48 1.38-8.64-8.49-1-10.84-1.93a3.21 3.21 0 0 1-2.2-3.15Z" fill="#ff7553" fill-rule="evenodd"/><path d="M255 106.33c.15.2 1.32 2.6.75 2.8-1.82.64-2.28-4.88-.75-2.8ZM250.33 107.18c.14.2 1.32 2.6.74 2.8-1.78.64-2.24-4.88-.74-2.8ZM245.69 108c.14.2 1.32 2.6.74 2.8-1.78.67-2.24-4.8-.74-2.8ZM241.05 108.88c.14.21 1.32 2.6.75 2.8-1.8.64-2.24-4.88-.75-2.8ZM237.6 111c.19.16 1.9 2.2 1.4 2.54-1.58 1.03-3.35-4.22-1.4-2.54ZM234.38 113.88c.22.12 2.3 1.79 1.87 2.22-1.34 1.33-4.11-3.47-1.87-2.22ZM232.05 117.05c.22.09 2.49 1.5 2.11 2-1.16 1.46-4.48-2.98-2.11-2ZM265.16 129.73c-.06-.24-1.11-2.68-1.64-2.38-1.64.94 2.26 4.87 1.64 2.38ZM261.51 132.71c-.06-.24-1.12-2.69-1.65-2.39-1.64.94 2.26 4.88 1.65 2.39ZM257.85 135.68c-.06-.24-1.12-2.68-1.65-2.38-1.64.94 2.26 4.87 1.65 2.38ZM254.19 138.66c-.06-.24-1.11-2.69-1.64-2.39-1.65.94 2.25 4.88 1.64 2.39ZM250.35 139.92c0-.25-.43-2.88-1-2.71-1.84.52 1 5.27 1 2.71ZM246.06 140.49c.05-.25.13-2.91-.48-2.86-1.88.15-.02 5.37.48 2.86ZM242.14 140.21c.07-.24.47-2.87-.14-2.9-1.89-.07-.66 5.34.14 2.9Z" fill="#ffca00" fill-rule="evenodd"/><path d="M261.48 79.13c-1.53-6.32-4.82-11-17.39-14.92s-25.78 4.55-29.84 13.6-4.65 22.58 6.69 31.51 21.51 7.37 31.51 0 10.31-14.49 11.11-20.24a15.21 15.21 0 0 0-2.08-9.95Z" fill="#ff3425" fill-rule="evenodd"/><path d="M254.12 75.62c-1.17-2.57-5.31-7.8-15.56-7.18s-17.13 4.59-20 9.79-.65 7.63 2.31 8.27c3.72.8 7 2.14 10.73 2.46 2.16.18 5.77-1 13.73-3.43 1.19-.37 6.52-3.89 7.45-4.2 1.2-.91 2-1.87 1.84-2.93l-.53-2.78Zm-23.61 16.73c19.73-5.67 11-5.16 24.73-2.28.26.14.52.29.77.45 11.39 7.17-6.4 21.79-22.64 19.48-10.58-1.51-12.39-7.12-11.53-11.12.78-3.65 6.16-4.96 8.67-6.53Z" fill="#ea1920" fill-rule="evenodd"/><path d="M245.36 85.53c1.2-2.37 6.67-5 7-7.52s-.89-3.9-5.29-6-14.92-.17-19.89 1.69-9.35 7.65-7.92 8.93 10.2 3.52 12.34 5.68 2.66 3.49.42 4.68-7.17 4.27-8.07 6-.53 4.69.81 5.27 8.81 5 14.75 3.82 10.7-3.12 13.65-6.39 5.1-6.39 3.55-8-7.93-3.17-10-4.64a3.22 3.22 0 0 1-1.35-3.52Z" fill="#ff7553" fill-rule="evenodd"/><path d="M248.33 73.68c.08.23.61 2.84 0 2.89-1.88.17-.92-5.29 0-2.89ZM243.63 73.31c.08.23.61 2.85 0 2.9-1.88.16-.92-5.3 0-2.9ZM238.92 72.94c.09.24.62 2.85 0 2.9-1.87.16-.92-5.29 0-2.9ZM234.22 72.58c.09.23.62 2.84 0 2.9-1.87.16-.91-5.3 0-2.9ZM230.35 73.72c.14.21 1.28 2.62.7 2.82-1.79.6-2.16-4.93-.7-2.82ZM226.5 75.7c.17.17 1.76 2.32 1.23 2.62-1.64.95-3.08-4.4-1.23-2.62ZM223.43 78.16c.2.15 2 2.09 1.54 2.46-1.52 1.13-3.58-4.01-1.54-2.46ZM252.19 98.91c0-.25-.39-2.88-1-2.73-1.8.49.96 5.29 1 2.73ZM247.89 100.85c0-.25-.38-2.89-1-2.73-1.8.49.96 5.29 1 2.73ZM243.59 102.79c0-.25-.38-2.89-1-2.73-1.8.49.96 5.29 1 2.73ZM239.3 104.73c0-.25-.39-2.89-1-2.73-1.81.49.95 5.29 1 2.73ZM235.27 105c.06-.24.31-2.89-.3-2.88-1.89 0-.36 5.32.3 2.88ZM231 104.41c.11-.22.87-2.78.27-2.88-1.89-.34-1.43 5.18-.27 2.88ZM227.25 103.14c.13-.21 1.2-2.66.61-2.84-1.81-.55-2 4.99-.61 2.84Z" fill="#ffca00" fill-rule="evenodd"/><path d="M268.06 59.6c-.32-3.42-2.16-8.61-9.64-13.86s-16-4.15-23.31-.68S224.05 58 224.7 64.39s6 14.42 14.91 17.56 13.32 1.45 19.92-3.24 8.81-11 9.07-13.81a14.85 14.85 0 0 0-.54-5.3Z" fill="#f0a302" fill-rule="evenodd"/><path d="M266.6 59.74c-.51-5.48-4.74-9.8-9-12.8-6.82-4.78-14.66-3.95-21.84-.56a13.3 13.3 0 0 0-2.39 1.46 16.93 16.93 0 0 0-3.59 3.82c-2.37 3.43-4 8.37-3.61 12.58a18.6 18.6 0 0 0 4 9.23 22 22 0 0 0 9.89 7.1c8 2.81 11.91 1.7 18.59-3a22 22 0 0 0 6.49-7.13 15.59 15.59 0 0 0 2-5.62 13 13 0 0 0-.47-4.72l-.05-.15Z" fill="#e1e3c0" fill-rule="evenodd"/><path d="M258.32 51c.46-1.48-1.33-3.56-4.23-4.82s-3.73-1.45-4.65-.43-3.55 14.26-3 14.84.83 1.11 1.41.53ZM245.76 60c.63 0 1.92-12.13.84-13.88s-1.09-1.11-3.42-.88-6 1.63-6.56 4 5.61 8.39 6.66 9.72 1 1.66 1.73 1.63.75-.59.75-.59ZM243 61.24c-1-.14-12.74.21-13-1.41a6.47 6.47 0 0 1 .23-4.14c.66-1.61 1.39-3.47 2.82-4.24s2.64.16 4 1.78 6.24 6.56 6.46 7.11-.51.9-.51.9ZM243.29 62.15s-12.4-1.22-13.51-.77-2.07 4.08-1.28 6 1 2.56 2.08 2.76 12.95-6.44 13.31-7-.6-.99-.6-.99ZM245.53 64.1c-.09-.42-.67-1.07-.9-1s-12.77 7.61-13.29 8.51-.27 1.22-.08 1.55 4 3.94 6 4.41 2.33-.17 2.6-.68 5.67-12.79 5.67-12.79ZM247.24 64.79a.9.9 0 0 0-1.45-.17c-.43.48-5.22 12.11-5.1 13.4s2.4 2.25 4.27 2.92 4.76-.83 5-1.93-.92-5.57-1.22-8.15a34.59 34.59 0 0 0-1.5-6.07ZM248.81 64.25c-.71.12-1 .54-.91 1s2.64 13.2 3.57 13.75 4.67-1.18 6.82-3.23 3-2.66 2.48-3.4-11.96-8.12-11.96-8.12ZM250 62.67c-.3.29-1 .8-.53 1.42s11.5 7.73 11.82 7.93 2.22-.81 3.21-3.45.92-5.39.38-5.87a1.25 1.25 0 0 0-1.1-.34ZM264.46 61.14c-.58-.2-14.86 1.66-15.36 1.41a1.34 1.34 0 0 1-.53-1.49c.19-.32 10.05-9.94 11-10.13s2.64 1 4 3a10.54 10.54 0 0 1 1.76 5.7 2.3 2.3 0 0 1-.87 1.51Z" fill="#d6b714" fill-rule="evenodd"/><path d="M259.34 48.54c-7.82 13.69-10.89 29.81-12.19 45.73-1.11 13.63-.72 28.4 6.85 39.55 8.42 12.4 23.64 17.29 37.95 19.53 9.37 1.47 18.95 2.14 28.28.49s18.07-5.56 27.16-8.14c20.74-5.91 42.74-4.85 64-1.54 17.44 2.72 36.56 6.61 51.67-2.89 9.07-5.7 15.23-15.63 18.47-26.22s3.8-21.88 3.71-33c-.09-11.4-1-23.36-6.8-33-8.19-13.63-24.06-19.49-38.9-23.48a373.74 373.74 0 0 0-117.36-12.28C309.36 14 300 19.64 288.3 23.78a54.23 54.23 0 0 0-28.96 24.76Z" fill="#701a13"/><path d="M485.24 82c.11 11.16-.45 22.45-3.71 33a48.38 48.38 0 0 1-1.79 5 5.66 5.66 0 0 0-.44-.73c-3.24-5.09-11.24-4.07-16.11-.52s-8.4 8.84-13.71 11.72c-6.2 3.33-13.82 2.71-20.54.65s-13-5.44-19.72-7.6a56.41 56.41 0 0 0-30.81-1c-10.52 2.61-20.68 8.31-31.46 7.21-10.94-1.15-21.61-9.28-31.94-5.63-4.56 1.66-8.07 5.38-12.52 7.39-7.61 3.42-17 1-23.36-4.45s-9.94-13.56-11.65-21.79-1.79-16.62-2.25-25c-.43-7.75-2.39-17.44-11.7-18.53h-.11a78.49 78.49 0 0 1 5.91-13.23 54.58 54.58 0 0 1 6.49-9.15 27.76 27.76 0 0 0 21.73-1.32c7.18-3.61 12.54-10.27 19.78-13.73 8.64-4.08 18.68-3.22 28.11-1.77q12.31 1.92 24.52 4.95c4.44 1.08 8.93 2.31 13.48 2 5-.25 9.74-2.33 14.63-3.57 14.78-3.89 30.45-.47 45.34 3.08 9 2.15 19.35 5.36 22.8 14 2.2 5.39 1.3 12.18 5.4 16.25 3.89 3.87 10.37 3.21 15.39 1a23.13 23.13 0 0 0 5.05-3.09c2.64 7.86 3.16 16.54 3.19 24.86Z" fill="#802017"/><path d="M488.18 130.82c-.36-1.51-3.73-6.83-5.06-5.72s-46.3 24.2-61.84 32.63-22.81 8.34-23.44 10.74.38 6.15 2.63 6.69c.65.15 64.45-29.64 68.69-32 10.3-5.87 16.59-9.07 17.9-10.24s1.12-2.1 1.12-2.1Z" fill="#ffd94e" fill-rule="evenodd"/><path d="M485.41 126.24c-.88-1-1.75-1.59-2.29-1.14-1.34 1.11-46.3 24.2-61.84 32.63s-22.81 8.34-23.44 10.74a6.5 6.5 0 0 0-.15 2.18c1.06-.2 2.56-.8 4.84-1.42 4.86-1.32 71.5-33.63 75.9-36.39a33 33 0 0 0 6.98-6.6Z" fill="#fcce47" fill-rule="evenodd"/><path d="M490.49 121.54c-.35-1.51-3.72-6.83-5.05-5.72s-46.3 24.18-61.84 32.64-22.81 8.33-23.44 10.74.38 6.15 2.63 6.68c.65.16 64.45-29.63 68.68-32 10.31-5.87 16.59-9.07 17.91-10.25s1.11-2.09 1.11-2.09Z" fill="#ffd94e" fill-rule="evenodd"/><path d="M487.72 117c-.87-1-1.74-1.59-2.28-1.14-1.34 1.11-46.3 24.21-61.84 32.64s-22.81 8.33-23.44 10.74a6.68 6.68 0 0 0-.16 2.17c1.07-.2 2.57-.79 4.85-1.41 4.86-1.33 71.5-33.64 75.9-36.4a32.52 32.52 0 0 0 6.97-6.6Z" fill="#fcce47" fill-rule="evenodd"/><path d="M411.69 181.63c14.77-3.5 57-25.35 69.42-32.4s23.08-14 22.24-17.85-1.67-5.23-3.75-4.78-55 29-74 40.52-27.5 10.76-26.29 14.23 12.38.28 12.38.28Z" fill="#ffd94e" fill-rule="evenodd"/><path d="M502 127.43a2.07 2.07 0 0 0-2.38-.83c-2.08.45-55 29-74 40.52s-27.5 10.76-26.29 14.23a1.76 1.76 0 0 0 .31.53c2.2-.77 5-2.06 8.62-3.08 8.92-2.55 22.15-8.2 28.31-12s9.64-6.43 19.1-10.81S495.13 135 500 130.24a9.87 9.87 0 0 0 2-2.81Z" fill="#fcce47" fill-rule="evenodd"/><path d="M493 114.07c-.64-1.65-5.28-7.14-6.61-5.67s-48.59 34.6-64.86 46.54-24.48 13-24.82 15.8 1.39 6.89 4 7.14c.75.08 68.25-43.55 72.66-46.94 10.74-8.24 17.34-12.84 18.65-14.37s.98-2.5.98-2.5Z" fill="#ffd94e" fill-rule="evenodd"/><path d="M489.13 109.33c-1.14-1-2.22-1.53-2.76-.93-1.37 1.46-48.57 34.6-64.84 46.54s-24.48 13-24.82 15.8a7.55 7.55 0 0 0 .16 2.48c1.17-.4 2.78-1.3 5.26-2.36 5.29-2.25 75.6-49.18 80.14-53a37.55 37.55 0 0 0 6.86-8.53Z" fill="#fcce47" fill-rule="evenodd"/><path d="M454.92 138.16c-.47-1.47-4.25-6.51-5.49-5.3s-44.25 27.76-59.09 37.39-22.08 10.1-22.52 12.54.86 6.1 3.15 6.46c.66.1 61.92-34.6 65.95-37.34 9.82-6.66 15.83-10.34 17.05-11.61s.95-2.14.95-2.14Z" fill="#ffd94e" fill-rule="evenodd"/><path d="M451.8 133.81c-.95-.9-1.87-1.44-2.37-.95-1.24 1.21-44.25 27.76-59.09 37.39s-22.08 10.1-22.52 12.54a6.71 6.71 0 0 0 0 2.19c1.05-.29 2.5-1 4.73-1.8 4.74-1.7 68.63-39.14 72.8-42.24a32.66 32.66 0 0 0 6.45-7.13Z" fill="#fcce47" fill-rule="evenodd"/><path d="M456.5 128.73c-.47-1.47-4.25-6.51-5.49-5.3s-44.25 27.76-59.09 37.39-22.08 10.1-22.52 12.54.87 6.11 3.15 6.46c.66.1 61.92-34.6 66-37.34 9.81-6.66 15.82-10.34 17.05-11.61s.9-2.14.9-2.14Z" fill="#ffd94e" fill-rule="evenodd"/><path d="M453.38 124.39c-.95-.91-1.87-1.45-2.37-1-1.24 1.21-44.25 27.76-59.09 37.39s-22.08 10.1-22.52 12.54a6.46 6.46 0 0 0 0 2.19c1-.29 2.5-1 4.72-1.8 4.74-1.7 68.64-39.14 72.8-42.24a32.58 32.58 0 0 0 6.46-7.08Z" fill="#fcce47" fill-rule="evenodd"/><path d="M382.65 194.83c14.46-4.66 54.81-29.75 66.67-37.75s21.91-15.76 20.77-19.54-2.08-5.09-4.11-4.48-52.58 33.21-70.56 46.21-26.57 12.88-25.08 16.24 12.31-.68 12.31-.68Z" fill="#ffd94e" fill-rule="evenodd"/><path d="M468.42 133.7a2.08 2.08 0 0 0-2.44-.64c-2 .61-52.58 33.21-70.56 46.21s-26.57 12.88-25.08 16.24a1.75 1.75 0 0 0 .34.51c2.13-.94 4.85-2.45 8.35-3.75 8.7-3.24 21.44-9.92 27.29-14.21s9.1-7.17 18.19-12.27 37.67-24 42.15-29.13a10 10 0 0 0 1.76-2.96Z" fill="#fcce47" fill-rule="evenodd"/><path d="M458.39 121.09c-.76-1.59-5.82-6.7-7-5.14s-45.71 38.3-61 51.49-23.38 14.86-23.5 17.7 1.93 6.76 4.56 6.81c.76 0 64.62-48.78 68.76-52.5 10.05-9.06 16.28-14.17 17.46-15.8s.72-2.56.72-2.56Z" fill="#ffd94e" fill-rule="evenodd"/><path d="M454.19 116.66c-1.22-.88-2.34-1.34-2.83-.71-1.22 1.57-45.71 38.3-61 51.49s-23.38 14.86-23.5 17.7a7.45 7.45 0 0 0 .36 2.46c1.13-.48 2.66-1.51 5.06-2.76 5.09-2.66 71.5-55 75.73-59.11a37.43 37.43 0 0 0 6.18-9.07Z" fill="#fcce47" fill-rule="evenodd"/><path d="M430.64 68.16A171.93 171.93 0 0 1 451.87 98a147.25 147.25 0 0 1 6.8 13.52s-3.2-4.82-8.65-12.33-13.32-17.59-22.66-28.1-18.44-19.48-25.28-25.75-11.24-10-11.24-10a147.18 147.18 0 0 1 12.64 8.32 171.45 171.45 0 0 1 27.16 24.5ZM374.5 76.84a192.58 192.58 0 0 1 29.86 35.68c3.22 5 5.65 9.16 7.19 12.1l2.42 4.55-3.15-4.08c-2-2.64-5-6.38-8.72-10.91a362.4 362.4 0 0 0-66.76-62.28c-4.78-3.42-8.72-6.15-11.5-7.94l-4.28-2.85 4.71 2.09c3 1.34 7.35 3.47 12.57 6.34a192.81 192.81 0 0 1 37.66 27.3Z" fill="#51110c"/><path d="m356.76 86.74-7.61-4.44a35.39 35.39 0 0 0 9.75-3.82 37.81 37.81 0 0 0 8.7-7.06 31.34 31.34 0 0 0-4.69 1.35c-1 .38-2.19.86-3.39 1.44a34 34 0 0 0 3.33-4.38l-.75.3a33.38 33.38 0 0 0-7.8 4.87 30.34 30.34 0 0 0-2.81 2.69 33.92 33.92 0 0 0-3.29 4.11l-8-4.69-.88 1.51 5.75 3.38v.53a38.61 38.61 0 0 0 .07 4 36.74 36.74 0 0 0 .93 6 34.66 34.66 0 0 0 2 5.71 32.2 32.2 0 0 0 2.27 4.33 35.27 35.27 0 0 0-.09-5.57c.21.31.41.64.61.93a31.13 31.13 0 0 0 2.83 3.57 33.35 33.35 0 0 0-2.75-9.79 34 34 0 0 0-3.78-6.27 33.6 33.6 0 0 0-1.66-3.18l7.6 4.44v.41c0 .57.09 1.38.21 2.37s.3 2.15.58 3.42a33.17 33.17 0 0 0 1.13 4 35.84 35.84 0 0 0 3.31 6.91 28.78 28.78 0 0 0 1.84 2.7 35.43 35.43 0 0 0-.83-6.75c.09.15.19.32.29.46a41 41 0 0 0 3.84 4.91 33.1 33.1 0 0 0 2.61 2.62 40.67 40.67 0 0 0-4.41-11.54 41.09 41.09 0 0 0-6.34-8.21l6.61 3.86c.15.46.49 1.43 1 2.69l.05.19c.3 1 .69 2.06 1.19 3.26a34.24 34.24 0 0 0 1.84 3.78 36.16 36.16 0 0 0 6.79 8.51s-.15-.82-.51-2.11a37.71 37.71 0 0 0 3.74 3.17 40.67 40.67 0 0 0-5.55-11 41.66 41.66 0 0 0-7.14-7.6s0 0-.05 0l.22.13.62-1a35.84 35.84 0 0 0 8.34 4.12A35.11 35.11 0 0 0 383 98l-.63-.48-.13-.09a36.93 36.93 0 0 0-6.48-3.7 41.38 41.38 0 0 0 11.39-.8 40.83 40.83 0 0 0-12-3.09c-.84-.08-1.66-.13-2.46-.16a41.35 41.35 0 0 0-9.51.82L358 87.45a35.83 35.83 0 0 0 9.75-2.45 37.79 37.79 0 0 0 9.56-5.86 30.83 30.83 0 0 0-4.84.73 35.56 35.56 0 0 0-4.47 1.29 37.88 37.88 0 0 0 6.51-6.53s-.3.08-.84.26a36 36 0 0 0-9.05 4.46 36.8 36.8 0 0 0-4.76 4 35.52 35.52 0 0 0-3.1 3.39Zm.74.44-.46-.27c.34-.1.79-.25 1.4-.47-.44.31-.72.56-.94.74Zm-3.37.48-.48-.7.36.22c.04.14.07.28.12.48ZM349 82l-.11.11h-.06Z" fill="#82992a"/><path d="M320 80.38a241.47 241.47 0 0 1 22.88 25c5.42 6.76 8.57 11.1 8.57 11.1l-10.09-9.73c-6.18-6-14.59-14.45-24.14-23.38a274 274 0 0 0-25.68-21.47c-3.48-2.51-6.36-4.49-8.41-5.76l-3.16-2 3.46 1.48a100.39 100.39 0 0 1 9.21 4.6A142.16 142.16 0 0 1 320 80.38ZM286.84 103a202.8 202.8 0 0 1 14.89 19.1c3.53 5.09 5.57 8.34 5.57 8.34l-6.72-7.44-15.92-18a269.28 269.28 0 0 0-23.9-24.14 88.61 88.61 0 0 1 8.3 5.66A126.48 126.48 0 0 1 286.84 103ZM403.94 96.42a298.89 298.89 0 0 1 43.89-17S429 88.84 405.68 100s-42.46 20-42.46 20a299 299 0 0 1 40.72-23.58ZM387.42 54.68a205.84 205.84 0 0 1 32.06-11.33c8.42-2.21 13.73-3.1 13.73-3.1l-13.1 5c-8.05 3.16-19 7.73-31 13.13S366.46 69.06 358.78 73l-12.43 6.5s4.17-3.39 11.38-8.26a207.18 207.18 0 0 1 29.69-16.56Z" fill="#51110c"/><path d="M305.68 73.48A306.34 306.34 0 0 1 337 52.58c8.57-4.75 14.58-5.75 14.58-5.75a63.49 63.49 0 0 0-13.38 7.67c-7.69 5.6-18.12 13.88-29.82 22.61-23.36 17.54-42.71 31.46-42.71 31.46a349.51 349.51 0 0 1 40.01-35.09ZM322.83 109.68a193.35 193.35 0 0 1 23.6-12.3c6.25-2.71 10.23-4.1 10.23-4.1s-14.66 8.32-32.15 19.13-31.59 20.05-31.59 20.05 3-2.93 8.28-7.28a193.89 193.89 0 0 1 21.63-15.5Z" fill="#51110c"/><circle cx="360.01" cy="167.22" r="31.6" transform="rotate(-64.94 360.025 167.21)" fill="#3c1e1e"/><path d="M359.22 140.15A27.07 27.07 0 0 0 332.94 168a27.84 27.84 0 0 0 .26 3.06 27.08 27.08 0 0 0 53.8-1.55 28.58 28.58 0 0 0 .09-3.08 27.08 27.08 0 0 0-27.87-26.28Z" fill="#c40e18"/><path d="M387 169.51a27.08 27.08 0 0 1-53.79 1.56 27.4 27.4 0 0 1 53.79-1.56Z" fill="#db121c"/><path d="M337.75 169.85a12.79 12.79 0 0 0 .11 6.09 15.93 15.93 0 0 0 2.73 4.71c2.12 2.78 4.44 5.55 7.55 7.14s7.21 1.75 9.89-.5c1.84-1.54 2.69-4.53 1.17-6.38s-4.39-1.95-5.37-4a4.24 4.24 0 0 1-.18-2.75 16.6 16.6 0 0 1 3.47-6.38 20.78 20.78 0 0 0 3.78-6.24c2.35-7.53-6.58-9.92-12.22-7.79-5.9 2.25-9.89 10.36-10.93 16.1Z" fill="#c40e18"/><path d="M373.66 176.06a30.44 30.44 0 0 1-9.9 14.76 20.37 20.37 0 0 0 16.67-18.36c.4-6.82-4-16.5-11-18.67-1 2 3.56 7.22 4.24 9.54a23.33 23.33 0 0 1-.01 12.73Z" fill="#e1494f"/><circle cx="496.1" cy="268.38" r="32.58" transform="rotate(-11.5 495.832 267.683)" fill="#392929" opacity=".1"/><circle cx="498.1" cy="265.38" r="32.58" transform="rotate(-11.5 497.832 264.683)" fill="#eceae6" opacity=".44"/><circle cx="498.15" cy="265.57" r="31.55" transform="rotate(-24.37 498.188 265.587)" fill="#eceae6" opacity=".44"/><path d="M484.66 282.38c-1.05 2-1.86 3.84-2.46 5.33a28.65 28.65 0 0 0 3.07 2.1 28.27 28.27 0 0 0 19.63 3.44 29 29 0 0 1-20.24-10.87Z" fill="#973440"/><path d="M482.4 249.67a28.84 28.84 0 0 1 15.31-12.6 28.36 28.36 0 0 0-15.51 50.64c.6-1.49 1.41-3.29 2.46-5.33a29 29 0 0 1-2.26-32.71Z" fill="#6d2125"/><path d="M484.66 282.38a29 29 0 0 0 20.24 10.87 28.37 28.37 0 0 0 17.49-44.89 71.89 71.89 0 0 0-37.73 34.02Z" fill="#a13333"/><path d="M484.66 282.38a71.89 71.89 0 0 1 37.73-34 28.37 28.37 0 0 0-24.68-11.29 29 29 0 0 0-13 45.31Z" fill="#8e2929"/></g></svg>