<?xml version="1.0" encoding="utf-8"?>
<!-- Generator: Adobe Illustrator 22.0.1, SVG Export Plug-In . SVG Version: 6.00 Build 0)  -->
<svg version="1.1" id="Layer_1" xmlns="http://www.w3.org/2000/svg" xmlns:xlink="http://www.w3.org/1999/xlink" x="0px" y="0px"
	 viewBox="0 0 408.1 354.4" style="enable-background:new 0 0 408.1 354.4;" xml:space="preserve">
<style type="text/css">
	.st0{fill:#FEE78B;}
	.st1{fill:#343a40;}
</style>
<g id="Layer_2_1_">
	<path class="st0" d="M297.4,269.6H158.6c-1.9,0-3.5-1.6-3.5-3.6c0-2,1.6-3.6,3.5-3.6h138.8c1.9,0,3.5,1.6,3.5,3.6
		C300.9,268,299.4,269.6,297.4,269.6z M300.9,237v7.2c0,6-4.7,10.9-10.4,10.9h-125c-5.8,0-10.4-4.9-10.4-10.9V237
		c0-40.6,30.5-74.1,69.4-76v-7.4h-3.5c-1.9,0-3.5-1.6-3.5-3.6c0-2,1.6-3.6,3.5-3.6H235c1.9,0,3.5,1.6,3.5,3.6c0,2-1.6,3.6-3.5,3.6
		h-3.5v7.4C270.4,162.9,301,196.4,300.9,237z M285.2,221.6c-6.7-27.2-30.2-46.2-57.1-46.2c-1.9,0-3.5,1.6-3.5,3.6
		c0,2,1.6,3.6,3.5,3.6c23.7,0,44.5,16.8,50.4,40.8c0.5,1.9,2.4,3,4.3,2.5C284.5,225.4,285.6,223.5,285.2,221.6L285.2,221.6z"/>
	<path class="st1" d="M162.2,163.7c12.7-6.8,20.7-20.5,20.7-35.4c0-1.7-3.5-33.7-3.6-34.1c8.8-4,12.9-14.6,9-23.8
		c-2.7-6.6-9-10.9-15.9-10.9H117c-9.6,0-17.3,8.1-17.3,18.2c0,7.2,4.1,13.7,10.5,16.6c0,0.4-3.6,32.4-3.6,34.1
		c0,14.9,8,28.6,20.7,35.4c-24.7,7.9-41.6,31.8-41.6,58.8v7.2c0,6,4.7,10.9,10.4,10.9h97.2c5.8,0,10.4-4.9,10.4-10.9v-7.2
		C203.8,195.5,186.9,171.7,162.2,163.7z M196.6,218.9h-17.2v-3.6c0-2-1.6-3.6-3.5-3.6c-1.9,0-3.5,1.6-3.5,3.6v18.1h-38.2v-33.9
		c0-11.6,4.2-22.8,11.9-31.3C173,169,194.9,190.9,196.6,218.9z M106.5,77.6c0-6,4.7-10.9,10.4-10.9h55.5c5.8,0.1,10.4,5,10.3,11
		c0,5-3.3,9.3-8,10.5c-1.7,0.4-2.9,2.1-2.7,3.9l2.7,25.3h-60.3l2.7-25.3c0.2-1.8-1-3.5-2.7-3.9C109.9,87,106.5,82.6,106.5,77.6z
		M113.7,124.7h62.1c2,17.9-10.3,34.1-27.5,36.1s-32.6-10.8-34.6-28.7C113.4,129.7,113.4,127.2,113.7,124.7z M136.8,168.8
		c-6.1,9-9.4,19.7-9.4,30.7v33.9H117v-18.1c0-2-1.6-3.6-3.5-3.6c-1.9,0-3.5,1.6-3.5,3.6v3.6H92.9
		C94.4,193.5,112.7,172.7,136.8,168.8z M92.7,229.8v-3.6H110v7.2H96.1C94.2,233.4,92.7,231.8,92.7,229.8z M193.3,233.4h-13.9v-7.2
		h17.4v3.6C196.8,231.8,195.2,233.4,193.3,233.4z M148.2,193.5c0,2-1.6,3.6-3.5,3.6c-1.9,0-3.5-1.6-3.5-3.6c0-2,1.6-3.6,3.5-3.6
		C146.6,189.9,148.2,191.5,148.2,193.5z M148.2,208c0,2-1.6,3.6-3.5,3.6c-1.9,0-3.5-1.6-3.5-3.6c0-2,1.6-3.6,3.5-3.6
		C146.6,204.4,148.2,206,148.2,208z M148.2,222.5c0,2-1.6,3.6-3.5,3.6c-1.9,0-3.5-1.6-3.5-3.6c0-2,1.6-3.6,3.5-3.6
		C146.6,218.9,148.2,220.5,148.2,222.5z"/>
</g>
</svg>
