<?xml version="1.0" encoding="utf-8"?>
<!-- Generator: Adobe Illustrator 22.0.1, SVG Export Plug-In . SVG Version: 6.00 Build 0)  -->
<svg version="1.1" id="Layer_1" xmlns="http://www.w3.org/2000/svg" xmlns:xlink="http://www.w3.org/1999/xlink" x="0px" y="0px"
	 viewBox="0 0 425.2 425.2" enable-background="new 0 0 425.2 425.2" xml:space="preserve">
<g id="Capa_1" opacity="2.000000e-02">
	<path d="M303.6,411.7l7.5,7.5c0.5,0.6,1.1,1,1.9,1.1c2.1,0.2,8.4-0.1,8.4-0.1l0,0c2.5,0,4.8,1.2,6.4,3.1l1.6,1.9h6.1l-5.2-4.4
		c-1.9-1.6-3-3.9-3.1-6.4c0,0,0.3-6.3,0.1-8.4c-0.1-0.8-0.5-1.4-1.1-1.9l-7.5-7.5L292.8,372c-0.5-0.5-1.1-0.7-1.6-0.3s0,1.1,0.4,1.5
		l24.5,26l-1.6,1.6l-25.8-24.7c-0.5-0.5-1.1-0.7-1.6-0.3s0,1.1,0.4,1.5l24.5,26l-1.6,1.6l-25.8-24.6c-0.5-0.5-1.1-0.7-1.6-0.3
		s0,1.1,0.4,1.5l24.5,26l-1.7,1.7l-25.8-24.6c-0.5-0.5-1.1-0.7-1.6-0.3s0,1.1,0.4,1.5L303.6,411.7z"/>
	<path d="M363.6,388.3c4,1.3,4.5,0.8,7.8,3.9l1,1c0,0.3,0.1,0.6,0.3,0.9c8.3,9.6,18.1,21.1,27,31.1h20.6c-0.5-1.8-1.6-3.4-3-4.7
		c-11.4-10.3-26-23.1-37.8-33.2c-0.3-0.2-0.6-0.3-1-0.3l-43.4-43.5c0,0-3-1.5-3.6,3.7C331,351.9,345.9,382.3,363.6,388.3z"/>
	<path d="M292.9,355.1c15.5,13.9,38,32.7,47.6,40.9c3.9,3.4,2.4,7.9,2,10.5c-1.6,9.1,3.4,15,8.3,18.7h29.6c-0.2-5.6-3.2-12.1-4-13.3
		c-1.5-2.4-7.8-18.8-23.2-16.1c-2.6,0.5-7.2,2-10.5-1.9c-8.2-9.6-26.9-32.1-40.8-47.7c-1.2-1.3-4.8-6-9.8-0.9
		C286.4,350.8,291.4,353.8,292.9,355.1z"/>
	<path d="M303.2,425.2l-24.8-24.8c0,0-3-1.5-3.6,3.6c-0.3,2.4,3.7,11.9,10,21.2H303.2z"/>
	<path d="M236.3,411.8c4.6,4.2,9.9,8.8,15.2,13.4h13c-6.5-7.7-13.3-15.6-19.3-22.3c-1.2-1.3-4.8-6-9.8-0.9
		C229.7,407.6,234.8,410.5,236.3,411.8z"/>
	<path d="M425.2,278.6v-4.4l-17.9-17.1c-0.5-0.5-1.1-0.7-1.6-0.3s0,1.1,0.4,1.5L425.2,278.6z"/>
	<path d="M425.2,287.2v-4.8l-22-21c-0.5-0.5-1.1-0.7-1.6-0.3s0,1.1,0.4,1.5L425.2,287.2z"/>
	<path d="M425.2,289.8l-0.4,0.4L399,265.5c-0.5-0.5-1.1-0.7-1.6-0.3s0,1.1,0.4,1.5l24.5,26l-1.7,1.7l-25.8-24.6
		c-0.5-0.5-1.1-0.7-1.6-0.3s0,1.1,0.4,1.5l24.5,26l7.1,7.1V289.8z"/>
	<path d="M425.2,241.5c-3.1-3.6-6.1-7-8.9-10.1c-1.2-1.3-4.8-6-9.8-0.9c-5.6,5.6-0.5,8.5,0.9,9.8c5.4,4.8,11.6,10.2,17.8,15.6V241.5
		z"/>
	<path d="M425.2,394.3c-14.5-12.5-29.4-25-37.1-31.6c-1.9-1.6-3-3.9-3.1-6.4c0,0,0.3-6.3,0-8.4c-0.1-0.8-0.5-1.4-1.1-1.9l-7.5-7.5
		l-25.8-24.6c-0.5-0.5-1.1-0.7-1.6-0.3s0,1.1,0.4,1.5l24.5,26l-1.6,1.6L346.5,318c-0.5-0.5-1.1-0.7-1.6-0.3s0,1.1,0.4,1.5l24.5,26
		l-1.6,1.6l-25.8-24.6c-0.5-0.5-1.1-0.8-1.6-0.3s0,1.1,0.4,1.5l24.5,26l-1.7,1.7l-25.8-24.6c-0.5-0.5-1.1-0.8-1.6-0.3s0,1.1,0.4,1.5
		l24.5,26l7.5,7.5c0.5,0.6,1.1,1,1.9,1.1c2.1,0.2,8.4,0,8.4,0l0,0c2.5,0,4.8,1.2,6.4,3.1c8.1,9.4,24.8,29.5,39.6,46.6V394.3z"/>
	<path d="M425.2,317.9L393,285.6c0,0-3-1.5-3.6,3.6c-0.5,4.6,14.4,35.1,32.1,41c1.7,0.6,2.8,0.8,3.7,1.1L425.2,317.9z"/>
	<path d="M425.2,341.4c-4-3.3-9.2-4.6-14.2-3.6c-2.6,0.5-7.2,2-10.5-2c-8.2-9.6-26.9-32.1-40.8-47.7c-1.2-1.3-4.8-6-9.8-0.9
		c-5.6,5.6-0.5,8.5,0.9,9.9c15.5,13.9,38,32.7,47.5,40.9c3.9,3.4,2.4,7.9,2,10.5c-2.7,15.5,13.6,21.8,16,23.3
		c2.8,1.5,5.8,2.6,8.8,3.3L425.2,341.4z"/>
	<path d="M180.7,261c-0.4,0.4,0,1.1,0.4,1.5l24.5,26L204,290l-25.8-24.7c-0.5-0.5-1.1-0.7-1.6-0.3s0,1.1,0.4,1.5l24.5,26l-1.6,1.6
		L174,269.5c-0.5-0.5-1.1-0.7-1.6-0.3s0,1.1,0.4,1.5l24.5,26l-1.7,1.7l-25.8-24.6c-0.5-0.5-1.1-0.7-1.6-0.3s0,1.1,0.4,1.5l24.5,26
		l7.4,7.5c0.5,0.6,1.1,1,1.9,1.1c2.1,0.2,8.4-0.1,8.4-0.1l0,0c2.5,0,4.8,1.2,6.4,3.1c9.7,11.3,31.8,38.1,48.3,56.5
		c1.4,1.6,5.6,7.1,11.6,1.1c6.6-6.6,0.6-10.1-1.1-11.7c-18.4-16.5-45-38.7-56.3-48.4c-1.9-1.6-3-3.9-3.1-6.4c0,0,0.3-6.3,0-8.4
		c-0.1-0.8-0.5-1.4-1.1-1.9l-7.4-7.5l-25.8-24.6C181.9,260.8,181.2,260.5,180.7,261z"/>
	<path d="M269,276.6c-0.3-0.2-0.6-0.3-1-0.3l-43.4-43.5c0,0-3-1.5-3.6,3.6c-0.5,4.6,14.4,35.1,32.1,41c4,1.3,4.5,0.8,7.8,3.9l1,1
		c0,0.3,0.1,0.6,0.3,0.9c10.2,11.9,22.8,26.5,33.1,37.9c1.4,1.5,6.7,5.6,11.9,0.4c5.7-5.7,1.2-10.4-0.4-11.9
		C295.5,299.5,280.8,286.7,269,276.6z"/>
	<path d="M248,319.1c1.7,1.1,14.8,7,19.8,2s-0.9-18.2-2-19.9c-1.5-2.4-7.8-18.8-23.2-16.1c-2.6,0.5-7.2,2-10.5-2
		c-8.2-9.6-26.9-32.1-40.8-47.7c-1.2-1.3-4.8-6-9.8-0.9c-5.6,5.6-0.5,8.5,0.9,9.8c15.5,13.9,38,32.7,47.6,40.9
		c3.9,3.4,2.4,7.9,2,10.5C229.3,311.3,245.6,317.6,248,319.1z"/>
	<path d="M136.5,357.7l7.4,7.5c0.5,0.6,1.1,1,1.9,1.1c2.1,0.2,8.4,0,8.4,0l0,0c2.5,0,4.8,1.2,6.4,3.1c9.6,11.2,31.4,37.5,47.8,55.9
		H222c4.1-5.5-1-8.5-2.6-10c-18.4-16.5-45-38.7-56.3-48.5c-1.9-1.6-3-3.9-3.1-6.4c0,0,0.3-6.3,0.1-8.4c-0.1-0.8-0.5-1.4-1.1-1.9
		l-7.5-7.5L125.7,318c-0.5-0.5-1.1-0.8-1.6-0.3s0,1.1,0.4,1.5l24.5,26l-1.6,1.6l-25.8-24.6c-0.5-0.5-1.1-0.7-1.6-0.3s0,1.1,0.4,1.5
		l24.5,26l-1.6,1.7l-25.8-24.7c-0.5-0.5-1.1-0.8-1.6-0.3s0,1.1,0.4,1.5l24.5,26l-1.7,1.7l-25.8-24.7c-0.5-0.5-1.1-0.7-1.6-0.3
		s0,1.1,0.4,1.5L136.5,357.7z"/>
	<path d="M212.4,333.4c-0.3-0.2-0.6-0.3-1-0.3L168,289.6c0,0-3-1.5-3.6,3.7c-0.5,4.6,14.4,35.1,32.1,41c4,1.3,4.5,0.8,7.8,3.9l1,1
		c0,0.3,0.1,0.6,0.3,0.9c10.2,11.9,22.8,26.5,33.1,37.9c1.4,1.5,6.7,5.6,11.9,0.4c5.7-5.7,1.2-10.4-0.4-11.9
		C238.8,356.3,224.2,343.5,212.4,333.4z"/>
	<path d="M191.4,375.8c1.7,1,14.8,7,19.8,2s-0.9-18.2-2-19.9c-1.4-2.4-7.8-18.8-23.2-16.1c-2.6,0.5-7.2,2-10.5-2
		c-8.2-9.6-26.9-32.1-40.8-47.7c-1.2-1.3-4.8-6-9.8-0.9c-5.6,5.6-0.5,8.5,0.9,9.9c15.5,13.9,38,32.7,47.5,40.9
		c3.9,3.4,2.4,7.9,2,10.5C172.7,368,189,374.4,191.4,375.8z"/>
	<path d="M79.9,414.5l7.4,7.5c0.5,0.6,1.1,1,1.9,1.1c2.1,0.2,8.4,0,8.4,0l0,0c2.1,0,4,0.8,5.5,2.2h5.3l-1.9-1.6
		c-1.9-1.6-3-3.9-3.1-6.4c0,0,0.3-6.3,0.1-8.4c-0.1-0.8-0.5-1.4-1.1-1.9l-7.4-7.5l-25.8-24.6c-0.5-0.5-1.1-0.7-1.6-0.3
		s0,1.1,0.4,1.5l24.5,26l-1.6,1.6l-25.8-24.6c-0.5-0.5-1.1-0.7-1.6-0.3s0,1.1,0.4,1.5l24.5,26l-1.6,1.6L60.8,383
		c-0.5-0.5-1.1-0.7-1.6-0.3s0,1.1,0.4,1.5l24.5,26l-1.7,1.7l-25.8-24.6c-0.5-0.5-1.1-0.7-1.6-0.3s0,1.1,0.4,1.5L79.9,414.5z"/>
	<path d="M139.9,391.1c4,1.3,4.5,0.8,7.8,3.9l1,1c0,0.3,0.1,0.6,0.3,0.9c7.5,8.7,16.3,19,24.5,28.3h21.7c-0.5-0.7-1.1-1.3-1.7-1.9
		c-11.4-10.3-26-23.1-37.8-33.2c-0.3-0.2-0.6-0.3-1-0.3l-43.3-43.5c0,0-3-1.5-3.6,3.7C107.3,354.7,122.2,385.1,139.9,391.1z"/>
	<path d="M69.2,357.9c15.5,13.9,38,32.7,47.6,40.9c3.9,3.4,2.4,7.9,2,10.5c-1.1,5.8,0.8,11.8,5.1,15.9h32.5
		c-0.7-3.7-1.9-7.2-3.6-10.5c-1.5-2.4-7.8-18.8-23.2-16.1c-2.6,0.5-7.2,2-10.5-2c-8.2-9.6-26.9-32.1-40.8-47.7
		c-1.2-1.3-4.8-6-9.8-0.9C62.7,353.6,67.7,356.6,69.2,357.9z"/>
	<path d="M76.7,425.2l-22-22c0,0-3-1.5-3.6,3.7c-0.2,2.2,2.9,10,8.2,18.4L76.7,425.2z"/>
	<path d="M12.6,414.6c3.7,3.3,7.8,6.9,12,10.6h13.8c-5.8-6.8-11.7-13.6-16.9-19.5c-1.2-1.3-4.8-6-9.8-0.9
		C6,410.4,11.1,413.3,12.6,414.6z"/>
	<path d="M425.2,51.4v-4.1l-15.1-14.4c-0.5-0.5-1.1-0.7-1.6-0.3s0,1.1,0.4,1.5L425.2,51.4z"/>
	<path d="M425.2,63.5l-23.4-22.3c-0.5-0.5-1.1-0.8-1.6-0.3s0,1.1,0.4,1.5l24.5,26l-1.7,1.7l-25.8-24.6c-0.5-0.5-1.1-0.8-1.6-0.3
		s0,1.1,0.4,1.5l24.5,26l4.3,4.4V63.5z"/>
	<path d="M425.2,60v-4.5L406,37.1c-0.5-0.5-1.1-0.7-1.6-0.3s0,1.1,0.4,1.5L425.2,60z"/>
	<path d="M425.2,14.1c-2.1-2.4-4.1-4.7-6.1-6.9c-1.2-1.3-4.8-6-9.8-0.9c-5.6,5.6-0.5,8.5,0.9,9.8c4.6,4.1,9.7,8.6,15,13.2
		L425.2,14.1z"/>
	<path d="M425.2,167.7c-13.6-11.7-27.1-23-34.3-29.2c-1.9-1.6-3-3.9-3.1-6.4c0,0,0.3-6.3,0-8.4c-0.1-0.8-0.5-1.4-1.1-1.9l-7.5-7.5
		l-25.8-24.7c-0.5-0.5-1.1-0.8-1.6-0.3s0,1.1,0.4,1.5l24.5,26l-1.6,1.6l-25.8-24.6c-0.5-0.5-1.1-0.7-1.6-0.3s0,1.1,0.4,1.5l24.5,26
		l-1.6,1.6L345.2,98c-0.5-0.5-1.1-0.7-1.6-0.3s0,1.1,0.4,1.5l24.5,26l-1.7,1.7L341,102.2c-0.5-0.5-1.1-0.7-1.6-0.3s0,1.1,0.4,1.5
		l24.5,26l7.5,7.5c0.5,0.6,1.1,1,1.9,1.1c2.1,0.2,8.4-0.1,8.4-0.1l0,0c2.5,0,4.8,1.2,6.4,3.1c7.6,8.9,22.7,27.1,36.8,43.4
		L425.2,167.7z"/>
	<path d="M425.2,90.8l-29.4-29.5c0,0-3-1.5-3.6,3.7c-0.5,4.6,14.4,35.1,32.1,41c0.3,0.1,0.6,0.2,0.9,0.3V90.8z"/>
	<path d="M425.2,115.3c-3.5-1.9-7.5-2.5-11.4-1.8c-2.6,0.5-7.2,2-10.5-2c-8.2-9.6-26.9-32.1-40.8-47.7c-1.2-1.3-4.8-6-9.8-0.9
		c-5.6,5.6-0.5,8.5,0.9,9.8c15.5,13.9,38,32.7,47.6,40.9c3.9,3.4,2.4,7.9,2,10.5c-2.7,15.5,13.7,21.8,16.1,23.3c1.9,1,3.9,1.9,6,2.5
		L425.2,115.3z"/>
	<path d="M295.3,146.2c-0.4,0.4,0,1.1,0.4,1.5l24.5,26l-1.6,1.6l-25.8-24.6c-0.5-0.5-1.1-0.8-1.6-0.3s0,1.1,0.4,1.5l24.5,26
		l-1.6,1.6l-25.8-24.6c-0.5-0.5-1.1-0.7-1.6-0.3s0,1.1,0.4,1.5l24.5,26l-1.7,1.7L284.4,159c-0.5-0.5-1.1-0.7-1.6-0.3s0,1.1,0.4,1.5
		l24.5,26l7.5,7.5c0.5,0.6,1.1,1,1.9,1.1c2.1,0.2,8.4,0,8.4,0l0,0c2.5,0,4.8,1.2,6.4,3.1c9.7,11.3,31.8,38.1,48.3,56.5
		c1.4,1.6,5.6,7.1,11.6,1.1c6.6-6.6,0.6-10.1-1.1-11.7c-18.4-16.5-45-38.7-56.3-48.4c-1.9-1.6-3-3.9-3.1-6.4c0,0,0.3-6.3,0-8.4
		c-0.1-0.8-0.5-1.4-1.1-1.9l-7.5-7.5l-25.8-24.7C296.4,146,295.7,145.7,295.3,146.2z"/>
	<path d="M383.5,161.8c-0.3-0.2-0.6-0.3-1-0.3l-43.4-43.5c0,0-3-1.5-3.6,3.7c-0.5,4.6,14.4,35.1,32.1,41c4,1.3,4.5,0.8,7.8,3.9l1,1
		c0,0.3,0.1,0.6,0.3,0.9c10.2,11.9,22.8,26.6,33.1,37.9c1.4,1.5,6.7,5.6,11.9,0.4c5.7-5.7,1.2-10.4-0.4-11.9
		C410,184.7,395.4,171.9,383.5,161.8z"/>
	<path d="M362.5,204.3c1.7,1.1,14.8,7,19.8,2s-0.9-18.2-2-19.9c-1.5-2.4-7.8-18.8-23.2-16.1c-2.6,0.4-7.2,2-10.5-2
		c-8.2-9.6-26.9-32.1-40.8-47.7c-1.2-1.3-4.8-6-9.8-0.9c-5.6,5.6-0.5,8.5,0.9,9.8c15.5,13.9,38,32.7,47.5,40.9
		c3.9,3.4,2.4,7.9,2,10.5C343.8,196.5,360.1,202.8,362.5,204.3z"/>
	<path d="M238.6,202.9c-0.4,0.4,0,1.1,0.4,1.4l24.5,26l-1.6,1.6l-25.8-24.7c-0.5-0.5-1.1-0.7-1.6-0.3s0,1.1,0.4,1.5l24.5,26
		l-1.6,1.6L232,211.5c-0.5-0.5-1.1-0.8-1.6-0.3s0,1.1,0.4,1.5l24.4,26l-1.7,1.7l-25.8-24.7c-0.5-0.5-1.1-0.7-1.6-0.3s0,1.1,0.4,1.4
		l24.4,26l7.5,7.5c0.5,0.6,1.1,1,1.9,1.1c2.1,0.2,8.4,0,8.4,0l0,0c2.5,0,4.8,1.2,6.4,3.1c9.7,11.3,31.8,38.1,48.3,56.5
		c1.4,1.6,5.6,7.1,11.6,1.1c6.6-6.6,0.6-10.1-1.1-11.7c-18.4-16.5-45-38.7-56.3-48.4c-1.9-1.6-3-3.9-3.1-6.4c0,0,0.3-6.3,0-8.4
		c-0.1-0.8-0.5-1.4-1.1-1.9l-7.5-7.5l-25.8-24.6C239.8,202.7,239.1,202.5,238.6,202.9z"/>
	<path d="M326.9,218.6c-0.3-0.2-0.6-0.3-1-0.3l-43.4-43.4c0,0-3-1.5-3.6,3.6c-0.5,4.6,14.4,35.1,32.1,41c4,1.3,4.5,0.8,7.8,3.9l1,1
		c0,0.3,0.1,0.6,0.3,0.9c10.2,11.9,22.8,26.6,33.1,37.9c1.4,1.5,6.7,5.6,11.9,0.4c5.7-5.7,1.2-10.4-0.4-11.9
		C353.4,241.5,338.7,228.7,326.9,218.6z"/>
	<path d="M305.9,261c1.7,1,14.8,7,19.8,2s-1-18.2-2-19.9c-1.5-2.4-7.8-18.8-23.2-16.1c-2.6,0.5-7.2,2-10.5-2
		c-8.2-9.6-26.9-32.1-40.8-47.7c-1.2-1.3-4.8-6-9.8-0.9c-5.6,5.6-0.5,8.6,0.9,9.9c15.5,13.9,38,32.7,47.5,40.9
		c3.9,3.4,2.4,7.9,2,10.5C287.2,253.3,303.5,259.6,305.9,261z"/>
	<path d="M70.3,150.3c-0.4,0.4,0,1.1,0.4,1.5l24.5,26l-1.6,1.6l-25.8-24.7c-0.5-0.5-1.1-0.7-1.6-0.3s0.1,1.1,0.4,1.5l24.5,26
		l-1.6,1.6l-25.8-24.6c-0.5-0.5-1.1-0.7-1.6-0.3s0,1.1,0.4,1.4l24.4,26l-1.7,1.7l-25.8-24.6c-0.5-0.5-1.1-0.7-1.6-0.3s0,1.1,0.4,1.4
		l24.5,26l7.4,7.5c0.4,0.6,1.1,1,1.9,1.1c2.1,0.2,8.3-0.1,8.3-0.1l0,0c2.5,0,4.8,1.2,6.4,3.1c9.7,11.3,31.8,38.1,48.3,56.5
		c1.4,1.6,5.6,7.1,11.6,1.1c6.6-6.6,0.6-10.1-1.1-11.7c-18.4-16.5-45-38.7-56.3-48.4c-1.9-1.6-3-3.9-3.1-6.4c0,0,0.3-6.3,0-8.4
		c-0.1-0.8-0.5-1.4-1.1-1.9l-7.4-7.5l-25.8-24.6C71.4,150.1,70.7,149.8,70.3,150.3z"/>
	<path d="M158.5,165.9c-0.3-0.2-0.6-0.3-1-0.3l-43.3-43.4c0,0-3-1.5-3.6,3.7c-0.5,4.6,14.4,35.1,32.1,41c4,1.3,4.5,0.8,7.8,3.9l1,1
		c0,0.3,0.1,0.6,0.3,0.9c10.2,11.9,22.8,26.6,33.1,37.9c1.4,1.5,6.7,5.6,11.9,0.4c5.7-5.7,1.2-10.4-0.4-11.9
		C185,188.8,170.4,176,158.5,165.9z"/>
	<path d="M137.6,208.4c1.7,1,14.8,7,19.8,2s-0.9-18.2-2-19.9c-1.5-2.4-7.8-18.8-23.2-16.1c-2.6,0.5-7.2,2-10.5-1.9
		c-8.2-9.6-26.9-32.1-40.8-47.7c-1.2-1.3-4.8-6-9.8-0.9c-5.6,5.6-0.5,8.5,0.9,9.8c15.5,13.9,38,32.7,47.6,40.9
		c3.9,3.4,2.4,7.9,2,10.5C118.8,200.6,135.2,206.9,137.6,208.4z"/>
	<path d="M13.6,207c-0.4,0.4,0,1.1,0.4,1.4l24.5,26l-1.6,1.6l-25.8-24.6c-0.5-0.5-1.1-0.7-1.6-0.3s0,1.1,0.4,1.5l24.5,26l-1.6,1.6
		L7,215.6c-0.5-0.5-1.1-0.8-1.6-0.3s0,1.1,0.4,1.5l24.5,26l-1.7,1.7L2.8,219.8c-0.5-0.5-1.1-0.7-1.6-0.3s0,1.1,0.4,1.5L26,247
		l7.5,7.5c0.5,0.6,1.1,1,1.9,1.1c2.1,0.2,8.3,0,8.3,0l0,0c2.5,0,4.8,1.2,6.4,3.1c9.7,11.3,31.9,38,48.3,56.4
		c1.4,1.6,5.7,7.1,11.6,1.1c6.6-6.6,0.6-10.1-1.1-11.7c-18.4-16.5-45-38.7-56.3-48.4c-1.9-1.6-3-3.9-3.1-6.4c0,0,0.3-6.3,0-8.4
		c-0.1-0.8-0.5-1.4-1.1-1.9L41,232l-25.8-24.7C14.8,206.8,14.1,206.6,13.6,207z"/>
	<path d="M101.9,222.7c-0.3-0.2-0.6-0.3-1-0.3l-43.4-43.5c0,0-3-1.5-3.6,3.7c-0.5,4.6,14.4,35.1,32.1,41c4,1.3,4.5,0.8,7.8,3.9l1,1
		c0,0.3,0.1,0.6,0.3,0.9c10.2,11.9,22.8,26.6,33.1,38c1.4,1.5,6.7,5.6,11.9,0.4c5.7-5.7,1.2-10.4-0.4-11.9
		C128.4,245.6,113.8,232.8,101.9,222.7z"/>
	<path d="M80.9,265.1c1.7,1,14.8,7,19.8,2s-0.9-18.2-2-19.9c-1.4-2.4-7.8-18.8-23.2-16.1c-2.6,0.5-7.2,2-10.5-1.9
		c-8.2-9.6-26.9-32.1-40.8-47.7c-1.2-1.3-4.8-6-9.8-0.9c-5.6,5.6-0.5,8.5,0.9,9.8c15.5,13.9,38,32.7,47.5,40.9
		c3.9,3.4,2.4,7.9,2,10.5C62.2,257.3,78.5,263.7,80.9,265.1z"/>
	<path d="M52.3,361.3c-16.5-14.8-39.6-34.2-52.3-45v6.7c11.1,13.2,28.4,33.8,41.8,48.8c1.4,1.6,5.6,7.1,11.6,1.1
		C60.1,366.3,54.1,362.8,52.3,361.3z"/>
	<path d="M83.1,312.6c-11.4-10.3-26-23.1-37.8-33.2c-0.3-0.2-0.6-0.3-1-0.3L0.9,235.7c-0.3-0.1-0.6-0.2-0.9-0.2v12.1
		c5,10.9,16.5,28.4,29.5,32.8c4,1.3,4.5,0.8,7.8,3.9l1,1c0,0.3,0.1,0.6,0.3,0.9c10.2,11.9,22.8,26.5,33.1,37.9
		c1.4,1.5,6.7,5.6,11.8,0.4C89.2,318.8,84.8,314.1,83.1,312.6z"/>
	<path d="M42.2,304c-1.5-2.4-7.8-18.8-23.2-16.1c-2.6,0.5-7.2,2-10.5-2c-2.2-2.5-5.1-6-8.4-10v6.7l6.3,5.4c3.9,3.4,2.4,7.9,2,10.5
		c-2.7,15.5,13.7,21.8,16.1,23.3c1.7,1,14.8,7,19.8,2S43.2,305.7,42.2,304z"/>
	<path d="M26.5,369.4c-7.9-7.2-17.5-15.6-26.5-23.5v17.9c5.2,6,10.4,11.8,15.1,17c1.4,1.5,6.7,5.6,11.9,0.4
		C32.6,375.5,28.1,370.9,26.5,369.4z"/>
	<path d="M393.4,19.5c-6.7-6-14.5-12.8-22.3-19.5h-14.2c8.6,10.2,17.9,21.1,26,30c1.4,1.6,5.6,7.1,11.6,1.1
		C401.1,24.5,395.1,21,393.4,19.5z"/>
	<path d="M336.7,76.2c-18.4-16.5-45-38.7-56.3-48.5c-1.9-1.6-3-3.9-3.1-6.4c0,0,0.3-6.3,0.1-8.4c-0.1-0.8-0.5-1.4-1.1-1.9l-7.5-7.5
		L265,0h-4.5l5.8,6.2l-1.6,1.6L256.5,0h-4.1l9.7,10.3l-1.6,1.6L248.1,0h-3.6L258,14.5l-1.7,1.7L239.4,0h-3.2l17.6,18.7l7.5,7.5
		c0.5,0.6,1.1,1,1.9,1.1c2.1,0.2,8.4,0,8.4,0l0,0c2.5,0,4.8,1.2,6.4,3.1c9.7,11.3,31.8,38.1,48.3,56.5c1.4,1.6,5.6,7.1,11.6,1.1
		C344.5,81.3,338.5,77.8,336.7,76.2z"/>
	<path d="M367.5,27.6C358.2,19.1,346.6,9,336.3,0h-13.8l0.2,0.2c0,0.3,0.1,0.6,0.3,0.9C333.1,13,345.8,27.6,356.1,39
		c1.4,1.5,6.7,5.6,11.9,0.4C373.6,33.7,369.2,29.1,367.5,27.6z"/>
	<path d="M303.3,2.8c-2.6,0.5-7.2,2-10.5-2L292,0h-4.9l3.5,3c3.9,3.4,2.4,7.9,2,10.5c-2.7,15.5,13.6,21.8,16,23.3
		c1.7,1,14.8,7,19.8,2s-0.9-18.2-2-19.9C325.1,16.5,318.8,0.1,303.3,2.8z"/>
	<path d="M184.8,35.5c-0.4,0.4,0,1.1,0.4,1.5l24.5,26l-1.6,1.6l-25.8-24.6c-0.5-0.5-1.1-0.7-1.6-0.3s0.1,1.1,0.4,1.5l24.5,26
		l-1.6,1.6L178.1,44c-0.5-0.5-1.1-0.7-1.6-0.3s0,1.1,0.4,1.5l24.4,26l-1.7,1.7l-25.8-24.6c-0.5-0.5-1.1-0.7-1.6-0.3s0,1.1,0.4,1.5
		l24.5,26l7.4,7.5c0.5,0.6,1.1,1,1.9,1.1c2.1,0.2,8.4-0.1,8.4-0.1l0,0c2.5,0,4.8,1.2,6.4,3.1c9.7,11.3,31.8,38.1,48.3,56.5
		c1.4,1.6,5.6,7.1,11.6,1.1c6.6-6.6,0.6-10.1-1.1-11.7c-18.4-16.5-45-38.7-56.3-48.4c-1.9-1.6-3-3.9-3.1-6.4c0,0,0.3-6.3,0.1-8.4
		c-0.1-0.8-0.5-1.4-1.1-1.9l-7.4-7.5l-25.8-24.6C185.9,35.3,185.3,35,184.8,35.5z"/>
	<path d="M273.1,51.1c-0.3-0.2-0.6-0.3-1-0.3L228.7,7.4c0,0-3-1.5-3.6,3.7c-0.5,4.6,14.4,35.1,32.1,41c4,1.3,4.5,0.8,7.8,3.9l1,1
		c0,0.3,0.1,0.6,0.3,0.9c10.2,11.9,22.8,26.5,33.1,37.9c1.4,1.5,6.7,5.6,11.9,0.4c5.7-5.7,1.2-10.4-0.4-11.9
		C299.5,74,284.9,61.2,273.1,51.1z"/>
	<path d="M252.1,93.6c1.7,1.1,14.8,7,19.8,2s-0.9-18.2-2-19.9c-1.5-2.4-7.8-18.8-23.2-16.1c-2.6,0.5-7.2,2-10.5-1.9
		c-8.2-9.6-26.9-32.2-40.8-47.6c-1.2-1.3-4.8-6-9.8-0.9c-5.6,5.6-0.5,8.5,0.9,9.8c15.5,13.9,38,32.7,47.6,40.9
		c3.9,3.4,2.4,7.9,2,10.5C233.4,85.8,249.7,92.1,252.1,93.6z"/>
	<path d="M128.2,92.2c-0.4,0.4,0.1,1.1,0.4,1.4l24.5,26l-1.6,1.6l-25.8-24.6c-0.5-0.5-1.1-0.7-1.6-0.3s0,1.1,0.4,1.5l24.5,26
		l-1.6,1.6l-25.8-24.6c-0.5-0.5-1.1-0.7-1.6-0.3s0,1.1,0.4,1.5l24.5,26l-1.7,1.7L117.3,105c-0.5-0.5-1.1-0.7-1.6-0.3s0,1.1,0.4,1.5
		l24.5,26l7.5,7.5c0.4,0.6,1.1,1,1.9,1.1c2.1,0.2,8.4-0.1,8.4-0.1l0,0c2.5,0,4.8,1.2,6.4,3.1c9.7,11.4,31.8,38.1,48.3,56.5
		c1.4,1.6,5.6,7.1,11.6,1.1c6.6-6.6,0.6-10.1-1.1-11.7c-18.4-16.5-45-38.7-56.3-48.4c-1.9-1.6-3-3.9-3.1-6.4c0,0,0.3-6.3,0-8.4
		c-0.1-0.8-0.5-1.4-1.1-1.9l-7.5-7.5l-25.8-24.6C129.3,92,128.6,91.8,128.2,92.2z"/>
	<path d="M216.4,107.9c-0.3-0.2-0.6-0.3-1-0.3l-43.4-43.5c0,0-3-1.5-3.6,3.7c-0.5,4.6,14.4,35.1,32.1,41c4,1.3,4.5,0.8,7.8,3.9l1,1
		c0,0.3,0.1,0.6,0.3,0.9c10.2,11.9,22.8,26.6,33.1,37.9c1.4,1.5,6.7,5.6,11.9,0.4c5.7-5.7,1.2-10.4-0.4-11.9
		C242.9,130.8,228.3,118,216.4,107.9z"/>
	<path d="M195.5,150.3c1.7,1.1,14.8,7,19.8,2s-0.9-18.1-2-19.9c-1.4-2.4-7.8-18.8-23.2-16.1c-2.6,0.5-7.2,2-10.5-2
		c-8.2-9.6-26.9-32.1-40.8-47.7c-1.2-1.3-4.8-6-9.8-0.9c-5.6,5.6-0.5,8.5,0.9,9.8c15.5,13.9,38,32.7,47.6,40.9
		c3.9,3.4,2.4,7.9,2,10.5C176.7,142.5,193.1,148.9,195.5,150.3z"/>
	<path d="M55.1,137.1C37.4,121.1,11.9,99.8,0,89.6v5.8c10.9,12.9,30,35.8,44.6,52.1c1.4,1.6,5.7,7.1,11.6,1.1
		C62.9,142.1,56.8,138.6,55.1,137.1z"/>
	<path d="M48.1,55.2c-0.3-0.2-0.6-0.3-1-0.3L3.7,11.5c0,0-3-1.5-3.6,3.7c-0.5,4.6,14.4,35.1,32.1,41c4,1.3,4.5,0.8,7.8,3.9l1,1
		c0,0.3,0.1,0.6,0.3,0.9c10.2,11.9,22.8,26.6,33.1,38c1.4,1.5,6.7,5.6,11.8,0.4c5.7-5.7,1.2-10.4-0.4-11.9
		C74.6,78.1,59.9,65.3,48.1,55.2z"/>
	<path d="M45,79.8c-1.5-2.4-7.8-18.8-23.3-16.1c-2.6,0.5-7.2,2-10.5-2C8.4,58.5,4.5,53.8,0,48.5v7.6c3.6,3.1,6.7,5.7,9.1,7.7
		c3.9,3.4,2.4,7.9,2,10.5c-2.7,15.5,13.6,21.8,16,23.3c1.7,1,14.8,7,19.8,2S46,81.5,45,79.8z"/>
	<path d="M0,205.1c4.7-5,2.1-8.2,0-10V205.1z"/>
	<path d="M29.3,145.2c-8.8-7.9-19.4-17.3-29.3-25.9v17.1c6.1,7.1,12.3,14.1,17.8,20.2c1.4,1.5,6.7,5.6,11.9,0.4
		C35.4,151.3,30.9,146.7,29.3,145.2z"/>
	<path d="M169.7,22.3C162,15.4,152.9,7.5,144.1,0h-13.3c9.2,10.9,19.6,23,28.3,32.8c1.4,1.6,5.6,7.1,11.6,1.1
		C177.4,27.3,171.4,23.8,169.7,22.3z"/>
	<path d="M113,79C94.7,62.5,68,40.3,56.7,30.6c-1.9-1.6-3-3.9-3.1-6.4c0,0,0.3-6.3,0-8.4c-0.1-0.8-0.5-1.4-1.1-1.9l-7.4-7.5L38.4,0
		h-4.2l8.4,9L41,10.6L29.9,0h-3.8l12.3,13.1l-1.6,1.6L21.4,0h-3.3l16.2,17.3L32.6,19L12.8,0H9.9l20.2,21.5l7.5,7.5
		c0.5,0.6,1.1,1,1.9,1.1c2.1,0.2,8.4,0,8.4,0l0,0c2.5,0,4.8,1.2,6.4,3.1c9.7,11.3,31.8,38.1,48.3,56.5c1.4,1.6,5.7,7.1,11.6,1.1
		C120.8,84.1,114.8,80.6,113,79z"/>
	<path d="M143.8,30.4C133.5,21,120.5,9.6,109.3,0H95.5c0.9,0.6,1.7,1.3,2.5,2l1,1c0,0.3,0.1,0.6,0.3,0.9
		c10.2,11.9,22.8,26.5,33.1,37.9c1.4,1.5,6.7,5.6,11.9,0.4C149.9,36.5,145.5,31.9,143.8,30.4z"/>
	<path d="M79.6,5.6c-2.6,0.5-7.2,2-10.5-2c-0.9-1.1-2-2.3-3.1-3.7h-5.8c2.7,2.3,5,4.2,6.8,5.8c3.9,3.4,2.4,7.9,2,10.5
		c-2.7,15.5,13.6,21.8,16,23.3c1.7,1,14.8,7,19.8,2s-0.9-18.1-2-19.9C101.4,19.3,95.1,2.9,79.6,5.6z"/>
</g>
</svg>
