<?xml version="1.0" encoding="utf-8"?>
<!-- Generator: Adobe Illustrator 22.0.1, SVG Export Plug-In . SVG Version: 6.00 Build 0)  -->
<svg version="1.1" id="Layer_1" xmlns="http://www.w3.org/2000/svg" xmlns:xlink="http://www.w3.org/1999/xlink" x="0px" y="0px"
	 viewBox="0 0 230 50" enable-background="new 0 0 230 50" xml:space="preserve">
<g>
	<g>
		<path id="XMLID_14_" d="M221.2,3.3h-57.1c-0.3,0-0.5,0-0.7,0c-0.2,0-0.4,0-0.6,0c-0.4,0-0.9,0-1.3,0.1c-0.4,0.1-0.8,0.2-1.3,0.4
			c-0.4,0.2-0.8,0.5-1,0.8s-0.6,0.7-0.8,1c-0.2,0.4-0.3,0.8-0.4,1.3c-0.1,0.4-0.1,0.9-0.1,1.3c0,0.2,0,0.4,0,0.6c0,0.3,0,0.5,0,0.7
			v32c0,0.3,0,0.5,0,0.7c0,0.2,0,0.4,0,0.6c0,0.4,0,0.9,0.1,1.3c0.1,0.4,0.2,0.8,0.4,1.3c0.2,0.4,0.5,0.8,0.8,1
			c0.3,0.3,0.7,0.6,1,0.8c0.4,0.2,0.8,0.3,1.3,0.4c0.4,0.1,0.9,0.1,1.3,0.1c0.2,0,0.4,0,0.6,0c0.3,0,0.5,0,0.7,0h57.1
			c0.3,0,0.5,0,0.7,0c0.2,0,0.4,0,0.6,0c0.4,0,0.9,0,1.3-0.1s0.8-0.2,1.3-0.4c0.4-0.2,0.8-0.5,1-0.8c0.3-0.3,0.6-0.7,0.8-1
			c0.2-0.4,0.3-0.8,0.4-1.3c0.1-0.4,0.1-0.9,0.1-1.3c0-0.2,0-0.4,0-0.6c0-0.3,0-0.5,0-0.7v-32c0-0.3,0-0.5,0-0.7c0-0.2,0-0.4,0-0.6
			c0-0.4,0-0.9-0.1-1.3c-0.1-0.4-0.2-0.8-0.4-1.3c-0.2-0.4-0.5-0.8-0.8-1c-0.3-0.3-0.7-0.6-1-0.8c-0.4-0.2-0.8-0.3-1.3-0.4
			c-0.4-0.1-0.9-0.1-1.3-0.1c-0.2,0-0.4,0-0.6,0C221.6,3.3,221.4,3.3,221.2,3.3L221.2,3.3z"/>
		<path id="XMLID_13_" fill="#FFFFFF" d="M221.2,4.8h0.7c0.2,0,0.4,0,0.6,0c0.3,0,0.7,0,1.1,0.1c0.3,0,0.6,0.1,0.8,0.3
			c0.3,0.1,0.5,0.3,0.7,0.5c0.2,0.2,0.4,0.4,0.5,0.7c0.1,0.3,0.2,0.5,0.3,0.8c0.1,0.4,0.1,0.8,0.1,1.1c0,0.2,0,0.4,0,0.6
			c0,0.3,0,0.5,0,0.7v32c0,0.3,0,0.5,0,0.7c0,0.2,0,0.4,0,0.6c0,0.3,0,0.7-0.1,1.1c0,0.3-0.1,0.6-0.3,0.8c-0.1,0.3-0.3,0.5-0.5,0.7
			c-0.2,0.2-0.4,0.4-0.7,0.5c-0.3,0.1-0.5,0.2-0.8,0.3c-0.4,0.1-0.8,0.1-1.1,0.1c-0.2,0-0.4,0-0.6,0c-0.3,0-0.5,0-0.7,0h-57.1l0,0
			c-0.2,0-0.5,0-0.7,0c-0.2,0-0.4,0-0.6,0c-0.3,0-0.7,0-1.1-0.1c-0.3,0-0.6-0.1-0.8-0.3c-0.3-0.1-0.5-0.3-0.7-0.5
			c-0.2-0.2-0.4-0.4-0.5-0.7c-0.1-0.3-0.2-0.5-0.3-0.8c-0.1-0.4-0.1-0.8-0.1-1.1c0-0.2,0-0.4,0-0.6v-0.5v-0.2v-32V9.4V8.8
			c0-0.2,0-0.4,0-0.6c0-0.3,0-0.7,0.1-1.1c0-0.3,0.1-0.6,0.3-0.8c0.1-0.3,0.3-0.5,0.5-0.7c0.2-0.2,0.4-0.4,0.7-0.5
			c0.3-0.1,0.5-0.2,0.8-0.3c0.4-0.1,0.8-0.1,1.1-0.1c0.2,0,0.4,0,0.6,0h0.7L221.2,4.8"/>
	</g>
</g>
<g>
	<path id="XMLID_26_" d="M143.8,2.8H86.2c-0.3,0-0.5,0-0.7,0c-0.2,0-0.4,0-0.6,0c-0.4,0-0.9,0-1.3,0.1c-0.4,0.1-0.8,0.2-1.3,0.4
		c-0.4,0.2-0.8,0.5-1.1,0.8c-0.3,0.3-0.6,0.7-0.8,1.1c-0.2,0.4-0.3,0.8-0.4,1.3C80,6.9,80,7.3,79.9,7.7c0,0.2,0,0.4,0,0.6
		c0,0.3,0,0.5,0,0.7v32.3c0,0.3,0,0.5,0,0.7c0,0.2,0,0.4,0,0.6c0,0.4,0,0.9,0.1,1.3c0.1,0.4,0.2,0.8,0.4,1.3
		c0.2,0.4,0.5,0.8,0.8,1.1c0.3,0.3,0.7,0.6,1.1,0.8c0.4,0.2,0.8,0.3,1.3,0.4c0.4,0.1,0.9,0.1,1.3,0.1c0.2,0,0.4,0,0.6,0
		c0.3,0,0.5,0,0.7,0h57.6c0.3,0,0.5,0,0.7,0c0.2,0,0.4,0,0.6,0c0.4,0,0.9,0,1.3-0.1s0.8-0.2,1.3-0.4c0.4-0.2,0.8-0.5,1.1-0.8
		c0.3-0.3,0.6-0.7,0.8-1.1c0.2-0.4,0.3-0.8,0.4-1.3c0.1-0.4,0.1-0.9,0.1-1.3c0-0.2,0-0.4,0-0.6c0-0.3,0-0.5,0-0.7V9.1
		c0-0.3,0-0.5,0-0.7c0-0.2,0-0.4,0-0.6c0-0.4,0-0.9-0.1-1.3c-0.1-0.4-0.2-0.8-0.4-1.3c-0.2-0.4-0.5-0.8-0.8-1.1
		c-0.3-0.3-0.7-0.6-1.1-0.8c-0.4-0.2-0.8-0.3-1.3-0.4c-0.4-0.1-0.9-0.1-1.3-0.1c-0.2,0-0.4,0-0.6,0C144.3,2.8,144,2.8,143.8,2.8
		L143.8,2.8z"/>
	<path id="XMLID_25_" fill="#FFFFFF" d="M143.8,4.3h0.7c0.2,0,0.4,0,0.6,0c0.3,0,0.7,0,1.1,0.1c0.3,0,0.6,0.1,0.8,0.3
		c0.3,0.1,0.5,0.3,0.7,0.5c0.2,0.2,0.4,0.4,0.5,0.7c0.1,0.3,0.2,0.5,0.3,0.8c0.1,0.4,0.1,0.8,0.1,1.1c0,0.2,0,0.4,0,0.6
		c0,0.3,0,0.5,0,0.7v32.3c0,0.3,0,0.5,0,0.7c0,0.2,0,0.4,0,0.6c0,0.3,0,0.7-0.1,1.1c0,0.3-0.1,0.6-0.3,0.8c-0.1,0.3-0.3,0.5-0.5,0.7
		c-0.2,0.2-0.4,0.4-0.7,0.5c-0.3,0.1-0.5,0.2-0.8,0.3c-0.4,0.1-0.8,0.1-1.1,0.1c-0.2,0-0.4,0-0.6,0c-0.3,0-0.5,0-0.7,0H86.2l0,0
		c-0.2,0-0.5,0-0.7,0c-0.2,0-0.4,0-0.6,0c-0.3,0-0.7,0-1.1-0.1c-0.3,0-0.6-0.1-0.8-0.3c-0.3-0.1-0.5-0.3-0.7-0.5
		c-0.2-0.2-0.4-0.4-0.5-0.7s-0.2-0.5-0.3-0.8c-0.1-0.4-0.1-0.8-0.1-1.1c0-0.2,0-0.4,0-0.6v-0.6v-0.2V9.1V8.9V8.3c0-0.2,0-0.4,0-0.6
		c0-0.3,0-0.7,0.1-1.1c0-0.3,0.1-0.6,0.3-0.8c0.1-0.3,0.3-0.5,0.5-0.7c0.2-0.2,0.4-0.4,0.7-0.5c0.3-0.1,0.5-0.2,0.8-0.3
		c0.4-0.1,0.8-0.1,1.1-0.1c0.2,0,0.4,0,0.6,0h0.7L143.8,4.3"/>
	<g>
		<path fill="#253B80" d="M96,28h-3.9c-0.3,0-0.5,0.2-0.6,0.5l-1.6,10c0,0.2,0.1,0.3,0.3,0.4h0h1.9c0.3,0,0.5-0.2,0.6-0.5l0.4-2.7
			c0-0.3,0.3-0.5,0.6-0.5h1.2c2.6,0,4.1-1.2,4.4-3.7c0.2-1.1,0-1.9-0.5-2.5C98.2,28.3,97.2,28,96,28z M96.4,31.6
			C96.2,33,95.1,33,94,33h-0.6l0.4-2.6c0-0.2,0.2-0.3,0.3-0.3h0.3c0.7,0,1.4,0,1.7,0.4C96.4,30.8,96.5,31.1,96.4,31.6z M107.6,31.6
			h-1.9c-0.2,0-0.3,0.1-0.3,0.3l-0.1,0.5l-0.1-0.2c-0.4-0.6-1.3-0.8-2.2-0.8c-2.1,0-3.8,1.6-4.2,3.8c-0.2,1.1,0.1,2.2,0.7,2.9
			c0.6,0.7,1.4,0.9,2.4,0.9c1.7,0,2.6-1.1,2.6-1.1l-0.1,0.5c0,0.2,0.1,0.3,0.3,0.4h0h1.7c0.3,0,0.5-0.2,0.6-0.5l1-6.4
			C108,31.8,107.9,31.6,107.6,31.6C107.6,31.6,107.6,31.6,107.6,31.6z M105,35.2c-0.2,1.1-1,1.8-2.1,1.8c-0.6,0-1-0.2-1.3-0.5
			c-0.3-0.3-0.4-0.8-0.3-1.3c0.2-1.1,1-1.8,2.1-1.8c0.6,0,1,0.2,1.2,0.5C105,34.2,105.1,34.7,105,35.2z M117.6,31.6h-1.9
			c-0.2,0-0.3,0.1-0.5,0.3l-2.6,3.8l-1.1-3.7c-0.1-0.2-0.3-0.4-0.5-0.4h-1.9c-0.2,0-0.3,0.1-0.3,0.3c0,0,0,0.1,0,0.1l2.1,6.1
			l-1.9,2.8c-0.1,0.1-0.1,0.3,0.1,0.5c0,0,0.1,0,0.2,0h1.9c0.2,0,0.3-0.1,0.5-0.2l6.2-9c0.1-0.1,0.1-0.3-0.1-0.5
			C117.7,31.6,117.6,31.6,117.6,31.6L117.6,31.6z"/>
		<path fill="#179BD7" d="M123.8,28h-3.9c-0.3,0-0.5,0.2-0.6,0.5l-1.6,10c0,0.2,0.1,0.3,0.3,0.4h0h2c0.2,0,0.3-0.1,0.4-0.3l0.5-2.8
			c0-0.3,0.3-0.5,0.6-0.5h1.2c2.6,0,4.1-1.2,4.4-3.7c0.2-1.1,0-1.9-0.5-2.5C126.1,28.3,125.1,28,123.8,28z M124.2,31.6
			c-0.2,1.4-1.3,1.4-2.3,1.4h-0.6l0.4-2.6c0-0.2,0.2-0.3,0.3-0.3h0.3c0.7,0,1.4,0,1.7,0.4C124.3,30.8,124.3,31.1,124.2,31.6z
			 M135.4,31.6h-1.9c-0.2,0-0.3,0.1-0.3,0.3l-0.1,0.5l-0.1-0.2c-0.4-0.6-1.3-0.8-2.2-0.8c-2.1,0-3.8,1.6-4.2,3.8
			c-0.2,1.1,0.1,2.2,0.7,2.9c0.6,0.7,1.4,0.9,2.4,0.9c1.7,0,2.6-1.1,2.6-1.1l-0.1,0.5c0,0.2,0.1,0.3,0.3,0.4h0h1.7
			c0.3,0,0.5-0.2,0.6-0.5l1-6.4C135.8,31.8,135.7,31.6,135.4,31.6C135.5,31.6,135.4,31.6,135.4,31.6z M132.8,35.2
			c-0.2,1.1-1,1.8-2.1,1.8c-0.6,0-1-0.2-1.3-0.5c-0.3-0.3-0.4-0.8-0.3-1.3c0.2-1.1,1-1.8,2.1-1.8c0.6,0,1,0.2,1.2,0.5
			C132.8,34.2,132.9,34.7,132.8,35.2z M137.6,28.3L136,38.4c0,0.2,0.1,0.3,0.3,0.4h0h1.6c0.3,0,0.5-0.2,0.6-0.5l1.6-10
			c0-0.2-0.1-0.3-0.3-0.4h0h-1.8C137.8,28,137.6,28.1,137.6,28.3z"/>
	</g>
	<g>
		<path fill="#253B80" d="M112.1,24.7l0.3-1.7h-0.6h-2.9l2-13c0-0.1,0.1-0.1,0.2-0.1h4.9c1.7,0,2.8,0.3,3.3,1c0.3,0.3,0.5,0.6,0.6,1
			c0.1,0.4,0.1,0.8,0,1.4v0v0.3l0.3,0.2c0.2,0.1,0.4,0.3,0.6,0.4c0.3,0.3,0.4,0.6,0.5,1c0.1,0.4,0,0.9-0.1,1.5
			c-0.1,0.6-0.3,1.2-0.6,1.7c-0.3,0.4-0.6,0.8-1,1.1c-0.4,0.3-0.8,0.5-1.3,0.6c-0.5,0.1-1,0.2-1.6,0.2h-0.4c-0.3,0-0.6,0.1-0.8,0.3
			c-0.2,0.2-0.3,0.4-0.4,0.7v0.1l-0.5,3.1l0,0.1c0,0,0,0,0,0.1h0C114.5,24.7,112.1,24.7,112.1,24.7z"/>
		<path fill="#179BD7" d="M120.4,13.4c0,0.1,0,0.2,0,0.3c-0.6,3.3-2.9,4.5-5.7,4.5h-1.4c-0.3,0-0.6,0.3-0.7,0.6l-0.8,4.7l-0.2,1.4
			c0,0.2,0.1,0.4,0.3,0.4h0h2.6c0.3,0,0.6-0.2,0.6-0.5l0-0.1l0.5-3.1l0-0.2c0-0.3,0.3-0.5,0.6-0.5h0.4c2.5,0,4.4-1,5-3.9
			c0.3-1.2,0.1-2.2-0.5-3C120.9,13.7,120.7,13.5,120.4,13.4z"/>
		<path fill="#222D65" d="M119.7,13.1c-0.2,0-0.4-0.1-0.6-0.1c-0.4-0.1-0.8-0.1-1.3-0.1H114c-0.3,0-0.6,0.2-0.6,0.5l-0.8,5.2l0,0.2
			c0-0.3,0.3-0.6,0.7-0.6h1.4c2.8,0,5.1-1.1,5.7-4.5c0-0.1,0-0.2,0-0.3c-0.2-0.1-0.3-0.2-0.6-0.2C119.8,13.1,119.8,13.1,119.7,13.1z
			"/>
		<path fill="#253B80" d="M113.3,13.4c0-0.3,0.3-0.5,0.6-0.5h3.9c0.5,0,0.9,0,1.3,0.1c0.3,0,0.5,0.1,0.8,0.2
			c0.2,0.1,0.4,0.1,0.6,0.2c0.2-1.2,0-2.1-0.7-2.8c-0.7-0.8-2.1-1.2-3.8-1.2H111c-0.3,0-0.6,0.3-0.7,0.6l-2.1,13
			c0,0.2,0.1,0.5,0.3,0.5c0,0,0,0,0.1,0h3.1l0.8-4.9C112.5,18.6,113.3,13.4,113.3,13.4z"/>
	</g>
</g>
<g>
	<path id="XMLID_3_" d="M65.9,2.2H8.8c-0.3,0-0.5,0-0.7,0c-0.2,0-0.4,0-0.6,0c-0.4,0-0.9,0-1.3,0.1C5.8,2.4,5.4,2.6,5,2.8
		c-0.4,0.2-0.8,0.5-1,0.8s-0.6,0.7-0.8,1C2.9,5,2.8,5.4,2.7,5.8C2.7,6.3,2.7,6.7,2.6,7.1c0,0.2,0,0.4,0,0.6c0,0.3,0,0.5,0,0.7v32
		c0,0.3,0,0.5,0,0.7c0,0.2,0,0.4,0,0.6c0,0.4,0,0.9,0.1,1.3c0.1,0.4,0.2,0.8,0.4,1.3c0.2,0.4,0.5,0.8,0.8,1s0.7,0.6,1,0.8
		c0.4,0.2,0.8,0.3,1.3,0.4c0.4,0.1,0.9,0.1,1.3,0.1c0.2,0,0.4,0,0.6,0c0.3,0,0.5,0,0.7,0h57.1c0.3,0,0.5,0,0.7,0c0.2,0,0.4,0,0.6,0
		c0.4,0,0.9,0,1.3-0.1c0.4-0.1,0.8-0.2,1.3-0.4c0.4-0.2,0.8-0.5,1-0.8c0.3-0.3,0.6-0.7,0.8-1c0.2-0.4,0.3-0.8,0.4-1.3
		c0.1-0.4,0.1-0.9,0.1-1.3c0-0.2,0-0.4,0-0.6c0-0.3,0-0.5,0-0.7v-32c0-0.3,0-0.5,0-0.7c0-0.2,0-0.4,0-0.6c0-0.4,0-0.9-0.1-1.3
		S71.8,5,71.6,4.6c-0.2-0.4-0.5-0.8-0.8-1s-0.7-0.6-1-0.8c-0.4-0.2-0.8-0.3-1.3-0.4c-0.4-0.1-0.9-0.1-1.3-0.1c-0.2,0-0.4,0-0.6,0
		C66.4,2.2,66.1,2.2,65.9,2.2L65.9,2.2z"/>
	<path id="XMLID_1_" fill="#FFFFFF" d="M65.9,3.7h0.7c0.2,0,0.4,0,0.6,0c0.3,0,0.7,0,1.1,0.1c0.3,0,0.6,0.1,0.8,0.3
		c0.3,0.1,0.5,0.3,0.7,0.5s0.4,0.4,0.5,0.7c0.1,0.3,0.2,0.5,0.3,0.8c0.1,0.4,0.1,0.8,0.1,1.1c0,0.2,0,0.4,0,0.6c0,0.3,0,0.5,0,0.7
		v32c0,0.3,0,0.5,0,0.7c0,0.2,0,0.4,0,0.6c0,0.3,0,0.7-0.1,1.1c0,0.3-0.1,0.6-0.3,0.8c-0.1,0.3-0.3,0.5-0.5,0.7s-0.4,0.4-0.7,0.5
		c-0.3,0.1-0.5,0.2-0.8,0.3c-0.4,0.1-0.8,0.1-1.1,0.1c-0.2,0-0.4,0-0.6,0c-0.3,0-0.5,0-0.7,0H8.8l0,0c-0.2,0-0.5,0-0.7,0
		c-0.2,0-0.4,0-0.6,0c-0.3,0-0.7,0-1.1-0.1c-0.3,0-0.6-0.1-0.8-0.3c-0.3-0.1-0.5-0.3-0.7-0.5c-0.2-0.2-0.4-0.4-0.5-0.7
		c-0.1-0.3-0.2-0.5-0.3-0.8c-0.1-0.4-0.1-0.8-0.1-1.1c0-0.2,0-0.4,0-0.6v-0.5v-0.2v-32V8.3V7.8c0-0.2,0-0.4,0-0.6
		c0-0.3,0-0.7,0.1-1.1c0-0.3,0.1-0.6,0.3-0.8C4.5,5,4.7,4.8,4.9,4.6c0.2-0.2,0.4-0.4,0.7-0.5c0.3-0.1,0.5-0.2,0.8-0.3
		c0.4-0.1,0.8-0.1,1.1-0.1c0.2,0,0.4,0,0.6,0h0.7L65.9,3.7"/>
</g>
<g>
	<path fill="#6772E5" d="M64.6,26.7c0-3.8-1.8-6.8-5.4-6.8c-3.5,0-5.7,3-5.7,6.8c0,4.5,2.5,6.7,6.2,6.7c1.8,0,3.1-0.4,4.1-1v-3
		c-1,0.5-2.2,0.8-3.6,0.8c-1.4,0-2.7-0.5-2.9-2.3h7.3C64.5,27.8,64.6,27,64.6,26.7z M57.2,25.3c0-1.7,1-2.4,2-2.4
		c0.9,0,1.9,0.7,1.9,2.4H57.2z"/>
	<path fill="#6772E5" d="M47.8,19.9c-1.5,0-2.4,0.7-2.9,1.2l-0.2-0.9h-3.3v17.3l3.7-0.8l0-4.2c0.5,0.4,1.3,0.9,2.6,0.9
		c2.7,0,5.1-2.1,5.1-6.9C52.8,22.2,50.4,19.9,47.8,19.9z M46.9,30.1c-0.9,0-1.4-0.3-1.8-0.7l0-5.5c0.4-0.4,0.9-0.7,1.8-0.7
		c1.4,0,2.3,1.5,2.3,3.5C49.2,28.6,48.2,30.1,46.9,30.1z"/>
	<polygon fill="#6772E5" points="36.3,19 40,18.2 40,15.2 36.3,16 	"/>
	<rect x="36.3" y="20.1" fill="#6772E5" width="3.7" height="13"/>
	<path fill="#6772E5" d="M32.3,21.2L32,20.1h-3.2v13h3.7v-8.8c0.9-1.1,2.4-0.9,2.8-0.8v-3.4C34.9,19.9,33.1,19.6,32.3,21.2z"/>
	<path fill="#6772E5" d="M24.8,16.9l-3.6,0.8l0,11.9c0,2,1.6,3.8,3.6,3.8c1.3,0,2.3-0.2,2.8-0.5v-3c-0.5,0.2-2.8,0.9-2.8-1.3v-5.3
		h2.8v-3.2h-2.8L24.8,16.9z"/>
	<path fill="#6772E5" d="M14.8,23.9c0-0.6,0.5-0.8,1.3-0.8c1.1,0,2.6,0.3,3.7,1v-3.5c-1.2-0.5-2.5-0.7-3.7-0.7c-3,0-5,1.6-5,4.2
		c0,4.1,5.7,3.5,5.7,5.2c0,0.7-0.6,0.9-1.4,0.9c-1.2,0-2.8-0.5-4.1-1.2v3.5c1.4,0.6,2.8,0.8,4.1,0.8c3.1,0,5.2-1.5,5.2-4.2
		C20.4,24.8,14.8,25.6,14.8,23.9z"/>
</g>
<g>
	<path fill="#0BA4DB" d="M202.3,14.4h-20.7c-0.7,0-1.3,0.6-1.3,1.3V18c0,0.7,0.6,1.3,1.3,1.3h20.6c0.7,0,1.3-0.6,1.3-1.3v-2.3
		C203.6,15,203,14.4,202.3,14.4z M202.3,27.2h-20.7c-0.7,0-1.3,0.6-1.3,1.3v2.3c0,0.7,0.6,1.3,1.3,1.3h20.6c0.7,0,1.3-0.6,1.3-1.3
		v-2.3C203.6,27.8,203,27.2,202.3,27.2L202.3,27.2z M193.3,33.7h-11.6c-0.7,0-1.3,0.6-1.3,1.3v2.3c0,0.7,0.6,1.3,1.3,1.3h11.6
		c0.7,0,1.3-0.6,1.3-1.3v-2.3C194.6,34.2,194,33.7,193.3,33.7L193.3,33.7z M203.6,20.8h-21.9c-0.7,0-1.3,0.6-1.3,1.3v2.3
		c0,0.7,0.6,1.3,1.3,1.3h21.9c0.7,0,1.3-0.6,1.3-1.3v-2.3C204.9,21.4,204.3,20.8,203.6,20.8z"/>
</g>
</svg>
