<?xml version="1.0" encoding="utf-8"?>
<!-- Generator: Adobe Illustrator 22.0.1, SVG Export Plug-In . SVG Version: 6.00 Build 0)  -->
<svg version="1.1" id="Layer_1" xmlns="http://www.w3.org/2000/svg" xmlns:xlink="http://www.w3.org/1999/xlink" x="0px" y="0px"
	 viewBox="0 0 246.1 242.6" enable-background="new 0 0 246.1 242.6" xml:space="preserve">
<title>peep-7</title>
<desc>Created with Sketch.</desc>
<g id="Introduction">
	<g id="variations" transform="translate(-126.000000, -2054.000000)">
		<g id="images" transform="translate(126.000000, 110.000000)">
			<g id="a-person_x2F_bust" transform="translate(0.000000, 1944.000000)">
				<g id="body_x2F_Whatever" transform="translate(31.056338, 135.052838)">
					<path id="_xD83C__xDFA8_-Background" fill="#FFFFFF" d="M-25.4,21.8c-1.7-0.2-2,2.6-0.4,3c9.6,2.4,19.1,4.7,28.7,7.2
						c2.6,0.7,5.1,1.6,7.2,3.2c7.1,5.9,12.4,21.4,15.7,30.2c4.7,11.1,9.3,33.1,18.6,40c3.1,2.2,12.1,3.7,12.7-1.5
						c27.8,4.1,55.9-2.9,83.7,0.7c16.1,2.4,12.1-5.4,23.6-2.2c3.4,0.4,7.3-0.1,10.4-1.7c0.9,0.2,2-0.1,2.6-1.1
						c2.2-3.5,3.8-7.3,4.7-11.3c2.5-10.8,2.3-22.1,1.1-33.1c-0.3-2.3-0.8-4.7-1.5-6.9c-0.9-1.2-1-2.6-1.2-4c0-0.2-0.3-0.2-0.4-0.1
						c0-3.4,0-6.9-0.9-10.2c-0.7-2.5-1.4-5-1.8-7.6c1.6-2.2,5.3-2.8,7.9-3.2c7.2-1,14.3-3.5,20.2-7.9c1.5-1.2,2.7-2.6,3.9-4
						c1.1-1.3,2.6-2.6,3.3-4.2c0.2-0.4,0.1-0.9-0.1-1.3c0.1-1,0-2.3-0.9-2.9c1.9-1.3,4.5-5.3,0.8-5.9c0-0.2-0.1-0.5-0.2-0.7
						c-0.9,0.3-2,0.1-2.7,0.8c-1.4,2.1-3,4-5.1,5.2c-0.6,0.4-1.3-0.5-0.8-1c0.9-1.1-0.2-2.7-1.3-3.1c-4.2,1.1-8.5,2.1-12.7,3
						c-3.2,1.7-6.7,1.2-10.1,1.6C179,3,174,4.6,174,3.2c-0.7,0.1-1.4,0.1-2,0.5c-0.6,0.4-1.3-0.5-0.8-1c0.2-0.2,0.5-0.3,0.7-0.5
						c-0.1,0-0.2,0-0.3,0c0-0.1,0-0.2-0.1-0.3c-1,0.1-2,0.3-3,0.5c-0.8,0.2-1.1-1-0.3-1.2c0.9-0.3,1.8-0.5,2.7-0.6
						c-1.5-4.8-18.3-23.4-22.9-19c-4.2-2-8.6-3.7-13.2-4.7c-6.2-1.7-14.9-0.6-18.5-7c-1.8-8.4-7.9-11.9-16.2-11.9
						c-8.6-0.4-14.8,0.8-17.4,10c-2,4.9-6,9.2-10.8,11.2c-3.6,1.5-8,2.3-10.5,5.4c-0.8-0.7-2.1,1.5-1.7,2.8
						C56.5-8.7,54-4.4,51.9,0.1c-6.5,14-12.7,32.8-15.1,48.1c-3.3-6.4-9.8-15.6-13.9-21.5c-0.9-1.2-0.5-2.7-0.7-4.1
						c-0.3-2.1-1.2-4.1-2.9-5.7c-3-2.9-8-2.7-11-5.4c-0.3-0.6-0.6-1.3-1-1.9C5.9,7,2,8.9,2.6,11.6c0.9,2.7,2.6,4.8,3.3,7.5
						c-1.8-0.4-3.5-0.7-5.3-0.5c-5-0.1-10-0.4-14.7-2.3c-2.2-0.9-4.2-2.4-6.1-3.8c-2.2-1.4-4.7,1.8-2.8,3.6l0,0
						c0.5,0.6,1.1,1.2,1.7,1.7c-0.8-0.4-1.5-0.8-2.3-1.2c-1.5-0.8-2.8,1.4-1.3,2.3c2.1,1.3,4.2,2.5,6.4,3.6
						C-20.8,22.3-23.1,22-25.4,21.8z"/>
					<path id="_xD83D__xDD8D_-Ink" d="M189.9,22.5c-2.9,0.9-5.9,1.5-8.8,2c0.8,1.9,1.2,3.9,1.6,5.9l0.1,0.7c0.5,2.7,0.9,5.4,1.2,8.1
						c0.3,2.7,0.6,5.5,0.6,8.2c0,0.9-0.3,1.8-1.1,2.3c-0.4,0.2-0.7,0.3-1.1,0.2l0,0.2c0.1,0.4,0.2,0.8,0.3,1.2c0.2,1,0.4,2,0.6,3
						c0.3,1.8,0.5,3.6,0.7,5.5c0.4,3.7,0.8,7.5,0.4,11.2c0.6,4.6,0.6,9.2,0.1,13.8c-0.5,4.8-1.6,10.1-4.7,14
						c-1.8,2.2-3.9,3.2-6.6,3.9l-0.2,0.1c-2.8,0.8-6.6,2-9.6,1.1l-0.1,0c-0.1,0-0.2,0-0.3,0c-0.3,0-0.5-0.1-0.8-0.2l0,0.1
						c-0.2,2.2-3.3,3-5.3,2.9c-3.7-0.1-7.4-0.2-11.1-0.3c-7.5-0.3-15-0.5-22.5-0.6c-15-0.3-29.9-0.3-44.9,0
						c-8.4,0.2-16.7,0.4-25.1,0.8c-0.6,0.7-1.7,0.5-2.1-0.4c-0.4-1.1-0.3-2.2-0.3-3.3l0.1-0.8c0.1-1.1,0.2-2.3,0.2-3.4
						c0.1-2.4,0.3-4.8,0.2-7.2c-0.1-5-0.4-9.9-0.8-14.9c-0.2-2.2-0.4-4.4-0.7-6.5c-4.5-7.1-8.9-14.3-13.4-21.5l-0.1,0
						c-0.3-0.2-0.6-0.4-0.7-0.8c0-0.1,0-0.2,0-0.3l-0.8-1.2l-0.5-0.7l-0.9-1.3c-0.6-0.9-1.1-1.8-1.7-2.7c-1.8-2.7-3.6-5.5-5.4-8.2
						c-0.9-1.4-1.8-2.7-2.7-4.1c-0.5-0.7-0.9-1.4-1.4-2c-0.4-0.6-1.2-1.4-1.4-2c-0.2-0.5,0.1-0.8,0.3-1.3c0.2-0.6,0.2-1.3,0-2
						c-0.3-1.4-1.1-2.7-2.1-3.7c-1.9-1.9-4.4-2.8-6.7-3.8l-0.3-0.1C11,13.6,9.7,12.9,8.5,12c-1.1-0.9-1.9-2.3-3.2-2.9
						C4.7,8.8,3.7,8.8,3.3,9.4c-0.5,0.7,0,1.9,0.3,2.6l0.1,0.3c0.6,1.6,1.5,3.1,2.6,4.4c0.3,0.3,0.2,0.7-0.1,1
						c1.3-0.2,2.5-0.5,3.8-0.7c0.1,0,0.3,0.2,0.1,0.3C5.6,19.9-0.5,20-5.5,19.2l-0.3-0.1c-2.7-0.5-5.3-1.3-7.8-2.5
						c-2.3-1.1-4.5-3-7-3.5c0.6,1.2,1.5,2.3,2.5,3.2c1.1,1.1,2.4,1.7,3.8,2.4l0.5,0.2c0.2,0.1,0.3,0.2,0.3,0.3
						c1.8,0.3,3.5,0.6,5.2,1.3c0.2,0.1,0.1,0.4-0.1,0.3c-1.9-0.4-3.9-0.4-5.9-0.5l-0.1,0l-0.1,0c-1.9-0.2-3.8-0.6-5.5-1.2
						c-2.2-0.8-4.3-2.1-6.4-3.1c-0.1-0.1-0.2-0.2-0.2-0.2l0.2,0.2c0.8,0.8,1.6,1.5,2.5,2.2c0.9,0.8,1.9,1.5,3,2.2
						c1,0.6,2.4,1.1,3.1,2c0.2,0.2,0.3,0.5,0.3,0.8l0.4,0.1c1.5,0.4,3,0.7,4.5,1c0.2,0,0.1,0.3,0,0.3c-2.1,0.1-4.2,0.1-6.3-0.1
						c-0.8-0.1-1.6-0.2-2.4-0.3c-1.7-0.3-3.3-0.7-5-1.2c0.6,0.4,1.2,0.7,1.8,1c1.5,0.8,3.1,1.4,4.8,1.8c2.9,0.8,5.8,1.2,8.8,1.6
						l2.2,0.3c7,0.9,14.2,2.1,19.6,7c3,2.7,5.2,6.2,7,9.8l0.2,0.4c1.9,3.7,3.5,7.5,5,11.4c1.2,3.1,2.3,6.2,3.4,9.2l0.8,2.3
						c1.4,3.9,2.6,7.9,4.1,11.8c3.2,8.5,7.1,17.1,12.8,24.3c0.8,1.1-0.6,2.6-1.5,1.5c-5.4-6.4-9.2-13.7-12.4-21.4l-0.2-0.6
						c-1.5-3.6-3.1-7.3-4.3-11c-1.4-4-2.7-8.1-4.2-12.1c-1.5-3.9-3-7.7-4.7-11.5c-1.8-3.8-3.7-7.6-6.5-10.6
						c-5-5.5-12.4-6.7-19.4-7.6l-1.8-0.2c-3.7-0.5-7.3-1.1-10.8-2.3c-1.8-0.7-3.6-1.5-5.2-2.5c-1.6-1.1-4.1-2.7-3.8-4.9
						c0.1-0.7,0.7-1.5,1.5-1.1c2,0.8,4.1,1.6,6.1,2.2c0.3,0.2,0.7,0.5,1,0.7l-0.1-0.1c-0.3-0.2-0.6-0.4-0.8-0.6
						c-0.7-0.5-1.3-1-1.9-1.6c-1.8-1.6-3.5-3.3-5-5.2c-0.1-0.1-0.2-0.2-0.3-0.4c-0.6-0.8-0.1-1.9,1-1.7c0.2,0,0.3,0.1,0.5,0.1
						c3.4,0.9,6.3,3,9.4,4.4c0.5,0.2,1.1,0.5,1.6,0.7l-0.1-0.1c-1.6-1.3-2.8-3.1-3.7-4.9c-0.1-0.2-0.2-0.4-0.3-0.6
						c-0.2-0.4,0.2-0.8,0.6-0.8c0.2,0,0.5,0,0.7,0.1c2.4,0.3,4.3,1.8,6.4,3c2.5,1.3,5.1,2.3,7.8,2.9c2.7,0.6,5.4,0.8,8.1,0.7
						c1.4-0.1,2.7-0.2,4-0.5l0,0c0,0-0.1-0.1-0.1-0.1c-1-1.1-1.8-2.4-2.3-3.7c-0.5-1.2-1.1-2.7-1.1-4c0.1-2.4,3-2.7,4.6-1.6
						c1.1,0.8,1.9,1.9,2.9,2.7c1.1,0.9,2.3,1.5,3.6,2.1l0.3,0.2c2.6,1.2,5.3,2.2,7.3,4.3c1.8,2,2.8,4.5,1.9,7.1
						c4.2,6.1,8.3,12.3,12.2,18.6l0-0.6c0.3-4.8,0.7-9.5,1.4-14.3c0.8-5.6,2.3-11,4.2-16.3C42.2,7,44.4,1.9,47.1-3
						c2.5-4.6,5.3-9.2,9.2-12.8c4-3.7,9.2-5.9,14.6-4.6c0.4-0.6,3.5-1.4,4.1-1.7c1.2-0.6,2.5-1.2,3.5-2.1c1.1-1,1.7-2.1,2.1-3.4
						c0.4-1.2,0.8-2.7,1.9-3.5c0.1-0.1,0.3,0,0.3,0.1c-0.3,2.9-0.1,5.9-2,8.3c-0.9,1.1-2,1.9-3.2,2.6c-1,0.6-2.2,1.3-3.3,1.5
						C79.8-8.4,87.8,0.6,97.3,7.5l0.5-0.3c5.8-4.1,11.6-8.3,16.9-13c5.3-4.6,10.3-9.6,14.4-15.4c0.1-0.1,0.1-0.2,0.2-0.3l-0.2,0.3
						c-1.5,0.5-3.5,0.1-4.9-0.4c-1.9-0.6-3.5-1.7-4.9-3c-2.8-2.4-4.9-5.7-6.8-8.8l-0.5-0.8c-1-1.6,1.4-2.9,2.4-1.4
						c2.1,3,3.8,6.1,6.3,8.8c1.2,1.2,2.5,2.4,4,3.2c0.8,0.4,1.9-1.4,3.3-1.1c15,2.7,31.4,6.8,41.4,19.3c2.1,2.6,4,5.8,4.8,9.1
						c2-0.5,4.1-0.9,6.2-1.2c5.3-0.7,10.8-1,16-2.5c1.3-0.4,2.5-0.8,3.8-1.3l0.1-0.1c0.9-0.4,1.9-0.6,2.8-0.2
						c1.5,0.7,2.1,2.7,1.6,4.3c0,0.1-0.1,0.2-0.1,0.3l0.2-0.2c0.2-0.2,0.5-0.5,0.7-0.7c0.9-0.9,1.8-1.9,2.6-2.9
						c0.7-0.9,1.5-1.8,2.4-2.5c1.5-1,4.3-1,4.5,1.3c0.1,1.7-1.3,3.8-2.7,5c2.2,1.2,0.2,4.9-0.8,6.5l-0.1,0.2
						c-1.9,2.8-4.4,5.1-7.2,6.9c-1.7,1.1-3.6,2-5.5,2.8c-0.9,0.4-1.9,0.7-2.8,1c-0.6,0.2-1.3,0.4-1.9,0.5
						C192.7,21.5,191.3,22.1,189.9,22.5z M47.2,63.6c0.9,1.6,1.8,3.2,2.7,4.8l-0.1-1c-0.6-5.1-1.2-10.2-1.6-15.3c-1.9-0.9-4-1.5-6-2
						c-1.2-0.3-2.4-0.6-3.6-0.9c0,0-0.1,0-0.1,0C41.4,54,44.3,58.8,47.2,63.6z M179.9,50.2l-0.4,0.1c-0.3,0.1-0.5,0.1-0.8,0.2
						c1.5,4.4,3.1,8.8,4.3,13.2c-0.1-1.2-0.1-2.4-0.2-3.7c-0.1-1.9-0.3-3.8-0.6-5.7c-0.1-0.9-0.2-1.9-0.3-2.8
						c-0.1-0.6-0.2-1.2-0.2-1.8C181,50,180.1,50.2,179.9,50.2z M35.5,47c-0.5-0.1-0.9-0.5-0.9-1.2l0-0.2C34.9,46,35.2,46.5,35.5,47z
						 M178.9,13.3c0.1,0.1,0,0.3-0.1,0.2c-2.2-0.8-4.6-1.1-6.9-0.8c-1,0.2-2.1,0.4-3,0.8c-0.9,0.3-2,1.4-2.9,1.3
						c-0.2,0-0.5-0.2-0.4-0.5c0.3-0.9,1.6-1.4,2.4-1.7l0.1,0c1.2-0.5,2.4-0.7,3.7-0.8C174.2,11.6,176.7,12.1,178.9,13.3z
						 M201.2,16.6c2.7-1.4,5.1-3.1,7.2-5.3c1-1.1,1.9-2.3,2.6-3.6c0.4-0.8,1.8-3.4,0.2-3.5c-0.1,0-0.2,0-0.4,0
						c-1.4,0.2-2.7,1.3-3.9,2c-1.3,0.7-2.7,1.4-4.1,1.9c-1.2,0.5-2.5,1-3.8,1.4l-0.1,0l-0.1,0c-2.1,0.7-4.2,1.2-6.3,1.6
						c0,0-0.1-0.1,0-0.1c3.3-1.7,6.9-2.8,10.3-4.4c1.7-0.8,3.4-1.7,5-2.6c0.9-0.6,2-1.3,3.2-1.3l0.1-0.1c1-1.2,3.6-4.2,2.1-5
						c-1.6-0.8-3.6,2.1-4.4,3.1l-0.1,0.1c-2.4,2.7-5.6,5.1-9,6.4c-0.1,0-0.1-0.1-0.1-0.1c0.2-0.2,0.4-0.3,0.7-0.5L200,6.6
						c-0.3,0.1-0.6,0.2-0.8,0.3c-1.5,0.5-3,1-4.5,1.3c-1.4,0.3-2.8,0.6-4.2,0.2c-0.5-0.1-0.4-0.8,0-1c1.1-0.4,2.3-0.5,3.4-0.7
						s2.3-0.5,3.4-0.8c1.9-0.6,4.3-1.3,5.6-3c0.5-0.7,0.7-1.5,0.4-2.3c-0.5-1.1-1.4-0.9-2.4-0.5l-0.3,0.1c-2.1,0.8-4.1,1.5-6.3,1.9
						c-6.5,1.3-13.5,1.2-19.9,2.9c-2.2,0.6-4.4,1.4-6.5,2.6c-2.9,1.7-5.3,4-7.1,6.8c-0.1,1.4-0.1,2.8-0.3,4.2
						c-0.2,1-0.3,2.1-0.5,3.1l-0.3,1.9c-0.6,3.2-1.2,6.3-1.8,9.5c-1.2,6.3-2.5,12.6-3.4,19c-1.8,12.2-2.1,24.6,1,36.6
						c1.2,4.6,2.8,9.2,6.4,12.4l0,0c1.7,0.7,3.3,1.4,5.1,1.1c2-0.2,4.1-1,6-1.5l0.1,0c2.2-0.6,3.9-1.4,5.3-3.2
						c2.8-3.6,3.8-8.5,4.4-12.9l0-0.3c0.5-4.7,0.6-9.5-0.2-14.2c-1.1-7-3.6-13.6-5.8-20.3l-0.1-0.4l-0.2-0.6
						c-2-6.3-3.8-12.9-3.4-19.5c-0.1-0.2-0.2-0.4-0.2-0.7c0.1-0.5,0.2-1,0.4-1.5c0.1-0.5,0.5-0.8,0.5-0.8c0.4-0.6,0.9-1.1,1.6-1.4
						c0.7-0.4,1.7-0.7,2.6-0.6c0.5-0.2,1.6-0.5,3.2-0.9c4.2-1.1,8.4-2.1,12.2-4.1c0.6-0.3,1.1-0.6,1.7-1c2.3-1.5,4.9-3.8,5.8-6.6
						l0,0c0.1-0.3,0.2-0.5-0.1-0.7c-0.2-0.1-0.5,0-0.7,0.1l-0.4,0.1c-0.7,0.2-1.5,0.6-2.1,0.9c-1.3,0.7-2.5,1.6-3.7,2.3
						c-3,1.8-6.5,2.1-9.8,3.2c-0.5,0.2-0.8-0.5-0.5-0.8c1.2-1.4,3-1.6,4.8-2l0.2,0c1.8-0.4,3.4-1,5-2c1.5-0.9,2.8-2,4.4-2.7
						c0.4-0.2,0.8-0.3,1.2-0.5c0.1,0,0.1,0,0.2-0.1c0.9-0.3,2-0.4,2.8,0.1c1.4,0.8,0.7,2.5,0.1,3.7l-0.2,0.4
						c-0.7,1.4-1.7,2.6-2.9,3.7c-0.1,0.1-0.3,0.3-0.4,0.4C199.4,17.5,200.3,17,201.2,16.6z"/>
				</g>
				<g id="head_x2F_Flat-Top-Long" transform="translate(78.591549, 38.043053)">
					<path id="_xD83C__xDFA8_-Background_1_" fill="#FFFFFF" d="M80.6-10.8C84-6,84.9,6.2,83.3,25.8c3,1.5,4.5,4.6,4.5,9.3
						c0,4.7-3,7.6-8.9,8.6c-2.2,6.3-4.3,10.5-6.1,12.5c-2.8,3-14.9,11.9-31.1,11.9S18,59.8,16.1,48.7c-1.9-11.2,1.6-45.3,3.1-54.4
						c1.3-7.7,18.9-15.7,30.9-15.7S75.5-18.1,80.6-10.8z"/>
					<path id="_xD83D__xDD8D_-Ink_1_" d="M59.4-37.9c1.9,0,3.9,0,5.8,0.2c3.6,0.4,7.3,0.7,10.9,1.2c1.9,0.3,3.9,0.8,5.5,1.9
						c0.5-0.2,1.2-0.2,1.7,0.1c3.1,2,2.2,6.2,2.2,9.4c0,0.1,0,0.1,0,0.2c-0.1,3.9-0.1,7.9-0.1,11.8c0,8,0.4,16.1,0.4,24.1
						c0,2.3,0.1,4.6,0.2,6.9c0,1.4-0.1,2.9-0.1,4.3c0.1,1,0.2,1.9,0.3,2.9c0,0.2-0.1,0.3-0.2,0.3c0.1,0.3,0.2,0.7,0.3,1
						c0.1,0.2,0,0.4-0.1,0.5c1,0.8,1.8,1.8,2.4,3c2.3,4.8,1.1,12.6-3.8,15.4c-1.3,0.8-2.8,1-4.3,0.8c-0.7-0.1-1.5-0.3-2.1-0.8
						c-1.4,5.7-4.3,10.8-8.2,15.2c-0.9,1.1-2.2,2.8-3.8,2.4c-1.6-0.4-1.3-2.3-0.4-3.3c2-2.2,4.2-4.2,6-6.6c2-2.7,4-5.4,5.7-8.3
						c-0.2-0.4-0.4-0.8-0.5-1.3c-0.3-0.6,0.5-1.4,1.1-1.1c0.4,0.2,1,0.1,1.4,0.3c0.5,0.1,0.9,0.2,1.4,0.2c1,0,1.9-0.4,2.6-1
						c1.7-1.4,2.6-3.9,2.8-6.1c0.2-2.3-0.3-4.8-1.9-6.6c-0.8-0.8-1.6-1.6-2.6-2.1c-0.4-0.2-1-0.5-1.7-0.6c-0.1,0.1-0.2,0.2-0.3,0.2
						c-0.4,0.2-0.8,0.4-1.1,0.6c-0.6,0.4-1.2,0.7-1.9,1c-1,0.4-2.2,0.5-3.2-0.1c-1.8-1.1-1.8-3.5-1.6-5.4c0.1-1,0.3-2,0.5-3
						c0.1-0.4,0.2-0.8,0.2-1.2c0,0,0-0.1,0-0.2c0,0,0,0,0,0c0-0.1,0-0.3,0-0.4c-0.2-0.8-0.3-1.6-0.5-2.5c-0.4-1.6-1-3.1-1.6-4.5
						c-0.1-0.3-0.3-0.6-0.4-0.9c-1.4-0.1-2.9-1.1-3.8-1.7c-0.9-0.6-1.4-1.8-0.7-2.8c2.3-3.6,2.4-8,1.3-12c-3.4,0.6-6.9,0.5-10.3,0.6
						c-3.6,0.1-7.3,0.1-11,0.1c-3.7,0-7.3,0-11,0c-3.6,0-7.3,0.2-11,0c-0.4,0-0.7-0.1-1-0.3c-0.7,0.6-1.6,0.8-2.5,0.8
						c-0.1,0-0.3,0-0.4,0c-0.2,0.9-0.4,1.8-0.6,2.8c-0.3,1.7-0.6,3.5-0.8,5.3c-0.4,3.3-0.9,6.6-1.1,10c-0.6,6.9-0.9,13.8-1,20.7
						c-0.1,6.3-0.3,13.1,2.4,19c2.3,5.1,6.6,8.9,11.6,11.3c3.2,1.5,6.7,2.5,10.2,2.8c1.9,0.1,3.8,0.1,5.7,0c0.9-0.1,1.8-0.2,2.7-0.3
						c1.1-0.1,1.7-0.1,2.7,0.3c0.5,0.2,0.5,1,0.2,1.3c-1.3,1.3-3,1.3-4.7,1.5c-1.8,0.2-3.6,0.3-5.3,0.2c-3.4-0.1-7.1-0.5-10.3-1.7
						c-5.7-2-10.9-5.7-14.3-10.8c-3.9-5.8-4.5-12.9-4.3-19.7c0.1-7.2,0.4-14.4,1-21.5c0.4-4,1-8,2-11.9c0.5-1.9,1.2-3.8,1.9-5.7
						c0.4-1.2,0.9-2.4,1.4-3.6c0,0-0.1,0-0.2,0c-0.2,0-0.5,0-0.7-0.2c-0.9-1.1-1.5-2.2-1.6-3.5c-0.1-1.6-0.1-3.2-0.1-4.8
						c0-2.3,0.1-4.6,0.3-6.9c-0.4-1.8-0.4-3.8,0-5.7c0-0.1,0-0.1,0-0.1c-0.2-2-0.1-3.9,0.3-5.9c0.3-1.3,1.6-1.8,2.7-1.6
						c0.4-0.2,0.8-0.4,1.3-0.4c0.3-0.3,0.7-0.6,1.2-0.8c3.6-1.9,7.8-2.3,11.7-2.5c4.2-0.2,8.3-0.5,12.5-0.1c0.1,0,0.2,0,0.3,0
						c2.2-0.2,4.4-0.3,6.6-0.3C55.5-38.1,57.5-37.9,59.4-37.9z M83.1,33.6c-0.1,0.1-0.3,0-0.3-0.2c0.2-0.5-0.9-0.1-1-0.1
						c-0.3,0.1-0.5,0.3-0.8,0.5c-0.6,0.4-1.1,0.8-1.6,1.3c-1,1-1.6,2.4-2.8,3.2c-1.3,0.8-2.5-0.5-2.3-1.8c0.2-1.4,1.5-2.3,2.6-3
						c1-0.7,2.1-1.2,3.3-1.4c0.8-0.2,1.9-0.3,2.6,0.3C83.3,32.7,83.5,33.1,83.1,33.6z"/>
				</g>
				<g id="face_x2F_Cheeky" transform="translate(112.183099, 77.354207)">
					<path id="_xD83D__xDD8D_-Ink_2_" d="M-1,11.6l-0.1,0.2c-0.1,0.3-0.1,0.5,0.1,0.9c0.3,0.7,1.1,1,1.9,0.9c1.1-0.1,2-0.8,2.6-1.7
						c0.6-0.9,0.7-2.2,1.4-3c0,0,0.1,0,0.1,0c1.5,0.9,1.2,3.6,0.7,5c-0.9,2.1-2.8,3.5-5.1,3.6c-2.2,0.2-4.3-1-5.4-2.9
						C-6,12.4-6,8.7-2.9,8.4c0.7-0.1,1.4,0.4,1.8,1C-0.7,10.2-0.8,10.8-1,11.6z M-2.8-8c-8.1,1.4-3.9,15.4,6.4,7.7
						c1.2-1-0.3-3.2-1.6-2.3C0.6-1.6-2.3,0.9-4.3-1.3C-6-3.7-3.6-5.9-2-6.9C-1.6-7.2-1.9-8.2-2.8-8z M15.2-9.9L15.2-9.9
						c0,0.3,0,0.4,0,0.5l0,0l0,0l0,0.1c0,0.2,0,0.4,0.1,0.5c0.2,0.3,0.1,0.2,0.3,0.3l0.1,0c0.7,0,1.3-0.7,1.7-1.4l0.5-0.8
						c0.5-0.8,1-1.6,1.7-2.3c0.1-0.1,0.2,0,0.2,0.1c0.6,1.7,0.7,3.4,0,5.1C19-6.1,17.3-5,15.5-4.9c-1.9,0.1-3.5-1.2-4-3
						c-0.2-0.8-0.3-1.7-0.3-2.5c0-0.9-0.4-1.8-0.1-2.7c0.5-1.7,2.8-2,3.8-0.5C15.5-12.5,15.2-11,15.2-9.9z M-11.1-9.5
						c-0.2,0.9,0.1,1.4,1,1.2c0.9-0.1,1.6-0.9,2-1.7c0.4-0.8,0.5-1.9,1.2-2.4c0.1-0.1,0.1,0,0.2,0c0.7,1.1,0.1,3.2-0.5,4.3
						c-0.7,1.2-1.9,2-3.2,2.1c-1.4,0.1-2.7-0.6-3.3-1.9c-0.4-0.8-0.3-1.7-0.2-2.6l0-0.4c0.1-0.9,0.2-1.8,0.7-2.5
						c0.9-1.4,3.5-1,3.3,0.9C-10.1-11.4-10.8-10.6-11.1-9.5z M18.2-22.6c1.3,0.9,2.4,2,3.3,3.2c0.8,1,1.6,2.4,1.3,3.7
						c0,0.1-0.1,0.1-0.1,0.1c-1.4-0.2-2.5-1.4-3.7-2.2c-1.2-0.8-2.4-1.5-3.8-2c-1.2-0.5-2.5-0.8-3.7-1c-1.1-0.2-2.3-0.2-2.9-1.3
						c-0.5-0.9-0.4-2,0.4-2.7c1.2-1.2,3.2-0.6,4.7,0l0.4,0.2C15.5-24.2,16.9-23.5,18.2-22.6z M-8.6-19.2c1.5,0.2,2.9,0.3,4.4,0.3
						c1.3,0,2.9-0.2,4.1,0.3c0.3,0.1,0.4,0.5,0.2,0.7c-0.7,0.7-1.7,1-2.7,1.2l-0.5,0.1c-1.1,0.3-2.3,0.5-3.4,0.7
						c-2.5,0.4-5.3,0.4-7.7,0c-0.7-0.1-1.2-0.8-1.5-1.5c-0.2-0.7,0-1.4,0.5-2c0.7-0.7,1.5-0.7,2.4-0.6l0.1,0
						C-11.4-19.7-10-19.4-8.6-19.2z"/>
				</g>
				<g id="facial-hair_x2F_Moustache-4" transform="translate(104.577451, 109.479380)">
					<path id="_xD83D__xDD8D_-Ink_3_" d="M-15.2-34.7c-0.9,1.2-1.3,2.7-1.3,4.2c0.1,2.6,1.6,4.7,3.7,6.1c2,1.3,4.6,1.9,7,1.4
						c3-0.5,5.7-2.7,8.8-2.4c0.7,0.1,1.3-0.2,1.6-0.7c0.3,0.5,0.8,0.8,1.6,0.7c3.3-0.2,6.3,1.5,9.5,2.2c3.9,0.9,8.9-0.1,11.6-3.3
						c1.3-1.5,2-3.6,1.6-5.6c-0.4-2.1-2.6-4.9-5-4.7c-0.2,0-0.2,0.2-0.1,0.3c0.6,0.6,1.3,0.9,1.8,1.5c0.5,0.6,1,1.3,1.2,2
						c0.4,1.1,0.5,2.4,0.1,3.5c-0.7,2-2.9,3.3-4.8,4c-2.1,0.7-4.7,1-6.7,0c-3-1.5-5.6-4-9.2-3.9c-0.7,0-1.2,0.3-1.6,0.8
						c-0.3-0.5-0.8-0.8-1.6-0.8c-3.2,0-5.3,2.3-7.8,3.9c-1.7,1.1-3.9,0.8-5.7,0.1c-1.8-0.7-3.5-2.2-4-4.1c-0.3-1.1-0.2-2.3,0.1-3.4
						c0.2-0.7,0.6-1.5,1.1-2.1c0.4-0.5,1-0.9,1.4-1.4c0.1-0.1,0-0.3-0.1-0.3C-13.2-36.8-14.5-35.6-15.2-34.7"/>
				</g>
				<g id="accessories_x2F_Glasses-5" transform="translate(88.521127, 88.978474)">
					<path id="_xD83D__xDD8D_-Ink_4_" d="M6.8-14.9c-3.4-1.8-4.2-6.8-4.7-10.2c-0.5-3.6,4-6.6,8.4-5.4c3.2,0.9,6.2,3.4,7.1,7.6
						c0.3,1.6-0.3,4-1.1,4.9C14.4-15.6,10-13.4,6.8-14.9 M28.4-23c-0.1-2,0.5-3.9,1.9-5.2c4.8-1.5,14.3-2.5,18.2,3.1
						c1,1.4,0.6,3,0.5,3.6c-1.6,5.4-5.1,10.4-12.2,8.4C32.4-14.4,28.7-18.4,28.4-23 M3.4-31C3.4-31,3.4-31,3.4-31
						C3.4-31,3.4-31,3.4-31C3.4-31,3.4-31,3.4-31 M-2.6-30.4c-0.3,0.8-0.2,4.8,1.2,3.6c3.6,2.7,2.6,7.9,5.2,11.4
						c3.5,5,15,4.4,16.5-10c2.1-0.8,3.9,0,5.9,0.1C24.2-10,49-3.6,50.9-22.2c0.3-2.4,1-2.2,3.2-2.9c0.4-0.1,0.8-0.2,1.3-0.3
						c2.8,0.9,0.5-7,23.9,1.5c0,1,0.7,1.5,1.4,1c4.5-6.1-17.4-7.8-22.2-7.6c-0.9-0.3-1.8-0.4-2.5-0.1c-3.8-3.1-22.1-4.8-27.6,1.2
						c-5.2,1.7-9.3-2.1-14-3.5C12.5-33.3-2.2-35.1-2.6-30.4"/>
				</g>
			</g>
		</g>
	</g>
</g>
<g>
	<path d="M28.8,48.1c-2.2,0.7-4.5,1.7-4.9,4.9c-0.2,1.2-0.5,2.5-2,2.2c-1.6-0.2-2-1.5-2-2.9c0.1-3.7,2.2-5.9,5.3-7.5
		c3.4-1.7,7-1.7,10,0.3c3.2,2.2,4.9,5.6,4.4,9.8c-0.4,3.2-1.7,5.9-4.1,8.1c-3.2,2.8-5.9,5.8-5.8,10.5c0.1,1.2-0.7,2.3-2.2,2.1
		c-1.6-0.2-2.3-1.3-2.2-2.7c0.5-3.9,1.2-7.7,4.4-10.5c1.3-1.1,2.7-2.2,3.5-3.5c1-1.7,2-3.7,2.2-5.6C35.5,49.4,32.8,47.3,28.8,48.1z"
		/>
	<path d="M30.2,81.5c-0.4,1.8-1.3,2.2-2.2,2.3c-1.6,0.2-2.6-1-2.7-2.6c-0.1-1.4,0.4-2.6,2-2.6C29.1,78.8,30.5,79.7,30.2,81.5z"/>
</g>
<g>
	<path d="M54.5,85.4c3.5,1.9,4.7,5.4,3.5,10.1c-1.3,5.1-5.5,6.1-10,5.7c-1.9-0.2-3.6-0.7-5.3,0.7c-1.1,0.8-2,4.9-3.4,4.9
		c-0.9-0.2-0.9-2.1-0.7-2.8c0.9-2.2,2.3-4.5,4.6-5.5c3-1.4,6,0.8,9.2-0.1c2.2-0.6,3.4-2,3.9-4.3c0.7-3.4-1.1-5.9-4.1-7.2
		c-1.3-0.5-2.3-0.6-3.7-0.2c-0.7,0.2-3.5,2.2-4.2,1.8c-0.1-0.1-0.2-0.2-0.4-0.3c-0.1-0.2-0.5-0.7,1-2.3C48,83,51.4,83.6,54.5,85.4
		L54.5,85.4z"/>
	<path d="M37.6,109.4c0.4,0.2,0.5,0.5,0.6,0.8c0.2,0.6,0,1.3-0.3,1.8c-0.5,0.7-1.3,1-1.9,0.7c-0.1,0-0.1-0.1-0.1-0.1
		c-0.7-0.4-0.8-1.6-0.3-2.5C36.1,109.3,37,109,37.6,109.4L37.6,109.4L37.6,109.4z"/>
</g>
<g>
	<path d="M61,63.2c0.5-0.7,1.1-1,1.9-1.1c0.7-0.1,1.3-0.1,1.9,0c1,0.1,1.9-0.1,2.9-0.4c1.6-0.6,2.4-1.9,2.4-3.7
		c0-0.9-0.3-1.6-0.8-2.1c-0.2-0.2-0.4-0.4-0.6-0.4c-1.1-0.4-2.2-0.2-3.1,0.8c-0.2,0.2-0.4,0.4-0.6,0.6c-0.3,0.3-0.7,0.4-1,0.1
		c-0.4-0.2-0.7-0.4-1.1-0.6c-0.1-0.1-0.2-0.1-0.2-0.2c-0.2-0.2-0.3-0.5-0.1-0.8c0.2-0.4,0.5-0.7,0.8-1c1-1,2.2-1.3,3.4-1.1
		c0,0,0,0,0,0c1,0.2,2,0.7,2.8,1.4c0.6,0.5,1.2,1.1,1.7,1.8c0.6,0.8,0.9,1.9,0.8,3c0,0.4-0.1,0.7-0.1,1c-0.2,1.4-1,2.2-2,2.8
		c-0.8,0.4-1.6,0.7-2.3,0.7c-0.5,0-0.9,0.1-1.4,0c-0.7-0.1-1.4,0.1-2.1,0.3c-0.2,0.1-0.4,0.2-0.5,0.3c-0.7,0.6-1.6,1.7-1.9,2.7
		c0,0.1-0.1,0.2-0.1,0.2c-0.1,0.3-0.4,0.4-0.5,0.4c-0.5-0.2-1.7-1-1.7-1.3C59.3,66.1,60.7,63.7,61,63.2z"/>
	<path d="M59.2,68.2c0.4,0.2,0.7,0.4,1,0.7c0.2,0.2,0.2,0.4,0.1,0.7c-0.2,0.5-0.6,1-1,1.4c-0.2,0.2-0.4,0.2-0.6,0.1
		c-0.4-0.2-0.8-0.4-1.2-0.7c-0.2-0.2-0.2-0.4-0.1-0.7c0.1-0.2,0.3-0.5,0.4-0.7c0.1-0.2,0.2-0.5,0.4-0.7c0.1-0.2,0.2-0.3,0.5-0.2
		C58.9,68.1,59.1,68.2,59.2,68.2z"/>
</g>
</svg>
