<?xml version="1.0"?>
<svg xmlns="http://www.w3.org/2000/svg" xmlns:xlink="http://www.w3.org/1999/xlink" xmlns:svgjs="http://svgjs.com/svgjs"
    version="1.1" x="0" y="0" viewBox="0 0 512 512" style="enable-background:new 0 0 512 512" xml:space="preserve"
    class="">
    <g transform="matrix(1,0,0,1,0,0)">
        <g xmlns="http://www.w3.org/2000/svg" id="Salad">
            <path
                d="m512 256c0 62.08-24.961 117.76-65.6 158.4-21.121 21.119-46.721 38.398-75.201 49.6-11.84 4.799-19.199 16.639-19.199 29.439v18.561h-192v-17.92c0-12.801-7.359-25.281-19.52-30.08-82.24-32.961-140.48-113.6-140.48-208z"
                fill="#171a1d" data-original="#4de600" style="" class="" />
            <path d="m416 128v32c17.673 0 32 14.327 32 32h32c0-35.346-28.654-64-64-64z" fill="#fccc3e"
                data-original="#c8fa64" style="" class="" />
            <path d="m320 0h-32c0 17.673-14.327 32-32 32v32c35.346 0 64-28.654 64-64z" fill="#fccc3e"
                data-original="#c8fa64" style="" class="" />
            <path
                d="m251.199 256c-16.318 11.84-27.199 29.76-27.199 50.559v9.922c0 33.6-24.641 64.318-58.24 67.199-19.84 1.92-38.08-5.439-50.879-18.561-11.842-11.519-18.881-27.519-18.881-45.119v-13.441c0-20.799-10.881-38.719-27.199-50.559z"
                fill="#7e661f" data-original="#00cc00" style="" class="" />
            <path
                d="m288 208c0 8.639-1.6 29.439-24.961 40.639-4.158 1.92-8.318 4.48-11.84 7.361h-182.398c-3.521-2.881-7.682-5.441-11.84-7.361-23.361-11.2-24.961-32-24.961-40.639 0-22.4 15.039-40.961 35.52-46.08-2.241-5.44-3.52-11.52-3.52-17.92 0-20.801 13.439-38.721 32-45.121v-1.92c0-26.559 15.68-51.84 40.641-60.799 44.798-16.32 87.359 16.959 87.359 59.84v2.879c18.561 6.4 32 24.32 32 45.121 0 6.4-1.279 12.48-3.52 17.92 20.481 5.119 35.52 23.68 35.52 46.08z"
                fill="#fccc3e" data-original="#c8fa64" style="" class="" />
            <path d="m448 256c0 35.199-28.801 64-64 64s-64-28.801-64-64z" fill="#7e661f" data-original="#00cc00"
                style="" class="" />
            <g fill="#c8fa64">
                <path d="m448 256h-128c0-35.201 28.801-64 64-64s64 28.799 64 64z" fill="#fccc3e" data-original="#c8fa64"
                    style="" class="" />
                <path
                    d="m365.255 141.255c-24.994 24.994-65.516 24.994-90.51 0l90.51-90.51c24.993 24.994 24.993 65.516 0 90.51z"
                    fill="#fccc3e" data-original="#c8fa64" style="" class="" />
            </g>
        </g>
    </g>
</svg>